<svg xmlns="http://www.w3.org/2000/svg" id="emoji" viewBox="0 0 72 72"><g id="color"><rect width="4.992" height="7.064" x="6.638" y="55.619" fill="#A57939" stroke="none"/><rect width="4.992" height="7.064" x="51.824" y="55.619" fill="#A57939" stroke="none"/><polygon fill="#92D3F5" stroke="none" points="12.537 36.874 12.537 28.489 51.475 28.489 51.475 36.763 54.2 33.939 58.243 33.939 58.243 55.298 53.321 55.298 11.218 55.298 5.456 55.298 5.456 33.939 9.372 33.939"/><rect width="41.878" height="5.32" x="10.867" y="49.978" fill="#61B2E4" stroke="none"/><rect width="20.692" height="3.305" x="45.931" y="43.299" fill="#61B2E4" stroke="none" transform="matrix(-1.836970e-16 1 -1 -1.836970e-16 101.2291 -11.3258)"/><rect width="20.692" height="3.445" x="-3.168" y="43.229" fill="#61B2E4" stroke="none" transform="matrix(-1.836970e-16 1 -1 -1.836970e-16 52.1301 37.7731)"/><path fill="#61B2E4" stroke="none" d="M11.0979,49.5367H9.2287c-0.2755,0-0.4989-0.297-0.4989-0.6634V35.4617 c0-0.5397,0.4589-0.8536,0.789-0.5397l1.8692,1.7769c0.131,0.1245,0.2088,0.3255,0.2088,0.5397v11.6346 C11.5968,49.2397,11.3734,49.5367,11.0979,49.5367z"/><path fill="#61B2E4" stroke="none" d="M52.6539,49.5366h1.7079c0.2518,0,0.4558-0.2965,0.4558-0.6623V35.4858 c0-0.5388-0.4192-0.8521-0.7209-0.5388l-1.7079,1.7739c-0.1197,0.1243-0.1907,0.325-0.1907,0.5388v11.6147 C52.198,49.2401,52.4021,49.5366,52.6539,49.5366z"/><polyline fill="#A57939" stroke="none" points="52.745 57.646 52.745 62.46 56.167 62.46 56.167 57.646"/><polyline fill="#A57939" stroke="none" points="7.444 57.605 7.444 62.46 10.867 62.46 10.867 57.605"/><path fill="#FCEA2B" stroke="none" d="M34.4559,9.5489v8.4648c0,0,6.2792,3.422,12.5584,0V9.5489C47.0144,9.5489,40.7351,5.7667,34.4559,9.5489z"/></g><g id="line"><polygon fill="none" stroke="#000" stroke-linejoin="round" stroke-miterlimit="10" stroke-width="2" points="12.537 36.874 12.537 28.489 32.125 28.489 51.475 28.489 51.475 36.763 54.2 33.939 58.243 33.939 58.243 55.298 53.321 55.298 11.218 55.298 5.456 55.298 5.456 33.939 9.372 33.939"/><polyline fill="none" stroke="#000" stroke-linecap="round" stroke-linejoin="round" stroke-miterlimit="10" stroke-width="2" points="7.444 58.608 7.444 62.46 10.867 62.46 10.867 58.608"/><polyline fill="none" stroke="#000" stroke-linecap="round" stroke-linejoin="round" stroke-miterlimit="10" stroke-width="2" points="52.745 58.608 52.745 62.46 56.167 62.46 56.167 58.608"/><path fill="none" stroke="#000" stroke-linecap="round" stroke-linejoin="round" stroke-miterlimit="10" stroke-width="2" d="M34.4559,9.5489v8.4648c0,0,6.2792,3.422,12.5584,0V9.5489C47.0144,9.5489,40.7351,5.7667,34.4559,9.5489z"/><polyline fill="none" stroke="#000" stroke-linejoin="round" stroke-miterlimit="10" stroke-width="2" points="31.85 28.489 12.623 28.489 12.623 44.416 51.482 44.416"/><polyline fill="none" stroke="#000" stroke-linejoin="round" stroke-miterlimit="10" stroke-width="2" points="53.6 54.604 53.6 49.537 51.487 49.537 51.487 44.416 51.475 36.763"/><polyline fill="none" stroke="#000" stroke-linejoin="round" stroke-miterlimit="10" stroke-width="2" points="12.623 44.416 12.623 49.537 9.919 49.537 9.919 54.604"/><line x1="12.623" x2="51.482" y1="49.537" y2="49.537" fill="none" stroke="#000" stroke-linejoin="round" stroke-miterlimit="10" stroke-width="2"/><path fill="none" stroke="#000" stroke-linecap="round" stroke-linejoin="round" stroke-miterlimit="10" stroke-width="2" d="M47.0144,13.7013c0,0,15.1825-2.8472,15.5626,19.7447c0.0985,5.8561,0,23.4277,0,23.4277"/><line x1="58.848" x2="66.394" y1="59.608" y2="59.608" fill="none" stroke="#000" stroke-linecap="round" stroke-linejoin="round" stroke-miterlimit="10" stroke-width="2"/></g></svg>