<svg xmlns="http://www.w3.org/2000/svg" xmlns:xlink="http://www.w3.org/1999/xlink" id="svg2457" width="16" height="16" version="1.0"><defs id="defs2459"><linearGradient id="linearGradient3260" x1="86.133" x2="84.639" y1="105.1" y2="20.895" gradientTransform="matrix(.096142 0 0 .096142 1.8469 1.943)" gradientUnits="userSpaceOnUse"><stop id="stop5130" offset="0" style="stop-color:#e5e5e5"/><stop id="stop5132" offset="1" style="stop-color:#ababab"/></linearGradient><linearGradient id="linearGradient3264" x1="21" x2="21" y2="16.005" gradientTransform="translate(-17.058)" gradientUnits="userSpaceOnUse"><stop id="stop3399" offset="0" style="stop-color:#aaa"/><stop id="stop3401" offset="1" style="stop-color:#8c8c8c"/></linearGradient><linearGradient id="linearGradient3262" x1="25" x2="25" y2="16" gradientTransform="translate(-17.058)" gradientUnits="userSpaceOnUse"><stop id="stop3311" offset="0" style="stop-color:#f6f6f6"/><stop id="stop3313" offset="1" style="stop-color:#ccc"/></linearGradient></defs><g id="layer1"><g id="g2479"><path id="path2426" d="m6.9375 0.5c-0.2484 0-0.4375 0.18908-0.4375 0.4375v1.25c-0.5539 0.1422-1.0512 0.3719-1.5312 0.6563l-0.9063-0.9063c-0.17566-0.17566-0.44934-0.17566-0.625 0l-1.5 1.5c-0.17566 0.17566-0.17566 0.44934 0 0.625l0.9063 0.9063c-0.2844 0.48-0.5141 0.9773-0.6563 1.5312h-1.25c-0.24842 0-0.4375 0.1891-0.4375 0.4375v2.125c1e-8 0.24842 0.18908 0.4375 0.4375 0.4375h1.25c0.1422 0.5539 0.37188 1.0512 0.65625 1.5312l-0.9063 0.907c-0.17566 0.17566-0.17566 0.44934 0 0.625l1.5 1.5c0.17566 0.17566 0.44934 0.17566 0.625 0l0.9063-0.907c0.48 0.285 0.9773 0.514 1.5312 0.656v1.25c1e-7 0.24842 0.18908 0.4375 0.4375 0.4375h2.125c0.2484 0 0.4375-0.189 0.4375-0.438v-1.25c0.5539-0.1422 1.0512-0.37188 1.5312-0.65625l0.90625 0.90625c0.17566 0.17566 0.44934 0.17566 0.625 0l1.5-1.5c0.17566-0.17566 0.17566-0.44934 0-0.625l-0.906-0.906c0.285-0.48 0.514-0.977 0.656-1.531h1.25c0.249 0 0.438-0.1891 0.438-0.4375v-2.125c0-0.2484-0.189-0.4375-0.438-0.4375h-1.25c-0.142-0.5539-0.371-1.0512-0.656-1.5312l0.906-0.9063c0.17566-0.17566 0.17566-0.44934 0-0.625l-1.5-1.5c-0.17566-0.17566-0.44934-0.17566-0.625 0l-0.906 0.9063c-0.48-0.2844-0.977-0.5141-1.531-0.6563v-1.25c0-0.24842-0.1891-0.4375-0.4375-0.4375h-2.125zm1.0625 5.5c1.104 0 2 0.896 2 2s-0.896 2-2 2-2-0.896-2-2 0.896-2 2-2z" style="stroke-linejoin:round;stroke:url(#linearGradient3264);display:block;fill:url(#linearGradient3262)"/><path id="path3315" d="m8 3.4651c-2.5006 0-4.5349 2.0343-4.5349 4.5349 0 2.501 2.0343 4.535 4.5349 4.535 2.501 0 4.535-2.034 4.535-4.535 0-2.5006-2.034-4.5349-4.535-4.5349zm0 2.093c1.3479 0 2.4419 1.094 2.4419 2.4419s-1.094 2.4419-2.4419 2.4419-2.4419-1.0941-2.4419-2.442 1.094-2.4419 2.4419-2.4419z" style="opacity:.05"/><path id="path28" d="m8 4c-2.2056 0-4 1.7944-4 4 0 2.206 1.7944 4 4 4 2.206 0 4-1.794 4-4 0-2.2056-1.794-4-4-4z" style="stroke:url(#linearGradient3260);fill:none"/></g></g></svg>