<svg xmlns="http://www.w3.org/2000/svg" xmlns:xlink="http://www.w3.org/1999/xlink" id="svg3334" width="16" height="16" version="1.0"><metadata id="metadata26"/><defs id="defs3336"><linearGradient id="linearGradient2519" x1="-51.786" x2="-51.786" y1="50.786" y2="2.906" gradientTransform="matrix(.25379 0 0 .30502 19.129 -.68549)" gradientUnits="userSpaceOnUse"><stop id="stop3106" offset="0" style="stop-color:#aaa"/><stop id="stop3108" offset="1" style="stop-color:#c8c8c8"/></linearGradient><linearGradient id="linearGradient2517" x1="25.132" x2="25.132" y1=".985" y2="47.013" gradientTransform="matrix(.31429 0 0 .32593 .45711 -.32225)" gradientUnits="userSpaceOnUse"><stop id="stop3602" offset="0" style="stop-color:#f4f4f4"/><stop id="stop3604" offset="1" style="stop-color:#dbdbdb"/></linearGradient><linearGradient id="linearGradient2511" x1="24" x2="24" y1="2" y2="46.017" gradientTransform="matrix(.27273 0 0 .30232 1.4546 .74420)" gradientUnits="userSpaceOnUse"><stop id="stop3213" offset="0" style="stop-color:#fff"/><stop id="stop3215" offset="1" style="stop-color:#fff;stop-opacity:0"/></linearGradient><linearGradient id="linearGradient2507" x1="32.892" x2="36.358" y1="8.059" y2="5.457" gradientTransform="matrix(.30920 0 0 .37669 .47615 .10718)" gradientUnits="userSpaceOnUse"><stop id="stop8591" offset="0" style="stop-color:#fefefe"/><stop id="stop8593" offset="1" style="stop-color:#cbcbcb"/></linearGradient><linearGradient id="linearGradient5530" x1="24.139" x2="24.139" y1="7.048" y2="39.268" gradientTransform="matrix(.20131 0 0 .19992 7.4133 7.3089)" gradientUnits="userSpaceOnUse"><stop id="stop3945" offset="0" style="stop-color:#fff"/><stop id="stop3947" offset="1" style="stop-color:#fff;stop-opacity:0"/></linearGradient><radialGradient id="radialGradient3149" cx="69.448" cy="51.695" r="31" gradientTransform="matrix(0 .25031 -.27259 0 25.245 -8.0767)" gradientUnits="userSpaceOnUse"><stop id="stop3244-5" offset="0" style="stop-color:#eef87e"/><stop id="stop3246-9" offset=".262" style="stop-color:#cde34f"/><stop id="stop3248-7" offset=".661" style="stop-color:#93b723"/><stop id="stop3250-8" offset="1" style="stop-color:#5a7e0d"/></radialGradient><linearGradient id="linearGradient3151" x1="72.422" x2="72.422" y1="124.76" y2="51.244" gradientTransform="matrix(.10408 0 0 .10482 2.8406 2.7754)" gradientUnits="userSpaceOnUse"><stop id="stop2492-3" offset="0" style="stop-color:#365f0e"/><stop id="stop2494-8" offset="1" style="stop-color:#84a718"/></linearGradient></defs><g id="layer1"><path id="path4160" d="m1.5 0.49997h8.4412c0.4418 0.16179 2.9388 2.1328 3.5588 3.4091v11.591h-12v-15z" style="stroke-linejoin:round;stroke:url(#linearGradient2519);stroke-width:.99992;fill:url(#linearGradient2517)"/><path id="path2435" d="m12.5 4.2151v10.285h-10v-13h7.2363" style="opacity:.6;stroke:url(#linearGradient2511);fill:none"/><path id="path3330" d="m9.2941 0.8409c0.8479 2.8039-0.2941 4.1932-0.2941 4.1932s1.893-1.2514 4.171-0.1023c1.943 0.9798 0.036-1.008-0.041-1.129-0.543-0.8475-2.423-2.6331-3.105-2.9302-0.0554-0.02424-0.4436-0.0317-0.7309-0.0317z" style="fill:#c1c1c1;fill-rule:evenodd"/><path id="path4474" d="m9.2941 0.8409c0.9879 0 0.7059 3.181 0.7059 3.181s2.272-0.5007 3.171 0.9099c0.163 0.2556 0.036-1.008-0.041-1.129-0.543-0.8475-2.423-2.6331-3.105-2.9302-0.0554-0.02424-0.4436-0.0317-0.7309-0.0317z" style="fill:url(#linearGradient2507);fill-rule:evenodd"/></g><path id="path2262" d="m10.5 10.5v-2.0073h3v2.0073h2.0073v3h-2.0073v2.0073h-3v-2.0073h-2.0073v-3h2.0073z" style="stroke-linejoin:round;stroke-width:.98543;color:#000;stroke:url(#linearGradient3151);stroke-linecap:round;fill:url(#radialGradient3149)"/><path id="path2272" d="m11.5 11.5v-2h1v2h2v1h-2v2.2925h-1v-2.2925h-2v-1h2z" style="opacity:.4;stroke:url(#linearGradient5530);fill:none"/></svg>