<svg xmlns="http://www.w3.org/2000/svg" xmlns:svg="http://www.w3.org/2000/svg" xmlns:xlink="http://www.w3.org/1999/xlink" id="svg3151" width="16" height="16" version="1.0"><defs id="defs3153"><linearGradient id="linearGradient3931"><stop id="stop3933" offset="0" style="stop-color:#8d8f8a;stop-opacity:1"/><stop id="stop3935" offset="1" style="stop-color:#c1c1c1;stop-opacity:1"/></linearGradient><linearGradient id="linearGradient4547" x1="-51.786" x2="-51.786" y1="50.786" y2="2.906" gradientTransform="matrix(0.3000362,0,0,0.3120485,22.157141,-0.3741276)" gradientUnits="userSpaceOnUse" xlink:href="#linearGradient3931"/><linearGradient id="linearGradient3600"><stop id="stop3602" offset="0" style="stop-color:#f4f4f4;stop-opacity:1"/><stop id="stop3604" offset="1" style="stop-color:#dbdbdb;stop-opacity:1"/></linearGradient><linearGradient id="linearGradient4545" x1="25.132" x2="25.132" y1="6.729" y2="47.013" gradientTransform="matrix(0.3715633,0,0,0.3334383,0.08247942,-0.0025171)" gradientUnits="userSpaceOnUse" xlink:href="#linearGradient3600"/><linearGradient id="linearGradient4559"><stop id="stop4561" offset="0" style="stop-color:silver;stop-opacity:1"/><stop id="stop4563" offset="1" style="stop-color:#949492;stop-opacity:1"/></linearGradient><linearGradient id="linearGradient8589"><stop id="stop8591" offset="0" style="stop-color:#fefefe;stop-opacity:1"/><stop id="stop8593" offset="1" style="stop-color:#cbcbcb;stop-opacity:1"/></linearGradient><linearGradient id="linearGradient2510" x1="15.373" x2="15.373" y1="5.047" y2="22.6" gradientTransform="matrix(0.3167426,0,0,0.310739,6.197645,1.9825705)" gradientUnits="userSpaceOnUse" xlink:href="#linearGradient3533"/><linearGradient id="linearGradient3533"><stop id="stop3535" offset="0" style="stop-color:#93b9dd;stop-opacity:1"/><stop id="stop3545" offset="1" style="stop-color:#6396cd;stop-opacity:1"/></linearGradient><linearGradient id="linearGradient4873"><stop id="stop4875" offset="0" style="stop-color:#fff;stop-opacity:1"/><stop id="stop4877" offset="1" style="stop-color:#fff;stop-opacity:0"/></linearGradient><linearGradient id="linearGradient2867" x1="21.629" x2="21.629" y1="2.11" y2="32.628" gradientTransform="matrix(0.3167426,0,0,0.310739,6.197645,1.9825705)" gradientUnits="userSpaceOnUse" xlink:href="#linearGradient4873"/><linearGradient id="linearGradient2885" x1="32.892" x2="36.358" y1="8.059" y2="5.457" gradientTransform="matrix(0.3707081,0,0,0.3548465,0.14334242,-0.04895116)" gradientUnits="userSpaceOnUse" xlink:href="#linearGradient8589"/><linearGradient id="linearGradient2887" x1="17.289" x2="15.18" y1="2.185" y2="5.821" gradientTransform="matrix(0.6844293,0,0,0.6820072,0.78684802,0.1569169)" gradientUnits="userSpaceOnUse" xlink:href="#linearGradient4559"/></defs><g id="layer1"><path id="rect2594" d="m 4.4976268,0.49762721 5.9176882,0 c 0.522766,0.16184396 4.353689,2.61362219 5.087059,3.89029659 l 0,11.1144502 -11.0047472,0 0,-15.00474679 z" style="fill:url(#linearGradient4545);fill-opacity:1;stroke:url(#linearGradient4547);stroke-width:.9952535;stroke-linecap:butt;stroke-linejoin:round;stroke-miterlimit:4;stroke-opacity:1;stroke-dasharray:none;stroke-dashoffset:0;display:inline"/><path id="path12038" d="M 10.5,0.4979205 C 10.5,2.041279 10.5,4.5 10.5,4.5 c 0,0 4.080603,0 5.00208,0 0,-1.9018156 -3.00574,-4.0020795 -5.00208,-4.0020795 z" style="fill:url(#linearGradient2885);fill-opacity:1;fill-rule:evenodd;stroke:url(#linearGradient2887);stroke-width:.9952535;stroke-linecap:butt;stroke-linejoin:round;stroke-miterlimit:4;stroke-opacity:1;stroke-dasharray:none;display:inline"/><g id="layer1-9" transform="translate(-7,4)"><path id="path3372" d="m 7.9909525,11.554187 c 3.3833855,-0.109576 2.7564735,-0.524099 2.5278895,-1.029604 -0.228584,-0.505505 -0.308819,-1.0950109 -0.326354,-1.7112158 0.02384,-1.6999234 2.06212,-3.7959351 3.548285,-3.7959351 0.784598,0 1.721174,-0.058719 3.461118,1.2392474 l -1.701894,1.3020196 4.997879,0 c 0,0 0,-5.0566994 0,-5.0566994 l -1.842622,1.829721 C 17.424536,3.1452458 16.001893,2.5235558 14.185511,2.5039421 10.490419,2.4640418 7.5434021,5.4170561 7.5025494,9.0260496 7.4923364,9.9282984 7.6663904,10.78141 7.9909525,11.554187 z" style="fill:url(#linearGradient2510);fill-opacity:1;stroke:#538ec6;stroke-width:1.00424814;stroke-linecap:butt;stroke-linejoin:round;stroke-miterlimit:4;stroke-opacity:1;stroke-dasharray:none"/><path id="path3370" d="m 19.499995,6.9704638 c 0,0 0,-2.1496387 0,-2.1496387 l -0.798744,0.8329834 c -1.175555,-1.2864028 -2.732001,-2.153933 -4.570884,-2.153933 -3.213254,0 -5.6303675,2.6084507 -5.6303675,5.5609426 0,0.8547717 0.1756802,1.6220989 0.4827333,2.2922799" style="opacity:.4;fill:none;stroke:url(#linearGradient2867);stroke-width:1.00424814;stroke-linecap:butt;stroke-linejoin:miter;stroke-miterlimit:4;stroke-opacity:1;stroke-dasharray:none"/></g></g></svg>