<svg xmlns="http://www.w3.org/2000/svg" xmlns:xlink="http://www.w3.org/1999/xlink" id="svg11300" width="16" height="16" version="1.0"><defs id="defs3"><linearGradient id="linearGradient3771"><stop id="stop3773" offset="0" style="stop-color:#fff"/><stop id="stop3775" offset="1" style="stop-color:#4d4d4d"/></linearGradient><linearGradient id="linearGradient2867" x1="21.919" x2="22.008" y1="21" y2="33" gradientTransform="matrix(.33544 0 0 .36882 -.050653 -.45805)" gradientUnits="userSpaceOnUse"><stop id="stop6830" offset="0" style="stop-color:#6e6e6e"/><stop id="stop6832" offset="1" style="stop-color:#1e1e1e"/></linearGradient><linearGradient id="linearGradient2869" x1="15.601" x2="15.335" y1="33" y2="21" gradientTransform="matrix(.33544 0 0 .36882 -.050653 -.45805)" gradientUnits="userSpaceOnUse"><stop id="stop2368" offset="0" style="stop-color:#2e3436"/><stop id="stop2370" offset="1" style="stop-color:#555753"/></linearGradient><radialGradient id="radialGradient2872" cx="3.759" cy="11.918" r="21" gradientTransform="matrix(.31702 .0053612 -.0040037 .19224 .43812 6.4967)" gradientUnits="userSpaceOnUse"><stop id="stop6844" offset="0" style="stop-color:#fff"/><stop id="stop6846" offset="1" style="stop-color:#fff;stop-opacity:0"/></radialGradient><linearGradient id="linearGradient2875" x1="11.519" x2="11.506" y1="20" y2="37" gradientTransform="matrix(.34884 0 0 0.375 -.37213 -.18762)" gradientUnits="userSpaceOnUse"><stop id="stop8591" offset="0" style="stop-color:#fefefe"/><stop id="stop8593" offset="1" style="stop-color:#bebebe"/></linearGradient><linearGradient id="linearGradient2877" x1="20.562" x2="20.279" y1="37" y2="20" gradientTransform="matrix(.34884 0 0 0.375 -.37213 -.18761)" gradientUnits="userSpaceOnUse"><stop id="stop6868" offset="0" style="stop-color:#828282"/><stop id="stop6870" offset="1" style="stop-color:#aaa"/></linearGradient><radialGradient id="radialGradient3777" cx="5" cy="5" r="4" gradientUnits="userSpaceOnUse" xlink:href="#linearGradient3771"/><linearGradient id="linearGradient3793" x1="10.243" x2="8.934" y1="7.905" y2="9.32" gradientUnits="userSpaceOnUse" xlink:href="#linearGradient3771"/></defs><rect id="rect2315" width="11" height="8" x="2.5" y="3.5" rx=".292" ry=".362" style="stroke-linejoin:round;stroke:#3c3d3a;stroke-linecap:round;stroke-width:1.0001;fill:#505050"/><g id="layer1" transform="matrix(.69407 0 0 .73254 2.444 .13360)"><path id="rect2594" d="m1.4976 0.49763 13.005 0.002374v15.002h-13.005v-15.005z" style="stroke-linejoin:round;stroke:#b5b6b2;stroke-width:1.3958;fill:#f4f4f4"/></g><path id="rect6333" d="m1.505 12.5c0.025372 0.51806-0.0657 1.0755 0.080353 1.5555 0.27398 0.60919 0.87867 0.40888 1.283 0.44374 0.0073 0.35961 0.029665 0.91477 0.34211 0.99126 3.3006 0.01952 6.2781 0.0028 9.579 0.0084 0.34064 0.01588 0.35312-0.58079 0.34211-0.95942 0.11125-0.09326 0.42744-0.01386 0.58107-0.04021 0.38015 0.0815 0.84497-0.32979 0.78162-1.0137v-0.98556h-12.989z" style="stroke:#3c3d3a;stroke-linecap:square;stroke-width:.99971;fill:#505050"/><path id="rect2313" d="m1.2252 7.5h13.55c0.40178 0 0.72523 0.34771 0.72523 0.77962v5.2204h-15v-5.2204c0-0.43191 0.32345-0.77962 0.72522-0.77962z" style="stroke-linejoin:round;stroke:url(#linearGradient2877);stroke-linecap:round;stroke-width:.99993;fill:url(#linearGradient2875)"/><path id="rect2374" d="m1.817 8.5h12.366c0.1645 0 0.31707 0.13748 0.31707 0.28572v3.7144h-13v-3.7144c0-0.14824 0.15257-0.28572 0.31708-0.28572z" style="opacity:.9;stroke:url(#radialGradient2872);stroke-linecap:round;stroke-width:.99991;fill:none"/><rect id="rect2319" width="9.057" height="4.057" x="3.471" y="7.471" style="stroke:url(#linearGradient2869);stroke-linecap:round;stroke-width:.94302;fill:url(#linearGradient2867)"/><path id="rect6331" d="m13 14v0.875c0 0.069-0.07 0.125-0.156 0.125h-9.6875c-0.086562 0-0.15625-0.05575-0.15625-0.125v-0.875h9.9998z" style="fill:#e6e6e6"/><path id="path3220" d="m7.2452 6.5361c-0.050332 0.0187-0.097798 0.044595-0.14056 0.076684l-0.8496 0.5352c-0.1292 0.0759-0.2199 0.199-0.2468 0.3351-0.0269 0.1362 0.0129 0.2708 0.1082 0.3667l5.1409 5.0157c0.08856 0.09167 0.21845 0.14038 0.35726 0.13396 0.13881-0.0064 0.27343-0.06734 0.37025-0.16757l0.88067-0.91068c0.18017-0.19038 0.17933-0.4658-0.002-0.62516l-5.1725-4.6402c-0.1092-0.1114-0.2782-0.1568-0.4463-0.1197z" style="fill:url(#linearGradient3793);fill-rule:evenodd"/><path id="path2447" d="m8.0563 5c0 1.688-1.3684 3.0563-3.0563 3.0563-1.688 0-3.0563-1.3684-3.0563-3.0563 0-1.688 1.3684-3.0563 3.0563-3.0563 1.688 0 3.0563 1.3684 3.0563 3.0563z" style="fill-opacity:.66667;fill-rule:evenodd;stroke:url(#radialGradient3777);stroke-width:1.8873;fill:#fff"/></svg>