<svg xmlns="http://www.w3.org/2000/svg" xmlns:svg="http://www.w3.org/2000/svg" xmlns:xlink="http://www.w3.org/1999/xlink" id="svg2836" width="16" height="16" version="1.0"><defs id="defs2838"><linearGradient id="linearGradient8589-7"><stop id="stop8591-5" offset="0" style="stop-color:#fefefe;stop-opacity:1"/><stop id="stop8593-8" offset="1" style="stop-color:#cbcbcb;stop-opacity:1"/></linearGradient><linearGradient id="linearGradient4559-4"><stop id="stop4561-9" offset="0" style="stop-color:silver;stop-opacity:1"/><stop id="stop4563-1" offset="1" style="stop-color:#949492;stop-opacity:1"/></linearGradient><linearGradient id="linearGradient3600-5"><stop id="stop3602-9" offset="0" style="stop-color:#f4f4f4;stop-opacity:1"/><stop id="stop3604-9" offset="1" style="stop-color:#dbdbdb;stop-opacity:1"/></linearGradient><linearGradient id="linearGradient3931-1"><stop id="stop3933-3" offset="0" style="stop-color:#8d8f8a;stop-opacity:1"/><stop id="stop3935-2" offset="1" style="stop-color:#c1c1c1;stop-opacity:1"/></linearGradient><linearGradient id="linearGradient3146" x1="32.892" x2="36.358" y1="8.059" y2="5.457" gradientTransform="matrix(0.3707081,0,0,0.3548465,-0.8566575,-0.04895116)" gradientUnits="userSpaceOnUse" xlink:href="#linearGradient8589-7"/><linearGradient id="linearGradient3148" x1="17.289" x2="15.18" y1="2.185" y2="5.821" gradientTransform="matrix(0.6844293,0,0,0.6820072,-0.2131519,0.1569169)" gradientUnits="userSpaceOnUse" xlink:href="#linearGradient4559-4"/><linearGradient id="linearGradient3151" x1="25.132" x2="25.132" y1="6.729" y2="47.013" gradientTransform="matrix(0.3715633,0,0,0.3334383,-0.9175205,-0.0025171)" gradientUnits="userSpaceOnUse" xlink:href="#linearGradient3600-5"/><linearGradient id="linearGradient3153" x1="-51.786" x2="-51.786" y1="50.786" y2="2.906" gradientTransform="matrix(0.3000362,0,0,0.3120485,21.157141,-0.3741276)" gradientUnits="userSpaceOnUse" xlink:href="#linearGradient3931-1"/></defs><path id="rect2594-4" d="m 1.4976268,0.49762721 c 2.980045,0 4.9376418,0 7.9176887,0 0.522766,0.16184396 4.3536885,2.61362219 5.0870585,3.89029659 0,3.907463 0,7.2069842 0,11.1144502 -4.334914,0 -8.6698338,0 -13.0047472,0 0,-5.001584 0,-10.0031638 0,-15.00474679 z" style="fill:url(#linearGradient3151);fill-opacity:1;stroke:url(#linearGradient3153);stroke-width:.9952535;stroke-linecap:butt;stroke-linejoin:round;stroke-miterlimit:4;stroke-opacity:1;stroke-dasharray:none;stroke-dashoffset:0;display:inline"/><rect id="rect2874" width="8" height="1" x="4" y="8" rx=".25" ry=".5" style="fill:#babdb6;fill-opacity:1;stroke:none;display:inline"/><rect id="rect2892" width="8" height="1" x="4" y="10" rx=".25" ry=".5" style="fill:#babdb6;fill-opacity:1;stroke:none;display:inline"/><rect id="rect1984" width="8" height="1" x="4" y="12" rx=".25" ry=".5" style="fill:#babdb6;fill-opacity:1;stroke:none;display:inline"/><rect id="rect1988" width="3" height="1" x="9" y="6" rx=".25" ry=".5" style="fill:#babdb6;fill-opacity:1;stroke:none;display:inline"/><rect id="rect2887" width="4" height="4" x="4" y="3" style="opacity:.8;fill:#babdb6;fill-opacity:1;stroke:none;display:inline"/><path id="rect1990" d="M 3,2 3,14 13,14 13,2 3,2 z" style="opacity:.3;fill:#cf8e72;fill-opacity:1;stroke:none;display:inline"/><path id="path12038-8" d="M 9.5,0.4979205 C 9.5,2.041279 9.5,4.5 9.5,4.5 c 0,0 4.080603,0 5.00208,0 0,-1.9018156 -3.00574,-4.0020795 -5.00208,-4.0020795 z" style="fill:url(#linearGradient3146);fill-opacity:1;fill-rule:evenodd;stroke:url(#linearGradient3148);stroke-width:.9952535;stroke-linecap:butt;stroke-linejoin:round;stroke-miterlimit:4;stroke-opacity:1;stroke-dasharray:none;display:inline"/><path id="rect3782" d="m 10.4,10.600001 0,1.457143 0.533333,0 0,0.485715 -0.533333,0 0,1.457143 2.666667,0 0,-1.457143 -0.516666,0 0,-0.485715 0.516666,0 0,-1.457143 -2.666667,0 z" style="fill:#fff;fill-opacity:1;stroke:none;display:inline"/><rect id="rect3789" width=".533" height="1.457" x="11.467" y="11.571" style="fill:#000;fill-opacity:1;stroke:none;display:inline"/><rect id="rect3791" width="1.6" height=".486" x="10.933" y="13.029" style="fill:#000;fill-opacity:1;stroke:none;display:inline"/><rect id="rect3795" width="1.6" height=".486" x="10.933" y="11.086" style="fill:#000;fill-opacity:1;stroke:none;display:inline"/></svg>