<svg xmlns="http://www.w3.org/2000/svg" xmlns:svg="http://www.w3.org/2000/svg" xmlns:xlink="http://www.w3.org/1999/xlink" id="svg2486" width="16" height="16" version="1.0"><defs id="defs2488"><linearGradient id="linearGradient2490"><stop id="stop2492" offset="0" style="stop-color:#791235;stop-opacity:1"/><stop id="stop2494" offset="1" style="stop-color:#dd3b27;stop-opacity:1"/></linearGradient><linearGradient id="linearGradient2484" x1="18.379" x2="18.379" y1="44.98" y2="3.082" gradientTransform="matrix(0.3685738,0,0,0.3685738,-0.84577,-0.8457701)" gradientUnits="userSpaceOnUse" xlink:href="#linearGradient2490"/><linearGradient id="linearGradient3242"><stop id="stop3244" offset="0" style="stop-color:#f8b17e;stop-opacity:1"/><stop id="stop3246" offset=".262" style="stop-color:#e35d4f;stop-opacity:1"/><stop id="stop3248" offset=".661" style="stop-color:#c6262e;stop-opacity:1"/><stop id="stop3250" offset="1" style="stop-color:#690b54;stop-opacity:1"/></linearGradient><radialGradient id="radialGradient2482" cx="23.896" cy="3.99" r="20.397" fx="23.896" fy="3.99" gradientTransform="matrix(0,0.8796593,-1.1611346,0,12.632931,-21.08413)" gradientUnits="userSpaceOnUse" xlink:href="#linearGradient3242"/><linearGradient id="linearGradient4873"><stop id="stop4875" offset="0" style="stop-color:#fff;stop-opacity:1"/><stop id="stop4877" offset="1" style="stop-color:#fff;stop-opacity:0"/></linearGradient><linearGradient id="linearGradient2479" x1="63.397" x2="63.397" y1="-12.489" y2="5.468" gradientTransform="matrix(0.7432394,0,0,0.7432224,-38.229789,10.609333)" gradientUnits="userSpaceOnUse" xlink:href="#linearGradient4873"/><linearGradient id="linearGradient2432" x1="7.832" x2="18.678" y1="10.936" y2="10.936" gradientTransform="scale(0.9325827,1.0722909)" gradientUnits="userSpaceOnUse"><stop id="stop2434" offset="0" style="stop-color:#fff;stop-opacity:1"/><stop id="stop2436" offset="1" style="stop-color:#fff;stop-opacity:0"/></linearGradient><linearGradient id="linearGradient2476" x1="7.832" x2="18.678" y1="10.936" y2="10.936" gradientTransform="matrix(0.6660814,0,0,0.7658657,-0.570797,-0.5707967)" gradientUnits="userSpaceOnUse" xlink:href="#linearGradient2432"/></defs><g id="layer1"><path id="path2555" d="M 8.0000011,0.50182787 C 3.862769,0.50182787 0.501827,3.862767 0.501827,7.9999996 C 0.501827,12.137233 3.862769,15.498175 8.0000011,15.498172 C 12.137232,15.498172 15.498177,12.137233 15.498173,7.9999996 C 15.498173,3.862767 12.137232,0.50182787 8.0000011,0.50182787 z M 8.0000011,2.9090753 C 10.812762,2.9090753 13.090926,5.1872403 13.090926,7.9999996 C 13.090926,9.1804926 12.681905,10.258088 12.008239,11.121359 L 5.558201,3.5310432 C 6.28288,3.1345282 7.115286,2.9090753 8.0000011,2.9090753 z M 3.922653,4.9592664 L 10.349659,12.515029 C 9.6467221,12.881248 8.8478301,13.090926 8.0000011,13.090926 C 5.187241,13.090926 2.909076,10.81276 2.909076,7.9999996 C 2.909076,6.8573167 3.287583,5.808591 3.922653,4.9592664 z" style="fill:url(#radialGradient2482);fill-opacity:1;stroke:url(#linearGradient2484);stroke-width:1.00365424;stroke-linecap:round;stroke-linejoin:round;stroke-miterlimit:4;stroke-dasharray:none;stroke-dashoffset:0;stroke-opacity:1"/><path id="path2463" d="M 14.500001,7.9997709 C 14.500001,11.589737 11.589636,14.5 8.0000818,14.5 C 4.4101984,14.5 1.5000001,11.589705 1.5000001,7.9997709 C 1.5000001,4.4099703 4.4101984,1.5000014 8.0000818,1.5000014 C 11.589636,1.5000014 14.500001,4.4099703 14.500001,7.9997709 L 14.500001,7.9997709 z" style="opacity:.4;fill:none;fill-opacity:1;fill-rule:nonzero;stroke:url(#linearGradient2479);stroke-width:1;stroke-miterlimit:4;stroke-dasharray:none;stroke-opacity:1"/><path id="path3270" d="M 4.8517868,4.2102172 L 11.235855,11.701806" style="opacity:.4;fill:none;fill-rule:evenodd;stroke:url(#linearGradient2476);stroke-width:1px;stroke-linecap:round;stroke-linejoin:miter;stroke-opacity:1"/></g></svg>