<svg xmlns="http://www.w3.org/2000/svg" xmlns:xlink="http://www.w3.org/1999/xlink" id="svg3004" width="48" height="48" version="1.1"><defs id="defs3006"><linearGradient id="linearGradient2927" x1="41.962" x2="15.048" y1="12.959" y2="12.959" gradientTransform="matrix(0 -1.1474 -1.2394 0 46.167 56.36)" gradientUnits="userSpaceOnUse"><stop id="stop2189" offset="0" style="stop-color:#fff;stop-opacity:.64341"/><stop id="stop2191" offset="1" style="stop-color:#fff;stop-opacity:0"/></linearGradient><linearGradient id="linearGradient2892-5" x1="31.27" x2="31.27" y1="10.82" y2="36.354" gradientTransform="matrix(-1.0504 0 0 .97675 47.801 3.6268)" gradientUnits="userSpaceOnUse"><stop id="stop4170-6-1" offset="0" style="stop-color:#ecb56c"/><stop id="stop4172-1-1" offset=".743" style="stop-color:#e86225"/><stop id="stop4174-5-5" offset="1" style="stop-color:#b07c0b;stop-opacity:0"/></linearGradient><linearGradient id="linearGradient2894-9" x1="35.998" x2="35.998" y1="11.411" y2="36.354" gradientTransform="matrix(-1.0504 0 0 .97675 47.801 3.6268)" gradientUnits="userSpaceOnUse"><stop id="stop4178-6-4" offset="0" style="stop-color:#cc7032"/><stop id="stop3223-8" offset=".739" style="stop-color:#bb2d13"/><stop id="stop4180-1-1" offset="1" style="stop-color:#a87300;stop-opacity:0"/></linearGradient><radialGradient id="radialGradient3002" cx="24.837" cy="36.421" r="15.645" gradientTransform="matrix(-1.4897 0 0 -.53739 61.001 58.127)" gradientUnits="userSpaceOnUse"><stop id="stop8664" offset="0"/><stop id="stop8666" offset="1" style="stop-opacity:0"/></radialGradient></defs><metadata id="metadata3009"/><g id="layer1"><path id="path8660" d="m0.69347 38.554a23.307 8.4074 0 1 1 46.613 0 23.307 8.4074 0 0 1 -46.613 0z" style="opacity:.14118;fill-rule:evenodd;fill:url(#radialGradient3002)"/><path id="path3701" d="m7.4675 47.483c42.33 1.293 36.032-33.199 14.014-32.999v-8.0363l-18 14.281 17.999 14.977v-8.2224c14.873-0.57371 18.832 19.74-14.014 19.999z" style="stroke-linejoin:round;stroke-width:.96392;color:#000;stroke:url(#linearGradient2894-9);stroke-miterlimit:7;display:block;fill:url(#linearGradient2892-5)"/><path id="path3703" d="m30.153 41.883c12.398-5.952 9.123-26.852-9.672-26.399v-6.7564l-15.321 12.007 15.321 12.673v-6.9238c15.694-0.34098 14.511 11.31 9.6715 15.4z" style="opacity:.69886;stroke:url(#linearGradient2927);stroke-miterlimit:7;stroke-width:.96392;display:block;fill:none"/></g></svg>