<svg xmlns="http://www.w3.org/2000/svg" xmlns:xlink="http://www.w3.org/1999/xlink" id="svg3150" width="16" height="16" version="1.1"><defs id="defs3152"><linearGradient id="linearGradient4547" x1="-53.179" x2="-52.184" y1="16.54" y2="5.393" gradientTransform="matrix(.30004 0 0 .31205 22.157 -.37413)" gradientUnits="userSpaceOnUse"><stop id="stop3933" offset="0" style="stop-color:#8d8f8a"/><stop id="stop3935" offset="1" style="stop-color:#c1c1c1"/></linearGradient><linearGradient id="linearGradient4545" x1="25.132" x2="25.132" y1="6.729" y2="47.013" gradientTransform="matrix(.37156 0 0 .33344 .082453 -.0025171)" gradientUnits="userSpaceOnUse"><stop id="stop3602" offset="0" style="stop-color:#f4f4f4"/><stop id="stop3604" offset="1" style="stop-color:#dbdbdb"/></linearGradient><linearGradient id="linearGradient2837" x1="19.509" x2="19.187" y1="48.171" y2="12.994" gradientTransform="matrix(.37156 0 0 .33344 -4.9175 -2.0022)" gradientUnits="userSpaceOnUse"><stop id="stop3668" offset="0" style="stop-color:#9b784b"/><stop id="stop3670" offset="1" style="stop-color:#c1a581"/></linearGradient><linearGradient id="linearGradient2902" x1="321.58" x2="321.58" y1="86.05" y2="96.245" gradientTransform="matrix(.41035 0 0 .51289 -125.45 -44.955)" gradientUnits="userSpaceOnUse"><stop id="stop3271" offset="0" style="stop-color:#787878"/><stop id="stop3273" offset=".344" style="stop-color:#bebebe"/><stop id="stop3275" offset=".373" style="stop-color:#c8c8c8"/><stop id="stop3277" offset=".49" style="stop-color:#e6e6e6"/><stop id="stop3279" offset="1" style="stop-color:#8c8c8c"/></linearGradient><linearGradient id="linearGradient3617" x1="4.068" x2="3.722" y1="14.06" y2="2.003" gradientUnits="userSpaceOnUse"><stop id="stop3613" offset="0" style="stop-color:#9d7d53"/><stop id="stop3615" offset="1" style="stop-color:#ad8757"/></linearGradient></defs><g id="layer1"><path id="path2835" d="m1.5 2.5003h9l0.0024 11.002-9.0047 0.0597 0.00235-11.062z" style="stroke-linejoin:round;stroke:url(#linearGradient3617);stroke-width:.99525;fill:url(#linearGradient2837)"/><path id="path3672" d="m6.0248 12.547-3.5122 0.0597 0.00235-9.1516l7.47 0.0598" style="opacity:.12;stroke-linejoin:round;stroke:#fefefd;stroke-width:.99525;fill:none"/><path id="rect2594" d="m6.5 4.5h9l0.0024 11.002-9.0047 0.0597 0.0027-11.062z" style="stroke-linejoin:round;stroke:url(#linearGradient4547);stroke-width:.99525;fill:url(#linearGradient4545)"/><path id="path2838" d="m8.5746 10.53h4.9254m-4.9254-2.0001 2.9254 0.0001m-2.9254 3.9999h3.9254m-3.9254-6.0001h4.9254" style="opacity:.2;stroke-linejoin:round;stroke:#000;stroke-linecap:square;stroke-width:.995;fill:none"/><path id="path4675" d="m4.5 0.5c0.5 1.5-0.1015 1.888-1 1.9873v1.0258l5-0.013072v-1c-1.2407 0.0062-1.5-0.5-1-2h-3z" style="stroke-linejoin:round;stroke-width:.99827;stroke-dashoffset:.5;stroke:#656565;stroke-linecap:round;enable-background:new;fill:url(#linearGradient2902)"/></g></svg>