<svg xmlns="http://www.w3.org/2000/svg" xmlns:svg="http://www.w3.org/2000/svg" xmlns:xlink="http://www.w3.org/1999/xlink" id="svg4002" width="16" height="16" version="1.0"><metadata id="metadata4542"/><defs id="defs4004"><linearGradient id="linearGradient3587-6-5-3"><stop id="stop4544" offset="0" style="stop-color:#fff;stop-opacity:1"/><stop style="stop-color:#c8c8c8;stop-opacity:1" id="stop4546" offset="1"/></linearGradient><linearGradient id="linearGradient3645" x1="7.999" x2="7.999" y1="1" y2="15" gradientTransform="translate(-0.99952,1)" gradientUnits="userSpaceOnUse" xlink:href="#linearGradient3587-6-5-3"/><linearGradient id="linearGradient3653" x1="9" x2="9" y1="3" y2="12" gradientTransform="translate(1.0005,1)" gradientUnits="userSpaceOnUse" xlink:href="#linearGradient3587-6-5-3"/><linearGradient id="linearGradient3587-6-5-3-3"><stop id="stop3589-9-2-2" offset="0"/><stop id="stop3591-7-4-73" offset="1" style="stop-color:#363636"/></linearGradient></defs><path id="path3655" d="m4.2192 5.0003-0.03125 0.03125c-0.13929 0.056469-0.26082 0.1559-0.34375 0.28125l-3 4.25c-0.18164 0.25295-0.18164 0.62205 0 0.875l3 4.25c0.082937 0.12535 0.20446 0.22478 0.34375 0.28125l0.03125 0.03125h0.125 0.15625c0.020821 0.000868 0.041679 0.000868 0.0625 0h9.9375 0.5v-0.5-9-0.5h-0.5-9.875-0.0625c-0.020821-0.0008682-0.041679-0.0008682-0.0625 0h-0.1875-0.09375zm0.9375 1h8.8438v8h-8.8125c-0.031927-0.06831-0.074226-0.13176-0.125-0.1875l-2.6875-3.8125 2.6875-3.8125c0.039807-0.057709 0.071467-0.12103 0.09375-0.1875z" style="opacity:.5;block-progression:tb;text-indent:0;color:#000;text-transform:none;fill:#000;fill-opacity:1"/><path id="path3657" d="m7.0036 7.0006h1c0.01037-0.00012 0.02079-0.00046 0.03125 0 0.25495 0.0112 0.50987 0.12858 0.6875 0.3125l1.2812 1.2812 1.3125-1.2812c0.26562-0.2305 0.44667-0.3055 0.6875-0.3125h1v1c0 0.28647-0.03434 0.55065-0.25 0.75l-1.2812 1.2813 1.25 1.25c0.18819 0.18817 0.28124 0.45345 0.28125 0.71875v1h-1c-0.2653-0.00001-0.53059-0.0931-0.71875-0.28125l-1.2812-1.2812-1.2812 1.2812c-0.18816 0.18819-0.45346 0.28125-0.71875 0.28125h-1v-1c-0.000003-0.26529 0.09306-0.53058 0.28125-0.71875l1.2812-1.25-1.2812-1.2813c-0.21074-0.19463-0.30316-0.46925-0.28125-0.75v-1z" style="opacity:.5;block-progression:tb;text-indent:0;color:#bebebe;enable-background:new;text-transform:none;fill:#000;fill-opacity:1"/><path id="path2836" d="m4.2192 4-0.03125 0.03125c-0.1393 0.0565-0.2608 0.1559-0.3438 0.2813l-2.7002 4.25c-0.18164 0.25295-0.18164 0.62205 0 0.875l2.7002 4.25c0.082937 0.12535 0.20446 0.22478 0.34375 0.28125l0.0312 0.031h0.125 0.15625c0.020821 0.000868 0.041679 0.000868 0.0625 0h9.9375 0.5v-0.5-9-0.5h-0.5-9.875-0.0625c-0.020821-0.0008682-0.041679-0.0008682-0.0625 0h-0.1875-0.09375zm0.9375 1h8.8438v8h-8.8125c-0.031927-0.06831-0.074226-0.13176-0.125-0.1875l-2.687-3.812 2.6875-3.8125c0.0398-0.0577 0.0714-0.121 0.0937-0.1875z" style="opacity:1;block-progression:tb;text-indent:0;color:#000;text-transform:none;fill:url(#linearGradient3645);fill-opacity:1"/><path id="path10839" d="m7.0036 6.0002h1c0.01037-0.00012 0.02079-0.00046 0.03125 0 0.25495 0.0112 0.50987 0.12858 0.6875 0.3125l1.2812 1.2812 1.3125-1.2812c0.26562-0.2305 0.44667-0.3055 0.6875-0.3125h1v1c0 0.28647-0.03434 0.55065-0.25 0.75l-1.2812 1.2812 1.25 1.25c0.18819 0.18817 0.28124 0.45345 0.28125 0.71875v1h-1c-0.2653-0.00001-0.53059-0.0931-0.71875-0.28125l-1.2812-1.2812-1.2813 1.2812c-0.18816 0.18819-0.45346 0.28125-0.71875 0.28125h-1v-1c-0.000003-0.26529 0.09306-0.53058 0.28125-0.71875l1.2811-1.2495-1.2812-1.2813c-0.21074-0.19463-0.30316-0.46925-0.28125-0.75v-1z" style="opacity:1;block-progression:tb;text-indent:0;color:#bebebe;enable-background:new;text-transform:none;fill:url(#linearGradient3653);fill-opacity:1"/></svg>