<svg xmlns="http://www.w3.org/2000/svg" xmlns:xlink="http://www.w3.org/1999/xlink" id="svg2422" width="48" height="48" version="1.1"><defs id="defs2424"><radialGradient id="radialGradient3827" cx="24.837" cy="36.421" r="15.645" gradientTransform="matrix(1 0 0 .53672 0 16.873)" gradientUnits="userSpaceOnUse"><stop id="stop8664" offset="0"/><stop id="stop8666" offset="1" style="stop-opacity:0"/></radialGradient><linearGradient id="linearGradient3768" x1="35.998" x2="35.998" y1="31.247" y2="36.354" gradientTransform="matrix(1.0576 0 0 .97907 .12288 3.3906)" gradientUnits="userSpaceOnUse"><stop id="stop4021" offset="0" style="stop-color:#688c35"/><stop id="stop4023" offset="1" style="stop-color:#9cc8f0;stop-opacity:0"/></linearGradient><linearGradient id="linearGradient3766" x1="31.27" x2="31.27" y1="10.82" y2="36.354" gradientTransform="matrix(1.0576 0 0 .97907 .12288 3.3906)" gradientUnits="userSpaceOnUse"><stop id="stop4011" offset="0" style="stop-color:#d7e866"/><stop id="stop4013" offset=".682" style="stop-color:#98b438"/><stop id="stop4015" offset=".953" style="stop-color:#a1ba49"/><stop id="stop4017" offset="1" style="stop-color:#fff;stop-opacity:0"/></linearGradient><linearGradient id="linearGradient3763" x1="19.503" x2="15.048" y1="12.959" y2="12.959" gradientTransform="matrix(0 -1.1474 1.2394 0 2.0083 56.36)" gradientUnits="userSpaceOnUse"><stop id="stop2189" offset="0" style="stop-color:#fff;stop-opacity:.64341"/><stop id="stop2191" offset="1" style="stop-color:#fff;stop-opacity:0"/></linearGradient></defs><g id="layer1"><path id="path8660" d="m40.482 36.421a15.645 8.3969 0 1 1 -31.289 0 15.645 8.3969 0 1 1 31.289 0z" transform="matrix(-1.4897 0 0 -1.0013 61.001 75.021)" style="opacity:.14118;fill-rule:evenodd;fill:url(#radialGradient3827)"/><path id="path3701" d="m40.708 47.483c-42.331 1.293-36.033-33.199-14.014-32.999v-8.0363l17.999 14.281-17.999 14.977v-8.2224c-14.873-0.574-18.832 19.74 14.014 19.999z" style="stroke-linejoin:round;stroke:url(#linearGradient3768);stroke-miterlimit:7;stroke-width:.96392;display:block;fill:url(#linearGradient3766)"/><path id="path3703" d="m18.022 41.883c-12.398-5.952-9.1228-26.852 9.672-26.399v-6.7564l15.321 12.007-15.321 12.673v-6.9238c-15.694-0.341-14.511 11.31-9.672 15.399z" style="opacity:.69886;stroke:url(#linearGradient3763);stroke-miterlimit:7;stroke-width:.96392;display:block;fill:none"/></g></svg>