<svg xmlns="http://www.w3.org/2000/svg" xmlns:svg="http://www.w3.org/2000/svg" xmlns:xlink="http://www.w3.org/1999/xlink" id="svg2868" width="16" height="16" version="1.1"><defs id="defs2870"><linearGradient id="linearGradient6372" x1="295.101" x2="296.94" y1="7.764" y2="10.711" gradientTransform="matrix(1.1218077,-0.27054212,0.35065353,1.3943807,-327.20211,75.198468)" gradientUnits="userSpaceOnUse" xlink:href="#XMLID_897_"/><linearGradient id="XMLID_897_" x1="292.972" x2="296.94" y1="4.759" y2="10.711" gradientUnits="userSpaceOnUse"><stop id="stop45093" offset="0" style="stop-color:#e8e8e5;stop-opacity:1"/><stop id="stop45095" offset="1" style="stop-color:#f0f0f0;stop-opacity:1"/></linearGradient><linearGradient id="linearGradient2922" x1="293.683" x2="296.94" y1="5.469" y2="10.711" gradientTransform="matrix(-1.1150516,-0.23157263,-0.31963526,1.3932756,341.24169,63.829342)" gradientUnits="userSpaceOnUse" xlink:href="#XMLID_897_"/></defs><g id="layer1"><path id="path12626" d="m 13.409802,0.4875624 c 0.05195,0.0349657 0.101526,0.0721198 0.151737,0.10825506 L 13.525579,3.6872329 C 13,6 10.52517,7.1719729 9.002489,9.1248981 8.7897013,9.1325491 8.5802943,8.8067309 8.3753082,8.7704285 7.943676,8.6949868 7.5218692,8.5245586 7.1568457,8.2583556 9.1820052,5.661498 11.364515,3.0584312 13.409802,0.4875624 z" style="fill:url(#linearGradient2922);stroke:#888a85;stroke-width:1;stroke-linecap:round;stroke-linejoin:round;stroke-miterlimit:4;stroke-opacity:1;stroke-dasharray:none"/><polygon id="polygon2981" points="296.956 12.3 297.6 13.385 298.867 14.719 299.268 13.673 298.254 11.96 296.956 12.3" transform="matrix(-0.9931683,-0.27984223,-0.35343052,1.2091849,307.45722,77.285544)" style="fill:#d1524c;fill-opacity:1;stroke:#973137;stroke-width:.87711573;stroke-linecap:round;stroke-linejoin:round;stroke-miterlimit:4;stroke-opacity:1;stroke-dasharray:none"/><path id="path12632" d="M 2.7119003,0.53777117 2.5607555,0.65198222 2.5386245,3.5101761 C 3,6 5.5227176,7.2293517 7.0998225,9.148154 7.3149334,9.1487886 8.1990536,9.4887755 8.405404,9.445373 8.839945,9.3549388 9.2626582,9.1690945 9.6260992,8.8885283 7.5285066,6.3370747 4.8292574,3.0623498 2.7119003,0.53777117 z" style="fill:url(#linearGradient6372);stroke:#888a85;stroke-width:1;stroke-linecap:round;stroke-linejoin:round;stroke-miterlimit:4;stroke-opacity:1;stroke-dasharray:none"/><path id="path12638" d="M 6.3371363,10.399417 C 7.0883737,11.395708 6.6911305,13.706021 5.6713028,15.008168 4.6513103,16.311236 3.3961902,16.113954 2.644119,15.120362 1.8924898,14.123915 2.1094578,12.26155 3.1293117,10.959432 4.1487382,9.6571296 5.584785,9.4077477 6.3371363,10.399417 z m -0.6488217,0.830652 c -0.3337621,-0.44123 -1.2188521,-0.28144 -1.9038379,0.59491 -0.6860455,0.87592 -0.8255661,2.025389 -0.4920113,2.465634 0.3331029,0.442774 1.0386653,0.728418 1.7236347,-0.147967 0.6864274,-0.875747 1.0059761,-2.471344 0.6722145,-2.912577 z" style="fill:#d1524c;fill-opacity:1;stroke:#973137;stroke-width:.54695249;stroke-miterlimit:4;stroke-opacity:1;stroke-dasharray:none"/><polygon id="polygon12640" points="297.6 13.385 298.867 14.719 299.268 13.673 298.254 11.96 296.956 12.3 296.956 12.3" transform="matrix(1.0020543,-0.24613441,0.31238391,1.2204333,-293.31665,67.335136)" style="fill:#d1524c;fill-opacity:1;stroke:#973137;stroke-width:.87711579;stroke-linecap:round;stroke-linejoin:round;stroke-miterlimit:4;stroke-opacity:1;stroke-dasharray:none"/><path id="path2828" d="m 9.585864,10.399417 c -0.7512378,0.996291 -0.3539947,3.306604 0.665833,4.608751 1.019992,1.303068 2.275112,1.105786 3.027184,0.112194 0.751629,-0.996447 0.534661,-2.858812 -0.485193,-4.16093 C 11.774262,9.6571296 10.338215,9.4077477 9.585864,10.399417 z m 0.648822,0.830652 c 0.333762,-0.44123 1.218852,-0.28144 1.903837,0.59491 0.686046,0.87592 0.825566,2.025389 0.492011,2.465634 -0.333102,0.442774 -1.038665,0.728418 -1.723634,-0.147967 -0.686428,-0.875747 -1.0059762,-2.471344 -0.672214,-2.912577 z" style="fill:#d1524c;fill-opacity:1;stroke:#973137;stroke-width:.54695243;stroke-miterlimit:4;stroke-opacity:1;stroke-dasharray:none"/></g></svg>