<svg xmlns="http://www.w3.org/2000/svg" xmlns:xlink="http://www.w3.org/1999/xlink" id="svg2405" width="16" height="16" version="1.1"><defs id="defs2407"><radialGradient id="radialGradient2977" cx="11.681" cy="19.554" r="8.245" gradientTransform="matrix(1.435 0 0 -1.3154 -2.3881 33.881)" gradientUnits="userSpaceOnUse"><stop id="stop2343" offset="0"/><stop id="stop2345" offset="1" style="stop-opacity:0"/></radialGradient><radialGradient id="radialGradient2980" cx="7.533" cy="24.203" r="8.245" gradientTransform="matrix(1.3606 0 0 1.2803 -8.3766 -23.015)" gradientUnits="userSpaceOnUse"><stop id="stop2301" offset="0" style="stop-color:#fff"/><stop id="stop2303" offset="1" style="stop-color:#fff;stop-opacity:0"/></radialGradient><linearGradient id="linearGradient2984" x1="64.388" x2="64.388" y1="65.124" y2="35.569" gradientTransform="matrix(.12351 0 0 .11667 .25065 .42212)" gradientUnits="userSpaceOnUse"><stop id="stop336" offset="0" style="stop-color:#fff"/><stop id="stop338" offset=".854" style="stop-color:#ff6200"/><stop id="stop340" offset="1" style="stop-color:#f25d00"/></linearGradient><linearGradient id="linearGradient2995" x1="19.645" x2="20.598" y1="30.945" y2="45.898" gradientTransform="matrix(.17946 0 0 .31589 3.0851 1.772)" gradientUnits="userSpaceOnUse"><stop id="stop3658" offset="0" style="stop-color:#c17d11"/><stop id="stop3660" offset="1" style="stop-color:#e9b96e"/></linearGradient><linearGradient id="linearGradient2998" x1="19.641" x2="17" y1="47.098" y2="39.408" gradientTransform="matrix(.33333 0 0 .33333 .33333 1.8166e-7)" gradientUnits="userSpaceOnUse"><stop id="stop3664" offset="0" style="stop-color:#c17d11"/><stop id="stop3666" offset="1" style="stop-color:#8f5902"/></linearGradient><linearGradient id="linearGradient3001" x1="24.067" x2="24.067" y1="25.746" y2="47.866" gradientTransform="matrix(.26484 0 0 .28061 1.5092 1.5357)" gradientUnits="userSpaceOnUse"><stop id="stop4875" offset="0" style="stop-color:#fff"/><stop id="stop4877" offset="1" style="stop-color:#fff;stop-opacity:0"/></linearGradient><linearGradient id="linearGradient3004" x1="29.816" x2="29.816" y1="46.024" y2="5.5" gradientTransform="matrix(.30544 0 0 .31733 .51885 .52207)" gradientUnits="userSpaceOnUse"><stop id="stop17" offset="0" style="stop-color:#ccc"/><stop id="stop19" offset=".983" style="stop-color:#fff"/></linearGradient></defs><path id="rect5117" d="m2.5 8.4553 0.0191 7.0447h10.981v-7.0447l-5.6506-6.0293-5.3494 6.0293z" style="stroke-linejoin:round;stroke:#757575;fill:url(#linearGradient3004)"/><path id="path7391" d="m3.5 8.551v5.949h9v-5.949l-4.6347-5.051-4.3653 5.051z" style="opacity:.4;stroke:url(#linearGradient3001);fill:none"/><path id="path3438" d="m8 10v5h-4v-5h4z" style="fill:url(#linearGradient2998);fill-rule:evenodd"/><path id="path3440" d="m7 11v4h-2v-4h2z" style="fill:url(#linearGradient2995);fill-rule:evenodd"/><rect id="rect3464" width="1.999" height="1.999" x="9.501" y="10.501" rx=".381" ry=".382" style="stroke:#757575;stroke-width:1.0012;fill:#b3dde5"/><path id="path3472" d="m8.2065 4.2583 6.6015 5.6572 0.173 0.1295 0.141-0.0568-0.13-0.251-0.097-0.0736-6.6885-5.1308-6.7631 5.1872-0.0829 0.0475-0.0756 0.2325 0.1512 0.043 0.1342-0.1017 6.6362-5.683z" style="fill:url(#linearGradient2984)"/><path id="path3474" d="m0.49903 7.1622v2.3611l1.4288 0.68016s5.9966-5.5541 6.0722-5.6103l6.0722 5.6154 1.4288-0.69987v-2.3431l-7.501-6.6658-7.501 6.6629z" style="stroke:#973137;stroke-width:.998;fill:#d1524c"/><path id="path3476" d="m1 7.2003 0.0268 2.0757 7.117-6.537-0.0233-1.789-7.1205 6.2503z" style="opacity:.40909;fill:url(#radialGradient2980)"/><path id="path3478" d="m8 2.8388-0.0000013-1.7891 7.1438 6.2835v2.0425l-7.1438-6.537z" style="opacity:.13636;fill:url(#radialGradient2977)"/></svg>