<svg xmlns="http://www.w3.org/2000/svg" xmlns:xlink="http://www.w3.org/1999/xlink" id="svg2478" width="16" height="16" version="1.0"><defs id="defs2480"><linearGradient id="linearGradient2518" x1="63.397" x2="63.397" y1="-12.489" y2="5.468" gradientTransform="matrix(.74324 0 0 .74322 -38.23 10.609)" gradientUnits="userSpaceOnUse"><stop id="stop4875" offset="0" style="stop-color:#fff"/><stop id="stop4877" offset="1" style="stop-color:#fff;stop-opacity:0"/></linearGradient><radialGradient id="radialGradient2521" cx="23.896" cy="3.99" r="20.397" gradientTransform="matrix(0 .87966 -1.1611 0 12.633 -21.084)" gradientUnits="userSpaceOnUse"><stop id="stop2778" offset="0" style="stop-color:#8badea"/><stop id="stop2780" offset=".262" style="stop-color:#6396cd"/><stop id="stop2782" offset=".661" style="stop-color:#3b7caf"/><stop id="stop2784" offset="1" style="stop-color:#194c70"/></radialGradient><linearGradient id="linearGradient2523" x1="18.379" x2="18.379" y1="44.98" y2="3.082" gradientTransform="matrix(.36857 0 0 .36857 -.84577 -.84577)" gradientUnits="userSpaceOnUse"><stop id="stop2788" offset="0" style="stop-color:#1f4b6a"/><stop id="stop2790" offset="1" style="stop-color:#4083c2"/></linearGradient></defs><g id="layer1"><path id="path2449" d="m8 0.50183c-4.1372 0-7.4982 3.361-7.4982 7.4982 0.00003 4.137 3.361 7.498 7.4982 7.498 4.137 0 7.498-3.361 7.498-7.498 0-4.1372-3.361-7.4982-7.498-7.4982z" style="stroke-linejoin:round;stroke:url(#linearGradient2523);stroke-linecap:round;stroke-width:1.0037;fill:url(#radialGradient2521)"/><path id="path2451" d="m14.5 7.9998c0 3.5902-2.91 6.5002-6.4999 6.5002s-6.5001-2.91-6.5001-6.5002c0-3.5898 2.9102-6.4998 6.5001-6.4998s6.4999 2.91 6.4999 6.4998z" style="opacity:.4;stroke:url(#linearGradient2518);fill:none"/><path id="text2315" d="m7.0864 3.7008c0.2165 2.1148 0.4645 4.2151 0.6488 6.3382h0.5881c0.1529-2.0388 0.3995-4.0654 0.5773-6.1017 0.0907-0.4822-0.1569-1.0546-0.666-1.1718-0.5031-0.1471-1.0653 0.2172-1.1322 0.7375-0.0111 0.0653-0.016 0.1316-0.016 0.1978zm-0.0642 8.5982c-0.0229 0.63 0.6698 1.123 1.2612 0.923 0.5728-0.146 0.8745-0.866 0.5809-1.377-0.2628-0.529-1.0334-0.704-1.4767-0.299-0.2241 0.184-0.3726 0.459-0.3654 0.753z" style="fill:#fff"/></g></svg>