<svg xmlns="http://www.w3.org/2000/svg" xmlns:xlink="http://www.w3.org/1999/xlink" id="svg3247" width="16" height="16" version="1.0"><defs id="defs3249"><linearGradient id="linearGradient2401" x1="24.104" x2="24.104" y1="15.181" y2="34.225" gradientTransform="matrix(.70965 0 0 .70537 -8.945 -8.2363)" gradientUnits="userSpaceOnUse"><stop id="stop2266" offset="0" style="stop-color:#d7e866"/><stop id="stop2268" offset="1" style="stop-color:#8cab2a"/></linearGradient><linearGradient id="linearGradient3190" x1="8" x2="8" y2="16.004" gradientUnits="userSpaceOnUse"><stop id="stop3182" offset="0" style="stop-color:#fff"/><stop id="stop3184" offset="1" style="stop-color:#fff;stop-opacity:0"/></linearGradient></defs><g id="layer1"><path id="path2262" d="m5.5 5.5v-5h5v5h5v5h-5v5h-5v-5h-5v-5h5z" style="stroke-linejoin:round;fill-rule:evenodd;stroke:#699536;fill:url(#linearGradient2401)"/><path id="path3188" d="m6.5 1.5v4c-0.00481 0.55028-0.44972 0.99519-1 1h-4v3h4c0.55028 0.00481 0.99519 0.44972 1 1v4h3v-4c0.00481-0.55028 0.44972-0.99519 1-1h4v-3h-4c-0.5503-0.0048-0.9952-0.4497-1-1v-4h-3z" style="opacity:.4;stroke:url(#linearGradient3190);fill:none"/></g></svg>