<svg xmlns="http://www.w3.org/2000/svg" xmlns:xlink="http://www.w3.org/1999/xlink" id="svg3414" width="16" height="16" version="1.0"><defs id="defs3416"><linearGradient id="linearGradient2627" x1="6.727" x2="40.938" y1="32.162" y2="32.162" gradientTransform="matrix(.31434 0 0 .37784 .45678 -2.0038)" gradientUnits="userSpaceOnUse"><stop id="stop2413" offset="0" style="stop-color:#fee7b1"/><stop id="stop2419" offset=".258" style="stop-color:#ebd4b4"/><stop id="stop2421" offset=".508" style="stop-color:#c8a775"/><stop id="stop2423" offset=".74" style="stop-color:#b0935b"/><stop id="stop2415" offset="1" style="stop-color:#fcebbf"/></linearGradient><linearGradient id="linearGradient2624" x1="10.907" x2="30.875" y1="25.002" y2="36.127" gradientTransform="matrix(.27248 0 0 .33859 1.4645 -.49541)" gradientUnits="userSpaceOnUse"><stop id="stop9847" offset="0" style="stop-color:#fff"/><stop id="stop9849" offset="1" style="stop-color:#fff;stop-opacity:.49485"/></linearGradient><linearGradient id="linearGradient2621" x1="24.875" x2="24.75" y1="21" y2="17" gradientTransform="matrix(.29412 0 0 .60561 .94118 -3.8915)" gradientUnits="userSpaceOnUse"><stop id="stop5883" offset="0" style="stop-color:#d6c8a7"/><stop id="stop5885" offset="1" style="stop-color:#d0bd99"/></linearGradient><linearGradient id="linearGradient2618" x1="21.942" x2="21.942" y1="21.551" y2="18.038" gradientTransform="matrix(.27273 0 0 .25159 1.4545 3.0971)" gradientUnits="userSpaceOnUse"><stop id="stop12073" offset="0" style="stop-color:#fff"/><stop id="stop12075" offset="1" style="stop-color:#fff;stop-opacity:0"/></linearGradient><linearGradient id="linearGradient2608" x1="10.651" x2="27.192" y1="2.914" y2="17.47" gradientTransform="matrix(.26064 0 0 .31489 1.7268 -1.0478)" gradientUnits="userSpaceOnUse"><stop id="stop10593" offset="0" style="stop-color:#cad0c6"/><stop id="stop10599" offset=".5" style="stop-color:#eaece9"/><stop id="stop10595" offset="1" style="stop-color:#c5cbc0"/></linearGradient><linearGradient id="linearGradient2631" x1="35.005" x2="33.004" y1="14.85" y2="14.85" gradientTransform="translate(1.6824 1.125)" gradientUnits="userSpaceOnUse" xlink:href="#linearGradient6227"/><filter id="filter6251" width="1.485" height="1.095" x="-.242" y="-.048" color-interpolation-filters="sRGB"><feGaussianBlur id="feGaussianBlur6253" stdDeviation=".244"/></filter><linearGradient id="linearGradient6227"><stop id="stop6229" offset="0"/><stop id="stop6231" offset="1" style="stop-opacity:0"/></linearGradient><linearGradient id="linearGradient2629" x1="32.128" x2="35.021" y1="13.789" y2="13.789" gradientTransform="translate(-19.533 1.7437)" gradientUnits="userSpaceOnUse" xlink:href="#linearGradient6227"/><filter id="filter3407" color-interpolation-filters="sRGB"><feGaussianBlur id="feGaussianBlur3409" stdDeviation=".827"/></filter></defs><g id="layer1"><path id="rect1314" d="m3.2025 5.8345c3.1691-0.48269 6.3719-0.40776 9.5949 0 0.38921 0 0.70255 0.34898 0.70255 0.78248v7.7986c0 0.43349-0.33356 0.71977-0.70255 0.78247-3.3415 0.40417-6.2065 0.40098-9.5949 0-0.4503-0.146-0.703-0.349-0.703-0.782v-7.7986c0-0.43349 0.31334-0.78248 0.70255-0.78248z" style="stroke-linejoin:round;fill-rule:evenodd;stroke:#a2824e;stroke-linecap:round;fill:url(#linearGradient2627)"/><path id="rect6903" d="m3.8514 6.5h8.2972c0.194 0 0.351 0.1776 0.351 0.3981v6.9306c0 0.22057-0.13915 0.3224-0.3514 0.39814-2.713 0.36464-5.3909 0.3638-8.2972 0-0.19468-0.07574-0.3514-0.17757-0.3514-0.39814v-6.9306c0-0.2208 0.1567-0.3984 0.3514-0.3984z" style="opacity:.38;stroke-linejoin:round;stroke-opacity:.60109;stroke:url(#linearGradient2624);stroke-linecap:round;fill:none"/><path id="rect1460" d="m3.4871 6.4039c3.0086-0.58976 6.0171-0.48472 9.0257 0 0.27 0 0.487 0.2895 0.487 0.6491v1.1242c0 0.35961-0.21727 0.64911-0.48715 0.64911-3.1396 0.27862-6.0283 0.17919-9.0257 0-0.2699 0-0.4872-0.2895-0.4872-0.6491v-1.1242c0-0.3596 0.2173-0.6491 0.4871-0.6491z" style="fill-rule:evenodd;fill:url(#linearGradient2621)"/><path id="rect1593" d="m3.8273 7.5h8.3453c0.18134 0 0.32733 0.1293 0.32733 0.2899v0.17498c0 0.1606-0.14599 0.2899-0.32733 0.2899-2.7558 0.31718-5.5428 0.33659-8.3453 0-0.18134 0-0.32733-0.1293-0.32733-0.2899v-0.17498c0-0.1606 0.14599-0.2899 0.32733-0.2899z" style="opacity:.6;stroke-linejoin:round;stroke:url(#linearGradient2618);stroke-linecap:round;fill:none"/><path id="path2086" d="m4.5 5.9305v-1.8058c0-2.4782 1.3703-3.6555 3.4873-3.6246 2.1285 0.030949 3.5134 1.1172 3.5134 3.6246v1.8846c0 0.61536-1.4311 0.69368-1.4311 0v-1.2548c0-0.62977 0.14816-2.6677-2.0674-2.6677-2.1973 0-2.0372 2.0505-2.0287 2.6652v1.1892c0 0.74144-1.4735 0.73829-1.4735-0.010604z" style="fill-rule:evenodd;stroke:#888a85;fill:url(#linearGradient2608)"/><path id="rect1345" d="m34.687 10.837 1.2639 0.125c0.92724 2.8227 0.73605 9.5104 0.73605 9.5104-0.0625 1.125-2.0312 0.53125-2 0v-9.6354z" transform="matrix(.26064 0 0 .31489 1.7268 -.44122)" style="opacity:.18235;filter:url(#filter6251);fill:url(#linearGradient2631);fill-rule:evenodd"/><path id="path6332" d="m12.927 11.544 0.37172 0.1692c1.7203 1.055 2.1735 9.3778 2.1735 9.3778-0.0625 1.125-2.0312 0.53125-2 0 0 0 0.37822-6.8706-0.54525-9.547z" transform="matrix(-.26064 0 0 .31489 9.3006 -.63604)" style="opacity:.14118;filter:url(#filter6251);fill:url(#linearGradient2629);fill-rule:evenodd"/><path id="path3411" d="m31.844 17.125c-0.003-2.113 0.006-4.2261-0.0047-6.339-0.034-1.6107-0.543-3.2452-1.612-4.4726-1.355-1.5843-3.379-2.4626-5.414-2.7423-0.487-0.0673-0.978-0.1013-1.469-0.1023-2.075 0.00558-4.1949 0.54216-5.9005 1.7543-1.1825 0.83615-2.1108 2.0716-2.4313 3.4977-0.22328 0.90342-0.15731 1.8388-0.19188 2.7603-0.03376 1.798-0.06753 3.5959-0.10129 5.3939" transform="matrix(.29233 0 0 .31489 .98301 .31291)" style="opacity:.62353;stroke-width:6.592;filter:url(#filter3407);stroke:#fff;stroke-linecap:round;fill:none"/></g></svg>