<svg xmlns="http://www.w3.org/2000/svg" xmlns:xlink="http://www.w3.org/1999/xlink" id="svg2" width="16" height="16" version="1.0"><defs id="defs4"><linearGradient id="linearGradient2466" x1="23.783" x2="23.904" y1="28.666" y2="16.007" gradientTransform="matrix(.46574 0 0 .48509 .82234 4.5318)" gradientUnits="userSpaceOnUse" xlink:href="#linearGradient3495-841-851-719"/><linearGradient id="linearGradient3495-841-851-719"><stop id="stop4120" offset="0" style="stop-color:#1e1e1e"/><stop id="stop4122" offset="1" style="stop-color:#1e1e1e;stop-opacity:0"/></linearGradient><linearGradient id="linearGradient2469" x1="23.929" x2="23.929" y1="30.773" y2="45.531" gradientTransform="matrix(.46574 0 0 .48509 .82234 -1.102)" gradientUnits="userSpaceOnUse" xlink:href="#linearGradient3495-841-851-719"/><linearGradient id="linearGradient2472" x1="25.577" x2="25.577" y1="15" y2="44.001" gradientTransform="matrix(.44186 0 0 .46429 1.3953 3.3038)" gradientUnits="userSpaceOnUse"><stop id="stop4102" offset="0" style="stop-color:#fff"/><stop id="stop4104" offset="1" style="stop-color:#fff;stop-opacity:0"/></linearGradient><linearGradient id="linearGradient2908" x1="20.053" x2="19.875" y1="8.163" y2="45.6" gradientTransform="matrix(.46667 0 0 .45455 0.8 4.273)" gradientUnits="userSpaceOnUse"><stop id="stop4498" offset="0" style="stop-color:#fff"/><stop id="stop4502" offset=".874" style="stop-color:#cfcfcf"/><stop id="stop4504" offset="1" style="stop-color:#999"/></linearGradient><linearGradient id="linearGradient2910" x1="28.103" x2="28.103" y1="45" y2="14.038" gradientTransform="matrix(.46667 0 0 .50064 0.8 2.2217)" gradientUnits="userSpaceOnUse"><stop id="stop4108" offset="0" style="stop-color:#727272"/><stop id="stop4110" offset="1" style="stop-color:#bebebe"/></linearGradient><linearGradient id="linearGradient2883" x1="23.929" x2="23.929" y1="30.773" y2="45.531" gradientTransform="matrix(-.46574 0 0 .48509 17.075 -1.0636)" gradientUnits="userSpaceOnUse" xlink:href="#linearGradient3495-841-851-719"/><linearGradient id="linearGradient3706" x1="24.097" x2="24.322" y1="9.596" y2="17.432" gradientTransform="matrix(.51157 0 0 .56818 -.17762 2.8473)" gradientUnits="userSpaceOnUse"><stop id="stop3232" offset="0" style="stop-color:#ffefa7"/><stop id="stop3234" offset="1" style="stop-color:#ffc64c"/></linearGradient><linearGradient id="linearGradient2863-0" x1="18.779" x2="18.893" y1="7.455" y2="10.693" gradientTransform="matrix(.99998 0 0 1 -6.9015 4.4075)" gradientUnits="userSpaceOnUse"><stop id="stop2252" offset="0" style="stop-color:#ffc349"/><stop id="stop2256" offset="1" style="stop-color:#ff921a"/></linearGradient></defs><g id="layer1" transform="translate(-1 -7)"><rect id="rect2396" width="14.965" height="9.951" x="1.507" y="11.507" rx=".467" ry=".455" style="stroke-linejoin:round;fill-rule:evenodd;stroke:url(#linearGradient2910);stroke-linecap:square;fill:url(#linearGradient2908)"/><rect id="rect3331" width="12.915" height="7.986" x="2.5" y="12.472" rx=".036" ry=".035" style="opacity:.4;stroke:url(#linearGradient2472);stroke-linecap:square;fill:none"/><path id="path3341" d="m6.6224 17.013-4.5002 3.4556" style="opacity:.5;stroke:url(#linearGradient2469);fill:none"/><path id="path3493" d="m1.8492 12.146 7.1508 6.1361 6.9372-6.1361" style="opacity:.5;stroke:url(#linearGradient2466);fill:none"/><path id="path2881" d="m11.274 17.052 4.5002 3.4556" style="opacity:.5;stroke:url(#linearGradient2883);fill:none"/><path id="path2876" d="m11.922 7.3934c0.32577-0.00534 1.029 2.8023 1.2957 2.9895 0.26669 0.18717 3.1461-0.10621 3.2519 0.20197 0.10575 0.30818-2.3472 1.8446-2.4428 2.1561-0.09559 0.31148 1.0732 2.9594 0.81281 3.1552-0.26042 0.19581-2.4796-1.6623-2.8054-1.657-0.32577 0.0053-2.4828 1.9352-2.7495 1.748-0.2666-0.187 0.8153-2.872 0.7091-3.18-0.1058-0.308-2.6077-1.763-2.5121-2.075 0.0956-0.311 2.9833-0.112 3.2433-0.308 0.261-0.196 0.871-3.0252 1.197-3.0306z" style="stroke-linejoin:round;stroke:#c08607;stroke-width:.99999;fill:url(#linearGradient2863-0)"/><path id="path1322" d="m12.016 8.4629-1.2169 2.5784-1.8491 0.08302 1.6876 1.4998c1.0803-0.78479 1.5071-1.4001 2.5419 0.03717l2.1957-1.703-2.2136 0.08302-1.1456-2.5784z" style="fill:url(#linearGradient3706)"/></g></svg>