<svg xmlns="http://www.w3.org/2000/svg" xmlns:svg="http://www.w3.org/2000/svg" xmlns:xlink="http://www.w3.org/1999/xlink" id="svg2" width="16" height="16" version="1.0"><metadata id="metadata48"/><defs id="defs4"><linearGradient id="linearGradient6945"><stop id="stop6947" offset="0" style="stop-color:#fff;stop-opacity:1"/><stop id="stop6949" offset="1" style="stop-color:#d3d7cf;stop-opacity:1"/></linearGradient><linearGradient id="linearGradient6934"><stop id="stop6936" offset="0" style="stop-color:#babdb6;stop-opacity:1"/><stop id="stop6938" offset="1" style="stop-color:#babdb6;stop-opacity:0"/></linearGradient><linearGradient id="linearGradient3785" x1="14.125" x2="14.125" y1="79.813" y2="75.499" gradientTransform="matrix(0.40674985,0,0,0.52,0.3233829,-22.84)" gradientUnits="userSpaceOnUse" xlink:href="#linearGradient6934"/><linearGradient id="linearGradient3629" x1="11.887" x2="11.437" y1="-.383" y2="18.462" gradientTransform="matrix(0.99999081,0,0,1.0000002,-1.9999726,-3.0000016)" gradientUnits="userSpaceOnUse" xlink:href="#linearGradient6945"/><linearGradient id="linearGradient3600-9"><stop id="stop3602-7" offset="0" style="stop-color:#f4f4f4;stop-opacity:1"/><stop id="stop3604-8" offset="1" style="stop-color:#dbdbdb;stop-opacity:1"/></linearGradient><linearGradient id="linearGradient3931-1"><stop id="stop3933-4" offset="0" style="stop-color:#8d8f8a;stop-opacity:1"/><stop id="stop3935-3" offset="1" style="stop-color:#c1c1c1;stop-opacity:1"/></linearGradient><linearGradient id="linearGradient3743" x1="25.132" x2="25.132" y1="6.729" y2="47.013" gradientTransform="matrix(0.3716348,0,0,0.33178208,-0.91993369,1.0162832)" gradientUnits="userSpaceOnUse" xlink:href="#linearGradient3600-9"/><linearGradient id="linearGradient3745" x1="-53.179" x2="-52.184" y1="16.54" y2="5.393" gradientTransform="matrix(0.30009393,0,0,0.31049853,21.158976,0.6465184)" gradientUnits="userSpaceOnUse" xlink:href="#linearGradient3931-1"/><radialGradient id="radialGradient3780" cx="13.107" cy="61.48" r="18.5" fx="13.107" fy="61.48" gradientTransform="matrix(1.3366501,0,0,-1.1735875,-13.336515,88.583462)" gradientUnits="userSpaceOnUse" xlink:href="#linearGradient6945"/><radialGradient id="radialGradient3786" cx="13.107" cy="61.48" r="18.5" fx="13.107" fy="61.48" gradientTransform="matrix(0,1.3366375,1.1735985,0,-67.789386,-8.9358054)" gradientUnits="userSpaceOnUse" xlink:href="#linearGradient6945"/><radialGradient id="radialGradient3792" cx="13.107" cy="61.48" r="18.5" fx="13.107" fy="61.48" gradientTransform="matrix(0,1.3366375,-1.1735985,0,87.642669,-8.9358054)" gradientUnits="userSpaceOnUse" xlink:href="#linearGradient6945"/><linearGradient id="linearGradient4884" x1="31.341" x2="31.341" y1="235.032" y2="224.676" gradientUnits="userSpaceOnUse" xlink:href="#linearGradient4022-2-0"/><linearGradient id="linearGradient4022-2-0"><stop id="stop4024-2-8" offset="0" style="stop-color:#555753;stop-opacity:1"/><stop id="stop4026-8-3" offset="1" style="stop-color:#babdb6;stop-opacity:1"/></linearGradient><linearGradient id="linearGradient3655" x1="33" x2="33" y1="234" y2="220" gradientUnits="userSpaceOnUse" xlink:href="#linearGradient2603"/><linearGradient id="linearGradient2603"><stop id="stop2605" offset="0" style="stop-color:#bb2b12;stop-opacity:1"/><stop id="stop2607" offset="1" style="stop-color:#cd7233;stop-opacity:1"/></linearGradient><linearGradient id="linearGradient3663" x1="30" x2="30" y1="221" y2="234" gradientUnits="userSpaceOnUse" xlink:href="#linearGradient2610"/><linearGradient id="linearGradient2610"><stop id="stop2612" offset="0" style="stop-color:#f0c178;stop-opacity:1"/><stop id="stop2614" offset=".5" style="stop-color:#e18941;stop-opacity:1"/><stop id="stop2616" offset="1" style="stop-color:#ec4f18;stop-opacity:1"/></linearGradient></defs><path id="path2847" d="M 14.999834,5.9999995 10.499876,1.8749986 C 8.9905,0.7406087 9.086743,0.4512894 7.999899,0.4999983 l 3.65e-5,0 C 6.8309321,0.4929583 6.7558154,0.8251157 5.4999585,1.8749986 L 0.99999986,5.9999995 c -0.293722,0.2500001 -0.5000021,0.855785 -0.5000021,1.297724 l 0,7.4045545 c 0,0.441939 0.3611029,0.797724 0.80964794,0.797724 l 13.3805293,0 c 0.448545,0 0.809648,-0.355785 0.809648,-0.797724 l 0,-7.4045545 c 0,-0.441939 -0.13595,-1.0442028 -0.499989,-1.297724 z" style="opacity:.3;fill:url(#linearGradient3629);fill-opacity:1;stroke:#575856;stroke-width:.99999553px;stroke-linecap:butt;stroke-linejoin:miter;stroke-opacity:1"/><g id="layer1" transform="matrix(0.99999081,0,0,1.0000002,-1.9999726,-3.0000016)"><path id="path11060" d="m 9.7031733,4.5000013 c -0.1282668,0 -6.2031801,5.0713082 -6.2031801,5.1939987 l 0,7.611708 c 0,0.122689 0.074858,0.194293 0.203125,0.194294 l 12.5937128,0 c 0.128266,0 0.203125,-0.0716 0.203125,-0.194294 l 0,-7.611708 c 0,-0.1226897 -6.074915,-5.1939987 -6.20318,-5.1939987 l -0.5936027,0 z" style="opacity:.7;fill:none;stroke:#fff;stroke-width:.99999982;stroke-linecap:butt;stroke-linejoin:round;stroke-miterlimit:4;stroke-opacity:.99236642;stroke-dasharray:none;stroke-dashoffset:.69999992"/><path id="rect2594" d="m 5.4988239,5.4964328 9.0024621,3e-6 0.0024,10.9477262 -9.0072121,0.0594 0.00235,-11.0071292 z" style="opacity:.5;fill:url(#linearGradient3743);fill-opacity:1;stroke:url(#linearGradient3745);stroke-width:.99287415;stroke-linecap:butt;stroke-linejoin:round;stroke-miterlimit:4;stroke-opacity:1;stroke-dasharray:none;stroke-dashoffset:0;display:inline"/><path id="path3784" d="m 8.802665,11.827481 -5.7521205,5.572901 0,-7.9998331 5.7521205,5.5729021" style="opacity:.5;fill:url(#radialGradient3786);fill-opacity:1;fill-rule:evenodd;stroke:none"/><path id="path2853" d="m 7.5738501,11.496336 4.9263449,0 M 7.5738501,9.5062699 10.499811,9.5064184 m -2.9259609,3.9799836 3.9261529,0 m -3.9261529,-5.970198 4.9263449,5e-7" style="opacity:.2;fill:none;stroke:#000;stroke-width:.99262124;stroke-linecap:square;stroke-linejoin:round;stroke-miterlimit:4;stroke-opacity:1;stroke-dasharray:none;stroke-dashoffset:0;display:inline"/><path id="path3788" d="m 11.050618,11.827481 5.752119,5.572901 0,-7.9998331 -5.752119,5.5729021" style="opacity:.5;fill:url(#radialGradient3792);fill-opacity:1;fill-rule:evenodd;stroke:none"/><path id="path11056" d="M 7.2720043,13.431709 2.7638822,9.0600003 7.0396078,13.719315 m 5.9981992,0.07746 4.19826,-4.7367787 -4.508122,4.4491737" style="opacity:.7;fill:#060606;fill-opacity:1;fill-rule:evenodd;stroke:none"/><path id="path11054" d="m 2.9999933,17.744197 5.5729536,-5.352198 2.8540551,0 5.572954,5.352198 -13.9999627,0 z" style="opacity:.5;fill:url(#radialGradient3780);fill-opacity:1;fill-rule:evenodd;stroke:none"/><path id="path11050" d="m 2.7638822,18.240001 5.3602426,-5.89875 3.7516992,0 5.360243,5.89875 -5.360243,-5.37875 -3.7516992,0 -5.3602426,5.37875 z" style="opacity:.7;fill:#2a2b29;fill-opacity:1;fill-rule:evenodd;stroke:none"/><path id="path11052" d="m 2.7638822,18.25118 5.3602426,-4.85875 3.7516992,0 5.360243,4.85875 -5.360243,-5.37875 -3.7516992,0 -5.3602426,5.37875 z" style="opacity:.4;fill:#fff;fill-opacity:1;fill-rule:evenodd;stroke:none"/><path id="path11062" d="m 2.7638822,16.111252 0,1.657499 c 0,0.270923 0.1566967,0.47125 0.3686171,0.47125 l 13.4990117,0 c 0.211921,0 0.368618,-0.200327 0.368618,-0.47125 l 0,-1.657499 -14.2362468,0 z" style="opacity:.55597014;fill:url(#linearGradient3785);fill-opacity:1;fill-rule:evenodd;stroke:none"/></g><g id="g4946" transform="translate(-24.5,-216)" style="display:inline;enable-background:new"><g id="g4873" style="stroke:url(#linearGradient4884)"><path id="path2932-4" d="m 30,223 -3.5,3.5 3.5,3.5" style="fill:none;stroke:url(#linearGradient3655);stroke-width:4;stroke-linecap:round;stroke-linejoin:round;stroke-miterlimit:4;stroke-opacity:1;stroke-dasharray:none;display:inline;enable-background:new"/></g><path id="path2932" d="m 30,223 -3.5,3.5 3.5,3.5" style="fill:none;stroke:url(#linearGradient3663);stroke-width:2;stroke-linecap:round;stroke-linejoin:round;stroke-miterlimit:4;stroke-opacity:1;stroke-dasharray:none"/><path id="path2932-0" d="M 29.600553,222.89945 26.5,226 l 3.609778,3.60978" style="opacity:.4;fill:none;stroke:#fff;stroke-width:1;stroke-linecap:round;stroke-linejoin:miter;stroke-miterlimit:4;stroke-opacity:1;stroke-dasharray:none;display:inline;enable-background:new"/></g></svg>