<svg xmlns="http://www.w3.org/2000/svg" xmlns:xlink="http://www.w3.org/1999/xlink" id="svg3068" width="16" height="16" version="1.1"><defs id="defs3070"><linearGradient id="linearGradient2990" x1="63.397" x2="63.397" y1="-12.489" y2="5.468" gradientTransform="matrix(.74324 0 0 .74322 -38.23 10.609)" gradientUnits="userSpaceOnUse"><stop id="stop4875" offset="0" style="stop-color:#fff"/><stop id="stop4877" offset="1" style="stop-color:#fff;stop-opacity:0"/></linearGradient><linearGradient id="linearGradient2916" x1="3.697" x2="19.821" y1="16.723" y2="16.723" gradientTransform="matrix(0 .98490 -.91917 0 19.373 -3.5809)" gradientUnits="userSpaceOnUse"><stop id="stop3358" offset="0" style="stop-color:gray"/><stop id="stop3360" offset=".546" style="stop-color:#6d6d6d"/><stop id="stop3362" offset="1" style="stop-color:#4f5053"/></linearGradient><linearGradient id="linearGradient2918" x1="56.323" x2="72.452" y1="25.883" y2="25.883" gradientTransform="matrix(0 .98490 -.91917 0 30.32 -55.412)" gradientUnits="userSpaceOnUse"><stop id="stop3229" offset="0" style="stop-color:#4d4d4d"/><stop id="stop3231" offset="1" style="stop-color:#333"/></linearGradient><linearGradient id="linearGradient3064" x1="17.61" x2="17.61" y1="1" y2="23.063" gradientTransform="matrix(.71417 0 0 .71423 -.56941 -.57080)" gradientUnits="userSpaceOnUse"><stop id="stop3270-6" offset="0" style="stop-color:#fff"/><stop id="stop3272-6" offset="1" style="stop-color:#cdcdcd"/></linearGradient><linearGradient id="linearGradient3066" x1="12.963" x2="12.963" y1="2.684" y2="45.326" gradientTransform="matrix(.36854 0 0 .36857 -.84436 -.84577)" gradientUnits="userSpaceOnUse"><stop id="stop5026-7" offset="0" style="stop-color:gray"/><stop id="stop5028-4" offset=".873" style="stop-color:#6d6d6d"/><stop id="stop5030-1" offset="1" style="stop-color:#4f5053"/></linearGradient></defs><metadata id="metadata3073"/><g id="layer1"><path id="path2555" d="m8 0.50183c-4.1372 0-7.4982 3.3609-7.4982 7.4982 0 4.1372 3.3609 7.4982 7.4982 7.4982 4.1372 0 7.4982-3.3609 7.4982-7.4982 0-4.1372-3.3609-7.4982-7.4982-7.4982z" style="stroke-linejoin:round;stroke-width:1.0037;color:#000;stroke:url(#linearGradient3066);stroke-linecap:round;fill:url(#linearGradient3064)"/><path id="path3314" d="m7.5008 15.5a6.999 7.4994 0 1 1 0 -14.999v7.4994z" style="stroke:url(#linearGradient2918);fill:url(#linearGradient2916)"/><path id="path2463" d="m14.5 7.9998c0 3.5902-2.91 6.5002-6.4999 6.5002s-6.5001-2.91-6.5001-6.5002c0-3.5898 2.9102-6.4998 6.5001-6.4998 3.5896 0 6.4999 2.91 6.4999 6.4998z" style="opacity:.4;stroke:url(#linearGradient2990);fill:none"/></g></svg>