<svg xmlns="http://www.w3.org/2000/svg" xmlns:svg="http://www.w3.org/2000/svg" xmlns:xlink="http://www.w3.org/1999/xlink" id="svg3774" width="16" height="16" version="1.1"><defs id="defs3776"><linearGradient id="linearGradient3738" x1="17.83" x2="20" y1="15.502" y2="13.546" gradientTransform="translate(-9.0004368,-3.0039745)" gradientUnits="userSpaceOnUse" xlink:href="#linearGradient3260"/><linearGradient id="linearGradient3260"><stop id="stop3262" offset="0" style="stop-color:#ec4f18;stop-opacity:1"/><stop id="stop3264" offset="1" style="stop-color:#cc9110;stop-opacity:0"/></linearGradient><linearGradient id="linearGradient3740" x1="17.406" x2="20.067" y1="17.275" y2="13.987" gradientTransform="translate(-7.9999998,-3.0039745)" gradientUnits="userSpaceOnUse" xlink:href="#linearGradient3267"/><linearGradient id="linearGradient3267"><stop id="stop3269" offset="0" style="stop-color:#be3918;stop-opacity:1"/><stop id="stop3271" offset="1" style="stop-color:#bf8407;stop-opacity:0"/></linearGradient><linearGradient id="linearGradient3697" x1="16" x2="16" y1="7.23" y2="17.102" gradientTransform="matrix(-1,0,0,1,25.000437,-4)" gradientUnits="userSpaceOnUse" xlink:href="#linearGradient7012-661-145-733-759-865-745-661-970-94"/><linearGradient id="linearGradient7012-661-145-733-759-865-745-661-970-94"><stop id="stop3618" offset="0" style="stop-color:#f0c178;stop-opacity:1"/><stop id="stop2449" offset=".5" style="stop-color:#e18941;stop-opacity:1"/><stop id="stop3620" offset="1" style="stop-color:#ec4f18;stop-opacity:1"/></linearGradient><linearGradient id="linearGradient3705" x1="4.593" x2="4.593" y1="16.048" y2="0" gradientUnits="userSpaceOnUse" xlink:href="#linearGradient3390-178-986-453"/><linearGradient id="linearGradient3390-178-986-453"><stop id="stop3624" offset="0" style="stop-color:#bb2b12;stop-opacity:1"/><stop id="stop3626" offset="1" style="stop-color:#cd7233;stop-opacity:1"/></linearGradient></defs><g id="layer1"><path id="path2823" d="m 8.5001645,9.9996706 a 0.4998353,0.4998353 0 0 1 -0.9996706,0 0.4998353,0.4998353 0 1 1 0.9996706,0 z" style="fill:none;stroke:#c1441e;stroke-width:1.00032938;stroke-miterlimit:4;stroke-opacity:1;stroke-dasharray:none"/><path id="path2849" d="M 8.5,12.5 C 6.112676,12.507 4.526501,11.091132 4.5,9 4.4735,6.908868 6.152582,5.4248827 8.5,5.5 l 0,2 4,-3.5 c 0,0 -4,-3.5 -4,-3.5 l 0,2 C 4.563381,2.450702 1.443662,5.0633803 1.5,9 c 0.05633,3.936217 3.274648,6.661972 7,6.5" style="fill:url(#linearGradient3697);fill-opacity:1;stroke:url(#linearGradient3705);stroke-width:1;stroke-linecap:butt;stroke-linejoin:round;stroke-miterlimit:4;stroke-opacity:1;stroke-dasharray:none"/><path id="path3605" d="M 7.5000002,12.500001 C 9.7910792,12.561041 11.473499,11.136454 11.5,9.4960255 l 3,0.004 c 0,3.5422535 -3.669014,6.1016585 -6.9999998,5.9960255" style="fill:url(#linearGradient3738);fill-opacity:1;stroke:url(#linearGradient3740);stroke-width:1;stroke-linecap:butt;stroke-linejoin:round;stroke-miterlimit:4;stroke-opacity:1;stroke-dasharray:none"/></g></svg>