<svg xmlns="http://www.w3.org/2000/svg" xmlns:xlink="http://www.w3.org/1999/xlink" id="svg2528" width="16" height="16" version="1.0"><defs id="defs2530"><linearGradient id="linearGradient2406" x1="63.397" x2="63.397" y1="-12.489" y2="5.468" gradientTransform="matrix(.74324 0 0 .74322 -38.23 10.609)" gradientUnits="userSpaceOnUse"><stop id="stop4875" offset="0" style="stop-color:#fff"/><stop id="stop4877" offset="1" style="stop-color:#fff;stop-opacity:0"/></linearGradient><linearGradient id="linearGradient2411" x1="18.379" x2="18.379" y1="44.98" y2="3.082" gradientTransform="matrix(.36857 0 0 .36857 -.84577 -.84577)" gradientUnits="userSpaceOnUse"><stop id="stop2492" offset="0" style="stop-color:#791235"/><stop id="stop2494" offset="1" style="stop-color:#dd3b27"/></linearGradient><radialGradient id="radialGradient2409" cx="23.896" cy="3.99" r="20.397" gradientTransform="matrix(0 .87966 -1.1611 0 12.633 -21.084)" gradientUnits="userSpaceOnUse"><stop id="stop3244" offset="0" style="stop-color:#f8b17e"/><stop id="stop3246" offset=".262" style="stop-color:#e35d4f"/><stop id="stop3248" offset=".661" style="stop-color:#c6262e"/><stop id="stop3250" offset="1" style="stop-color:#690b54"/></radialGradient></defs><g id="layer1"><g id="g2552"><path id="path2555" d="m8 0.50183c-4.1372 0-7.4982 3.361-7.4982 7.4982 0.00003 4.137 3.361 7.498 7.4982 7.498 4.137 0 7.498-3.361 7.498-7.498 0-4.1372-3.361-7.4982-7.498-7.4982z" style="stroke-linejoin:round;stroke:url(#linearGradient2411);stroke-linecap:round;stroke-width:1.0037;fill:url(#radialGradient2409)"/><path id="path2463" d="m14.5 7.9998c0 3.5902-2.91 6.5002-6.4999 6.5002s-6.5001-2.91-6.5001-6.5002c0-3.5898 2.9102-6.4998 6.5001-6.4998s6.4999 2.91 6.4999 6.4998z" style="opacity:.4;stroke:url(#linearGradient2406);fill:none"/></g><path id="path3243" d="m5.2625 3l-1.2625 1.2625 2.6047 2.5913c0.08 0.081 0.08 0.2114 0 0.2924l-2.6047 2.5913 1.2625 1.2625 2.5913-2.5914c0.081-0.08 0.2114-0.08 0.2924 0l2.5918 2.5914 1.262-1.2625-2.5914-2.5913c-0.08-0.081-0.08-0.2114 0-0.2924l2.5914-2.5913-1.262-1.2625-2.5918 2.5914c-0.081 0.08-0.2114 0.08-0.2924 0l-2.5913-2.5914z" style="opacity:.2;fill-rule:evenodd"/><path id="path3256" d="m5.2625 4l-1.2625 1.2625 2.6047 2.5913c0.08 0.081 0.08 0.2114 0 0.2924l-2.6047 2.5918 1.2625 1.262 2.5913-2.5914c0.081-0.08 0.2114-0.08 0.2924 0l2.5918 2.5914 1.262-1.262-2.5914-2.5918c-0.08-0.081-0.08-0.2114 0-0.2924l2.5914-2.5913-1.262-1.2625-2.5918 2.5914c-0.081 0.08-0.2114 0.08-0.2924 0l-2.5913-2.5914z" style="fill:#fff;fill-rule:evenodd"/></g></svg>