<svg xmlns="http://www.w3.org/2000/svg" xmlns:svg="http://www.w3.org/2000/svg" id="svg2" width="16" height="16" version="1.1" viewBox="0 0 12.8 12.8"><g id="surface0" transform="matrix(-1,0,0,1,16.479645,-32.218434)"><path id="path5" d="m 7.679645,35.418434 2.4,-2.4" style="fill:none;stroke:#ff0f0f;stroke-width:1.60000002;stroke-linecap:round;stroke-linejoin:round;stroke-miterlimit:10;stroke-opacity:1;stroke-dasharray:none"/><path id="path2819" d="m 9.569245,35.431572 c 0.229007,-0.01825 1.018652,-0.01649 1.246342,0.0039 0.22769,0.02036 0.453565,0.05933 0.675313,0.115491 0.443494,0.112321 0.870478,0.293418 1.262447,0.532028 0.783939,0.477219 1.427821,1.184487 1.783622,2.031688 0.711601,1.694402 0.216683,3.819479 -1.170175,5.025426 -1.386858,1.205926 -3.5600735,1.400935 -5.1392356,0.460924 -0.7679068,-0.457104 -1.3669,-1.165669 -1.733796,-1.979338" style="fill:none;stroke:#ff0f0f;stroke-width:1.60000002;stroke-linecap:round;stroke-miterlimit:4;stroke-opacity:1;stroke-dasharray:none"/><path id="path2820" d="m 7.679645,35.418434 2.4,2.4" style="fill:none;stroke:#ff0f0f;stroke-width:1.60000002;stroke-linecap:round;stroke-linejoin:round;stroke-miterlimit:10;stroke-opacity:1;stroke-dasharray:none"/></g></svg>