<svg xmlns="http://www.w3.org/2000/svg" xmlns:xlink="http://www.w3.org/1999/xlink" id="svg2" width="16" height="16" version="1.0"><defs id="defs4"><linearGradient id="linearGradient6281" x1="130.5" x2="130.5" y1="38.961" y2="50.746" gradientTransform="matrix(1.0808 0 0 1.0808 -133.04 -41.133)" gradientUnits="userSpaceOnUse"><stop id="stop4224" offset="0" style="stop-color:#fff"/><stop id="stop4226" offset="1" style="stop-color:#fff;stop-opacity:0"/></linearGradient><linearGradient id="linearGradient6288" x1="129.58" x2="129.59" y1="37.031" y2="53.91" gradientTransform="matrix(1.0683 0 0 1.0683 -131.39 -39.56)" gradientUnits="userSpaceOnUse"><stop id="stop7432" offset="0" style="stop-color:#f8b17e"/><stop id="stop7434" offset=".42" style="stop-color:#e35d4f"/><stop id="stop7436" offset=".725" style="stop-color:#c6262e"/><stop id="stop7438" offset="1" style="stop-color:#690b54"/></linearGradient><linearGradient id="linearGradient6290" x1="132.4" x2="132.34" y1="52.008" y2="35.275" gradientTransform="matrix(1.0683 0 0 1.0683 -131.39 -39.56)" gradientUnits="userSpaceOnUse"><stop id="stop2492" offset="0" style="stop-color:#791235"/><stop id="stop2494" offset="1" style="stop-color:#dd3b27"/></linearGradient></defs><g id="g5500"><rect id="rect6520" width="15" height="15" x=".5" y=".5" rx="1.5" ry="1.5" style="stroke-linejoin:round;stroke:url(#linearGradient6290);stroke-linecap:round;stroke-miterlimit:10;stroke-width:1.0003;fill:url(#linearGradient6288)"/><path id="path7267" d="m5.6086 4.4176c-3.9643 2.1122-2.1716 8.1649 2.3605 8.1649 4.4849 0 6.495-5.7382 2.3605-8.1649" style="stroke:#c6272f;stroke-linecap:round;stroke-width:2.835;fill:none"/><path id="path10579" d="m5.6096 4.3956c-4.0436 2.1334-2.2151 8.2467 2.4077 8.2467 4.5747 0 6.625-5.7957 2.4077-8.2467" style="stroke:#fafafa;stroke-linecap:round;stroke-miterlimit:0;stroke-width:1.552;fill:none"/><path id="path7269" d="m8.0226 6.9556-0.0002-3.5112" style="stroke-width:2.8888;stroke:#c6272f;stroke-linecap:round;stroke-miterlimit:0;enable-background:new;fill:none"/><path id="path10581" d="m8.0224 6.8976-0.000198-3.3952" style="stroke:#fafafa;stroke-linecap:round;stroke-miterlimit:0;stroke-width:1.805;fill:none"/><rect id="rect7328" width="13" height="13" x="1.5" y="1.5" rx=".5" ry=".5" style="opacity:.4;stroke-linejoin:round;stroke:url(#linearGradient6281);stroke-linecap:round;stroke-miterlimit:10;stroke-width:1.0002;fill:none"/></g></svg>