<svg xmlns="http://www.w3.org/2000/svg" xmlns:xlink="http://www.w3.org/1999/xlink" id="svg3309" width="16" height="16" version="1.0"><defs id="defs3311"><linearGradient id="linearGradient4994" x1="20.909" x2="20.909" y1="42.125" y2="17.249" gradientTransform="matrix(.33356 0 0 .33166 -.010771 -1.5974)" gradientUnits="userSpaceOnUse"><stop id="stop260" offset="0" style="stop-color:#fafafa"/><stop id="stop261" offset="1" style="stop-color:#bbb"/></linearGradient><linearGradient id="linearGradient4990" x1="26.538" x2="29.268" y1="22.765" y2="45.015" gradientTransform="matrix(.31865 0 0 .25604 .34343 1.1475)" gradientUnits="userSpaceOnUse"><stop id="stop2202" offset="0" style="stop-color:#fff"/><stop id="stop2204" offset="1" style="stop-color:#fff;stop-opacity:0"/></linearGradient><linearGradient id="linearGradient8046" x1="24.104" x2="24.104" y1="15.169" y2="32.485" gradientTransform="matrix(.32803 0 0 .32571 4.445 4.532)" gradientUnits="userSpaceOnUse"><stop id="stop3947" offset="0" style="stop-color:#ecf5b6"/><stop id="stop3949" offset="1" style="stop-color:#9fba48"/></linearGradient></defs><g id="layer1"><path id="rect1316" d="m2.6853 3.5616c-0.64058 0-1.1652 0.53036-1.1652 1.1742v4.7838h-0.84288c-0.10089 0-0.17721 0.086185-0.17721 0.18656v2.7939c0 0.10038 0.076316 0 0.17721 0h14.635c0.10089 0 0.18763 0.10038 0.18763 0v-2.7939c0-0.10038-0.08674-0.18656-0.18763-0.18656h-0.8158l0.0028-4.7332c0-0.93518-0.39992-1.2821-1.3043-1.2821l-10.51 0.0574z" style="stroke-linejoin:round;fill-rule:evenodd;stroke:#888a85;fill:url(#linearGradient4994)"/><path id="path1331" d="m3 4.5317c-0.3434 0-0.48817 0.0189-0.48817 0.42187l0.076 5.5464h-1.0878v1h13v-1h-0.9997v-5.2581c0-0.5403-0.021-0.7023-0.5-0.7026l-10-0.0076z" style="opacity:.4;stroke:url(#linearGradient4990);stroke-linecap:round;fill:none"/><path id="path2262" d="m10.5 10.5v-1.9925h3v1.9925h1.9925v3h-1.9925v1.9925h-3v-1.9925h-1.9925v-3h1.9925z" style="stroke-linejoin:round;fill-rule:evenodd;stroke:#699536;stroke-width:1.0151;fill:url(#linearGradient8046)"/></g></svg>