<svg xmlns="http://www.w3.org/2000/svg" xmlns:xlink="http://www.w3.org/1999/xlink" id="svg3279" width="16" height="16" version="1.1"><defs id="defs3281"><linearGradient id="linearGradient5530-1" x1="24.139" x2="24.139" y1="7.048" y2="39.268" gradientTransform="matrix(.20131 0 0 .19992 7.4133 7.3089)" gradientUnits="userSpaceOnUse"><stop id="stop3945-6" offset="0" style="stop-color:#fff"/><stop id="stop3947-2" offset="1" style="stop-color:#fff;stop-opacity:0"/></linearGradient><radialGradient id="radialGradient3170" cx="69.448" cy="51.695" r="31" gradientTransform="matrix(0 .25031 -.27259 0 25.245 -8.0767)" gradientUnits="userSpaceOnUse"><stop id="stop3244-5-1" offset="0" style="stop-color:#eef87e"/><stop id="stop3246-9-7" offset=".262" style="stop-color:#cde34f"/><stop id="stop3248-7-0" offset=".661" style="stop-color:#93b723"/><stop id="stop3250-8-4" offset="1" style="stop-color:#5a7e0d"/></radialGradient><linearGradient id="linearGradient3172" x1="72.422" x2="72.422" y1="124.76" y2="51.244" gradientTransform="matrix(.10408 0 0 .10482 2.8406 2.7754)" gradientUnits="userSpaceOnUse"><stop id="stop2492-3-8" offset="0" style="stop-color:#365f0e"/><stop id="stop2494-8-5" offset="1" style="stop-color:#84a718"/></linearGradient><linearGradient id="linearGradient2863" x1="17.592" x2="17.592" y1="7" y2="-.025" gradientTransform="matrix(.66667 0 0 .66667 -.66667 .66620)" gradientUnits="userSpaceOnUse" xlink:href="#linearGradient3251"/><linearGradient id="linearGradient3251"><stop id="stop3253" offset="0" style="stop-color:#917f6e"/><stop id="stop3255" offset="1" style="stop-color:#cbbaa9"/></linearGradient><linearGradient id="linearGradient2866" x1="40.007" x2="40.007" y1="12.911" y2="7.093" gradientTransform="matrix(.82997 0 0 .83015 -23.704 -2.8029)" gradientUnits="userSpaceOnUse" xlink:href="#linearGradient4222"/><linearGradient id="linearGradient4222"><stop id="stop4224" offset="0" style="stop-color:#fff"/><stop id="stop4226" offset="1" style="stop-color:#fff;stop-opacity:0"/></linearGradient><linearGradient id="linearGradient2869" x1="38.382" x2="38.382" y1="5.906" y2="22.698" gradientTransform="matrix(.63241 0 0 .63366 -16.069 -.55940)" gradientUnits="userSpaceOnUse" xlink:href="#linearGradient4222"/><linearGradient id="linearGradient3275" x1="39.906" x2="39.906" y1="6.123" y2="24.034" gradientTransform="matrix(.66667 0 0 .66667 -17.167 -1.1668)" gradientUnits="userSpaceOnUse"><stop id="stop3245" offset="0" style="stop-color:#fff4e9"/><stop id="stop3247" offset="1" style="stop-color:#e7d6c5"/></linearGradient><linearGradient id="linearGradient3277" x1="32.016" x2="32.016" y1="24.011" y2="5" gradientTransform="matrix(.66667 0 0 .66667 -17.167 -1.1668)" gradientUnits="userSpaceOnUse" xlink:href="#linearGradient3251"/></defs><metadata id="metadata3284"/><g id="layer1"><path id="path2463" d="m6.8334 2.4999-6.3334 6.5626 5.5 5.4375 6.5-6.3334v-5.6667h-5.6667zm2.6667 2c0.552 0 1 0.448 1 1s-0.448 1-1 1-1-0.448-1-1 0.448-1 1-1z" style="fill-rule:evenodd;stroke:url(#linearGradient3277);stroke-width:1px;fill:url(#linearGradient3275)"/><path id="path3265" d="m7.3435 3.5s-5.4056 5.4976-5.4056 5.4976 4.1443 4.3564 4.1443 4.3564 5.3593-5.5623 5.3593-5.5623l0.05839-4.2917h-4.1565z" style="opacity:.6;stroke:url(#linearGradient2869);stroke-width:1px;fill:none"/><path id="path3294" d="m9.4944 3.5011c1.2556-0.0443 2.2916 1.2899 1.9336 2.4961-0.265 1.1836-1.7221 1.8658-2.7986 1.3016-1.108-0.4895-1.4942-2.048-0.7348-2.9945 0.3689-0.4993 0.9782-0.808 1.5998-0.8032z" style="opacity:.6;stroke:url(#linearGradient2866);stroke-width:1px;fill:none"/><path id="path3298" d="m10.333 4.9996c0.73935-0.39148 1.7027-0.51142 2.6179-0.53183 0.41143-0.0092 0.8273 0.0746 1.231-0.02143 0.51383-0.12222 0.86399-0.49868 0.81277-0.84284-0.06877-0.46198-0.68935-0.80302-1.2714-1.0471-0.51628-0.21648-0.91364-0.60224-1.1236-1.0097-0.1061-0.20589 0.07919-0.42208 0.3764-0.48844 0.27-0.060291 0.55279-0.084123 0.82754-0.022904 0.41816 0.093175 0.91179 0.20685 1.1063 0.50311" style="stroke:url(#linearGradient2863);stroke-width:1px;fill:none"/><path id="path2262" d="m10.5 10.5v-2.0073h3v2.0073h2.0073v3h-2.0073v2.0073h-3v-2.0073h-2.0073v-3h2.0073z" style="stroke-linejoin:round;stroke-width:.98543;color:#000;stroke:url(#linearGradient3172);stroke-linecap:round;fill:url(#radialGradient3170)"/><path id="path2272" d="m11.5 11.5v-2h1v2h2v1h-2v2.2925h-1v-2.2925h-2v-1h2z" style="opacity:.4;stroke:url(#linearGradient5530-1);fill:none"/></g></svg>