<svg xmlns="http://www.w3.org/2000/svg" xmlns:xlink="http://www.w3.org/1999/xlink" id="svg4375" width="16" height="16" version="1.0"><defs id="defs4377"><linearGradient id="linearGradient5522" x1="24" x2="24" y1="13" y2="40" gradientTransform="matrix(.36842 0 0 .33333 -.84210 1.6667)" gradientUnits="userSpaceOnUse"><stop id="stop6459" offset="0" style="stop-color:#fff;stop-opacity:.94118"/><stop id="stop6461" offset="1" style="stop-color:#fff;stop-opacity:.70588"/></linearGradient><linearGradient id="linearGradient5525" x1="16.034" x2="16.075" y1="9.073" y2="15.044" gradientTransform="matrix(.41935 0 0 .41379 -2.4838 -1.431)" gradientUnits="userSpaceOnUse"><stop id="stop3692" offset="0" style="stop-color:#fff"/><stop id="stop3694" offset="1" style="stop-color:#fff;stop-opacity:.46875"/></linearGradient><linearGradient id="linearGradient5528" x1="21.866" x2="21.78" y1="8.576" y2="39.924" gradientTransform="matrix(.45455 0 0 .45902 -3.3637 -2.6312)" gradientUnits="userSpaceOnUse"><stop id="stop2783" offset="0" style="stop-color:#505050"/><stop id="stop6301" offset=".132" style="stop-color:#6e6e6e"/><stop id="stop2785" offset="1" style="stop-color:#8c8c8c"/></linearGradient></defs><g id="g5512"><rect id="rect1887" width="15" height="14" x=".5" y="1.5" style="stroke-linejoin:round;stroke:#565853;stroke-width:.99993;fill:url(#linearGradient5528)"/><rect id="rect2779" width="13" height="12" x="1.5" y="2.5" style="opacity:.2;stroke:url(#linearGradient5525);stroke-width:1.0001;fill:none"/><rect id="rect6287" width="14" height="9" x="1" y="6" style="fill:url(#linearGradient5522)"/><path id="path6293" d="m14 4.25c0 0.4142-0.336 0.75-0.75 0.75s-0.75-0.3358-0.75-0.75 0.336-0.75 0.75-0.75c0.41434 0 0.75018 0.33584 0.75 0.75z" style="fill:#ffc24c"/><path id="rect5590" d="m5.5355 13.293-2.8284-2.829-0.7071 3.536 3.5355-0.707z" style="opacity:.7;fill:#a00"/><path id="path6302" d="m12 4.25c0 0.4142-0.336 0.75-0.75 0.75s-0.75-0.3358-0.75-0.75 0.336-0.75 0.75-0.75c0.41434 0 0.75018 0.33584 0.75 0.75z" style="fill:#ffc24c"/><path id="path6304" d="m10 4.25c0 0.4142-0.3357 0.75-0.75 0.75s-0.7502-0.3358-0.75-0.75c-0.0002-0.4142 0.3357-0.75 0.75-0.75s0.75 0.3358 0.75 0.75z" style="fill:#ffc24c"/><path id="path6312" d="m5.5355 7.7071-2.8284 2.8289-0.7071-3.536 3.5355 0.7071z" style="opacity:.7;fill:#a00"/><path id="path6316" d="m10.464 13.293 2.829-2.829 0.707 3.536-3.536-0.707z" style="opacity:.7;fill:#a00"/><path id="path6318" d="m10.464 7.7071 2.829 2.8289 0.707-3.536-3.536 0.7071z" style="opacity:.7;fill:#a00"/></g></svg>