<svg xmlns="http://www.w3.org/2000/svg" xmlns:xlink="http://www.w3.org/1999/xlink" id="svg4375" width="16" height="16" version="1.0"><defs id="defs4377"><linearGradient id="linearGradient5509" x1="24" x2="24" y1="13" y2="40" gradientTransform="matrix(.34211 0 0 .29630 -.71053 2.1481)" gradientUnits="userSpaceOnUse"><stop id="stop6459" offset="0" style="stop-color:#fff;stop-opacity:.94118"/><stop id="stop6461" offset="1" style="stop-color:#fff;stop-opacity:.70588"/></linearGradient><linearGradient id="linearGradient5512" x1="16.034" x2="16.075" y1="9.073" y2="15.044" gradientTransform="matrix(.38711 0 0 .37933 -2.1778 -1.1038)" gradientUnits="userSpaceOnUse"><stop id="stop3692" offset="0" style="stop-color:#fff"/><stop id="stop3694" offset="1" style="stop-color:#fff;stop-opacity:.46875"/></linearGradient><linearGradient id="linearGradient5515" x1="21.866" x2="21.78" y1="8.576" y2="39.924" gradientTransform="matrix(.42425 0 0 .42624 -3.1063 -2.3363)" gradientUnits="userSpaceOnUse"><stop id="stop2783" offset="0" style="stop-color:#505050"/><stop id="stop6301" offset=".132" style="stop-color:#6e6e6e"/><stop id="stop2785" offset="1" style="stop-color:#8c8c8c"/></linearGradient><linearGradient id="linearGradient6430" x1="24.104" x2="24.104" y1="15.169" y2="32.485" gradientTransform="matrix(.32803 0 0 .32571 4.445 4.532)" gradientUnits="userSpaceOnUse"><stop id="stop3947" offset="0" style="stop-color:#ecf5b6"/><stop id="stop3949" offset="1" style="stop-color:#9fba48"/></linearGradient></defs><g id="g6441"><rect id="rect1887" width="14" height="13" x=".5" y="1.5" style="stroke-linejoin:round;stroke:#565853;stroke-width:.99969;fill:url(#linearGradient5515)"/><rect id="rect2779" width="12" height="11" x="1.5" y="2.5" style="opacity:.2;stroke:url(#linearGradient5512);stroke-width:.99953;fill:none"/><rect id="rect6287" width="13" height="8" x="1" y="6" style="fill:url(#linearGradient5509)"/><path id="path6293" d="m13 4.25c0 0.4142-0.336 0.75-0.75 0.75s-0.75-0.3358-0.75-0.75 0.336-0.75 0.75-0.75c0.41434 0 0.75018 0.33584 0.75 0.75z" style="fill:#ffc24c"/><path id="path6302" d="m11 4.25c0 0.4142-0.336 0.75-0.75 0.75-0.4143 0-0.7502-0.3358-0.75-0.75-0.0002-0.4142 0.3357-0.75 0.75-0.75 0.41434 0 0.75018 0.33584 0.75 0.75z" style="fill:#ffc24c"/><path id="path6304" d="m9 4.25c0.0002 0.4142-0.3357 0.75-0.75 0.75s-0.7502-0.3358-0.75-0.75c-0.0002-0.4142 0.3357-0.75 0.75-0.75 0.41434 0 0.75018 0.33584 0.75 0.75z" style="fill:#ffc24c"/><path id="path6678" d="m10.5 10.5v-1.9925h3v1.9925h1.9925v3h-1.9925v1.9925h-3v-1.9925h-1.9925v-3h1.9925z" style="stroke-linejoin:round;fill-rule:evenodd;stroke:#699536;stroke-width:1.0151;fill:url(#linearGradient6430)"/></g></svg>