<svg xmlns="http://www.w3.org/2000/svg" xmlns:xlink="http://www.w3.org/1999/xlink" id="svg3272" width="16" height="16" version="1.0"><defs id="defs3274"><linearGradient id="linearGradient3100" x1="-24.032" x2="-24.098" y1="-13.091" y2="-40.164" gradientTransform="matrix(.27107 0 0 .28210 -1.52 .19559)" gradientUnits="userSpaceOnUse"><stop id="stop3796" offset="0" style="stop-color:#333"/><stop id="stop3798" offset="1" style="stop-color:#292929"/></linearGradient><linearGradient id="linearGradient3098" x1="28.938" x2="91.591" y1="17.333" y2="79.789" gradientTransform="matrix(.11940 0 0 .096562 -16.142 -12.968)" gradientUnits="userSpaceOnUse"><stop id="stop3790" offset="0" style="stop-color:#262626"/><stop id="stop3792" offset="1" style="stop-color:#828282"/></linearGradient><linearGradient id="linearGradient3096" x1="108.26" x2="25.818" y1="110.28" y2="14.029" gradientTransform="matrix(.16777 0 0 .12733 -19.398 -16.147)" gradientUnits="userSpaceOnUse"><stop id="stop3802" offset="0" style="stop-color:#fff"/><stop id="stop3804" offset="1" style="stop-color:#e0e0e0"/></linearGradient><linearGradient id="linearGradient2687" x1="18.031" x2="20.055" y1="16.408" y2="24.628" gradientTransform="matrix(.29669 0 0 .35207 1.8805 2.1186)" gradientUnits="userSpaceOnUse"><stop id="stop2687" offset="0" style="stop-color:#fff;stop-opacity:.27451"/><stop id="stop2689" offset="1" style="stop-color:#fff;stop-opacity:.078431"/></linearGradient><linearGradient id="linearGradient2692" x1="10.318" x2="4.176" y1="14.993" y2="4.051" gradientTransform="matrix(1.0083 0 0 1.0006 -.00082398 -.0066205)" gradientUnits="userSpaceOnUse"><stop id="stop3624" offset="0" style="stop-color:#bb2b12"/><stop id="stop3626" offset="1" style="stop-color:#cd7233"/></linearGradient><linearGradient id="linearGradient2690" x1="126.7" x2="169.23" y1="58.583" y2="238.4" gradientTransform="matrix(.054893 .013851 .0025726 .052482 -.71280 -.26741)" gradientUnits="userSpaceOnUse"><stop id="stop3618" offset="0" style="stop-color:#edb763"/><stop id="stop3270" offset=".5" style="stop-color:#de7f32"/><stop id="stop3620" offset="1" style="stop-color:#d24413"/></linearGradient><radialGradient id="radialGradient2677" cx="605.71" cy="486.65" r="117.14" gradientTransform="matrix(-2.7744 0 0 1.9697 112.76 -872.89)" gradientUnits="userSpaceOnUse" xlink:href="#linearGradient5060"/><radialGradient id="radialGradient2675" cx="605.71" cy="486.65" r="117.14" gradientTransform="matrix(2.7744 0 0 1.9697 -1891.6 -872.89)" gradientUnits="userSpaceOnUse" xlink:href="#linearGradient5060"/><linearGradient id="linearGradient2673" x1="302.86" x2="302.86" y1="366.65" y2="609.51" gradientTransform="matrix(2.7744 0 0 1.9697 -1892.2 -872.89)" gradientUnits="userSpaceOnUse"><stop id="stop5050" offset="0" style="stop-opacity:0"/><stop id="stop5056" offset=".5"/><stop id="stop5052" offset="1" style="stop-opacity:0"/></linearGradient><linearGradient id="linearGradient5060"><stop id="stop5062" offset="0"/><stop id="stop5064" offset="1" style="stop-opacity:0"/></linearGradient><radialGradient id="radialGradient3713" cx="-4.609" cy="-3.86" r="4.077" gradientTransform="matrix(-.0037586 -1.6071 2.5265 .079509 5.1242 -11.785)" gradientUnits="userSpaceOnUse"><stop id="stop4434" offset="0" style="stop-color:#f6b2ee"/><stop id="stop4436" offset=".262" style="stop-color:#d979cd"/><stop id="stop4438" offset=".661" style="stop-color:#753da6"/><stop id="stop4440" offset="1" style="stop-color:#0f1027"/></radialGradient></defs><g id="layer1"><g id="layer6" transform="matrix(.36395 0 0 .34457 -.64485 -.38545)"><g id="g2488" transform="matrix(.021652 0 0 .014857 43.008 42.685)"><rect id="rect2490" width="1339.6" height="478.36" x="-1559.3" y="-150.7" style="opacity:.40206;fill:url(#linearGradient2673)"/><path id="path2492" d="m-219.62-150.68v478.33c142.87 0.90045 345.4-107.17 345.4-239.2s-159.44-239.13-345.4-239.13z" style="opacity:.40206;fill:url(#radialGradient2675)"/><path id="path2494" d="m-1559.3-150.68v478.33c-142.87 0.90045-345.4-107.17-345.4-239.2s159.44-239.13 345.4-239.13z" style="opacity:.40206;fill:url(#radialGradient2677)"/></g></g><path id="rect2196" d="m0.6015 1.5215c-0.056258 0-0.10449 0.060345-0.10449 0.12267 0 4.6046 0.003374 8.6512-0.00065534 12.857 4.7064-0.025 9.4152-0.049 14.123-0.066-0.41713 0-1.1123-0.07009-1.1024-0.94049 0.0035-3.597 0.02296-7.4084 0.01078-10.981h-6.0519c-0.47749 0-1.0963-0.99306-1.5261-0.99306h-5.3477l-0.000003-0.000001z" style="stroke-linejoin:round;stroke:#a8a8a8;stroke-linecap:round;stroke-width:.979;fill:#fff"/><path id="rect3086" d="m2.5254 4.524c0.65636 0 12.48 0.031393 12.989 0.031393 0 0.61541-0.02468 9.9581-0.05407 9.9581-4.5588 0.01775-11.659-0.01389-12.987-0.01389 0-1.1615 0.05188-7.5853 0.05188-9.9756l0.000003-0.000005z" style="stroke-linejoin:round;stroke:url(#linearGradient2692);stroke-linecap:round;stroke-width:.95339;fill:url(#linearGradient2690)"/><path id="path2509" d="m2.8355 4c-0.45659 0-0.83444 0.44838-0.83444 0.9902v5.6331c0.00175 0.10077 0.044034 0.21567 0.11126 0.28606 0.067223 0.07039 0.15315 0.10008 0.25033 0.08802 0.00309 0.000094 0.00618 0.000094 0.00927 0l13.351-2.5081c0.1548-0.028972 0.27598-0.18812 0.27815-0.37407v-3.1246c0-0.54182-0.37785-0.9902-0.83444-0.9902h-12.331z" style="fill:url(#linearGradient2687);fill-rule:evenodd"/><path id="path2406" d="m3.499 14v-8.5h11.5" style="opacity:.35;stroke:#fff;stroke-width:1px;fill:none"/></g><g id="layer1-7" transform="matrix(.73828 0 0 .91962 4.0745 2.181)"><rect id="rect3580" width="13.495" height="11.899" x="-15.464" y="-14.485" transform="matrix(-1 .0018974 -.00087740 -1 0 0)" style="stroke:#7e7e7e;stroke-linecap:round;stroke-width:1.212;fill:url(#linearGradient3096)"/><rect id="rect3582" width="8.154" height="6.52" x="-12.778" y="-11.236" rx="0" ry="0" transform="matrix(-.99999 .0039192 .0023388 -1 0 0)" style="stroke:url(#linearGradient3100);stroke-linecap:round;stroke-width:1.2084;fill:url(#linearGradient3098)"/><rect id="rect3709" width="8.154" height="6.52" x="-12.778" y="-11.236" rx="0" ry="0" transform="matrix(-.99999 .0039192 .0023388 -1 0 0)" style="opacity:.35;fill:url(#radialGradient3713)"/></g></svg>