<svg xmlns="http://www.w3.org/2000/svg" xmlns:xlink="http://www.w3.org/1999/xlink" id="svg3272" width="16" height="16" version="1.0"><defs id="defs3274"><linearGradient id="linearGradient2687" x1="18.031" x2="20.055" y1="16.408" y2="24.628" gradientTransform="matrix(.29669 0 0 .35207 1.8805 2.1186)" gradientUnits="userSpaceOnUse"><stop id="stop2687" offset="0" style="stop-color:#fff;stop-opacity:.27451"/><stop id="stop2689" offset="1" style="stop-color:#fff;stop-opacity:.078431"/></linearGradient><linearGradient id="linearGradient2692" x1="10.318" x2="4.176" y1="14.993" y2="4.051" gradientTransform="matrix(1.0083 0 0 1.0006 -.00082398 -.0066205)" gradientUnits="userSpaceOnUse"><stop id="stop3624" offset="0" style="stop-color:#bb2b12"/><stop id="stop3626" offset="1" style="stop-color:#cd7233"/></linearGradient><linearGradient id="linearGradient2690" x1="126.7" x2="169.23" y1="58.583" y2="238.4" gradientTransform="matrix(.054893 .013851 .0025726 .052482 -.71280 -.26741)" gradientUnits="userSpaceOnUse"><stop id="stop3618" offset="0" style="stop-color:#edb763"/><stop id="stop3270" offset=".5" style="stop-color:#de7f32"/><stop id="stop3620" offset="1" style="stop-color:#d24413"/></linearGradient><radialGradient id="radialGradient2677" cx="605.71" cy="486.65" r="117.14" gradientTransform="matrix(-2.7744 0 0 1.9697 112.76 -872.89)" gradientUnits="userSpaceOnUse" xlink:href="#linearGradient5060"/><radialGradient id="radialGradient2675" cx="605.71" cy="486.65" r="117.14" gradientTransform="matrix(2.7744 0 0 1.9697 -1891.6 -872.89)" gradientUnits="userSpaceOnUse" xlink:href="#linearGradient5060"/><linearGradient id="linearGradient2673" x1="302.86" x2="302.86" y1="366.65" y2="609.51" gradientTransform="matrix(2.7744 0 0 1.9697 -1892.2 -872.89)" gradientUnits="userSpaceOnUse"><stop id="stop5050" offset="0" style="stop-opacity:0"/><stop id="stop5056" offset=".5"/><stop id="stop5052" offset="1" style="stop-opacity:0"/></linearGradient><linearGradient id="linearGradient5060"><stop id="stop5062" offset="0"/><stop id="stop5064" offset="1" style="stop-opacity:0"/></linearGradient></defs><g id="layer1"><g id="layer6" transform="matrix(.36395 0 0 .34457 -.64485 -.38545)"><g id="g2488" transform="matrix(.021652 0 0 .014857 43.008 42.685)"><rect id="rect2490" width="1339.6" height="478.36" x="-1559.3" y="-150.7" style="opacity:.40206;fill:url(#linearGradient2673)"/><path id="path2492" d="m-219.62-150.68v478.33c142.88 0.9 345.4-107.17 345.4-239.2 0-132.02-159.44-239.13-345.4-239.13z" style="opacity:.40206;fill:url(#radialGradient2675)"/><path id="path2494" d="m-1559.3-150.68v478.33c-142.8 0.9-345.4-107.17-345.4-239.2 0-132.02 159.5-239.13 345.4-239.13z" style="opacity:.40206;fill:url(#radialGradient2677)"/></g></g><path id="rect2196" d="m0.6015 1.5215c-0.05626 0-0.10449 0.0603-0.10449 0.1226 0 4.6046 0.00337 8.6509-0.00066 12.857 4.7064-0.024 9.4152-0.048 14.123-0.065-0.417 0-1.112-0.07-1.103-0.941 0.004-3.5967 0.023-7.408 0.011-10.98l-6.0517-0.0005c-0.4775 0-1.0962-0.993-1.5261-0.993h-5.3477z" style="stroke-linejoin:round;stroke:#a8a8a8;stroke-linecap:round;stroke-width:.979;fill:#fff"/><path id="rect3086" d="m2.5254 4.524c0.6564 0 12.48 0.0314 12.989 0.0314 0 0.6154-0.024 9.9576-0.054 9.9576-4.559 0.018-11.659-0.013-12.986-0.013-0.0005-1.162 0.0514-7.5857 0.0514-9.976z" style="stroke-linejoin:round;stroke:url(#linearGradient2692);stroke-linecap:round;stroke-width:.95339;fill:url(#linearGradient2690)"/><path id="path2509" d="m2.8355 4c-0.4566 0-0.8345 0.4484-0.8345 0.9902v5.6328c0.0018 0.101 0.0441 0.216 0.1113 0.286 0.0672 0.071 0.1531 0.1 0.2503 0.088h0.0093l13.351-2.5081c0.155-0.029 0.276-0.1881 0.278-0.3741v-3.1246c0-0.5418-0.378-0.9902-0.834-0.9902h-12.332 0.0005z" style="fill:url(#linearGradient2687);fill-rule:evenodd"/><path id="path2406" d="m3.499 14v-8.5h11.5" style="opacity:.35;stroke:#fff;stroke-width:1px;fill:none"/></g><g id="g2509" transform="translate(23.317 2.0527)"><path id="path11112" d="m-11.665 9.0166l4.0407 3.8874-0.5602 0.786-4.2495-4.2053 0.769-0.4681z" style="stroke-linejoin:round;fill-rule:evenodd;stroke:#1a1a1a;stroke-linecap:round;stroke-width:.49333;fill:#1a1a1a"/><path id="path13082" d="m247.91 110.29c0 1.47-2.18 2.66-4.87 2.66s-4.86-1.19-4.86-2.66c0-1.46 2.17-2.65 4.86-2.65s4.87 1.19 4.87 2.65z" transform="matrix(.089690 -.11533 .11496 .085943 -42.328 31.892)" style="fill:#1a1a1a"/><path id="path4452" d="m25.898 18.478c0 4.589-3.72 8.31-8.309 8.31s-8.3089-3.721-8.3082-8.31c-0.0007-4.589 3.7192-8.31 8.3082-8.31s8.309 3.721 8.309 8.31z" transform="matrix(.34184 0 0 .34473 -19.859 .68212)" style="opacity:.4;fill-rule:evenodd;fill:#fff"/><path id="path2298" d="m-13.909 4.192c-1.744 0-3.161 1.3498-3.161 3.0122s1.417 3.0118 3.161 3.0118 3.16-1.3494 3.16-3.0118-1.416-3.0122-3.16-3.0122zm0.038 0.1976c1.561 0 2.83 1.2069 2.83 2.6948s-1.269 2.6948-2.83 2.6948c-1.562 0-2.828-1.2069-2.828-2.6948s1.266-2.6948 2.828-2.6948z" style="stroke-linejoin:round;stroke:#1a1a1a;stroke-linecap:round;stroke-width:.49333;fill:#333"/></g></svg>