<svg xmlns="http://www.w3.org/2000/svg" xmlns:xlink="http://www.w3.org/1999/xlink" id="svg3272" width="16" height="16" version="1.0"><defs id="defs3274"><linearGradient id="linearGradient3725" x1="7.323" x2="13.384" y1="5.651" y2="21.723" gradientTransform="matrix(.70192 0 0 .70574 -.68337 -.19657)" gradientUnits="userSpaceOnUse"><stop id="stop3375" offset="0" style="stop-color:#4d4d4d"/><stop id="stop3377" offset="1" style="stop-color:#3c3c3c"/></linearGradient><linearGradient id="linearGradient3856" x1="5.068" x2="5.068" y1="4.504" y2="18.154" gradientTransform="matrix(.91283 0 0 .90776 -.72105 -.66183)" gradientUnits="userSpaceOnUse"><stop id="stop3934" offset="0" style="stop-color:#828282"/><stop id="stop3936" offset="1" style="stop-color:#434343"/></linearGradient><linearGradient id="linearGradient2687" x1="18.031" x2="20.055" y1="16.408" y2="24.628" gradientTransform="matrix(.29669 0 0 .35207 1.8805 2.1186)" gradientUnits="userSpaceOnUse"><stop id="stop2687" offset="0" style="stop-color:#fff;stop-opacity:.27451"/><stop id="stop2689" offset="1" style="stop-color:#fff;stop-opacity:.078431"/></linearGradient><linearGradient id="linearGradient2692" x1="10.318" x2="4.176" y1="14.993" y2="4.051" gradientTransform="matrix(1.0083 0 0 1.0006 -.00082398 -.0066205)" gradientUnits="userSpaceOnUse"><stop id="stop3624" offset="0" style="stop-color:#bb2b12"/><stop id="stop3626" offset="1" style="stop-color:#cd7233"/></linearGradient><linearGradient id="linearGradient2690" x1="126.7" x2="169.23" y1="58.583" y2="238.4" gradientTransform="matrix(.054893 .013851 .0025726 .052482 -.71280 -.26741)" gradientUnits="userSpaceOnUse" xlink:href="#linearGradient7012-661-145-733-759-865-745-661-970-94"/><radialGradient id="radialGradient2677" cx="605.71" cy="486.65" r="117.14" gradientTransform="matrix(-2.7744 0 0 1.9697 112.76 -872.89)" gradientUnits="userSpaceOnUse" xlink:href="#linearGradient5060"/><radialGradient id="radialGradient2675" cx="605.71" cy="486.65" r="117.14" gradientTransform="matrix(2.7744 0 0 1.9697 -1891.6 -872.89)" gradientUnits="userSpaceOnUse" xlink:href="#linearGradient5060"/><linearGradient id="linearGradient2673" x1="302.86" x2="302.86" y1="366.65" y2="609.51" gradientTransform="matrix(2.7744 0 0 1.9697 -1892.2 -872.89)" gradientUnits="userSpaceOnUse"><stop id="stop5050" offset="0" style="stop-opacity:0"/><stop id="stop5056" offset=".5"/><stop id="stop5052" offset="1" style="stop-opacity:0"/></linearGradient><linearGradient id="linearGradient5060"><stop id="stop5062" offset="0"/><stop id="stop5064" offset="1" style="stop-opacity:0"/></linearGradient><linearGradient id="linearGradient7012-661-145-733-759-865-745-661-970-94"><stop id="stop3618" offset="0" style="stop-color:#edb763"/><stop id="stop3270" offset=".5" style="stop-color:#de7f32"/><stop id="stop3620" offset="1" style="stop-color:#d24413"/></linearGradient><linearGradient id="linearGradient3024" x1="12.938" x2="15.25" y1="8.438" y2="19.812" gradientTransform="matrix(.11905 0 0 .53333 7.6429 2.4)" gradientUnits="userSpaceOnUse"><stop id="stop6594" offset="0" style="stop-color:#fff;stop-opacity:.35294"/><stop id="stop6596" offset="1" style="stop-color:#fff;stop-opacity:0"/></linearGradient><linearGradient id="linearGradient4432-9-4-1"><stop id="stop4434-0-4-9" offset="0" style="stop-color:#f6b2ee"/><stop id="stop4436-9-3-0" offset=".262" style="stop-color:#d979cd"/><stop id="stop4438-1-2-9" offset="1" style="stop-color:#753da6"/></linearGradient><radialGradient id="radialGradient3818" cx="33" cy="37.277" r="8" gradientTransform="matrix(.54555 -.36910 .27984 .56798 -21.912 2.7618)" gradientUnits="userSpaceOnUse" xlink:href="#linearGradient4432-9-4-1"/><radialGradient id="radialGradient3843" cx="33" cy="37.277" r="8" gradientTransform="matrix(.54555 -.36910 .27984 .56798 -21.912 -3.2382)" gradientUnits="userSpaceOnUse" xlink:href="#linearGradient4432-9-4-1"/><radialGradient id="radialGradient3865" cx="-.44" cy="6.718" r="4.5" gradientTransform="matrix(3.2109 -.047090 .025342 1.728 1.2543 -5.6211)" gradientUnits="userSpaceOnUse" xlink:href="#linearGradient7012-661-145-733-759-865-745-661-970-94"/></defs><g id="layer1"><g id="layer6" transform="matrix(.36395 0 0 .34457 -.64485 -.38545)"><g id="g2488" transform="matrix(.021652 0 0 .014857 43.008 42.685)"><rect id="rect2490" width="1339.6" height="478.36" x="-1559.3" y="-150.7" style="opacity:.40206;fill:url(#linearGradient2673)"/><path id="path2492" d="m-219.62-150.68v478.33c142.87 0.90045 345.4-107.17 345.4-239.2s-159.44-239.13-345.4-239.13z" style="opacity:.40206;fill:url(#radialGradient2675)"/><path id="path2494" d="m-1559.3-150.68v478.33c-142.87 0.90045-345.4-107.17-345.4-239.2s159.44-239.13 345.4-239.13z" style="opacity:.40206;fill:url(#radialGradient2677)"/></g></g><path id="rect2196" d="m0.6015 1.5215c-0.056258 0-0.10449 0.060345-0.10449 0.12267 0 4.6046 0.003374 8.6512-0.00065534 12.857 4.7064-0.025 9.4152-0.049 14.123-0.066-0.41713 0-1.1123-0.07009-1.1024-0.94049 0.0035-3.597 0.02296-7.4084 0.01078-10.981h-6.0519c-0.47749 0-1.0963-0.99306-1.5261-0.99306h-5.3477l-0.000003-0.000001z" style="stroke-linejoin:round;stroke:#a8a8a8;stroke-linecap:round;stroke-width:.979;fill:#fff"/><path id="rect3086" d="m2.5254 4.524c0.65636 0 12.48 0.031393 12.989 0.031393 0 0.61541-0.02468 9.9581-0.05407 9.9581-4.5588 0.01775-11.659-0.01389-12.987-0.01389 0-1.1615 0.05188-7.5853 0.05188-9.9756l0.000003-0.000005z" style="stroke-linejoin:round;stroke:url(#linearGradient2692);stroke-linecap:round;stroke-width:.95339;fill:url(#linearGradient2690)"/><path id="path2509" d="m2.8355 4c-0.45659 0-0.83444 0.44838-0.83444 0.9902v5.6331c0.00175 0.10077 0.044034 0.21567 0.11126 0.28606 0.067223 0.07039 0.15315 0.10008 0.25033 0.08802 0.00309 0.000094 0.00618 0.000094 0.00927 0l13.351-2.5081c0.1548-0.028972 0.27598-0.18812 0.27815-0.37407v-3.1246c0-0.54182-0.37785-0.9902-0.83444-0.9902h-12.331z" style="fill:url(#linearGradient2687);fill-rule:evenodd"/><path id="path2406" d="m3.499 14v-8.5h11.5" style="opacity:.35;stroke:#fff;stroke-width:1px;fill:none"/></g><g id="layer1-2" transform="translate(4 9.5367e-7)"><path id="path3385" d="m3.8626 15.496h-2.2649c-0.1835-0.17752-0.043962-0.52997-0.087562-0.78129v-11.125l0.025587-0.061 0.061975-0.025h2.2341m5.3587 0.1202h2.251c0.10583 0 0.08757 0.47088 0.08757 0.781v11.116c-0.18046 0.18042-0.53872 0.04323-0.79418 0.08609h-1.5255" style="stroke-linejoin:round;stroke:#333;display:block;fill:url(#linearGradient3856)"/><rect id="rect3457" width="6.002" height="12.002" x="3.499" y="3.499" rx="0" ry="0" style="stroke:#333;stroke-width:.99818;fill:url(#linearGradient3725)"/><rect id="rect3841" width="6.022" height="6.022" x="3.489" y="3.489" rx="0" ry="0" style="opacity:.6;stroke:#333;fill:url(#radialGradient3843)"/><path id="rect15660" d="m4.5049 4.5h3.9901" style="opacity:.27;stroke-linejoin:round;stroke:#fff;stroke-linecap:square;display:block;fill:none"/><path id="path4320" d="m4.5 9.5c2.3333 0 1.6667-0.0000011 4-0.0000011" style="stroke-linejoin:round;stroke:#464646;stroke-linecap:square;display:block;fill:none"/><rect id="rect2704-7" width="6.022" height="6.022" x="3.489" y="9.489" rx="0" ry="0" style="opacity:.6;stroke:#333;fill:url(#radialGradient3818)"/><path id="path4820" d="m4.5 10.5c2.3333 0 1.6667-0.000001 4-0.000001" style="opacity:.27;stroke-linejoin:round;stroke:#fff;stroke-linecap:square;display:block;fill:none"/><path id="rect3867" d="m9.9848 13.985h1v1h-1v-1zm0-2h1v1h-1v-1zm0-2h1v1h-1v-1zm0-2h1v1h-1v-1zm0-2h1v1h-1v-1zm0-2h1v1h-1v-1zm-8 10h1v1h-1v-1zm0-2h1v1h-1v-1zm0-2h1v1h-1v-1zm0-2h1v1h-1v-1zm0-2h1v1h-1v-1zm0-2h1v1h-1v-1z" style="opacity:.8;fill:url(#radialGradient3865)"/></g><path id="rect6588" d="m8 4h5v5.2667l-5 2.7333v-8z" style="fill:url(#linearGradient3024)"/></svg>