<svg xmlns="http://www.w3.org/2000/svg" xmlns:xlink="http://www.w3.org/1999/xlink" id="svg3272" width="16" height="16" version="1.0"><defs id="defs3274"><linearGradient id="linearGradient2977" x1="28.739" x2="25.4" y1="144.12" y2="119.86" gradientTransform="matrix(.12650 0 0 .12876 2.114 -14.057)" gradientUnits="userSpaceOnUse"><stop id="stop2374" offset="0" style="stop-color:#fff"/><stop id="stop2376" offset="1" style="stop-color:#fff;stop-opacity:.37931"/></linearGradient><radialGradient id="radialGradient2983" cx="17.059" cy="41.059" r="5.739" fx="15.544" fy="39.027" gradientTransform="matrix(.37668 -.063113 0 .36451 -2.4462 -.69065)" gradientUnits="userSpaceOnUse"><stop id="stop3877" offset="0" style="stop-color:#aaa"/><stop id="stop3879" offset="1" style="stop-color:#4d4d4d"/></radialGradient><linearGradient id="linearGradient2687" x1="18.031" x2="20.055" y1="16.408" y2="24.628" gradientTransform="matrix(.29669 0 0 .35207 1.8805 2.1186)" gradientUnits="userSpaceOnUse"><stop id="stop2687" offset="0" style="stop-color:#fff;stop-opacity:.27451"/><stop id="stop2689" offset="1" style="stop-color:#fff;stop-opacity:.078431"/></linearGradient><linearGradient id="linearGradient2692" x1="10.318" x2="4.176" y1="14.993" y2="4.051" gradientTransform="matrix(1.0083 0 0 1.0006 -.00082398 -.0066205)" gradientUnits="userSpaceOnUse"><stop id="stop3624" offset="0" style="stop-color:#bb2b12"/><stop id="stop3626" offset="1" style="stop-color:#cd7233"/></linearGradient><linearGradient id="linearGradient2690" x1="126.7" x2="169.23" y1="58.583" y2="238.4" gradientTransform="matrix(.054893 .013851 .0025726 .052482 -.71280 -.26741)" gradientUnits="userSpaceOnUse"><stop id="stop3618" offset="0" style="stop-color:#edb763"/><stop id="stop3270" offset=".5" style="stop-color:#de7f32"/><stop id="stop3620" offset="1" style="stop-color:#d24413"/></linearGradient><radialGradient id="radialGradient2677" cx="605.71" cy="486.65" r="117.14" gradientTransform="matrix(-2.7744 0 0 1.9697 112.76 -872.89)" gradientUnits="userSpaceOnUse" xlink:href="#linearGradient5060"/><radialGradient id="radialGradient2675" cx="605.71" cy="486.65" r="117.14" gradientTransform="matrix(2.7744 0 0 1.9697 -1891.6 -872.89)" gradientUnits="userSpaceOnUse" xlink:href="#linearGradient5060"/><linearGradient id="linearGradient2673" x1="302.86" x2="302.86" y1="366.65" y2="609.51" gradientTransform="matrix(2.7744 0 0 1.9697 -1892.2 -872.89)" gradientUnits="userSpaceOnUse"><stop id="stop5050" offset="0" style="stop-opacity:0"/><stop id="stop5056" offset=".5"/><stop id="stop5052" offset="1" style="stop-opacity:0"/></linearGradient><linearGradient id="linearGradient5060"><stop id="stop5062" offset="0"/><stop id="stop5064" offset="1" style="stop-opacity:0"/></linearGradient></defs><g id="layer1"><g id="layer6" transform="matrix(.36395 0 0 .34457 -.64485 -.38545)"><g id="g2488" transform="matrix(.021652 0 0 .014857 43.008 42.685)"><rect id="rect2490" width="1339.6" height="478.36" x="-1559.3" y="-150.7" style="opacity:.40206;fill:url(#linearGradient2673)"/><path id="path2492" d="m-219.62-150.68v478.33c142.88 0.9 345.4-107.17 345.4-239.2 0-132.02-159.44-239.13-345.4-239.13z" style="opacity:.40206;fill:url(#radialGradient2675)"/><path id="path2494" d="m-1559.3-150.68v478.33c-142.8 0.9-345.4-107.17-345.4-239.2 0-132.02 159.5-239.13 345.4-239.13z" style="opacity:.40206;fill:url(#radialGradient2677)"/></g></g><path id="rect2196" d="m0.6015 1.5215c-0.05626 0-0.10449 0.0603-0.10449 0.1226 0 4.6046 0.00337 8.6509-0.00066 12.857 4.7064-0.024 9.4152-0.048 14.123-0.065-0.417 0-1.112-0.07-1.103-0.941 0.004-3.5967 0.023-7.408 0.011-10.98l-6.0517-0.0005c-0.4775 0-1.0962-0.993-1.5261-0.993h-5.3477z" style="stroke-linejoin:round;stroke:#a8a8a8;stroke-linecap:round;stroke-width:.979;fill:#fff"/><path id="rect3086" d="m2.5254 4.524c0.6564 0 12.48 0.0314 12.989 0.0314 0 0.6154-0.024 9.9576-0.054 9.9576-4.559 0.018-11.659-0.013-12.986-0.013-0.0005-1.162 0.0514-7.5857 0.0514-9.976z" style="stroke-linejoin:round;stroke:url(#linearGradient2692);stroke-linecap:round;stroke-width:.95339;fill:url(#linearGradient2690)"/><path id="path2509" d="m2.8355 4c-0.4566 0-0.8345 0.4484-0.8345 0.9902v5.6328c0.0018 0.101 0.0441 0.216 0.1113 0.286 0.0672 0.071 0.1531 0.1 0.2503 0.088h0.0093l13.351-2.5081c0.155-0.029 0.276-0.1881 0.278-0.3741v-3.1246c0-0.5418-0.378-0.9902-0.834-0.9902h-12.332 0.0005z" style="fill:url(#linearGradient2687);fill-rule:evenodd"/><path id="path2406" d="m3.499 14v-8.5h11.5" style="opacity:.35;stroke:#fff;stroke-width:1px;fill:none"/></g><g id="layer1-9" transform="translate(4 2.7972e-7)"><path id="path4031" d="m9.6501 10.501c0.2861-6.5806-2.4208-6.1563-4.6501-7.028-0.6224 0.3037-0.4825 1.2857-0.51 1.8531v5.5959c-1.3118-0.247-2.9114 0.837-2.9808 2.553-0.1132 1.069 0.8342 1.999 1.8645 2.024 1.8447 0.045 3.1063-1.179 3.1263-2.727-0.0201-2.599 0.0057-3.1999 0-5.7997 1.1463 0.6827 2.6517 0.5508 3.1501 3.5287z" style="stroke-linejoin:round;stroke:#333;stroke-linecap:round;fill:#4d4d4d"/><path id="path2937" d="m5.9736 12.865c-0.0002 0.998-0.893 1.957-1.9942 2.141-1.1012 0.185-1.994-0.475-1.9942-1.473 0.0002-0.998 0.893-1.956 1.9942-2.141 1.1012-0.184 1.994 0.475 1.9942 1.473z" style="fill:url(#radialGradient2983)"/><path id="path2945" d="m5.0537 11.476l-0.0537-6.6821s0.024-0.6551 0.1814-0.6919c4.1937 0.6352 3.8398 3.725 3.8398 3.725s-0.3108-2.3173-3.2291-3.027c-0.5078-0.1235-0.2006-0.1303-0.1979 0.3596 0.0074 1.3216-0.0303 1.796-0.0303 6.6084 0 0.034-0.3255-0.244-0.5102-0.292z" style="opacity:.4;fill:url(#linearGradient2977);fill-rule:evenodd"/></g></svg>