<svg xmlns="http://www.w3.org/2000/svg" xmlns:xlink="http://www.w3.org/1999/xlink" id="svg3203" width="16" height="16" version="1.1"><defs id="defs3205"><linearGradient id="linearGradient2417" x1="8.177" x2="8.177" y1="1.043" y2="15.677" gradientTransform="matrix(1.0307 0 0 1.012 -.42805 -.52505)" gradientUnits="userSpaceOnUse"><stop id="stop2612" offset="0" style="stop-color:#f0c178"/><stop id="stop2614" offset=".5" style="stop-color:#e18941"/><stop id="stop2616" offset="1" style="stop-color:#ec4f18"/></linearGradient><linearGradient id="linearGradient3201" x1="8" x2="8" y1="1.969" y2="17.887" gradientUnits="userSpaceOnUse"><stop id="stop3197" offset="0" style="stop-color:#fff"/><stop id="stop3199" offset="1" style="stop-color:#fff;stop-opacity:0"/></linearGradient><linearGradient id="linearGradient3632" x1="4.37" x2="4.332" y1="16" y2=".531" gradientUnits="userSpaceOnUse"><stop id="stop2605" offset="0" style="stop-color:#bb2b12"/><stop id="stop2607" offset="1" style="stop-color:#cd7233"/></linearGradient></defs><g id="layer1"><path id="rect5117" d="m8 1.0307-7.5 7.4916h2.0278l-7e-7 6.9776h10.944l0.000001-6.9776h2.0278l-2-2.0224v-5h-3v2l-2.5-2.4693z" style="stroke-linejoin:round;stroke:url(#linearGradient3632);fill:url(#linearGradient2417)"/><path id="path3193" d="m8 2.4688-5.125 5.0937a1.0127 1.0127 0 0 1 0.65625 0.96875v5.9688h8.9375v-5.9688a1.0127 1.0127 0 0 1 0.656 -0.9374l-0.34375-0.375a1.0127 1.0127 0 0 1 -0.281 -0.7188v-4h-1v1a1.0127 1.0127 0 0 1 -1.7188 0.7188l-1.7812-1.75z" style="opacity:.4;stroke:url(#linearGradient3201);fill:none"/></g></svg>