<svg xmlns="http://www.w3.org/2000/svg" xmlns:xlink="http://www.w3.org/1999/xlink" id="svg2931" width="16" height="16" version="1.1"><defs id="defs2933"><linearGradient id="linearGradient3471" x1="97.718" x2="62.373" y1="17.834" y2="17.834" gradientTransform="matrix(.22083 0 0 .21608 -2.1086 -1.7481)" gradientUnits="userSpaceOnUse" spreadMethod="reflect" xlink:href="#linearGradient2793"/><linearGradient id="linearGradient2793"><stop id="stop2795" offset="0" style="stop-color:#555753"/><stop id="stop2797" offset="1" style="stop-color:#d3d7cf;stop-opacity:0"/></linearGradient><linearGradient id="linearGradient3473" x1="32.627" x2="64" y1="37.217" y2="37.217" gradientTransform="matrix(.21423 0 0 .19643 -1.6864 -1.3152)" gradientUnits="userSpaceOnUse" spreadMethod="reflect" xlink:href="#linearGradient2793"/><linearGradient id="linearGradient3475" x1="63.999" x2="63.999" y1="6.474" y2="31.226" gradientTransform="matrix(.20572 0 0 .20890 -1.1415 -2.158)" gradientUnits="userSpaceOnUse"><stop id="stop4304" offset="0" style="stop-color:silver"/><stop id="stop4306" offset="1" style="stop-color:#abacb0"/></linearGradient><linearGradient id="linearGradient3477" x1="92.005" x2="55.992" y1="47.259" y2="10.9" gradientTransform="matrix(.17957 0 0 .18234 .53191 .39342)" gradientUnits="userSpaceOnUse" spreadMethod="reflect" xlink:href="#linearGradient2793"/><linearGradient id="linearGradient3446" x1="4.885" x2="31.71" y1="38.13" y2="39.751" gradientTransform="matrix(.34525 0 0 .52929 4.8404 8.327)" gradientUnits="userSpaceOnUse"><stop id="stop3317" offset="0" style="stop-color:#f8f8f8;stop-opacity:.15464"/><stop id="stop3322" offset=".588" style="stop-color:#b0b2b6;stop-opacity:.17526"/><stop id="stop3319" offset=".759" style="stop-color:#5b5e62;stop-opacity:.3299"/><stop id="stop2342" offset="1" style="stop-color:#fff;stop-opacity:.15464"/></linearGradient><linearGradient id="linearGradient3448" x1="29.66" x2="29.233" y1="-20.891" y2="57.746" gradientTransform="matrix(.28539 0 0 .37390 3.5008 15.002)" gradientUnits="userSpaceOnUse"><stop id="stop4296" offset="0" style="stop-color:#bfc2c2"/><stop id="stop4298" offset="1" style="stop-color:#676b73"/></linearGradient><linearGradient id="linearGradient3488" x1="23.374" x2="13.483" y1="53.131" y2="53.131" gradientUnits="userSpaceOnUse"><stop id="stop158" offset="0" style="stop-color:#babdb6"/><stop id="stop159" offset="1" style="stop-color:#f1f5ec"/></linearGradient><linearGradient id="linearGradient3490" x1="27.405" x2="37.462" y1="52.355" y2="68.298" gradientTransform="matrix(.33978 0 0 .36612 .76225 .93081)" gradientUnits="userSpaceOnUse" spreadMethod="reflect" xlink:href="#linearGradient2793"/></defs><g id="layer1" transform="matrix(.98525 0 0 1 -2.9427 -17)"><g id="g3483" transform="matrix(.70242 0 0 .64352 3.4224 17.977)" style="stroke-width:1.4981"><path id="path2512" d="m41.359 53.131c0 1.1179-1.7541 2.229-4.7672 3.0195s-4.7615 1.2507-9.0226 1.2507-6.01-0.46021-9.023-1.2507c-3.0131-0.7905-4.7672-1.9016-4.7672-3.0195s1.7541-2.229 4.7672-3.0195 4.7619-1.2507 9.023-1.2507 6.0095 0.46021 9.0226 1.2507c3.0131 0.7905 4.7672 1.9016 4.7672 3.0195z" transform="matrix(.42213 0 0 .43047 -.66308 -2.1932)" style="stroke-linejoin:round;fill-rule:evenodd;stroke:#838383;stroke-linecap:round;stroke-width:3.5143;fill:url(#linearGradient3488)"/><path id="path2514" d="m41.14 53.131c0 1.1179-1.7541 2.229-4.7672 3.0195s-4.6517 1.2507-8.9128 1.2507-5.9002-0.46021-8.9132-1.2507c-3.0131-0.7905-4.7672-1.9016-4.7672-3.0195s1.7541-2.229 4.7672-3.0195 4.6521-1.2507 8.9132-1.2507 5.8997 0.46021 8.9128 1.2507c3.0131 0.7905 4.7672 1.9016 4.7672 3.0195z" transform="matrix(.40427 0 0 .36612 -.12638 .93081)" style="stroke-linejoin:round;fill-rule:evenodd;stroke:#838383;stroke-linecap:round;stroke-width:3.8939;fill:#d9dcd5"/><path id="path2518" d="m16.505 20.383a5.5304 1.5634 0 0 1 -11.061 0 5.5304 1.5634 0 1 1 11.061 0z" style="opacity:.5;fill-rule:evenodd;fill:url(#linearGradient3490)"/></g><path id="path2520" d="m5.8561 20.775c-0.012948-0.02182 0.71239 9.3701 0.71254 9.3748 0.048927 1.5697 1.6633 2.2273 4.6048 2.3506 3.5943-0.04854 4.4273-1.2591 4.4782-2.3506 0.0041-0.02152 0.72862-9.3533 0.73271-9.3748 0.67885-3.4751-3.0511-3.2196-4.9448-3.2196-2.0333 0-6.3484-0.08169-5.5835 3.2196z" style="stroke-linejoin:round;fill-rule:evenodd;stroke:url(#linearGradient3448);stroke-linecap:round;stroke-width:1.0072;fill:url(#linearGradient3446)"/><g id="g3454" transform="matrix(.65342 0 0 .93131 3.2497 17.028)" style="stroke-width:1.2911"><path id="path2516" d="m98.723 24.096a32.812 6.9078 0 1 1 -65.624 0 32.812 6.9078 0 1 1 65.624 0z" transform="matrix(.22083 0 0 .21608 -2.1086 -1.7481)" style="opacity:.77273;stroke-linejoin:round;fill-opacity:.51309;fill-rule:evenodd;stroke:#636363;stroke-linecap:round;stroke-width:5.9106;fill:#585858"/><path id="path2522" d="m4.459 3.6132s6.0171-1.8961 14.852-0.27906c3.3686-2.5499-7.9449-2.7365-7.9449-2.7365s-9.7035 0.52783-6.9069 3.0156z" style="fill:#d9dcd5;fill-rule:evenodd"/><path id="path2524" d="m4.459 3.6132s6.0171-1.8961 14.852-0.27906c3.3686-2.5499-7.9449-2.4141-7.9449-2.4141s-9.7035 0.20543-6.9069 2.6931z" style="stroke-linejoin:round;fill-rule:evenodd;stroke:#636363;stroke-linecap:round;stroke-width:1.2911;fill:url(#linearGradient3471)"/><path id="path2526" d="m3.4811 2.3777v1.6949c0 1.0357 3.8264 1.8772 8.5433 1.8772s8.5433-0.84148 8.5433-1.8772v-1.6949c-5.0223 3.0666-16.363 1.4776-17.087 0z" style="stroke-linejoin:round;fill-rule:evenodd;stroke:#808389;stroke-linecap:round;stroke-width:1.2911;fill:#fff"/><path id="path2528" d="m3.4811 2.8077v1.2649c0 1.0357 3.8264 1.8772 8.5433 1.8772s8.5433-0.84148 8.5433-1.8772v-1.6949c-5.023 3.0667-16.276 1.4236-17.087 0.43z" style="stroke-linejoin:round;fill-rule:evenodd;stroke:#808389;stroke-linecap:round;stroke-width:1.2911;fill:url(#linearGradient3473)"/><path id="path2530" d="m11.769 0.50725c-0.27892 0.001536-0.55728 0.007619-0.835 0.013505-2.0792 0.07509-4.2133 0.24436-6.1073 0.85084-0.6285 0.2187-1.4311 0.5709-1.3387 1.1074 0.1996 0.5789 1.1303 0.8593 1.877 1.0804 2.2491 0.5787 4.706 0.7063 7.101 0.6955 2.213-0.041 4.483-0.1896 6.528-0.7833 0.673-0.2195 1.524-0.5311 1.574-1.0871 0-0.065-0.013-0.1338-0.042-0.1959-0.327-0.5617-1.258-0.8169-2.042-1.0331-2.143-0.51271-4.444-0.66075-6.715-0.64825z" style="stroke-linejoin:round;stroke:url(#linearGradient3475);stroke-linecap:round;stroke-width:1.2911;fill:none"/><path id="path2532" d="m11.769 0.50725c-0.27892 0.001536-0.55728 0.007619-0.835 0.013505-2.0792 0.07509-4.2133 0.24436-6.1073 0.85084-0.6285 0.2187-1.4311 0.5709-1.3387 1.1074 0.1996 0.5789 1.1303 0.8593 1.877 1.0804 2.2491 0.5787 4.706 0.7063 7.101 0.6955 2.213-0.041 4.483-0.1896 6.528-0.7833 0.673-0.2195 1.524-0.5311 1.574-1.0871 0-0.065-0.013-0.1338-0.042-0.1959-0.327-0.5617-1.258-0.8169-2.042-1.0331-2.143-0.51271-4.444-0.66075-6.715-0.64825zm-0.407 0.29711c2.197-0.029681 4.4373 0.079495 6.5144 0.53345 0.71091 0.17891 1.553 0.39282 1.8494 0.85757 0.0261 0.051328 0.04148 0.10161 0.04141 0.15531-0.04451 0.46004-0.81895 0.7165-1.4285 0.89809-1.853 0.4912-3.91 0.621-5.914 0.655-2.17 0.0089-4.3947-0.1019-6.432-0.5807-0.6764-0.1829-1.5168-0.4124-1.6976-0.8914-0.0837-0.4439 0.6383-0.7373 1.2076-0.9183 1.7156-0.5018 3.6511-0.64016 5.535-0.70229 0.10782-0.002087 0.21629-0.005293 0.32434-0.006753z" style="fill-rule:evenodd;fill:url(#linearGradient3477)"/></g></g></svg>