<svg xmlns="http://www.w3.org/2000/svg" xmlns:xlink="http://www.w3.org/1999/xlink" id="svg3342" width="16" height="16" version="1.0"><defs id="defs3344"><linearGradient id="linearGradient2414" x1="33.579" x2="33.579" y1="5.709" y2="16.323" gradientTransform="matrix(.27161 0 0 .21990 -.75245 .077626)" gradientUnits="userSpaceOnUse"><stop id="stop2538" offset="0" style="stop-color:#fdfdf8"/><stop id="stop2555" offset="1" style="stop-color:#d6d3b4"/></linearGradient><linearGradient id="linearGradient2416" x1="16.916" x2="16.916" y1="7.001" y2="14" gradientTransform="matrix(.33333 0 0 .33337 .00071074 -1.0005)" gradientUnits="userSpaceOnUse"><stop id="stop2531" offset="0" style="stop-color:#aeae94"/><stop id="stop2533" offset="1" style="stop-color:#626337"/></linearGradient><linearGradient id="linearGradient2419" x1="24.683" x2="24.683" y1="9.242" y2="13.523" gradientTransform="matrix(.30428 0 0 0.234 .69933 2.8374)" gradientUnits="userSpaceOnUse"><stop id="stop3284" offset="0"/><stop id="stop3286" offset="1" style="stop-opacity:0"/></linearGradient><linearGradient id="linearGradient2422" x1="24.676" x2="24.676" y1="1.693" y2="44.296" gradientTransform="matrix(.28859 0 0 .28174 1.0735 1.5216)" gradientUnits="userSpaceOnUse"><stop id="stop2240" offset="0" style="stop-color:#fff"/><stop id="stop2242" offset="1" style="stop-color:#fff;stop-opacity:0"/></linearGradient><radialGradient id="radialGradient2425" cx="26.617" cy="-2.064" r="23" gradientTransform="matrix(0 -.37438 .46553 0 11.988 19.393)" gradientUnits="userSpaceOnUse"><stop id="stop2749" offset="0" style="stop-color:#d78ec1"/><stop id="stop2751" offset=".262" style="stop-color:#c564be"/><stop id="stop2753" offset=".661" style="stop-color:#9d3ea4"/><stop id="stop2755" offset="1" style="stop-color:#5e2c73"/></radialGradient><linearGradient id="linearGradient2427" x1="10.014" x2="10.014" y1="44.96" y2="-11.867" gradientTransform="matrix(.31912 0 0 .31740 .34112 .33334)" gradientUnits="userSpaceOnUse"><stop id="stop2759" offset="0" style="stop-color:#650d5c"/><stop id="stop2761" offset="1" style="stop-color:#ad53a5"/></linearGradient></defs><rect id="rect1316" width="14.998" height="12.998" x=".501" y="1.501" rx="1.528" ry="1.562" style="stroke-linejoin:round;stroke-width:1.0021;fill-rule:evenodd;stroke:url(#linearGradient2427);stroke-linecap:round;fill:url(#radialGradient2425)"/><rect id="rect2232" width="12.998" height="10.998" x="1.501" y="2.501" rx=".537" ry=".537" style="opacity:.4;stroke-linejoin:round;stroke:url(#linearGradient2422);stroke-linecap:round;stroke-width:1.0021;fill:none"/><rect id="rect1436" width="14" height="1" x="1" y="5" rx="0" ry="0" style="opacity:.2;fill-rule:evenodd;fill:url(#linearGradient2419)"/><path id="rect2311" d="m1.5007 1.5l13.112 0.0029c0.521 0 0.888 0.4204 0.888 0.8857v2.1114h-15c-0.00029 0-0.00029-2.1114-0.00029-2.1114 0-0.4959 0.40293-0.8886 0.99999-0.8886z" style="fill-rule:evenodd;stroke:url(#linearGradient2416);fill:url(#linearGradient2414)"/><path id="path4160" d="m2 5h1.4069c0.0737 0.0324 0.4897 0.4266 0.5931 0.6818v2.3182h-2v-3z" style="fill:#d7d7d7"/><path id="path3427" d="m2 9h1.4069c0.0737 0.0324 0.4897 0.4266 0.5931 0.6818v2.3182h-2v-3z" style="fill:#d7d7d7"/></svg>