<svg xmlns="http://www.w3.org/2000/svg" xmlns:svg="http://www.w3.org/2000/svg" xmlns:xlink="http://www.w3.org/1999/xlink" id="svg2383" width="1920" height="1080" version="1.0"><defs id="defs2385"><linearGradient id="linearGradient3264"><stop style="stop-color:#6f82c1;stop-opacity:1" id="stop3266" offset="0"/><stop style="stop-color:#324da7;stop-opacity:1" id="stop3268" offset="1"/></linearGradient><linearGradient id="linearGradient3190"><stop style="stop-color:#324da7;stop-opacity:1" id="stop3192" offset="0"/><stop style="stop-color:#324da7;stop-opacity:0" id="stop3194" offset="1"/></linearGradient><linearGradient id="linearGradient3267"><stop style="stop-color:#00f;stop-opacity:0" id="stop3269" offset="0"/><stop id="stop3275" offset=".488" style="stop-color:#fff;stop-opacity:1"/><stop style="stop-color:#00f;stop-opacity:0" id="stop3271" offset="1"/></linearGradient><linearGradient id="linearGradient3273" x1="333.266" x2="1668.856" y1="671.267" y2="671.267" gradientTransform="matrix(0.4475832,0,0,1.1594093,-317.72844,-354.23847)" gradientUnits="userSpaceOnUse" xlink:href="#linearGradient3267"/><linearGradient id="linearGradient3463" x1="333.266" x2="1668.856" y1="671.267" y2="671.267" gradientTransform="matrix(0.4475832,0,0,1.1594093,-317.72845,-255.93349)" gradientUnits="userSpaceOnUse" xlink:href="#linearGradient3267"/><linearGradient id="linearGradient3196" x1="1917.672" x2="1622.826" y1="542.599" y2="542.599" gradientTransform="translate(-480.00173,0)" gradientUnits="userSpaceOnUse" xlink:href="#linearGradient3190"/><linearGradient id="linearGradient3200" x1="1917.672" x2="1622.826" y1="542.599" y2="542.599" gradientTransform="matrix(-1,0,0,1,1920.0025,7.77e-2)" gradientUnits="userSpaceOnUse" xlink:href="#linearGradient3190"/><radialGradient id="radialGradient3270" cx="141.421" cy="172.075" r="73.539" fx="141.421" fy="172.075" gradientUnits="userSpaceOnUse" xlink:href="#linearGradient3264"/><radialGradient id="radialGradient3287" cx="141.421" cy="172.075" r="73.539" fx="141.421" fy="172.075" gradientUnits="userSpaceOnUse" xlink:href="#linearGradient3264"/><radialGradient id="radialGradient3297" cx="141.421" cy="172.075" r="73.539" fx="141.421" fy="172.075" gradientUnits="userSpaceOnUse" xlink:href="#linearGradient3264"/><radialGradient id="radialGradient3307" cx="141.421" cy="172.075" r="73.539" fx="141.421" fy="172.075" gradientUnits="userSpaceOnUse" xlink:href="#linearGradient3264"/><radialGradient id="radialGradient3317" cx="141.421" cy="172.075" r="73.539" fx="141.421" fy="172.075" gradientUnits="userSpaceOnUse" xlink:href="#linearGradient3264"/><radialGradient id="radialGradient3327" cx="141.421" cy="172.075" r="73.539" fx="141.421" fy="172.075" gradientUnits="userSpaceOnUse" xlink:href="#linearGradient3264"/><radialGradient id="radialGradient3337" cx="141.421" cy="172.075" r="73.539" fx="141.421" fy="172.075" gradientUnits="userSpaceOnUse" xlink:href="#linearGradient3264"/><radialGradient id="radialGradient3347" cx="141.421" cy="172.075" r="73.539" fx="141.421" fy="172.075" gradientUnits="userSpaceOnUse" xlink:href="#linearGradient3264"/><radialGradient id="radialGradient3357" cx="141.421" cy="172.075" r="73.539" fx="141.421" fy="172.075" gradientUnits="userSpaceOnUse" xlink:href="#linearGradient3264"/><radialGradient id="radialGradient3367" cx="141.421" cy="172.075" r="73.539" fx="141.421" fy="172.075" gradientUnits="userSpaceOnUse" xlink:href="#linearGradient3264"/><radialGradient id="radialGradient3377" cx="141.421" cy="172.075" r="73.539" fx="141.421" fy="172.075" gradientUnits="userSpaceOnUse" xlink:href="#linearGradient3264"/><radialGradient id="radialGradient3387" cx="141.421" cy="172.075" r="73.539" fx="141.421" fy="172.075" gradientUnits="userSpaceOnUse" xlink:href="#linearGradient3264"/><radialGradient id="radialGradient3397" cx="141.421" cy="172.075" r="73.539" fx="141.421" fy="172.075" gradientUnits="userSpaceOnUse" xlink:href="#linearGradient3264"/><radialGradient id="radialGradient3407" cx="141.421" cy="172.075" r="73.539" fx="141.421" fy="172.075" gradientUnits="userSpaceOnUse" xlink:href="#linearGradient3264"/><radialGradient id="radialGradient3417" cx="141.421" cy="172.075" r="73.539" fx="141.421" fy="172.075" gradientUnits="userSpaceOnUse" xlink:href="#linearGradient3264"/><radialGradient id="radialGradient3427" cx="141.421" cy="172.075" r="73.539" fx="141.421" fy="172.075" gradientUnits="userSpaceOnUse" xlink:href="#linearGradient3264"/><radialGradient id="radialGradient3437" cx="141.421" cy="172.075" r="73.539" fx="141.421" fy="172.075" gradientUnits="userSpaceOnUse" xlink:href="#linearGradient3264"/><radialGradient id="radialGradient3447" cx="141.421" cy="172.075" r="73.539" fx="141.421" fy="172.075" gradientUnits="userSpaceOnUse" xlink:href="#linearGradient3264"/><radialGradient id="radialGradient3457" cx="141.421" cy="172.075" r="73.539" fx="141.421" fy="172.075" gradientUnits="userSpaceOnUse" xlink:href="#linearGradient3264"/><radialGradient id="radialGradient3467" cx="141.421" cy="172.075" r="73.539" fx="141.421" fy="172.075" gradientUnits="userSpaceOnUse" xlink:href="#linearGradient3264"/><radialGradient id="radialGradient3477" cx="141.421" cy="172.075" r="73.539" fx="141.421" fy="172.075" gradientUnits="userSpaceOnUse" xlink:href="#linearGradient3264"/><radialGradient id="radialGradient3487" cx="141.421" cy="172.075" r="73.539" fx="141.421" fy="172.075" gradientUnits="userSpaceOnUse" xlink:href="#linearGradient3264"/><radialGradient id="radialGradient3497" cx="141.421" cy="172.075" r="73.539" fx="141.421" fy="172.075" gradientUnits="userSpaceOnUse" xlink:href="#linearGradient3264"/><radialGradient id="radialGradient3507" cx="141.421" cy="172.075" r="73.539" fx="141.421" fy="172.075" gradientUnits="userSpaceOnUse" xlink:href="#linearGradient3264"/><radialGradient id="radialGradient3517" cx="141.421" cy="172.075" r="73.539" fx="141.421" fy="172.075" gradientUnits="userSpaceOnUse" xlink:href="#linearGradient3264"/><radialGradient id="radialGradient3527" cx="141.421" cy="172.075" r="73.539" fx="141.421" fy="172.075" gradientUnits="userSpaceOnUse" xlink:href="#linearGradient3264"/><radialGradient id="radialGradient3537" cx="141.421" cy="172.075" r="73.539" fx="141.421" fy="172.075" gradientUnits="userSpaceOnUse" xlink:href="#linearGradient3264"/><radialGradient id="radialGradient3547" cx="141.421" cy="172.075" r="73.539" fx="141.421" fy="172.075" gradientUnits="userSpaceOnUse" xlink:href="#linearGradient3264"/><radialGradient id="radialGradient3557" cx="141.421" cy="172.075" r="73.539" fx="141.421" fy="172.075" gradientUnits="userSpaceOnUse" xlink:href="#linearGradient3264"/><radialGradient id="radialGradient3567" cx="141.421" cy="172.075" r="73.539" fx="141.421" fy="172.075" gradientUnits="userSpaceOnUse" xlink:href="#linearGradient3264"/><radialGradient id="radialGradient3577" cx="141.421" cy="172.075" r="73.539" fx="141.421" fy="172.075" gradientUnits="userSpaceOnUse" xlink:href="#linearGradient3264"/><radialGradient id="radialGradient3587" cx="141.421" cy="172.075" r="73.539" fx="141.421" fy="172.075" gradientUnits="userSpaceOnUse" xlink:href="#linearGradient3264"/><radialGradient id="radialGradient3597" cx="141.421" cy="172.075" r="73.539" fx="141.421" fy="172.075" gradientUnits="userSpaceOnUse" xlink:href="#linearGradient3264"/><radialGradient id="radialGradient3607" cx="141.421" cy="172.075" r="73.539" fx="141.421" fy="172.075" gradientUnits="userSpaceOnUse" xlink:href="#linearGradient3264"/><radialGradient id="radialGradient3617" cx="141.421" cy="172.075" r="73.539" fx="141.421" fy="172.075" gradientUnits="userSpaceOnUse" xlink:href="#linearGradient3264"/><radialGradient id="radialGradient3627" cx="141.421" cy="172.075" r="73.539" fx="141.421" fy="172.075" gradientUnits="userSpaceOnUse" xlink:href="#linearGradient3264"/><radialGradient id="radialGradient3637" cx="141.421" cy="172.075" r="73.539" fx="141.421" fy="172.075" gradientUnits="userSpaceOnUse" xlink:href="#linearGradient3264"/><radialGradient id="radialGradient3647" cx="141.421" cy="172.075" r="73.539" fx="141.421" fy="172.075" gradientUnits="userSpaceOnUse" xlink:href="#linearGradient3264"/><radialGradient id="radialGradient3657" cx="141.421" cy="172.075" r="73.539" fx="141.421" fy="172.075" gradientUnits="userSpaceOnUse" xlink:href="#linearGradient3264"/><radialGradient id="radialGradient2604" cx="141.421" cy="172.075" r="73.539" fx="141.421" fy="172.075" gradientUnits="userSpaceOnUse" xlink:href="#linearGradient3264"/><radialGradient id="radialGradient2614" cx="141.421" cy="172.075" r="73.539" fx="141.421" fy="172.075" gradientUnits="userSpaceOnUse" xlink:href="#linearGradient3264"/><radialGradient id="radialGradient2624" cx="141.421" cy="172.075" r="73.539" fx="141.421" fy="172.075" gradientUnits="userSpaceOnUse" xlink:href="#linearGradient3264"/></defs><metadata id="metadata2388"/><g id="layer1" transform="translate(1.9328e-3,0)"><rect style="opacity:0;fill:#000;fill-opacity:1;stroke:none;stroke-width:1;stroke-miterlimit:4;stroke-dasharray:none;stroke-opacity:1" id="rect3160" width="1926" height="1080.005" x="-.002" y="-1079.999" rx="0" ry="0" transform="scale(1,-1)"/><g id="g2399" transform="translate(239.99807,-6.3155368e-3)"><text id="text2395" x="722.82" y="532.013" xml:space="preserve" style="font-style:normal;font-variant:normal;font-weight:400;font-stretch:normal;line-height:0%;font-family:'Bitstream Vera Sans';-inkscape-font-specification:'Bitstream Vera Sans';text-align:center;writing-mode:lr-tb;text-anchor:middle;fill:#324da7;fill-opacity:1;stroke:none;stroke-width:3.75001788;stroke-linecap:butt;stroke-linejoin:miter;stroke-miterlimit:4;stroke-dasharray:none;stroke-dashoffset:0;stroke-opacity:1"><tspan style="font-style:normal;font-variant:normal;font-weight:700;font-stretch:normal;font-size:131.25064087px;line-height:125%;font-family:'Bitstream Vera Sans';-inkscape-font-specification:'Bitstream Vera Sans Bold';text-align:center;writing-mode:lr-tb;text-anchor:middle;fill:#324da7;fill-opacity:1;stroke:none;stroke-width:3.75001788;stroke-miterlimit:4;stroke-dasharray:none;stroke-opacity:1" id="tspan2397" x="722.82" y="532.013">The Title</tspan></text><text id="text3161" x="719.027" y="647.036" xml:space="preserve" style="font-style:normal;font-variant:normal;font-weight:400;font-stretch:normal;line-height:0%;font-family:'Bitstream Vera Sans';-inkscape-font-specification:'Bitstream Vera Sans';text-align:center;writing-mode:lr-tb;text-anchor:middle;fill:#6f82c1;fill-opacity:1;stroke:none;stroke-width:2.81251335;stroke-linecap:butt;stroke-linejoin:miter;stroke-miterlimit:4;stroke-dasharray:none;stroke-dashoffset:0;stroke-opacity:1"><tspan style="font-style:normal;font-variant:normal;font-weight:700;font-stretch:normal;font-size:81.3274231px;line-height:125%;font-family:'Bitstream Vera Sans';-inkscape-font-specification:'Bitstream Vera Sans Bold';text-align:center;writing-mode:lr-tb;text-anchor:middle;fill:#6f82c1;fill-opacity:1;stroke:none;stroke-width:2.81251335;stroke-miterlimit:4;stroke-dasharray:none;stroke-opacity:1" id="tspan3163" x="719.027" y="647.036">Sub-Title</tspan></text></g><g id="g3274" transform="matrix(1,0,0,-1,-36,1113.9938)" style="opacity:.69166667"><path id="path2490" d="M 214.96046,172.07489 A 73.539108,73.539108 0 0 1 141.42136,245.614 73.539108,73.539108 0 0 1 67.882248,172.07489 73.539108,73.539108 0 0 1 141.42136,98.535782 73.539108,73.539108 0 0 1 214.96046,172.07489 Z" transform="translate(-1.9328e-3,0)" style="opacity:.55;fill:url(#radialGradient3270);fill-opacity:1;stroke:none;stroke-width:1.5;stroke-miterlimit:4;stroke-dasharray:none;stroke-opacity:1"/><path id="path2492" d="m 172.53406,172.07489 a 39.59798,39.59798 0 0 1 -39.59798,39.59798 39.59798,39.59798 0 0 1 -39.59798,-39.59798 39.59798,39.59798 0 0 1 39.59798,-39.59798 39.59798,39.59798 0 0 1 39.59798,39.59798 z" transform="matrix(0.6857754,0.3834829,-0.4749959,0.8494263,105.11994,-50.171047)" style="opacity:.47916667;fill:#fff;fill-opacity:.76078431;stroke:none;stroke-width:1.5;stroke-miterlimit:4;stroke-dasharray:none;stroke-opacity:1"/><path id="path3272" d="m 172.53406,172.07489 a 39.59798,39.59798 0 0 1 -39.59798,39.59798 39.59798,39.59798 0 0 1 -39.59798,-39.59798 39.59798,39.59798 0 0 1 39.59798,-39.59798 39.59798,39.59798 0 0 1 39.59798,39.59798 z" transform="matrix(0.3328355,0.1861203,-0.2305354,0.4122621,104.42157,39.321787)" style="opacity:1;fill:#fff;fill-opacity:.76078431;stroke:none;stroke-width:1.5;stroke-miterlimit:4;stroke-dasharray:none;stroke-opacity:1"/></g><g id="g3279" transform="matrix(1,0,0,-1,290.57863,1102.0687)"><path id="path3281" d="M 214.96046,172.07489 A 73.539108,73.539108 0 0 1 141.42136,245.614 73.539108,73.539108 0 0 1 67.882248,172.07489 73.539108,73.539108 0 0 1 141.42136,98.535782 73.539108,73.539108 0 0 1 214.96046,172.07489 Z" transform="translate(-1.9328e-3,0)" style="opacity:.55;fill:url(#radialGradient3287);fill-opacity:1;stroke:none;stroke-width:1.5;stroke-miterlimit:4;stroke-dasharray:none;stroke-opacity:1"/><path id="path3283" d="m 172.53406,172.07489 a 39.59798,39.59798 0 0 1 -39.59798,39.59798 39.59798,39.59798 0 0 1 -39.59798,-39.59798 39.59798,39.59798 0 0 1 39.59798,-39.59798 39.59798,39.59798 0 0 1 39.59798,39.59798 z" transform="matrix(0.6857754,0.3834829,-0.4749959,0.8494263,105.11994,-50.171047)" style="opacity:.47916667;fill:#fff;fill-opacity:.76078431;stroke:none;stroke-width:1.5;stroke-miterlimit:4;stroke-dasharray:none;stroke-opacity:1"/><path id="path3285" d="m 172.53406,172.07489 a 39.59798,39.59798 0 0 1 -39.59798,39.59798 39.59798,39.59798 0 0 1 -39.59798,-39.59798 39.59798,39.59798 0 0 1 39.59798,-39.59798 39.59798,39.59798 0 0 1 39.59798,39.59798 z" transform="matrix(0.3328355,0.1861203,-0.2305354,0.4122621,104.42157,39.321787)" style="opacity:1;fill:#fff;fill-opacity:.76078431;stroke:none;stroke-width:1.5;stroke-miterlimit:4;stroke-dasharray:none;stroke-opacity:1"/></g><g id="g3289" transform="matrix(1,0,0,-1,256.57863,887.06871)" style="opacity:.80416667"><path id="path3291" d="M 214.96046,172.07489 A 73.539108,73.539108 0 0 1 141.42136,245.614 73.539108,73.539108 0 0 1 67.882248,172.07489 73.539108,73.539108 0 0 1 141.42136,98.535782 73.539108,73.539108 0 0 1 214.96046,172.07489 Z" transform="translate(-1.9328e-3,0)" style="opacity:.55;fill:url(#radialGradient3297);fill-opacity:1;stroke:none;stroke-width:1.5;stroke-miterlimit:4;stroke-dasharray:none;stroke-opacity:1"/><path id="path3293" d="m 172.53406,172.07489 a 39.59798,39.59798 0 0 1 -39.59798,39.59798 39.59798,39.59798 0 0 1 -39.59798,-39.59798 39.59798,39.59798 0 0 1 39.59798,-39.59798 39.59798,39.59798 0 0 1 39.59798,39.59798 z" transform="matrix(0.6857754,0.3834829,-0.4749959,0.8494263,105.11994,-50.171047)" style="opacity:.47916667;fill:#fff;fill-opacity:.76078431;stroke:none;stroke-width:1.5;stroke-miterlimit:4;stroke-dasharray:none;stroke-opacity:1"/><path id="path3295" d="m 172.53406,172.07489 a 39.59798,39.59798 0 0 1 -39.59798,39.59798 39.59798,39.59798 0 0 1 -39.59798,-39.59798 39.59798,39.59798 0 0 1 39.59798,-39.59798 39.59798,39.59798 0 0 1 39.59798,39.59798 z" transform="matrix(0.3328355,0.1861203,-0.2305354,0.4122621,104.42157,39.321787)" style="opacity:1;fill:#fff;fill-opacity:.76078431;stroke:none;stroke-width:1.5;stroke-miterlimit:4;stroke-dasharray:none;stroke-opacity:1"/></g><g id="g3299" transform="matrix(1,0,0,-1,654.57864,1173.0687)" style="opacity:.62916667"><path id="path3301" d="M 214.96046,172.07489 A 73.539108,73.539108 0 0 1 141.42136,245.614 73.539108,73.539108 0 0 1 67.882248,172.07489 73.539108,73.539108 0 0 1 141.42136,98.535782 73.539108,73.539108 0 0 1 214.96046,172.07489 Z" transform="translate(-1.9328e-3,0)" style="opacity:.55;fill:url(#radialGradient3307);fill-opacity:1;stroke:none;stroke-width:1.5;stroke-miterlimit:4;stroke-dasharray:none;stroke-opacity:1"/><path id="path3303" d="m 172.53406,172.07489 a 39.59798,39.59798 0 0 1 -39.59798,39.59798 39.59798,39.59798 0 0 1 -39.59798,-39.59798 39.59798,39.59798 0 0 1 39.59798,-39.59798 39.59798,39.59798 0 0 1 39.59798,39.59798 z" transform="matrix(0.6857754,0.3834829,-0.4749959,0.8494263,105.11994,-50.171047)" style="opacity:.47916667;fill:#fff;fill-opacity:.76078431;stroke:none;stroke-width:1.5;stroke-miterlimit:4;stroke-dasharray:none;stroke-opacity:1"/><path id="path3305" d="m 172.53406,172.07489 a 39.59798,39.59798 0 0 1 -39.59798,39.59798 39.59798,39.59798 0 0 1 -39.59798,-39.59798 39.59798,39.59798 0 0 1 39.59798,-39.59798 39.59798,39.59798 0 0 1 39.59798,39.59798 z" transform="matrix(0.3328355,0.1861203,-0.2305354,0.4122621,104.42157,39.321787)" style="opacity:1;fill:#fff;fill-opacity:.76078431;stroke:none;stroke-width:1.5;stroke-miterlimit:4;stroke-dasharray:none;stroke-opacity:1"/></g><g id="g3309" transform="matrix(1,0,0,-1,1407.5788,1066.0687)" style="opacity:.90416715"><path id="path3311" d="M 214.96046,172.07489 A 73.539108,73.539108 0 0 1 141.42136,245.614 73.539108,73.539108 0 0 1 67.882248,172.07489 73.539108,73.539108 0 0 1 141.42136,98.535782 73.539108,73.539108 0 0 1 214.96046,172.07489 Z" transform="translate(-1.9328e-3,0)" style="opacity:.55;fill:url(#radialGradient3317);fill-opacity:1;stroke:none;stroke-width:1.5;stroke-miterlimit:4;stroke-dasharray:none;stroke-opacity:1"/><path id="path3313" d="m 172.53406,172.07489 a 39.59798,39.59798 0 0 1 -39.59798,39.59798 39.59798,39.59798 0 0 1 -39.59798,-39.59798 39.59798,39.59798 0 0 1 39.59798,-39.59798 39.59798,39.59798 0 0 1 39.59798,39.59798 z" transform="matrix(0.6857754,0.3834829,-0.4749959,0.8494263,105.11994,-50.171047)" style="opacity:.47916667;fill:#fff;fill-opacity:.76078431;stroke:none;stroke-width:1.5;stroke-miterlimit:4;stroke-dasharray:none;stroke-opacity:1"/><path id="path3315" d="m 172.53406,172.07489 a 39.59798,39.59798 0 0 1 -39.59798,39.59798 39.59798,39.59798 0 0 1 -39.59798,-39.59798 39.59798,39.59798 0 0 1 39.59798,-39.59798 39.59798,39.59798 0 0 1 39.59798,39.59798 z" transform="matrix(0.3328355,0.1861203,-0.2305354,0.4122621,104.42157,39.321787)" style="opacity:1;fill:#fff;fill-opacity:.76078431;stroke:none;stroke-width:1.5;stroke-miterlimit:4;stroke-dasharray:none;stroke-opacity:1"/></g><g id="g3319" transform="matrix(1,0,0,-1,760.57864,960.06871)"><path id="path3321" d="M 214.96046,172.07489 A 73.539108,73.539108 0 0 1 141.42136,245.614 73.539108,73.539108 0 0 1 67.882248,172.07489 73.539108,73.539108 0 0 1 141.42136,98.535782 73.539108,73.539108 0 0 1 214.96046,172.07489 Z" transform="translate(-1.9328e-3,0)" style="opacity:.55;fill:url(#radialGradient3327);fill-opacity:1;stroke:none;stroke-width:1.5;stroke-miterlimit:4;stroke-dasharray:none;stroke-opacity:1"/><path id="path3323" d="m 172.53406,172.07489 a 39.59798,39.59798 0 0 1 -39.59798,39.59798 39.59798,39.59798 0 0 1 -39.59798,-39.59798 39.59798,39.59798 0 0 1 39.59798,-39.59798 39.59798,39.59798 0 0 1 39.59798,39.59798 z" transform="matrix(0.6857754,0.3834829,-0.4749959,0.8494263,105.11994,-50.171047)" style="opacity:.47916667;fill:#fff;fill-opacity:.76078431;stroke:none;stroke-width:1.5;stroke-miterlimit:4;stroke-dasharray:none;stroke-opacity:1"/><path id="path3325" d="m 172.53406,172.07489 a 39.59798,39.59798 0 0 1 -39.59798,39.59798 39.59798,39.59798 0 0 1 -39.59798,-39.59798 39.59798,39.59798 0 0 1 39.59798,-39.59798 39.59798,39.59798 0 0 1 39.59798,39.59798 z" transform="matrix(0.3328355,0.1861203,-0.2305354,0.4122621,104.42157,39.321787)" style="opacity:1;fill:#fff;fill-opacity:.76078431;stroke:none;stroke-width:1.5;stroke-miterlimit:4;stroke-dasharray:none;stroke-opacity:1"/></g><g id="g3329" transform="matrix(1,0,0,-1,1737.5787,1208.0687)" style="opacity:.90833285"><path id="path3331" d="M 214.96046,172.07489 A 73.539108,73.539108 0 0 1 141.42136,245.614 73.539108,73.539108 0 0 1 67.882248,172.07489 73.539108,73.539108 0 0 1 141.42136,98.535782 73.539108,73.539108 0 0 1 214.96046,172.07489 Z" transform="translate(-1.9328e-3,0)" style="opacity:.55;fill:url(#radialGradient3337);fill-opacity:1;stroke:none;stroke-width:1.5;stroke-miterlimit:4;stroke-dasharray:none;stroke-opacity:1"/><path id="path3333" d="m 172.53406,172.07489 a 39.59798,39.59798 0 0 1 -39.59798,39.59798 39.59798,39.59798 0 0 1 -39.59798,-39.59798 39.59798,39.59798 0 0 1 39.59798,-39.59798 39.59798,39.59798 0 0 1 39.59798,39.59798 z" transform="matrix(0.6857754,0.3834829,-0.4749959,0.8494263,105.11994,-50.171047)" style="opacity:.47916667;fill:#fff;fill-opacity:.76078431;stroke:none;stroke-width:1.5;stroke-miterlimit:4;stroke-dasharray:none;stroke-opacity:1"/><path id="path3335" d="m 172.53406,172.07489 a 39.59798,39.59798 0 0 1 -39.59798,39.59798 39.59798,39.59798 0 0 1 -39.59798,-39.59798 39.59798,39.59798 0 0 1 39.59798,-39.59798 39.59798,39.59798 0 0 1 39.59798,39.59798 z" transform="matrix(0.3328355,0.1861203,-0.2305354,0.4122621,104.42157,39.321787)" style="opacity:1;fill:#fff;fill-opacity:.76078431;stroke:none;stroke-width:1.5;stroke-miterlimit:4;stroke-dasharray:none;stroke-opacity:1"/></g><g id="g3339" transform="matrix(1,0,0,-1,1574.5787,888.06871)" style="opacity:.75"><path id="path3341" d="M 214.96046,172.07489 A 73.539108,73.539108 0 0 1 141.42136,245.614 73.539108,73.539108 0 0 1 67.882248,172.07489 73.539108,73.539108 0 0 1 141.42136,98.535782 73.539108,73.539108 0 0 1 214.96046,172.07489 Z" transform="translate(-1.9328e-3,0)" style="opacity:.55;fill:url(#radialGradient3347);fill-opacity:1;stroke:none;stroke-width:1.5;stroke-miterlimit:4;stroke-dasharray:none;stroke-opacity:1"/><path id="path3343" d="m 172.53406,172.07489 a 39.59798,39.59798 0 0 1 -39.59798,39.59798 39.59798,39.59798 0 0 1 -39.59798,-39.59798 39.59798,39.59798 0 0 1 39.59798,-39.59798 39.59798,39.59798 0 0 1 39.59798,39.59798 z" transform="matrix(0.6857754,0.3834829,-0.4749959,0.8494263,105.11994,-50.171047)" style="opacity:.47916667;fill:#fff;fill-opacity:.76078431;stroke:none;stroke-width:1.5;stroke-miterlimit:4;stroke-dasharray:none;stroke-opacity:1"/><path id="path3345" d="m 172.53406,172.07489 a 39.59798,39.59798 0 0 1 -39.59798,39.59798 39.59798,39.59798 0 0 1 -39.59798,-39.59798 39.59798,39.59798 0 0 1 39.59798,-39.59798 39.59798,39.59798 0 0 1 39.59798,39.59798 z" transform="matrix(0.3328355,0.1861203,-0.2305354,0.4122621,104.42157,39.321787)" style="opacity:1;fill:#fff;fill-opacity:.76078431;stroke:none;stroke-width:1.5;stroke-miterlimit:4;stroke-dasharray:none;stroke-opacity:1"/></g><g id="g3349" transform="matrix(1,0,0,-1,1599.5787,635.06871)" style="opacity:.45416667"><path id="path3351" d="M 214.96046,172.07489 A 73.539108,73.539108 0 0 1 141.42136,245.614 73.539108,73.539108 0 0 1 67.882248,172.07489 73.539108,73.539108 0 0 1 141.42136,98.535782 73.539108,73.539108 0 0 1 214.96046,172.07489 Z" transform="translate(-1.9328e-3,0)" style="opacity:.55;fill:url(#radialGradient3357);fill-opacity:1;stroke:none;stroke-width:1.5;stroke-miterlimit:4;stroke-dasharray:none;stroke-opacity:1"/><path id="path3353" d="m 172.53406,172.07489 a 39.59798,39.59798 0 0 1 -39.59798,39.59798 39.59798,39.59798 0 0 1 -39.59798,-39.59798 39.59798,39.59798 0 0 1 39.59798,-39.59798 39.59798,39.59798 0 0 1 39.59798,39.59798 z" transform="matrix(0.6857754,0.3834829,-0.4749959,0.8494263,105.11994,-50.171047)" style="opacity:.47916667;fill:#fff;fill-opacity:.76078431;stroke:none;stroke-width:1.5;stroke-miterlimit:4;stroke-dasharray:none;stroke-opacity:1"/><path id="path3355" d="m 172.53406,172.07489 a 39.59798,39.59798 0 0 1 -39.59798,39.59798 39.59798,39.59798 0 0 1 -39.59798,-39.59798 39.59798,39.59798 0 0 1 39.59798,-39.59798 39.59798,39.59798 0 0 1 39.59798,39.59798 z" transform="matrix(0.3328355,0.1861203,-0.2305354,0.4122621,104.42157,39.321787)" style="opacity:1;fill:#fff;fill-opacity:.76078431;stroke:none;stroke-width:1.5;stroke-miterlimit:4;stroke-dasharray:none;stroke-opacity:1"/></g><g id="g3359" transform="matrix(1,0,0,-1,29.578644,650.06871)" style="opacity:.5125"><path id="path3361" d="M 214.96046,172.07489 A 73.539108,73.539108 0 0 1 141.42136,245.614 73.539108,73.539108 0 0 1 67.882248,172.07489 73.539108,73.539108 0 0 1 141.42136,98.535782 73.539108,73.539108 0 0 1 214.96046,172.07489 Z" transform="translate(-1.9328e-3,0)" style="opacity:.55;fill:url(#radialGradient3367);fill-opacity:1;stroke:none;stroke-width:1.5;stroke-miterlimit:4;stroke-dasharray:none;stroke-opacity:1"/><path id="path3363" d="m 172.53406,172.07489 a 39.59798,39.59798 0 0 1 -39.59798,39.59798 39.59798,39.59798 0 0 1 -39.59798,-39.59798 39.59798,39.59798 0 0 1 39.59798,-39.59798 39.59798,39.59798 0 0 1 39.59798,39.59798 z" transform="matrix(0.6857754,0.3834829,-0.4749959,0.8494263,105.11994,-50.171047)" style="opacity:.47916667;fill:#fff;fill-opacity:.76078431;stroke:none;stroke-width:1.5;stroke-miterlimit:4;stroke-dasharray:none;stroke-opacity:1"/><path id="path3365" d="m 172.53406,172.07489 a 39.59798,39.59798 0 0 1 -39.59798,39.59798 39.59798,39.59798 0 0 1 -39.59798,-39.59798 39.59798,39.59798 0 0 1 39.59798,-39.59798 39.59798,39.59798 0 0 1 39.59798,39.59798 z" transform="matrix(0.3328355,0.1861203,-0.2305354,0.4122621,104.42157,39.321787)" style="opacity:1;fill:#fff;fill-opacity:.76078431;stroke:none;stroke-width:1.5;stroke-miterlimit:4;stroke-dasharray:none;stroke-opacity:1"/></g><g id="g3369" transform="matrix(0.4424735,0,0,-0.4424735,988.42371,1013.1324)" style="opacity:.70416667"><path id="path3371" d="M 214.96046,172.07489 A 73.539108,73.539108 0 0 1 141.42136,245.614 73.539108,73.539108 0 0 1 67.882248,172.07489 73.539108,73.539108 0 0 1 141.42136,98.535782 73.539108,73.539108 0 0 1 214.96046,172.07489 Z" transform="translate(-1.9328e-3,0)" style="opacity:.55;fill:url(#radialGradient3377);fill-opacity:1;stroke:none;stroke-width:1.5;stroke-miterlimit:4;stroke-dasharray:none;stroke-opacity:1"/><path id="path3373" d="m 172.53406,172.07489 a 39.59798,39.59798 0 0 1 -39.59798,39.59798 39.59798,39.59798 0 0 1 -39.59798,-39.59798 39.59798,39.59798 0 0 1 39.59798,-39.59798 39.59798,39.59798 0 0 1 39.59798,39.59798 z" transform="matrix(0.6857754,0.3834829,-0.4749959,0.8494263,105.11994,-50.171047)" style="opacity:.47916667;fill:#fff;fill-opacity:.76078431;stroke:none;stroke-width:1.5;stroke-miterlimit:4;stroke-dasharray:none;stroke-opacity:1"/><path id="path3375" d="m 172.53406,172.07489 a 39.59798,39.59798 0 0 1 -39.59798,39.59798 39.59798,39.59798 0 0 1 -39.59798,-39.59798 39.59798,39.59798 0 0 1 39.59798,-39.59798 39.59798,39.59798 0 0 1 39.59798,39.59798 z" transform="matrix(0.3328355,0.1861203,-0.2305354,0.4122621,104.42157,39.321787)" style="opacity:1;fill:#fff;fill-opacity:.76078431;stroke:none;stroke-width:1.5;stroke-miterlimit:4;stroke-dasharray:none;stroke-opacity:1"/></g><g id="g3379" transform="matrix(0.4424735,0,0,-0.4424735,1421.4238,794.1324)" style="opacity:.76859502"><path id="path3381" d="M 214.96046,172.07489 A 73.539108,73.539108 0 0 1 141.42136,245.614 73.539108,73.539108 0 0 1 67.882248,172.07489 73.539108,73.539108 0 0 1 141.42136,98.535782 73.539108,73.539108 0 0 1 214.96046,172.07489 Z" transform="translate(-1.9328e-3,0)" style="opacity:.55;fill:url(#radialGradient3387);fill-opacity:1;stroke:none;stroke-width:1.5;stroke-miterlimit:4;stroke-dasharray:none;stroke-opacity:1"/><path id="path3383" d="m 172.53406,172.07489 a 39.59798,39.59798 0 0 1 -39.59798,39.59798 39.59798,39.59798 0 0 1 -39.59798,-39.59798 39.59798,39.59798 0 0 1 39.59798,-39.59798 39.59798,39.59798 0 0 1 39.59798,39.59798 z" transform="matrix(0.6857754,0.3834829,-0.4749959,0.8494263,105.11994,-50.171047)" style="opacity:.47916667;fill:#fff;fill-opacity:.76078431;stroke:none;stroke-width:1.5;stroke-miterlimit:4;stroke-dasharray:none;stroke-opacity:1"/><path id="path3385" d="m 172.53406,172.07489 a 39.59798,39.59798 0 0 1 -39.59798,39.59798 39.59798,39.59798 0 0 1 -39.59798,-39.59798 39.59798,39.59798 0 0 1 39.59798,-39.59798 39.59798,39.59798 0 0 1 39.59798,39.59798 z" transform="matrix(0.3328355,0.1861203,-0.2305354,0.4122621,104.42157,39.321787)" style="opacity:1;fill:#fff;fill-opacity:.76078431;stroke:none;stroke-width:1.5;stroke-miterlimit:4;stroke-dasharray:none;stroke-opacity:1"/></g><g id="g3389" transform="matrix(0.4424735,0,0,-0.4424735,565.42371,826.1324)" style="opacity:.6625"><path id="path3391" d="M 214.96046,172.07489 A 73.539108,73.539108 0 0 1 141.42136,245.614 73.539108,73.539108 0 0 1 67.882248,172.07489 73.539108,73.539108 0 0 1 141.42136,98.535782 73.539108,73.539108 0 0 1 214.96046,172.07489 Z" transform="translate(-1.9328e-3,0)" style="opacity:.55;fill:url(#radialGradient3397);fill-opacity:1;stroke:none;stroke-width:1.5;stroke-miterlimit:4;stroke-dasharray:none;stroke-opacity:1"/><path id="path3393" d="m 172.53406,172.07489 a 39.59798,39.59798 0 0 1 -39.59798,39.59798 39.59798,39.59798 0 0 1 -39.59798,-39.59798 39.59798,39.59798 0 0 1 39.59798,-39.59798 39.59798,39.59798 0 0 1 39.59798,39.59798 z" transform="matrix(0.6857754,0.3834829,-0.4749959,0.8494263,105.11994,-50.171047)" style="opacity:.47916667;fill:#fff;fill-opacity:.76078431;stroke:none;stroke-width:1.5;stroke-miterlimit:4;stroke-dasharray:none;stroke-opacity:1"/><path id="path3395" d="m 172.53406,172.07489 a 39.59798,39.59798 0 0 1 -39.59798,39.59798 39.59798,39.59798 0 0 1 -39.59798,-39.59798 39.59798,39.59798 0 0 1 39.59798,-39.59798 39.59798,39.59798 0 0 1 39.59798,39.59798 z" transform="matrix(0.3328355,0.1861203,-0.2305354,0.4122621,104.42157,39.321787)" style="opacity:1;fill:#fff;fill-opacity:.76078431;stroke:none;stroke-width:1.5;stroke-miterlimit:4;stroke-dasharray:none;stroke-opacity:1"/></g><g id="g3399" transform="matrix(0.4424735,0,0,-0.4424735,213.42371,1086.1324)"><path id="path3401" d="M 214.96046,172.07489 A 73.539108,73.539108 0 0 1 141.42136,245.614 73.539108,73.539108 0 0 1 67.882248,172.07489 73.539108,73.539108 0 0 1 141.42136,98.535782 73.539108,73.539108 0 0 1 214.96046,172.07489 Z" transform="translate(-1.9328e-3,0)" style="opacity:.55;fill:url(#radialGradient3407);fill-opacity:1;stroke:none;stroke-width:1.5;stroke-miterlimit:4;stroke-dasharray:none;stroke-opacity:1"/><path id="path3403" d="m 172.53406,172.07489 a 39.59798,39.59798 0 0 1 -39.59798,39.59798 39.59798,39.59798 0 0 1 -39.59798,-39.59798 39.59798,39.59798 0 0 1 39.59798,-39.59798 39.59798,39.59798 0 0 1 39.59798,39.59798 z" transform="matrix(0.6857754,0.3834829,-0.4749959,0.8494263,105.11994,-50.171047)" style="opacity:.47916667;fill:#fff;fill-opacity:.76078431;stroke:none;stroke-width:1.5;stroke-miterlimit:4;stroke-dasharray:none;stroke-opacity:1"/><path id="path3405" d="m 172.53406,172.07489 a 39.59798,39.59798 0 0 1 -39.59798,39.59798 39.59798,39.59798 0 0 1 -39.59798,-39.59798 39.59798,39.59798 0 0 1 39.59798,-39.59798 39.59798,39.59798 0 0 1 39.59798,39.59798 z" transform="matrix(0.3328355,0.1861203,-0.2305354,0.4122621,104.42157,39.321787)" style="opacity:1;fill:#fff;fill-opacity:.76078431;stroke:none;stroke-width:1.5;stroke-miterlimit:4;stroke-dasharray:none;stroke-opacity:1"/></g><g id="g3409" transform="matrix(0.4424735,0,0,-0.4424735,29.42372,782.1324)"><path id="path3411" d="M 214.96046,172.07489 A 73.539108,73.539108 0 0 1 141.42136,245.614 73.539108,73.539108 0 0 1 67.882248,172.07489 73.539108,73.539108 0 0 1 141.42136,98.535782 73.539108,73.539108 0 0 1 214.96046,172.07489 Z" transform="translate(-1.9328e-3,0)" style="opacity:.55;fill:url(#radialGradient3417);fill-opacity:1;stroke:none;stroke-width:1.5;stroke-miterlimit:4;stroke-dasharray:none;stroke-opacity:1"/><path id="path3413" d="m 172.53406,172.07489 a 39.59798,39.59798 0 0 1 -39.59798,39.59798 39.59798,39.59798 0 0 1 -39.59798,-39.59798 39.59798,39.59798 0 0 1 39.59798,-39.59798 39.59798,39.59798 0 0 1 39.59798,39.59798 z" transform="matrix(0.6857754,0.3834829,-0.4749959,0.8494263,105.11994,-50.171047)" style="opacity:.47916667;fill:#fff;fill-opacity:.76078431;stroke:none;stroke-width:1.5;stroke-miterlimit:4;stroke-dasharray:none;stroke-opacity:1"/><path id="path3415" d="m 172.53406,172.07489 a 39.59798,39.59798 0 0 1 -39.59798,39.59798 39.59798,39.59798 0 0 1 -39.59798,-39.59798 39.59798,39.59798 0 0 1 39.59798,-39.59798 39.59798,39.59798 0 0 1 39.59798,39.59798 z" transform="matrix(0.3328355,0.1861203,-0.2305354,0.4122621,104.42157,39.321787)" style="opacity:1;fill:#fff;fill-opacity:.76078431;stroke:none;stroke-width:1.5;stroke-miterlimit:4;stroke-dasharray:none;stroke-opacity:1"/></g><g id="g3419" transform="matrix(0.4424735,0,0,-0.4424735,337.42371,616.1324)"><path id="path3421" d="M 214.96046,172.07489 A 73.539108,73.539108 0 0 1 141.42136,245.614 73.539108,73.539108 0 0 1 67.882248,172.07489 73.539108,73.539108 0 0 1 141.42136,98.535782 73.539108,73.539108 0 0 1 214.96046,172.07489 Z" transform="translate(-1.9328e-3,0)" style="opacity:.55;fill:url(#radialGradient3427);fill-opacity:1;stroke:none;stroke-width:1.5;stroke-miterlimit:4;stroke-dasharray:none;stroke-opacity:1"/><path id="path3423" d="m 172.53406,172.07489 a 39.59798,39.59798 0 0 1 -39.59798,39.59798 39.59798,39.59798 0 0 1 -39.59798,-39.59798 39.59798,39.59798 0 0 1 39.59798,-39.59798 39.59798,39.59798 0 0 1 39.59798,39.59798 z" transform="matrix(0.6857754,0.3834829,-0.4749959,0.8494263,105.11994,-50.171047)" style="opacity:.47916667;fill:#fff;fill-opacity:.76078431;stroke:none;stroke-width:1.5;stroke-miterlimit:4;stroke-dasharray:none;stroke-opacity:1"/><path id="path3425" d="m 172.53406,172.07489 a 39.59798,39.59798 0 0 1 -39.59798,39.59798 39.59798,39.59798 0 0 1 -39.59798,-39.59798 39.59798,39.59798 0 0 1 39.59798,-39.59798 39.59798,39.59798 0 0 1 39.59798,39.59798 z" transform="matrix(0.3328355,0.1861203,-0.2305354,0.4122621,104.42157,39.321787)" style="opacity:1;fill:#fff;fill-opacity:.76078431;stroke:none;stroke-width:1.5;stroke-miterlimit:4;stroke-dasharray:none;stroke-opacity:1"/></g><g id="g3429" transform="matrix(0.1977058,0,0,-0.1977058,4.0386301,1074.014)"><path id="path3431" d="M 214.96046,172.07489 A 73.539108,73.539108 0 0 1 141.42136,245.614 73.539108,73.539108 0 0 1 67.882248,172.07489 73.539108,73.539108 0 0 1 141.42136,98.535782 73.539108,73.539108 0 0 1 214.96046,172.07489 Z" transform="translate(-1.9328e-3,0)" style="opacity:.55;fill:url(#radialGradient3437);fill-opacity:1;stroke:none;stroke-width:1.5;stroke-miterlimit:4;stroke-dasharray:none;stroke-opacity:1"/><path id="path3433" d="m 172.53406,172.07489 a 39.59798,39.59798 0 0 1 -39.59798,39.59798 39.59798,39.59798 0 0 1 -39.59798,-39.59798 39.59798,39.59798 0 0 1 39.59798,-39.59798 39.59798,39.59798 0 0 1 39.59798,39.59798 z" transform="matrix(0.6857754,0.3834829,-0.4749959,0.8494263,105.11994,-50.171047)" style="opacity:.47916667;fill:#fff;fill-opacity:.76078431;stroke:none;stroke-width:1.5;stroke-miterlimit:4;stroke-dasharray:none;stroke-opacity:1"/><path id="path3435" d="m 172.53406,172.07489 a 39.59798,39.59798 0 0 1 -39.59798,39.59798 39.59798,39.59798 0 0 1 -39.59798,-39.59798 39.59798,39.59798 0 0 1 39.59798,-39.59798 39.59798,39.59798 0 0 1 39.59798,39.59798 z" transform="matrix(0.3328355,0.1861203,-0.2305354,0.4122621,104.42157,39.321787)" style="opacity:1;fill:#fff;fill-opacity:.76078431;stroke:none;stroke-width:1.5;stroke-miterlimit:4;stroke-dasharray:none;stroke-opacity:1"/></g><g id="g3439" transform="matrix(0.1977058,0,0,-0.1977058,128.03862,1080.014)" style="opacity:.7125"><path id="path3441" d="M 214.96046,172.07489 A 73.539108,73.539108 0 0 1 141.42136,245.614 73.539108,73.539108 0 0 1 67.882248,172.07489 73.539108,73.539108 0 0 1 141.42136,98.535782 73.539108,73.539108 0 0 1 214.96046,172.07489 Z" transform="translate(-1.9328e-3,0)" style="opacity:.55;fill:url(#radialGradient3447);fill-opacity:1;stroke:none;stroke-width:1.5;stroke-miterlimit:4;stroke-dasharray:none;stroke-opacity:1"/><path id="path3443" d="m 172.53406,172.07489 a 39.59798,39.59798 0 0 1 -39.59798,39.59798 39.59798,39.59798 0 0 1 -39.59798,-39.59798 39.59798,39.59798 0 0 1 39.59798,-39.59798 39.59798,39.59798 0 0 1 39.59798,39.59798 z" transform="matrix(0.6857754,0.3834829,-0.4749959,0.8494263,105.11994,-50.171047)" style="opacity:.47916667;fill:#fff;fill-opacity:.76078431;stroke:none;stroke-width:1.5;stroke-miterlimit:4;stroke-dasharray:none;stroke-opacity:1"/><path id="path3445" d="m 172.53406,172.07489 a 39.59798,39.59798 0 0 1 -39.59798,39.59798 39.59798,39.59798 0 0 1 -39.59798,-39.59798 39.59798,39.59798 0 0 1 39.59798,-39.59798 39.59798,39.59798 0 0 1 39.59798,39.59798 z" transform="matrix(0.3328355,0.1861203,-0.2305354,0.4122621,104.42157,39.321787)" style="opacity:1;fill:#fff;fill-opacity:.76078431;stroke:none;stroke-width:1.5;stroke-miterlimit:4;stroke-dasharray:none;stroke-opacity:1"/></g><g id="g3449" transform="matrix(0.1977058,0,0,-0.1977058,6.038627,868.01403)"><path id="path3451" d="M 214.96046,172.07489 A 73.539108,73.539108 0 0 1 141.42136,245.614 73.539108,73.539108 0 0 1 67.882248,172.07489 73.539108,73.539108 0 0 1 141.42136,98.535782 73.539108,73.539108 0 0 1 214.96046,172.07489 Z" transform="translate(-1.9328e-3,0)" style="opacity:.55;fill:url(#radialGradient3457);fill-opacity:1;stroke:none;stroke-width:1.5;stroke-miterlimit:4;stroke-dasharray:none;stroke-opacity:1"/><path id="path3453" d="m 172.53406,172.07489 a 39.59798,39.59798 0 0 1 -39.59798,39.59798 39.59798,39.59798 0 0 1 -39.59798,-39.59798 39.59798,39.59798 0 0 1 39.59798,-39.59798 39.59798,39.59798 0 0 1 39.59798,39.59798 z" transform="matrix(0.6857754,0.3834829,-0.4749959,0.8494263,105.11994,-50.171047)" style="opacity:.47916667;fill:#fff;fill-opacity:.76078431;stroke:none;stroke-width:1.5;stroke-miterlimit:4;stroke-dasharray:none;stroke-opacity:1"/><path id="path3455" d="m 172.53406,172.07489 a 39.59798,39.59798 0 0 1 -39.59798,39.59798 39.59798,39.59798 0 0 1 -39.59798,-39.59798 39.59798,39.59798 0 0 1 39.59798,-39.59798 39.59798,39.59798 0 0 1 39.59798,39.59798 z" transform="matrix(0.3328355,0.1861203,-0.2305354,0.4122621,104.42157,39.321787)" style="opacity:1;fill:#fff;fill-opacity:.76078431;stroke:none;stroke-width:1.5;stroke-miterlimit:4;stroke-dasharray:none;stroke-opacity:1"/></g><g id="g3459" transform="matrix(0.1977058,0,0,-0.1977058,266.03862,918.01403)"><path id="path3461" d="M 214.96046,172.07489 A 73.539108,73.539108 0 0 1 141.42136,245.614 73.539108,73.539108 0 0 1 67.882248,172.07489 73.539108,73.539108 0 0 1 141.42136,98.535782 73.539108,73.539108 0 0 1 214.96046,172.07489 Z" transform="translate(-1.9328e-3,0)" style="opacity:.55;fill:url(#radialGradient3467);fill-opacity:1;stroke:none;stroke-width:1.5;stroke-miterlimit:4;stroke-dasharray:none;stroke-opacity:1"/><path id="path3463" d="m 172.53406,172.07489 a 39.59798,39.59798 0 0 1 -39.59798,39.59798 39.59798,39.59798 0 0 1 -39.59798,-39.59798 39.59798,39.59798 0 0 1 39.59798,-39.59798 39.59798,39.59798 0 0 1 39.59798,39.59798 z" transform="matrix(0.6857754,0.3834829,-0.4749959,0.8494263,105.11994,-50.171047)" style="opacity:.47916667;fill:#fff;fill-opacity:.76078431;stroke:none;stroke-width:1.5;stroke-miterlimit:4;stroke-dasharray:none;stroke-opacity:1"/><path id="path3465" d="m 172.53406,172.07489 a 39.59798,39.59798 0 0 1 -39.59798,39.59798 39.59798,39.59798 0 0 1 -39.59798,-39.59798 39.59798,39.59798 0 0 1 39.59798,-39.59798 39.59798,39.59798 0 0 1 39.59798,39.59798 z" transform="matrix(0.3328355,0.1861203,-0.2305354,0.4122621,104.42157,39.321787)" style="opacity:1;fill:#fff;fill-opacity:.76078431;stroke:none;stroke-width:1.5;stroke-miterlimit:4;stroke-dasharray:none;stroke-opacity:1"/></g><g id="g3469" transform="matrix(0.1977058,0,0,-0.1977058,170.03862,760.01403)"><path id="path3471" d="M 214.96046,172.07489 A 73.539108,73.539108 0 0 1 141.42136,245.614 73.539108,73.539108 0 0 1 67.882248,172.07489 73.539108,73.539108 0 0 1 141.42136,98.535782 73.539108,73.539108 0 0 1 214.96046,172.07489 Z" transform="translate(-1.9328e-3,0)" style="opacity:.55;fill:url(#radialGradient3477);fill-opacity:1;stroke:none;stroke-width:1.5;stroke-miterlimit:4;stroke-dasharray:none;stroke-opacity:1"/><path id="path3473" d="m 172.53406,172.07489 a 39.59798,39.59798 0 0 1 -39.59798,39.59798 39.59798,39.59798 0 0 1 -39.59798,-39.59798 39.59798,39.59798 0 0 1 39.59798,-39.59798 39.59798,39.59798 0 0 1 39.59798,39.59798 z" transform="matrix(0.6857754,0.3834829,-0.4749959,0.8494263,105.11994,-50.171047)" style="opacity:.47916667;fill:#fff;fill-opacity:.76078431;stroke:none;stroke-width:1.5;stroke-miterlimit:4;stroke-dasharray:none;stroke-opacity:1"/><path id="path3475" d="m 172.53406,172.07489 a 39.59798,39.59798 0 0 1 -39.59798,39.59798 39.59798,39.59798 0 0 1 -39.59798,-39.59798 39.59798,39.59798 0 0 1 39.59798,-39.59798 39.59798,39.59798 0 0 1 39.59798,39.59798 z" transform="matrix(0.3328355,0.1861203,-0.2305354,0.4122621,104.42157,39.321787)" style="opacity:1;fill:#fff;fill-opacity:.76078431;stroke:none;stroke-width:1.5;stroke-miterlimit:4;stroke-dasharray:none;stroke-opacity:1"/></g><g id="g3479" transform="matrix(0.1977058,0,0,-0.1977058,632.03862,1078.014)"><path id="path3481" d="M 214.96046,172.07489 A 73.539108,73.539108 0 0 1 141.42136,245.614 73.539108,73.539108 0 0 1 67.882248,172.07489 73.539108,73.539108 0 0 1 141.42136,98.535782 73.539108,73.539108 0 0 1 214.96046,172.07489 Z" transform="translate(-1.9328e-3,0)" style="opacity:.55;fill:url(#radialGradient3487);fill-opacity:1;stroke:none;stroke-width:1.5;stroke-miterlimit:4;stroke-dasharray:none;stroke-opacity:1"/><path id="path3483" d="m 172.53406,172.07489 a 39.59798,39.59798 0 0 1 -39.59798,39.59798 39.59798,39.59798 0 0 1 -39.59798,-39.59798 39.59798,39.59798 0 0 1 39.59798,-39.59798 39.59798,39.59798 0 0 1 39.59798,39.59798 z" transform="matrix(0.6857754,0.3834829,-0.4749959,0.8494263,105.11994,-50.171047)" style="opacity:.47916667;fill:#fff;fill-opacity:.76078431;stroke:none;stroke-width:1.5;stroke-miterlimit:4;stroke-dasharray:none;stroke-opacity:1"/><path id="path3485" d="m 172.53406,172.07489 a 39.59798,39.59798 0 0 1 -39.59798,39.59798 39.59798,39.59798 0 0 1 -39.59798,-39.59798 39.59798,39.59798 0 0 1 39.59798,-39.59798 39.59798,39.59798 0 0 1 39.59798,39.59798 z" transform="matrix(0.3328355,0.1861203,-0.2305354,0.4122621,104.42157,39.321787)" style="opacity:1;fill:#fff;fill-opacity:.76078431;stroke:none;stroke-width:1.5;stroke-miterlimit:4;stroke-dasharray:none;stroke-opacity:1"/></g><g id="g3489" transform="matrix(0.1977058,0,0,-0.1977058,522.03862,1068.014)"><path id="path3491" d="M 214.96046,172.07489 A 73.539108,73.539108 0 0 1 141.42136,245.614 73.539108,73.539108 0 0 1 67.882248,172.07489 73.539108,73.539108 0 0 1 141.42136,98.535782 73.539108,73.539108 0 0 1 214.96046,172.07489 Z" transform="translate(-1.9328e-3,0)" style="opacity:.55;fill:url(#radialGradient3497);fill-opacity:1;stroke:none;stroke-width:1.5;stroke-miterlimit:4;stroke-dasharray:none;stroke-opacity:1"/><path id="path3493" d="m 172.53406,172.07489 a 39.59798,39.59798 0 0 1 -39.59798,39.59798 39.59798,39.59798 0 0 1 -39.59798,-39.59798 39.59798,39.59798 0 0 1 39.59798,-39.59798 39.59798,39.59798 0 0 1 39.59798,39.59798 z" transform="matrix(0.6857754,0.3834829,-0.4749959,0.8494263,105.11994,-50.171047)" style="opacity:.47916667;fill:#fff;fill-opacity:.76078431;stroke:none;stroke-width:1.5;stroke-miterlimit:4;stroke-dasharray:none;stroke-opacity:1"/><path id="path3495" d="m 172.53406,172.07489 a 39.59798,39.59798 0 0 1 -39.59798,39.59798 39.59798,39.59798 0 0 1 -39.59798,-39.59798 39.59798,39.59798 0 0 1 39.59798,-39.59798 39.59798,39.59798 0 0 1 39.59798,39.59798 z" transform="matrix(0.3328355,0.1861203,-0.2305354,0.4122621,104.42157,39.321787)" style="opacity:1;fill:#fff;fill-opacity:.76078431;stroke:none;stroke-width:1.5;stroke-miterlimit:4;stroke-dasharray:none;stroke-opacity:1"/></g><g id="g3499" transform="matrix(0.1977058,0,0,-0.1977058,566.03862,984.01403)" style="opacity:.6875"><path id="path3501" d="M 214.96046,172.07489 A 73.539108,73.539108 0 0 1 141.42136,245.614 73.539108,73.539108 0 0 1 67.882248,172.07489 73.539108,73.539108 0 0 1 141.42136,98.535782 73.539108,73.539108 0 0 1 214.96046,172.07489 Z" transform="translate(-1.9328e-3,0)" style="opacity:.55;fill:url(#radialGradient3507);fill-opacity:1;stroke:none;stroke-width:1.5;stroke-miterlimit:4;stroke-dasharray:none;stroke-opacity:1"/><path id="path3503" d="m 172.53406,172.07489 a 39.59798,39.59798 0 0 1 -39.59798,39.59798 39.59798,39.59798 0 0 1 -39.59798,-39.59798 39.59798,39.59798 0 0 1 39.59798,-39.59798 39.59798,39.59798 0 0 1 39.59798,39.59798 z" transform="matrix(0.6857754,0.3834829,-0.4749959,0.8494263,105.11994,-50.171047)" style="opacity:.47916667;fill:#fff;fill-opacity:.76078431;stroke:none;stroke-width:1.5;stroke-miterlimit:4;stroke-dasharray:none;stroke-opacity:1"/><path id="path3505" d="m 172.53406,172.07489 a 39.59798,39.59798 0 0 1 -39.59798,39.59798 39.59798,39.59798 0 0 1 -39.59798,-39.59798 39.59798,39.59798 0 0 1 39.59798,-39.59798 39.59798,39.59798 0 0 1 39.59798,39.59798 z" transform="matrix(0.3328355,0.1861203,-0.2305354,0.4122621,104.42157,39.321787)" style="opacity:1;fill:#fff;fill-opacity:.76078431;stroke:none;stroke-width:1.5;stroke-miterlimit:4;stroke-dasharray:none;stroke-opacity:1"/></g><g id="g3509" transform="matrix(0.1977058,0,0,-0.1977058,714.03862,866.01403)" style="opacity:.6875"><path id="path3511" d="M 214.96046,172.07489 A 73.539108,73.539108 0 0 1 141.42136,245.614 73.539108,73.539108 0 0 1 67.882248,172.07489 73.539108,73.539108 0 0 1 141.42136,98.535782 73.539108,73.539108 0 0 1 214.96046,172.07489 Z" transform="translate(-1.9328e-3,0)" style="opacity:.55;fill:url(#radialGradient3517);fill-opacity:1;stroke:none;stroke-width:1.5;stroke-miterlimit:4;stroke-dasharray:none;stroke-opacity:1"/><path id="path3513" d="m 172.53406,172.07489 a 39.59798,39.59798 0 0 1 -39.59798,39.59798 39.59798,39.59798 0 0 1 -39.59798,-39.59798 39.59798,39.59798 0 0 1 39.59798,-39.59798 39.59798,39.59798 0 0 1 39.59798,39.59798 z" transform="matrix(0.6857754,0.3834829,-0.4749959,0.8494263,105.11994,-50.171047)" style="opacity:.47916667;fill:#fff;fill-opacity:.76078431;stroke:none;stroke-width:1.5;stroke-miterlimit:4;stroke-dasharray:none;stroke-opacity:1"/><path id="path3515" d="m 172.53406,172.07489 a 39.59798,39.59798 0 0 1 -39.59798,39.59798 39.59798,39.59798 0 0 1 -39.59798,-39.59798 39.59798,39.59798 0 0 1 39.59798,-39.59798 39.59798,39.59798 0 0 1 39.59798,39.59798 z" transform="matrix(0.3328355,0.1861203,-0.2305354,0.4122621,104.42157,39.321787)" style="opacity:1;fill:#fff;fill-opacity:.76078431;stroke:none;stroke-width:1.5;stroke-miterlimit:4;stroke-dasharray:none;stroke-opacity:1"/></g><g id="g3519" transform="matrix(0.1977058,0,0,-0.1977058,490.03862,892.01403)"><path id="path3521" d="M 214.96046,172.07489 A 73.539108,73.539108 0 0 1 141.42136,245.614 73.539108,73.539108 0 0 1 67.882248,172.07489 73.539108,73.539108 0 0 1 141.42136,98.535782 73.539108,73.539108 0 0 1 214.96046,172.07489 Z" transform="translate(-1.9328e-3,0)" style="opacity:.55;fill:url(#radialGradient3527);fill-opacity:1;stroke:none;stroke-width:1.5;stroke-miterlimit:4;stroke-dasharray:none;stroke-opacity:1"/><path id="path3523" d="m 172.53406,172.07489 a 39.59798,39.59798 0 0 1 -39.59798,39.59798 39.59798,39.59798 0 0 1 -39.59798,-39.59798 39.59798,39.59798 0 0 1 39.59798,-39.59798 39.59798,39.59798 0 0 1 39.59798,39.59798 z" transform="matrix(0.6857754,0.3834829,-0.4749959,0.8494263,105.11994,-50.171047)" style="opacity:.47916667;fill:#fff;fill-opacity:.76078431;stroke:none;stroke-width:1.5;stroke-miterlimit:4;stroke-dasharray:none;stroke-opacity:1"/><path id="path3525" d="m 172.53406,172.07489 a 39.59798,39.59798 0 0 1 -39.59798,39.59798 39.59798,39.59798 0 0 1 -39.59798,-39.59798 39.59798,39.59798 0 0 1 39.59798,-39.59798 39.59798,39.59798 0 0 1 39.59798,39.59798 z" transform="matrix(0.3328355,0.1861203,-0.2305354,0.4122621,104.42157,39.321787)" style="opacity:1;fill:#fff;fill-opacity:.76078431;stroke:none;stroke-width:1.5;stroke-miterlimit:4;stroke-dasharray:none;stroke-opacity:1"/></g><g id="g3529" transform="matrix(0.1977058,0,0,-0.1977058,982.03862,1060.014)"><path id="path3531" d="M 214.96046,172.07489 A 73.539108,73.539108 0 0 1 141.42136,245.614 73.539108,73.539108 0 0 1 67.882248,172.07489 73.539108,73.539108 0 0 1 141.42136,98.535782 73.539108,73.539108 0 0 1 214.96046,172.07489 Z" transform="translate(-1.9328e-3,0)" style="opacity:.55;fill:url(#radialGradient3537);fill-opacity:1;stroke:none;stroke-width:1.5;stroke-miterlimit:4;stroke-dasharray:none;stroke-opacity:1"/><path id="path3533" d="m 172.53406,172.07489 a 39.59798,39.59798 0 0 1 -39.59798,39.59798 39.59798,39.59798 0 0 1 -39.59798,-39.59798 39.59798,39.59798 0 0 1 39.59798,-39.59798 39.59798,39.59798 0 0 1 39.59798,39.59798 z" transform="matrix(0.6857754,0.3834829,-0.4749959,0.8494263,105.11994,-50.171047)" style="opacity:.47916667;fill:#fff;fill-opacity:.76078431;stroke:none;stroke-width:1.5;stroke-miterlimit:4;stroke-dasharray:none;stroke-opacity:1"/><path id="path3535" d="m 172.53406,172.07489 a 39.59798,39.59798 0 0 1 -39.59798,39.59798 39.59798,39.59798 0 0 1 -39.59798,-39.59798 39.59798,39.59798 0 0 1 39.59798,-39.59798 39.59798,39.59798 0 0 1 39.59798,39.59798 z" transform="matrix(0.3328355,0.1861203,-0.2305354,0.4122621,104.42157,39.321787)" style="opacity:1;fill:#fff;fill-opacity:.76078431;stroke:none;stroke-width:1.5;stroke-miterlimit:4;stroke-dasharray:none;stroke-opacity:1"/></g><g id="g3539" transform="matrix(0.1977058,0,0,-0.1977058,890.03862,982.01403)"><path id="path3541" d="M 214.96046,172.07489 A 73.539108,73.539108 0 0 1 141.42136,245.614 73.539108,73.539108 0 0 1 67.882248,172.07489 73.539108,73.539108 0 0 1 141.42136,98.535782 73.539108,73.539108 0 0 1 214.96046,172.07489 Z" transform="translate(-1.9328e-3,0)" style="opacity:.55;fill:url(#radialGradient3547);fill-opacity:1;stroke:none;stroke-width:1.5;stroke-miterlimit:4;stroke-dasharray:none;stroke-opacity:1"/><path id="path3543" d="m 172.53406,172.07489 a 39.59798,39.59798 0 0 1 -39.59798,39.59798 39.59798,39.59798 0 0 1 -39.59798,-39.59798 39.59798,39.59798 0 0 1 39.59798,-39.59798 39.59798,39.59798 0 0 1 39.59798,39.59798 z" transform="matrix(0.6857754,0.3834829,-0.4749959,0.8494263,105.11994,-50.171047)" style="opacity:.47916667;fill:#fff;fill-opacity:.76078431;stroke:none;stroke-width:1.5;stroke-miterlimit:4;stroke-dasharray:none;stroke-opacity:1"/><path id="path3545" d="m 172.53406,172.07489 a 39.59798,39.59798 0 0 1 -39.59798,39.59798 39.59798,39.59798 0 0 1 -39.59798,-39.59798 39.59798,39.59798 0 0 1 39.59798,-39.59798 39.59798,39.59798 0 0 1 39.59798,39.59798 z" transform="matrix(0.3328355,0.1861203,-0.2305354,0.4122621,104.42157,39.321787)" style="opacity:1;fill:#fff;fill-opacity:.76078431;stroke:none;stroke-width:1.5;stroke-miterlimit:4;stroke-dasharray:none;stroke-opacity:1"/></g><g id="g3549" transform="matrix(0.1977058,0,0,-0.1977058,1180.0387,922.01403)" style="opacity:.76666667"><path id="path3551" d="M 214.96046,172.07489 A 73.539108,73.539108 0 0 1 141.42136,245.614 73.539108,73.539108 0 0 1 67.882248,172.07489 73.539108,73.539108 0 0 1 141.42136,98.535782 73.539108,73.539108 0 0 1 214.96046,172.07489 Z" transform="translate(-1.9328e-3,0)" style="opacity:.55;fill:url(#radialGradient3557);fill-opacity:1;stroke:none;stroke-width:1.5;stroke-miterlimit:4;stroke-dasharray:none;stroke-opacity:1"/><path id="path3553" d="m 172.53406,172.07489 a 39.59798,39.59798 0 0 1 -39.59798,39.59798 39.59798,39.59798 0 0 1 -39.59798,-39.59798 39.59798,39.59798 0 0 1 39.59798,-39.59798 39.59798,39.59798 0 0 1 39.59798,39.59798 z" transform="matrix(0.6857754,0.3834829,-0.4749959,0.8494263,105.11994,-50.171047)" style="opacity:.47916667;fill:#fff;fill-opacity:.76078431;stroke:none;stroke-width:1.5;stroke-miterlimit:4;stroke-dasharray:none;stroke-opacity:1"/><path id="path3555" d="m 172.53406,172.07489 a 39.59798,39.59798 0 0 1 -39.59798,39.59798 39.59798,39.59798 0 0 1 -39.59798,-39.59798 39.59798,39.59798 0 0 1 39.59798,-39.59798 39.59798,39.59798 0 0 1 39.59798,39.59798 z" transform="matrix(0.3328355,0.1861203,-0.2305354,0.4122621,104.42157,39.321787)" style="opacity:1;fill:#fff;fill-opacity:.76078431;stroke:none;stroke-width:1.5;stroke-miterlimit:4;stroke-dasharray:none;stroke-opacity:1"/></g><g id="g3559" transform="matrix(0.1977058,0,0,-0.1977058,1180.0387,1054.014)"><path id="path3561" d="M 214.96046,172.07489 A 73.539108,73.539108 0 0 1 141.42136,245.614 73.539108,73.539108 0 0 1 67.882248,172.07489 73.539108,73.539108 0 0 1 141.42136,98.535782 73.539108,73.539108 0 0 1 214.96046,172.07489 Z" transform="translate(-1.9328e-3,0)" style="opacity:.55;fill:url(#radialGradient3567);fill-opacity:1;stroke:none;stroke-width:1.5;stroke-miterlimit:4;stroke-dasharray:none;stroke-opacity:1"/><path id="path3563" d="m 172.53406,172.07489 a 39.59798,39.59798 0 0 1 -39.59798,39.59798 39.59798,39.59798 0 0 1 -39.59798,-39.59798 39.59798,39.59798 0 0 1 39.59798,-39.59798 39.59798,39.59798 0 0 1 39.59798,39.59798 z" transform="matrix(0.6857754,0.3834829,-0.4749959,0.8494263,105.11994,-50.171047)" style="opacity:.47916667;fill:#fff;fill-opacity:.76078431;stroke:none;stroke-width:1.5;stroke-miterlimit:4;stroke-dasharray:none;stroke-opacity:1"/><path id="path3565" d="m 172.53406,172.07489 a 39.59798,39.59798 0 0 1 -39.59798,39.59798 39.59798,39.59798 0 0 1 -39.59798,-39.59798 39.59798,39.59798 0 0 1 39.59798,-39.59798 39.59798,39.59798 0 0 1 39.59798,39.59798 z" transform="matrix(0.3328355,0.1861203,-0.2305354,0.4122621,104.42157,39.321787)" style="opacity:1;fill:#fff;fill-opacity:.76078431;stroke:none;stroke-width:1.5;stroke-miterlimit:4;stroke-dasharray:none;stroke-opacity:1"/></g><g id="g3569" transform="matrix(0.1977058,0,0,-0.1977058,1384.0387,1040.014)"><path id="path3571" d="M 214.96046,172.07489 A 73.539108,73.539108 0 0 1 141.42136,245.614 73.539108,73.539108 0 0 1 67.882248,172.07489 73.539108,73.539108 0 0 1 141.42136,98.535782 73.539108,73.539108 0 0 1 214.96046,172.07489 Z" transform="translate(-1.9328e-3,0)" style="opacity:.55;fill:url(#radialGradient3577);fill-opacity:1;stroke:none;stroke-width:1.5;stroke-miterlimit:4;stroke-dasharray:none;stroke-opacity:1"/><path id="path3573" d="m 172.53406,172.07489 a 39.59798,39.59798 0 0 1 -39.59798,39.59798 39.59798,39.59798 0 0 1 -39.59798,-39.59798 39.59798,39.59798 0 0 1 39.59798,-39.59798 39.59798,39.59798 0 0 1 39.59798,39.59798 z" transform="matrix(0.6857754,0.3834829,-0.4749959,0.8494263,105.11994,-50.171047)" style="opacity:.47916667;fill:#fff;fill-opacity:.76078431;stroke:none;stroke-width:1.5;stroke-miterlimit:4;stroke-dasharray:none;stroke-opacity:1"/><path id="path3575" d="m 172.53406,172.07489 a 39.59798,39.59798 0 0 1 -39.59798,39.59798 39.59798,39.59798 0 0 1 -39.59798,-39.59798 39.59798,39.59798 0 0 1 39.59798,-39.59798 39.59798,39.59798 0 0 1 39.59798,39.59798 z" transform="matrix(0.3328355,0.1861203,-0.2305354,0.4122621,104.42157,39.321787)" style="opacity:1;fill:#fff;fill-opacity:.76078431;stroke:none;stroke-width:1.5;stroke-miterlimit:4;stroke-dasharray:none;stroke-opacity:1"/></g><g id="g3579" transform="matrix(0.1977058,0,0,-0.1977058,1304.0387,894.01403)" style="opacity:.76666667"><path id="path3581" d="M 214.96046,172.07489 A 73.539108,73.539108 0 0 1 141.42136,245.614 73.539108,73.539108 0 0 1 67.882248,172.07489 73.539108,73.539108 0 0 1 141.42136,98.535782 73.539108,73.539108 0 0 1 214.96046,172.07489 Z" transform="translate(-1.9328e-3,0)" style="opacity:.55;fill:url(#radialGradient3587);fill-opacity:1;stroke:none;stroke-width:1.5;stroke-miterlimit:4;stroke-dasharray:none;stroke-opacity:1"/><path id="path3583" d="m 172.53406,172.07489 a 39.59798,39.59798 0 0 1 -39.59798,39.59798 39.59798,39.59798 0 0 1 -39.59798,-39.59798 39.59798,39.59798 0 0 1 39.59798,-39.59798 39.59798,39.59798 0 0 1 39.59798,39.59798 z" transform="matrix(0.6857754,0.3834829,-0.4749959,0.8494263,105.11994,-50.171047)" style="opacity:.47916667;fill:#fff;fill-opacity:.76078431;stroke:none;stroke-width:1.5;stroke-miterlimit:4;stroke-dasharray:none;stroke-opacity:1"/><path id="path3585" d="m 172.53406,172.07489 a 39.59798,39.59798 0 0 1 -39.59798,39.59798 39.59798,39.59798 0 0 1 -39.59798,-39.59798 39.59798,39.59798 0 0 1 39.59798,-39.59798 39.59798,39.59798 0 0 1 39.59798,39.59798 z" transform="matrix(0.3328355,0.1861203,-0.2305354,0.4122621,104.42157,39.321787)" style="opacity:1;fill:#fff;fill-opacity:.76078431;stroke:none;stroke-width:1.5;stroke-miterlimit:4;stroke-dasharray:none;stroke-opacity:1"/></g><g id="g3589" transform="matrix(0.1977058,0,0,-0.1977058,1126.0387,800.01403)"><path id="path3591" d="M 214.96046,172.07489 A 73.539108,73.539108 0 0 1 141.42136,245.614 73.539108,73.539108 0 0 1 67.882248,172.07489 73.539108,73.539108 0 0 1 141.42136,98.535782 73.539108,73.539108 0 0 1 214.96046,172.07489 Z" transform="translate(-1.9328e-3,0)" style="opacity:.55;fill:url(#radialGradient3597);fill-opacity:1;stroke:none;stroke-width:1.5;stroke-miterlimit:4;stroke-dasharray:none;stroke-opacity:1"/><path id="path3593" d="m 172.53406,172.07489 a 39.59798,39.59798 0 0 1 -39.59798,39.59798 39.59798,39.59798 0 0 1 -39.59798,-39.59798 39.59798,39.59798 0 0 1 39.59798,-39.59798 39.59798,39.59798 0 0 1 39.59798,39.59798 z" transform="matrix(0.6857754,0.3834829,-0.4749959,0.8494263,105.11994,-50.171047)" style="opacity:.47916667;fill:#fff;fill-opacity:.76078431;stroke:none;stroke-width:1.5;stroke-miterlimit:4;stroke-dasharray:none;stroke-opacity:1"/><path id="path3595" d="m 172.53406,172.07489 a 39.59798,39.59798 0 0 1 -39.59798,39.59798 39.59798,39.59798 0 0 1 -39.59798,-39.59798 39.59798,39.59798 0 0 1 39.59798,-39.59798 39.59798,39.59798 0 0 1 39.59798,39.59798 z" transform="matrix(0.3328355,0.1861203,-0.2305354,0.4122621,104.42157,39.321787)" style="opacity:1;fill:#fff;fill-opacity:.76078431;stroke:none;stroke-width:1.5;stroke-miterlimit:4;stroke-dasharray:none;stroke-opacity:1"/></g><g id="g3599" transform="matrix(0.1977058,0,0,-0.1977058,1800.0387,648.01402)"><path id="path3601" d="M 214.96046,172.07489 A 73.539108,73.539108 0 0 1 141.42136,245.614 73.539108,73.539108 0 0 1 67.882248,172.07489 73.539108,73.539108 0 0 1 141.42136,98.535782 73.539108,73.539108 0 0 1 214.96046,172.07489 Z" transform="translate(-1.9328e-3,0)" style="opacity:.55;fill:url(#radialGradient3607);fill-opacity:1;stroke:none;stroke-width:1.5;stroke-miterlimit:4;stroke-dasharray:none;stroke-opacity:1"/><path id="path3603" d="m 172.53406,172.07489 a 39.59798,39.59798 0 0 1 -39.59798,39.59798 39.59798,39.59798 0 0 1 -39.59798,-39.59798 39.59798,39.59798 0 0 1 39.59798,-39.59798 39.59798,39.59798 0 0 1 39.59798,39.59798 z" transform="matrix(0.6857754,0.3834829,-0.4749959,0.8494263,105.11994,-50.171047)" style="opacity:.47916667;fill:#fff;fill-opacity:.76078431;stroke:none;stroke-width:1.5;stroke-miterlimit:4;stroke-dasharray:none;stroke-opacity:1"/><path id="path3605" d="m 172.53406,172.07489 a 39.59798,39.59798 0 0 1 -39.59798,39.59798 39.59798,39.59798 0 0 1 -39.59798,-39.59798 39.59798,39.59798 0 0 1 39.59798,-39.59798 39.59798,39.59798 0 0 1 39.59798,39.59798 z" transform="matrix(0.3328355,0.1861203,-0.2305354,0.4122621,104.42157,39.321787)" style="opacity:1;fill:#fff;fill-opacity:.76078431;stroke:none;stroke-width:1.5;stroke-miterlimit:4;stroke-dasharray:none;stroke-opacity:1"/></g><g id="g3609" transform="matrix(0.1977058,0,0,-0.1977058,1698.0387,900.01402)" style="opacity:.72314046"><path id="path3611" d="M 214.96046,172.07489 A 73.539108,73.539108 0 0 1 141.42136,245.614 73.539108,73.539108 0 0 1 67.882248,172.07489 73.539108,73.539108 0 0 1 141.42136,98.535782 73.539108,73.539108 0 0 1 214.96046,172.07489 Z" transform="translate(-1.9328e-3,0)" style="opacity:.55;fill:url(#radialGradient3617);fill-opacity:1;stroke:none;stroke-width:1.5;stroke-miterlimit:4;stroke-dasharray:none;stroke-opacity:1"/><path id="path3613" d="m 172.53406,172.07489 a 39.59798,39.59798 0 0 1 -39.59798,39.59798 39.59798,39.59798 0 0 1 -39.59798,-39.59798 39.59798,39.59798 0 0 1 39.59798,-39.59798 39.59798,39.59798 0 0 1 39.59798,39.59798 z" transform="matrix(0.6857754,0.3834829,-0.4749959,0.8494263,105.11994,-50.171047)" style="opacity:.47916667;fill:#fff;fill-opacity:.76078431;stroke:none;stroke-width:1.5;stroke-miterlimit:4;stroke-dasharray:none;stroke-opacity:1"/><path id="path3615" d="m 172.53406,172.07489 a 39.59798,39.59798 0 0 1 -39.59798,39.59798 39.59798,39.59798 0 0 1 -39.59798,-39.59798 39.59798,39.59798 0 0 1 39.59798,-39.59798 39.59798,39.59798 0 0 1 39.59798,39.59798 z" transform="matrix(0.3328355,0.1861203,-0.2305354,0.4122621,104.42157,39.321787)" style="opacity:1;fill:#fff;fill-opacity:.76078431;stroke:none;stroke-width:1.5;stroke-miterlimit:4;stroke-dasharray:none;stroke-opacity:1"/></g><g id="g3619" transform="matrix(0.1977058,0,0,-0.1977058,1568.0387,506.01402)"><path id="path3621" d="M 214.96046,172.07489 A 73.539108,73.539108 0 0 1 141.42136,245.614 73.539108,73.539108 0 0 1 67.882248,172.07489 73.539108,73.539108 0 0 1 141.42136,98.535782 73.539108,73.539108 0 0 1 214.96046,172.07489 Z" transform="translate(-1.9328e-3,0)" style="opacity:.55;fill:url(#radialGradient3627);fill-opacity:1;stroke:none;stroke-width:1.5;stroke-miterlimit:4;stroke-dasharray:none;stroke-opacity:1"/><path id="path3623" d="m 172.53406,172.07489 a 39.59798,39.59798 0 0 1 -39.59798,39.59798 39.59798,39.59798 0 0 1 -39.59798,-39.59798 39.59798,39.59798 0 0 1 39.59798,-39.59798 39.59798,39.59798 0 0 1 39.59798,39.59798 z" transform="matrix(0.6857754,0.3834829,-0.4749959,0.8494263,105.11994,-50.171047)" style="opacity:.47916667;fill:#fff;fill-opacity:.76078431;stroke:none;stroke-width:1.5;stroke-miterlimit:4;stroke-dasharray:none;stroke-opacity:1"/><path id="path3625" d="m 172.53406,172.07489 a 39.59798,39.59798 0 0 1 -39.59798,39.59798 39.59798,39.59798 0 0 1 -39.59798,-39.59798 39.59798,39.59798 0 0 1 39.59798,-39.59798 39.59798,39.59798 0 0 1 39.59798,39.59798 z" transform="matrix(0.3328355,0.1861203,-0.2305354,0.4122621,104.42157,39.321787)" style="opacity:1;fill:#fff;fill-opacity:.76078431;stroke:none;stroke-width:1.5;stroke-miterlimit:4;stroke-dasharray:none;stroke-opacity:1"/></g><g id="g3629" transform="matrix(0.1977058,0,0,-0.1977058,562.03859,516.01402)"><path id="path3631" d="M 214.96046,172.07489 A 73.539108,73.539108 0 0 1 141.42136,245.614 73.539108,73.539108 0 0 1 67.882248,172.07489 73.539108,73.539108 0 0 1 141.42136,98.535782 73.539108,73.539108 0 0 1 214.96046,172.07489 Z" transform="translate(-1.9328e-3,0)" style="opacity:.55;fill:url(#radialGradient3637);fill-opacity:1;stroke:none;stroke-width:1.5;stroke-miterlimit:4;stroke-dasharray:none;stroke-opacity:1"/><path id="path3633" d="m 172.53406,172.07489 a 39.59798,39.59798 0 0 1 -39.59798,39.59798 39.59798,39.59798 0 0 1 -39.59798,-39.59798 39.59798,39.59798 0 0 1 39.59798,-39.59798 39.59798,39.59798 0 0 1 39.59798,39.59798 z" transform="matrix(0.6857754,0.3834829,-0.4749959,0.8494263,105.11994,-50.171047)" style="opacity:.47916667;fill:#fff;fill-opacity:.76078431;stroke:none;stroke-width:1.5;stroke-miterlimit:4;stroke-dasharray:none;stroke-opacity:1"/><path id="path3635" d="m 172.53406,172.07489 a 39.59798,39.59798 0 0 1 -39.59798,39.59798 39.59798,39.59798 0 0 1 -39.59798,-39.59798 39.59798,39.59798 0 0 1 39.59798,-39.59798 39.59798,39.59798 0 0 1 39.59798,39.59798 z" transform="matrix(0.3328355,0.1861203,-0.2305354,0.4122621,104.42157,39.321787)" style="opacity:1;fill:#fff;fill-opacity:.76078431;stroke:none;stroke-width:1.5;stroke-miterlimit:4;stroke-dasharray:none;stroke-opacity:1"/></g><g id="g3639" transform="matrix(0.1977058,0,0,-0.1977058,-1.961373,530.01402)"><path id="path3641" d="M 214.96046,172.07489 A 73.539108,73.539108 0 0 1 141.42136,245.614 73.539108,73.539108 0 0 1 67.882248,172.07489 73.539108,73.539108 0 0 1 141.42136,98.535782 73.539108,73.539108 0 0 1 214.96046,172.07489 Z" transform="translate(-1.9328e-3,0)" style="opacity:.55;fill:url(#radialGradient3647);fill-opacity:1;stroke:none;stroke-width:1.5;stroke-miterlimit:4;stroke-dasharray:none;stroke-opacity:1"/><path id="path3643" d="m 172.53406,172.07489 a 39.59798,39.59798 0 0 1 -39.59798,39.59798 39.59798,39.59798 0 0 1 -39.59798,-39.59798 39.59798,39.59798 0 0 1 39.59798,-39.59798 39.59798,39.59798 0 0 1 39.59798,39.59798 z" transform="matrix(0.6857754,0.3834829,-0.4749959,0.8494263,105.11994,-50.171047)" style="opacity:.47916667;fill:#fff;fill-opacity:.76078431;stroke:none;stroke-width:1.5;stroke-miterlimit:4;stroke-dasharray:none;stroke-opacity:1"/><path id="path3645" d="m 172.53406,172.07489 a 39.59798,39.59798 0 0 1 -39.59798,39.59798 39.59798,39.59798 0 0 1 -39.59798,-39.59798 39.59798,39.59798 0 0 1 39.59798,-39.59798 39.59798,39.59798 0 0 1 39.59798,39.59798 z" transform="matrix(0.3328355,0.1861203,-0.2305354,0.4122621,104.42157,39.321787)" style="opacity:1;fill:#fff;fill-opacity:.76078431;stroke:none;stroke-width:1.5;stroke-miterlimit:4;stroke-dasharray:none;stroke-opacity:1"/></g><g id="g3649" transform="matrix(0.1977058,0,0,-0.1977058,146.03862,644.01402)" style="opacity:.69583333"><path id="path3651" d="M 214.96046,172.07489 A 73.539108,73.539108 0 0 1 141.42136,245.614 73.539108,73.539108 0 0 1 67.882248,172.07489 73.539108,73.539108 0 0 1 141.42136,98.535782 73.539108,73.539108 0 0 1 214.96046,172.07489 Z" transform="translate(-1.9328e-3,0)" style="opacity:.55;fill:url(#radialGradient3657);fill-opacity:1;stroke:none;stroke-width:1.5;stroke-miterlimit:4;stroke-dasharray:none;stroke-opacity:1"/><path id="path3653" d="m 172.53406,172.07489 a 39.59798,39.59798 0 0 1 -39.59798,39.59798 39.59798,39.59798 0 0 1 -39.59798,-39.59798 39.59798,39.59798 0 0 1 39.59798,-39.59798 39.59798,39.59798 0 0 1 39.59798,39.59798 z" transform="matrix(0.6857754,0.3834829,-0.4749959,0.8494263,105.11994,-50.171047)" style="opacity:.47916667;fill:#fff;fill-opacity:.76078431;stroke:none;stroke-width:1.5;stroke-miterlimit:4;stroke-dasharray:none;stroke-opacity:1"/><path id="path3655" d="m 172.53406,172.07489 a 39.59798,39.59798 0 0 1 -39.59798,39.59798 39.59798,39.59798 0 0 1 -39.59798,-39.59798 39.59798,39.59798 0 0 1 39.59798,-39.59798 39.59798,39.59798 0 0 1 39.59798,39.59798 z" transform="matrix(0.3328355,0.1861203,-0.2305354,0.4122621,104.42157,39.321787)" style="opacity:1;fill:#fff;fill-opacity:.76078431;stroke:none;stroke-width:1.5;stroke-miterlimit:4;stroke-dasharray:none;stroke-opacity:1"/></g><g id="g2596" transform="matrix(0.4424735,0,0,-0.4424735,1591.4238,1120.1324)" style="opacity:.6625"><path id="path2598" d="M 214.96046,172.07489 A 73.539108,73.539108 0 0 1 141.42136,245.614 73.539108,73.539108 0 0 1 67.882248,172.07489 73.539108,73.539108 0 0 1 141.42136,98.535782 73.539108,73.539108 0 0 1 214.96046,172.07489 Z" transform="translate(-1.9328e-3,0)" style="opacity:.55;fill:url(#radialGradient2604);fill-opacity:1;stroke:none;stroke-width:1.5;stroke-miterlimit:4;stroke-dasharray:none;stroke-opacity:1"/><path id="path2600" d="m 172.53406,172.07489 a 39.59798,39.59798 0 0 1 -39.59798,39.59798 39.59798,39.59798 0 0 1 -39.59798,-39.59798 39.59798,39.59798 0 0 1 39.59798,-39.59798 39.59798,39.59798 0 0 1 39.59798,39.59798 z" transform="matrix(0.6857754,0.3834829,-0.4749959,0.8494263,105.11994,-50.171047)" style="opacity:.47916667;fill:#fff;fill-opacity:.76078431;stroke:none;stroke-width:1.5;stroke-miterlimit:4;stroke-dasharray:none;stroke-opacity:1"/><path id="path2602" d="m 172.53406,172.07489 a 39.59798,39.59798 0 0 1 -39.59798,39.59798 39.59798,39.59798 0 0 1 -39.59798,-39.59798 39.59798,39.59798 0 0 1 39.59798,-39.59798 39.59798,39.59798 0 0 1 39.59798,39.59798 z" transform="matrix(0.3328355,0.1861203,-0.2305354,0.4122621,104.42157,39.321787)" style="opacity:1;fill:#fff;fill-opacity:.76078431;stroke:none;stroke-width:1.5;stroke-miterlimit:4;stroke-dasharray:none;stroke-opacity:1"/></g><g id="g2606" transform="matrix(0.4424735,0,0,-0.4424735,1195.4238,874.1324)" style="opacity:.6625"><path id="path2608" d="M 214.96046,172.07489 A 73.539108,73.539108 0 0 1 141.42136,245.614 73.539108,73.539108 0 0 1 67.882248,172.07489 73.539108,73.539108 0 0 1 141.42136,98.535782 73.539108,73.539108 0 0 1 214.96046,172.07489 Z" transform="translate(-1.9328e-3,0)" style="opacity:.55;fill:url(#radialGradient2614);fill-opacity:1;stroke:none;stroke-width:1.5;stroke-miterlimit:4;stroke-dasharray:none;stroke-opacity:1"/><path id="path2610" d="m 172.53406,172.07489 a 39.59798,39.59798 0 0 1 -39.59798,39.59798 39.59798,39.59798 0 0 1 -39.59798,-39.59798 39.59798,39.59798 0 0 1 39.59798,-39.59798 39.59798,39.59798 0 0 1 39.59798,39.59798 z" transform="matrix(0.6857754,0.3834829,-0.4749959,0.8494263,105.11994,-50.171047)" style="opacity:.47916667;fill:#fff;fill-opacity:.76078431;stroke:none;stroke-width:1.5;stroke-miterlimit:4;stroke-dasharray:none;stroke-opacity:1"/><path id="path2612" d="m 172.53406,172.07489 a 39.59798,39.59798 0 0 1 -39.59798,39.59798 39.59798,39.59798 0 0 1 -39.59798,-39.59798 39.59798,39.59798 0 0 1 39.59798,-39.59798 39.59798,39.59798 0 0 1 39.59798,39.59798 z" transform="matrix(0.3328355,0.1861203,-0.2305354,0.4122621,104.42157,39.321787)" style="opacity:1;fill:#fff;fill-opacity:.76078431;stroke:none;stroke-width:1.5;stroke-miterlimit:4;stroke-dasharray:none;stroke-opacity:1"/></g><g id="g2616" transform="matrix(0.4424735,0,0,-0.4424735,1793.4238,930.1324)" style="opacity:.6625"><path id="path2618" d="M 214.96046,172.07489 A 73.539108,73.539108 0 0 1 141.42136,245.614 73.539108,73.539108 0 0 1 67.882248,172.07489 73.539108,73.539108 0 0 1 141.42136,98.535782 73.539108,73.539108 0 0 1 214.96046,172.07489 Z" transform="translate(-1.9328e-3,0)" style="opacity:.55;fill:url(#radialGradient2624);fill-opacity:1;stroke:none;stroke-width:1.5;stroke-miterlimit:4;stroke-dasharray:none;stroke-opacity:1"/><path id="path2620" d="m 172.53406,172.07489 a 39.59798,39.59798 0 0 1 -39.59798,39.59798 39.59798,39.59798 0 0 1 -39.59798,-39.59798 39.59798,39.59798 0 0 1 39.59798,-39.59798 39.59798,39.59798 0 0 1 39.59798,39.59798 z" transform="matrix(0.6857754,0.3834829,-0.4749959,0.8494263,105.11994,-50.171047)" style="opacity:.47916667;fill:#fff;fill-opacity:.76078431;stroke:none;stroke-width:1.5;stroke-miterlimit:4;stroke-dasharray:none;stroke-opacity:1"/><path id="path2622" d="m 172.53406,172.07489 a 39.59798,39.59798 0 0 1 -39.59798,39.59798 39.59798,39.59798 0 0 1 -39.59798,-39.59798 39.59798,39.59798 0 0 1 39.59798,-39.59798 39.59798,39.59798 0 0 1 39.59798,39.59798 z" transform="matrix(0.3328355,0.1861203,-0.2305354,0.4122621,104.42157,39.321787)" style="opacity:1;fill:#fff;fill-opacity:.76078431;stroke:none;stroke-width:1.5;stroke-miterlimit:4;stroke-dasharray:none;stroke-opacity:1"/></g></g></svg>