<svg xmlns="http://www.w3.org/2000/svg" xmlns:xlink="http://www.w3.org/1999/xlink" id="svg3481" width="16" height="16" version="1.0"><defs id="defs3483"><linearGradient id="linearGradient3451" x1="-51.786" x2="-51.786" y1="53.624" y2="2.906" gradientTransform="matrix(.27686 0 0 .30502 19.641 -.68561)" gradientUnits="userSpaceOnUse"><stop id="stop4963" offset="0" style="stop-color:#643340"/><stop id="stop4965" offset="1" style="stop-color:#a77a86"/></linearGradient><radialGradient id="radialGradient3449" cx="14.239" cy="11.49" r="18" gradientTransform="matrix(0 1.0835 -1.8167 0 24.709 -13.135)" gradientUnits="userSpaceOnUse"><stop id="stop4953" offset="0" style="stop-color:#e694bb"/><stop id="stop4955" offset=".262" style="stop-color:#d3819a"/><stop id="stop4957" offset=".705" style="stop-color:#b25a64"/><stop id="stop4959" offset="1" style="stop-color:#98313d"/></radialGradient><linearGradient id="linearGradient2666" x1="24" x2="24" y1="2" y2="46.017" gradientTransform="matrix(.27273 0 0 .30232 1.4546 .74420)" gradientUnits="userSpaceOnUse"><stop id="stop3213" offset="0" style="stop-color:#fff"/><stop id="stop3215" offset="1" style="stop-color:#fff;stop-opacity:0"/></linearGradient><linearGradient id="linearGradient2662" x1="32.892" x2="36.358" y1="8.059" y2="5.457" gradientTransform="matrix(.30920 0 0 .37669 .47615 .10718)" gradientUnits="userSpaceOnUse"><stop id="stop8591" offset="0" style="stop-color:#fefefe"/><stop id="stop8593" offset="1" style="stop-color:#cbcbcb"/></linearGradient><linearGradient id="linearGradient2645" x1="16.626" x2="20.055" y1="15.298" y2="24.628" gradientTransform="matrix(.23946 0 0 .48234 1.7531 -1.879)" gradientUnits="userSpaceOnUse"><stop id="stop2687" offset="0" style="stop-color:#fff"/><stop id="stop2689" offset="1" style="stop-color:#fff;stop-opacity:0"/></linearGradient><linearGradient id="linearGradient2639" x1="35.517" x2="34.103" y1="4.858" y2="6.544" gradientTransform="matrix(.34287 0 0 .34087 -.68759 .32953)" gradientUnits="userSpaceOnUse"><stop id="stop4269" offset="0" style="stop-color:#c4c4c4"/><stop id="stop4271" offset="1" style="stop-color:#c4c4c4;stop-opacity:0"/></linearGradient><linearGradient id="linearGradient3473" x1="75.854" x2="91" y1="28" y2="12" gradientTransform="matrix(.38547 0 0 .31695 -20.882 1.5819)" gradientUnits="userSpaceOnUse" spreadMethod="reflect"><stop id="stop4002" offset="0"/><stop id="stop4004" offset="1" style="stop-opacity:0"/></linearGradient><linearGradient id="linearGradient3470" x1="75.854" x2="91" y1="28" y2="12" gradientTransform="matrix(.38547 0 0 .31695 -20.882 1.1988)" gradientUnits="userSpaceOnUse" spreadMethod="reflect"><stop id="stop5295" offset="0" style="stop-color:#fff"/><stop id="stop5297" offset="1" style="stop-color:#fff;stop-opacity:0"/></linearGradient><linearGradient id="linearGradient3466" x1="24.239" x2="24.239" y1="44.11" y2=".191" gradientTransform="matrix(.35298 0 0 .36576 .43501 -.67525)" gradientUnits="userSpaceOnUse"><stop id="stop4108" offset="0" style="stop-color:#51293c"/><stop id="stop4110" offset="1" style="stop-color:#876374"/></linearGradient></defs><g id="layer1"><path id="path4160" d="m1.5 0.49997h8.4412c0.4418 0.16179 2.9388 2.1328 3.5588 3.4091v11.591h-12v-15z" style="stroke-linejoin:round;stroke-width:.99992;stroke:url(#linearGradient3451);fill:url(#radialGradient3449)"/><path id="path2435" d="m12.5 4.2151v10.285h-10v-13h7.2363" style="opacity:.4;stroke:url(#linearGradient2666);fill:none"/><path id="path3330" d="m9.2941 0.8409c0.8479 2.8039-0.2941 4.1932-0.2941 4.1932s1.893-1.2514 4.171-0.1023c1.943 0.9798 0.036-1.008-0.041-1.129-0.543-0.8475-2.423-2.6331-3.105-2.9302-0.0554-0.02424-0.4436-0.0317-0.7309-0.0317z" style="opacity:.3;fill-rule:evenodd"/><path id="path4474" d="m9.2941 0.8409c0.9879 0 0.7059 3.181 0.7059 3.181s2.272-0.5007 3.171 0.9099c0.163 0.2556 0.036-1.008-0.041-1.129-0.543-0.8475-2.423-2.6331-3.105-2.9302-0.0554-0.02424-0.4436-0.0317-0.7309-0.0317z" style="fill:url(#linearGradient2662);fill-rule:evenodd"/><path id="path3879" d="m2.5238 1c-0.2893 0-0.5238 0.4723-0.5238 1.0551v7.7175c0.0007 0.065 0.0148 0.1264 0.039 0.1693 0.0241 0.043 0.0561 0.0631 0.0882 0.0568l10.776-3.4367c0.055-0.0176 0.096-0.113 0.097-0.2261v-2.077l-3.505-3.2589h-6.9712z" style="opacity:.2;fill:url(#linearGradient2645);fill-rule:evenodd"/><path id="path3883" d="m9.7907 0.49997c0.4823 0.16179 3.0743 2.0041 3.7503 3.2804v4.1877c-13.867 5.3619-12.081-7.4681-3.7503-7.4681z" style="stroke-linejoin:round;stroke:url(#linearGradient2639);stroke-width:.99992;fill:none"/><path id="path5316" d="m10.487 5.3853c-0.141-0.0058-0.282 0.0008-0.42 0.0122-1.2146 0.1004-2.2644 0.8571-2.6681 2.0602-0.2487 0.7413-0.199 1.5265 0.0664 2.2552l-5.4653 4.9421v0.345h3.233l-0.0701-0.947 1.7822 0.365 0.2103-1.694 1.6715 0.366 1.0958-0.963c1.1193 0.374 2.2543 0.183 3.0773-0.439v-4.0597c-0.136 0.0353-0.293 0.0265-0.443-0.0365-0.365-0.1541-0.571-0.5657-0.454-0.9143 0.088-0.2615 0.34-0.4309 0.609-0.4267 0.09 0.0014 0.186 0.0225 0.277 0.061 0.005 0.002 0.006 0.01 0.011 0.0122v-0.6339c-0.356-0.099-0.715-0.0587-0.996 0.1097-0.077-0.0383-0.142-0.0884-0.222-0.1219-0.429-0.1813-0.87-0.2752-1.295-0.2926z" style="opacity:.1;fill:url(#linearGradient3473)"/><path id="path5283" d="m10.487 5.0022c-0.141-0.0059-0.282 0.0007-0.42 0.0121-1.2146 0.1004-2.2644 0.8572-2.6681 2.0602-0.2487 0.7413-0.199 1.5266 0.0664 2.2552l-5.4653 4.9803 0.015 0.69h3.2476l-0.0997-1.33 1.7822 0.365 0.2103-1.694 1.6715 0.365 1.0958-0.963c1.1193 0.375 2.2543 0.184 3.0773-0.438v-4.0598c-0.136 0.0352-0.293 0.0265-0.443-0.0366-0.365-0.154-0.571-0.5657-0.454-0.9143 0.088-0.2614 0.34-0.4309 0.609-0.4266 0.09 0.0014 0.186 0.0224 0.277 0.0609 0.005 0.0021 0.006 0.01 0.011 0.0122v-0.6339c-0.356-0.0989-0.715-0.0587-0.996 0.1097-0.077-0.0382-0.142-0.0883-0.222-0.1219-0.429-0.1812-0.87-0.2751-1.295-0.2925z" style="opacity:.4;fill:url(#linearGradient3470)"/><path id="path3477" d="m9.3539 13c-0.1753-0.632-0.3506-1.368-0.526-2h-2.6506c-0.177 0.632-0.3541 1.368-0.5312 2h-1.6461c0.8327-2.667 1.6654-5.3333 2.4981-8h1.9933c0.8362 2.6667 1.6726 5.333 2.5086 8h-1.6461zm-0.9046-3c-0.1901-0.8242-0.8755-3.7584-0.9493-4-0.2449 1.134-0.6203 2.8834-0.9282 4h1.8775z" style="opacity:.4;fill:#fff"/><path id="text3893" d="m9.3539 12c-0.1753-0.632-0.3506-1.368-0.526-2h-2.6506c-0.177 0.632-0.3541 1.368-0.5312 2h-1.6461c0.8327-2.6667 1.6654-5.3333 2.4981-8h1.9933c0.8362 2.6667 1.6726 5.3333 2.5086 8h-1.6461zm-0.9046-3c-0.1901-0.8242-0.8755-3.7584-0.9493-4-0.2449 1.134-0.6203 2.8834-0.9282 4h1.8775z" style="fill:url(#linearGradient3466)"/></g></svg>