<svg xmlns="http://www.w3.org/2000/svg" xmlns:svg="http://www.w3.org/2000/svg" xmlns:xlink="http://www.w3.org/1999/xlink" id="svg3150" width="16" height="16" version="1.1"><defs id="defs3152"><linearGradient id="linearGradient3931"><stop id="stop3933" offset="0" style="stop-color:#8d8f8a;stop-opacity:1"/><stop id="stop3935" offset="1" style="stop-color:#c1c1c1;stop-opacity:1"/></linearGradient><linearGradient id="linearGradient4547" x1="-51.786" x2="-51.786" y1="50.786" y2="2.906" gradientTransform="matrix(0.3000362,0,0,0.3120485,21.157141,-0.3741276)" gradientUnits="userSpaceOnUse" xlink:href="#linearGradient3931"/><linearGradient id="linearGradient3600"><stop id="stop3602" offset="0" style="stop-color:#f4f4f4;stop-opacity:1"/><stop id="stop3604" offset="1" style="stop-color:#dbdbdb;stop-opacity:1"/></linearGradient><linearGradient id="linearGradient4545" x1="25.132" x2="25.132" y1="6.729" y2="47.013" gradientTransform="matrix(0.3715633,0,0,0.3334383,-0.9175205,-0.0025171)" gradientUnits="userSpaceOnUse" xlink:href="#linearGradient3600"/><linearGradient id="linearGradient4559"><stop id="stop4561" offset="0" style="stop-color:silver;stop-opacity:1"/><stop id="stop4563" offset="1" style="stop-color:#949492;stop-opacity:1"/></linearGradient><linearGradient id="linearGradient4565" x1="17.289" x2="15.18" y1="2.185" y2="5.821" gradientTransform="matrix(0.6844293,0,0,0.6820072,-0.2131519,0.1569169)" gradientUnits="userSpaceOnUse" xlink:href="#linearGradient4559"/><linearGradient id="linearGradient8589"><stop id="stop8591" offset="0" style="stop-color:#fefefe;stop-opacity:1"/><stop id="stop8593" offset="1" style="stop-color:#cbcbcb;stop-opacity:1"/></linearGradient><linearGradient id="linearGradient4543" x1="32.892" x2="36.358" y1="8.059" y2="5.457" gradientTransform="matrix(0.3707081,0,0,0.3548465,-0.8566575,-0.04895116)" gradientUnits="userSpaceOnUse" xlink:href="#linearGradient8589"/><radialGradient id="radialGradient3997" cx="18.382" cy="19.035" r="10" fx="18.382" fy="19.035" gradientTransform="matrix(0.35412572,0.13092357,-0.32158255,0.86982545,4.3300384,-10.960806)" gradientUnits="userSpaceOnUse" xlink:href="#linearGradient3993"/><linearGradient id="linearGradient3993"><stop id="stop3995" offset="0" style="stop-color:#a3c0d0;stop-opacity:1"/><stop id="stop4001" offset="1" style="stop-color:#427da1;stop-opacity:1"/></linearGradient></defs><g id="layer1"><path id="rect2594" d="m 1.4976268,0.49762721 c 2.980045,0 4.9376418,0 7.9176887,0 0.522766,0.16184396 4.3536885,2.61362219 5.0870585,3.89029659 0,3.907463 0,7.2069842 0,11.1144502 -4.334914,0 -8.6698338,0 -13.0047472,0 0,-5.001584 0,-10.0031638 0,-15.00474679 z" style="fill:url(#linearGradient4545);fill-opacity:1;stroke:url(#linearGradient4547);stroke-width:.9952535;stroke-linecap:butt;stroke-linejoin:round;stroke-miterlimit:4;stroke-opacity:1;stroke-dasharray:none;stroke-dashoffset:0;display:inline"/><path id="path12038" d="M 9.5,0.4979205 C 9.5,2.041279 9.5,4.5 9.5,4.5 c 0,0 4.080603,0 5.00208,0 0,-1.9018156 -3.00574,-4.0020795 -5.00208,-4.0020795 z" style="fill:url(#linearGradient4543);fill-opacity:1;fill-rule:evenodd;stroke:url(#linearGradient4565);stroke-width:.9952535;stroke-linecap:butt;stroke-linejoin:round;stroke-miterlimit:4;stroke-opacity:1;stroke-dasharray:none;display:inline"/><path id="path3279" d="m 2.997,13.039552 0.2194596,1.783672 c 0,0 2.8968589,1.104686 4.3452905,-3.289224 0.087784,-2e-6 2.4579399,0 2.4579399,0 l 0,-2.3663024 -1.536213,-0.043512 c 0,0 0.7461613,-1.7401648 2.370161,-1.9141812 0,-0.043504 -0.17557,-1.6966595 -0.17557,-1.6966595 0,0 -2.6774027,-0.3915366 -4.3013992,3.8283629 C 4.9721316,13.474592 2.997,13.039552 2.997,13.039552 z" style="opacity:.4;fill:#fff;fill-opacity:1;fill-rule:evenodd;stroke:none"/><path id="path1389" d="m 2.997,12.210842 0.2194596,1.783667 c 0,0 2.8831182,1.399402 4.3315487,-2.994509 0.087784,-2e-6 2.5199617,0 2.5199617,0 l 0,-2 -1.5713268,0 c 0,0 0.7329951,-2.4446891 2.3569948,-2.6187054 0,-0.043505 -0.17557,-1.6966598 -0.17557,-1.6966598 0,0 -2.6774027,-0.3915365 -4.3013992,3.8283624 C 4.9721316,12.645885 2.997,12.210842 2.997,12.210842 z" style="fill:url(#radialGradient3997);fill-opacity:1;fill-rule:evenodd;stroke:none"/><path id="path2454" d="M 3.3898362,13.973449 3.200285,12.415122 c 0,0 2.01245,0.116558 3.2340807,-3.5336936 0,0 1.2766149,-4.1097925 4.2480143,-4.003178" style="opacity:.3;fill:none;stroke:#000;stroke-width:.3928313;stroke-linecap:butt;stroke-linejoin:miter;stroke-miterlimit:4;stroke-opacity:1;stroke-dasharray:none"/><path id="path6356" d="m 8.4966432,9.2 c 0.2689621,0 1.5713268,0 1.5713268,0" style="opacity:.3;fill:none;stroke:#000;stroke-width:.3928313;stroke-linecap:butt;stroke-linejoin:miter;stroke-miterlimit:4;stroke-opacity:1;stroke-dasharray:none"/></g></svg>