<svg xmlns="http://www.w3.org/2000/svg" xmlns:svg="http://www.w3.org/2000/svg" xmlns:xlink="http://www.w3.org/1999/xlink" id="svg3150" width="16" height="16" version="1.1"><defs id="defs3152"><linearGradient id="linearGradient3931"><stop id="stop3933" offset="0" style="stop-color:#8d8f8a;stop-opacity:1"/><stop id="stop3935" offset="1" style="stop-color:#c1c1c1;stop-opacity:1"/></linearGradient><linearGradient id="linearGradient4545" x1="25.132" x2="25.132" y1="6.729" y2="47.013" gradientTransform="matrix(0.3715633,0,0,0.3334383,-0.9175205,-0.0025171)" gradientUnits="userSpaceOnUse" xlink:href="#linearGradient3931"/><linearGradient id="linearGradient8589"><stop id="stop8591" offset="0" style="stop-color:#fefefe;stop-opacity:1"/><stop id="stop8593" offset="1" style="stop-color:#cbcbcb;stop-opacity:1"/></linearGradient><linearGradient id="linearGradient4543" x1="32.892" x2="36.358" y1="8.059" y2="5.457" gradientTransform="matrix(0.3707081,0,0,0.3548465,-0.8566575,-0.04895116)" gradientUnits="userSpaceOnUse" xlink:href="#linearGradient8589"/></defs><g id="layer1"><path id="rect2594" d="m 1.4976268,0.49762721 c 2.980045,0 4.9376418,0 7.9176887,0 1.0521775,0.10302043 4.5301595,1.14303399 5.0870585,3.89029659 0,3.907463 0,7.2069842 0,11.1144502 -4.334914,0 -8.6698338,0 -13.0047472,0 0,-5.001584 0,-10.0031638 0,-15.00474679 z" style="opacity:.41999996;fill:url(#linearGradient4545);fill-opacity:1;stroke:#8d8f8a;stroke-width:.9952535;stroke-linecap:butt;stroke-linejoin:round;stroke-miterlimit:4;stroke-opacity:1;stroke-dasharray:none;stroke-dashoffset:0;display:inline"/><path id="path12038" d="M 9.5,0.4979205 C 9.5,2.041279 9.5,4.5 9.5,4.5 c 0,0 4.080603,0 5.00208,0 0,-1.9018156 -3.00574,-4.0020795 -5.00208,-4.0020795 z" style="opacity:.41999996;fill:url(#linearGradient4543);fill-opacity:1;fill-rule:evenodd;stroke:#8d8f8a;stroke-width:.9952535;stroke-linecap:butt;stroke-linejoin:round;stroke-miterlimit:4;stroke-opacity:1;stroke-dasharray:none;display:inline"/></g></svg>