<svg xmlns="http://www.w3.org/2000/svg" xmlns:xlink="http://www.w3.org/1999/xlink" id="svg3518" width="16" height="16" version="1.0"><defs id="defs3520"><linearGradient id="linearGradient3474" x1="-51.786" x2="-51.786" y1="53.624" y2="2.906" gradientTransform="matrix(.27686 0 0 .30502 19.641 -.68561)" gradientUnits="userSpaceOnUse"><stop id="stop2510" offset="0" style="stop-color:#2e4a5a"/><stop id="stop2512" offset="1" style="stop-color:#6e8796"/></linearGradient><radialGradient id="radialGradient3471" cx="14.239" cy="11.49" r="18" gradientTransform="matrix(0 1.0835 -1.8167 0 24.709 -13.135)" gradientUnits="userSpaceOnUse"><stop id="stop8022" offset="0" style="stop-color:#85c2cf"/><stop id="stop8024" offset=".262" style="stop-color:#74a4be"/><stop id="stop8026" offset=".705" style="stop-color:#5177a0"/><stop id="stop8028" offset="1" style="stop-color:#2c5889"/></radialGradient><linearGradient id="linearGradient3468" x1="24" x2="24" y1="2" y2="46.017" gradientTransform="matrix(.27273 0 0 .30232 1.4546 .74420)" gradientUnits="userSpaceOnUse"><stop id="stop3213" offset="0" style="stop-color:#fff"/><stop id="stop3215" offset="1" style="stop-color:#fff;stop-opacity:0"/></linearGradient><linearGradient id="linearGradient3461" x1="16.626" x2="20.055" y1="15.298" y2="24.628" gradientTransform="matrix(.23946 0 0 .48234 1.7531 -1.879)" gradientUnits="userSpaceOnUse"><stop id="stop2687" offset="0" style="stop-color:#fff"/><stop id="stop2689" offset="1" style="stop-color:#fff;stop-opacity:0"/></linearGradient><linearGradient id="linearGradient3516" x1="75.854" x2="91" y1="28" y2="12" gradientTransform="matrix(.38439 0 0 .29589 -20.854 2.5013)" gradientUnits="userSpaceOnUse" spreadMethod="reflect"><stop id="stop4002" offset="0"/><stop id="stop4004" offset="1" style="stop-opacity:0"/></linearGradient><linearGradient id="linearGradient3513" x1="75.854" x2="91" y1="28" y2="12" gradientTransform="matrix(.38408 0 0 .29650 -20.798 2.0702)" gradientUnits="userSpaceOnUse" spreadMethod="reflect"><stop id="stop5295" offset="0" style="stop-color:#fff"/><stop id="stop5297" offset="1" style="stop-color:#fff;stop-opacity:0"/></linearGradient><linearGradient id="linearGradient3510" x1="26.189" x2="44.25" y1="30.455" y2="16.135" gradientTransform="matrix(.32379 0 0 .32192 -.26248 .88249)" gradientUnits="userSpaceOnUse" spreadMethod="reflect"><stop id="stop3761" offset="0"/><stop id="stop3763" offset="1" style="stop-opacity:0"/></linearGradient><linearGradient id="linearGradient3477" x1="24.239" x2="24.239" y1="44.11" y2=".191" gradientTransform="matrix(.35362 0 0 .36691 -1.0714 -.71525)" gradientUnits="userSpaceOnUse"><stop id="stop3686" offset="0" style="stop-color:#294351"/><stop id="stop3688" offset="1" style="stop-color:#637a87"/></linearGradient><linearGradient id="linearGradient3464" x1="32.892" x2="36.358" y1="8.059" y2="5.457" gradientTransform="matrix(.30920 0 0 .37669 .47615 .10718)" gradientUnits="userSpaceOnUse"><stop id="stop8591" offset="0" style="stop-color:#fefefe"/><stop id="stop8593" offset="1" style="stop-color:#cbcbcb"/></linearGradient><linearGradient id="linearGradient3458" x1="35.517" x2="34.103" y1="4.858" y2="6.544" gradientTransform="matrix(.34287 0 0 .34087 -.68759 .32953)" gradientUnits="userSpaceOnUse"><stop id="stop4269" offset="0" style="stop-color:#c4c4c4"/><stop id="stop4271" offset="1" style="stop-color:#c4c4c4;stop-opacity:0"/></linearGradient></defs><g id="layer1"><path id="path4160" d="m1.5 0.49997h8.4412c0.4418 0.16179 2.9388 2.1328 3.5588 3.4091v11.591h-12v-15z" style="stroke-linejoin:round;stroke-width:.99992;stroke:url(#linearGradient3474);fill:url(#radialGradient3471)"/><path id="path2435" d="m12.5 4.2151v10.285h-10v-13h7.2363" style="opacity:.4;stroke:url(#linearGradient3468);fill:none"/><path id="path3879" d="m2.5238 1c-0.2893 0-0.5238 0.4723-0.5238 1.0551v7.7175c0.0007 0.065 0.0148 0.1264 0.039 0.1693 0.0241 0.043 0.0561 0.0631 0.0882 0.0568l10.776-3.4367c0.055-0.0176 0.096-0.113 0.097-0.2261v-2.077l-3.505-3.2589h-6.9712z" style="opacity:.2;fill:url(#linearGradient3461);fill-rule:evenodd"/><path id="path3743" d="m5.8613 5.3894c-1.286 1.6475-2.5713 3.2972-3.8573 4.9446v5.035h9.164c0.845-1.083 0.975-1.248 1.845-2.362v-4.5647c-2.524-1.0779-5.5127-2.3529-7.1517-3.0529z" style="opacity:.1;fill:url(#linearGradient3516)"/><path id="path3697" d="m5.8542 5c-1.2849 1.6509-2.5693 3.3039-3.8542 4.9549v5.0451h9.156c0.845-1.085 0.975-1.25 1.844-2.367v-4.5738c-2.522-1.0802-5.5081-2.3578-7.1458-3.0592z" style="opacity:.4;fill:url(#linearGradient3513)"/><path id="path3475" d="m5.981 6.7615l6.029 2.6661-6.029-2.6661zm-0.6425 0.8524l7.0105 3.1001-7.0105-3.1001zm-0.6526 0.8659l2.2432 0.992-2.2432-0.992zm-0.6425 0.8524l7.0106 3.0998-7.0106-3.0998zm-0.6527 0.8658l6.3092 2.79-6.3092-2.79zm-0.6475 0.859l5.7483 2.542-5.7483-2.542zm-0.6426 0.853l6.87 3.038-6.87-3.038z" style="opacity:.1;stroke:url(#linearGradient3510);stroke-width:1px;fill:none"/><path id="path3494" d="m10.645 13h-1.8542c-0.3407-1.443-0.7069-2.881-1.03-4.3283-0.1032-0.4559-0.2118-1.236-0.2723-1.5171-0.1973 1.562-0.6264 3.0744-0.9777 4.6034l-0.2964 1.242h-1.8598c-0.6182-2.664-1.2364-5.3283-1.8546-7.9924h1.607c0.4295 2.1953 0.9151 4.3797 1.2539 6.5934 0.1437-1.046 0.3245-2.0854 0.5893-3.1053 0.2778-1.1627 0.5555-2.3254 0.8333-3.4881h1.433c0.3647 1.542 0.7434 3.0808 1.0992 4.6249 0.1267 0.6525 0.2273 1.3105 0.3287 1.9685 0.3196-2.1767 0.8066-4.3208 1.2256-6.4778-0.009-0.2095 0.248-0.0802 0.376-0.1156h1.254c-0.618 2.6641-1.236 5.3284-1.855 7.9924z" style="opacity:.4;fill:#fff"/><path id="text2612" d="m10.645 12h-1.8542c-0.3407-1.443-0.7069-2.8808-1.03-4.3283-0.1032-0.4559-0.2118-1.236-0.2723-1.5171-0.1973 1.562-0.6264 3.0748-0.9777 4.6034l-0.2964 1.242h-1.8598l-1.8546-7.9924h1.607c0.4295 2.1953 0.9151 4.3797 1.2539 6.5934 0.1437-1.0457 0.3245-2.0854 0.5893-3.1053 0.2778-1.1627 0.5555-2.3254 0.8333-3.4881h1.433c0.3647 1.542 0.7434 3.0808 1.0992 4.6249 0.1267 0.6527 0.2273 1.3106 0.3287 1.9685 0.3196-2.1767 0.8066-4.3208 1.2256-6.4778-0.009-0.2095 0.248-0.0802 0.376-0.1156h1.254c-0.618 2.6641-1.236 5.3283-1.855 7.9924z" style="fill:url(#linearGradient3477)"/><path id="path3330" d="m9.2941 0.8409c0.8479 2.8039-0.2941 4.1932-0.2941 4.1932s1.893-1.2514 4.171-0.1023c1.943 0.9798 0.036-1.008-0.041-1.129-0.543-0.8475-2.423-2.6331-3.105-2.9302-0.0554-0.02424-0.4436-0.0317-0.7309-0.0317z" style="opacity:.3;fill-rule:evenodd"/><path id="path4474" d="m9.2941 0.8409c0.9879 0 0.7059 3.181 0.7059 3.181s2.272-0.5007 3.171 0.9099c0.163 0.2556 0.036-1.008-0.041-1.129-0.543-0.8475-2.423-2.6331-3.105-2.9302-0.0554-0.02424-0.4436-0.0317-0.7309-0.0317z" style="fill:url(#linearGradient3464);fill-rule:evenodd"/><path id="path3883" d="m9.7907 0.49997c0.4823 0.16179 3.0743 2.0041 3.7503 3.2804v4.1877c-13.867 5.3619-12.081-7.4681-3.7503-7.4681z" style="stroke-linejoin:round;stroke:url(#linearGradient3458);stroke-width:.99992;fill:none"/></g></svg>