<svg xmlns="http://www.w3.org/2000/svg" xmlns:svg="http://www.w3.org/2000/svg" xmlns:xlink="http://www.w3.org/1999/xlink" id="svg21014" width="16" height="16" version="1.1"><defs id="defs21016"><linearGradient id="linearGradient54086" x1="119" x2="119" y1="1036.274" y2="1052.497" gradientTransform="translate(349,-1742)" gradientUnits="userSpaceOnUse" xlink:href="#linearGradient13214-4-4"/><linearGradient id="linearGradient13214-4-4"><stop id="stop13216-7-0" offset="0" style="stop-color:#18a303;stop-opacity:1"/><stop id="stop13218-2-6" offset="1" style="stop-color:#106802;stop-opacity:1"/></linearGradient><linearGradient id="linearGradient54084" x1="119" x2="119" y1="1036.274" y2="1052.497" gradientTransform="translate(472,11.6378)" gradientUnits="userSpaceOnUse" xlink:href="#linearGradient13214-4-4"/><linearGradient id="linearGradient44115" x1="294.418" x2="294.418" y1="256.984" y2="243.139" gradientTransform="matrix(0.997389,0,0,1.00194,-290.57775,-242.58386)" gradientUnits="userSpaceOnUse" xlink:href="#linearGradient10286-3"/><linearGradient id="linearGradient10286-3"><stop id="stop10288-8" offset="0" style="stop-color:#b3b3b3;stop-opacity:1"/><stop id="stop10290-7" offset="1" style="stop-color:#e6e6e6;stop-opacity:1"/></linearGradient><linearGradient id="linearGradient6514-5" x1="110.969" x2="110.969" y1="976.3" y2="992.375" gradientUnits="userSpaceOnUse" xlink:href="#linearGradient4145-42-322-778-541-32-432-871-622"/><linearGradient id="linearGradient4145-42-322-778-541-32-432-871-622"><stop id="stop5641" offset="0" style="stop-color:#b5cc85;stop-opacity:1"/><stop id="stop5643" offset=".262" style="stop-color:#9abe74;stop-opacity:1"/><stop id="stop5645" offset=".705" style="stop-color:#669f4d;stop-opacity:1"/><stop id="stop5647" offset="1" style="stop-color:#47892b;stop-opacity:1"/></linearGradient><linearGradient id="linearGradient6510-0" x1="110.969" x2="110.969" y1="976.3" y2="992.375" gradientUnits="userSpaceOnUse" xlink:href="#linearGradient4145-42-322-778-541-32-432-871-622"/><linearGradient id="linearGradient21012" x1="110.969" x2="110.969" y1="976.3" y2="992.375" gradientUnits="userSpaceOnUse" xlink:href="#linearGradient4145-42-322-778-541-32-432-871-622"/></defs><metadata id="metadata21019"/><g id="layer1"><g id="use6496" transform="matrix(0.999981,0,0,0.999625,-109.99775,-976.00286)" style="fill:url(#linearGradient6514-5);fill-opacity:1;display:inline"><path id="path6506" d="m 111.8125,976.375 c -0.4584,0.0875 -0.82072,0.5334 -0.8125,1 l 0,14 c 5e-5,0.52358 0.47642,0.99995 1,1 l 12,0 c 0.52358,-5e-5 0.99995,-0.47642 1,-1 l 0,-8 c 0.006,-0.26406 -0.0975,-0.52897 -0.28125,-0.71875 l -6,-6 C 118.52897,976.47255 118.26406,976.36888 118,976.375 l -6,0 c -0.0623,-0.006 -0.12518,-0.006 -0.1875,0 z" style="font-size:medium;font-style:normal;font-variant:normal;font-weight:400;font-stretch:normal;text-indent:0;text-align:start;text-decoration:none;line-height:normal;letter-spacing:normal;word-spacing:normal;text-transform:none;direction:ltr;text-anchor:start;color:#000;fill:url(#linearGradient6510-0);fill-opacity:1;stroke:none;stroke-width:2;marker:none;visibility:visible;display:inline;overflow:visible;font-family:Andale Mono"/><path id="path6508" d="m 121.34375,976.375 c -0.3315,0.10563 -0.44306,0.60766 -0.1875,0.84375 l 3,3 c 0.27715,0.26279 0.82915,0.0379 0.84375,-0.34375 l 0,-3 c -3e-5,-0.26179 -0.23821,-0.49997 -0.5,-0.5 l -3,0 c -0.0517,-0.008 -0.10459,-0.008 -0.15625,0 z" style="font-size:medium;font-style:normal;font-variant:normal;font-weight:400;font-stretch:normal;text-indent:0;text-align:start;text-decoration:none;line-height:normal;letter-spacing:normal;word-spacing:normal;text-transform:none;direction:ltr;text-anchor:start;color:#000;fill:url(#linearGradient21012);fill-opacity:1;fill-rule:nonzero;stroke:none;stroke-width:1;marker:none;visibility:visible;display:inline;overflow:visible;font-family:Andale Mono"/></g><path id="use6498" d="m 2.0003583,0.99932943 0,0.49999997 0,12.9999996 0,0.5 0.49999,0 10.9997897,0 0.5,0 0,-0.5 0,-7.3124994 0,-0.2188 -0.15625,-0.125 -5.6873997,-5.7187002 -0.15624,-0.12499997 -0.1874999,0 -5.3124001,0 -0.49999,0 z" style="font-size:medium;font-style:normal;font-variant:normal;font-weight:400;font-stretch:normal;text-indent:0;text-align:start;text-decoration:none;line-height:normal;letter-spacing:normal;word-spacing:normal;text-transform:none;direction:ltr;text-anchor:start;color:#000;fill:url(#linearGradient44115);fill-opacity:1;fill-rule:nonzero;stroke:none;stroke-width:1;marker:none;visibility:visible;display:inline;overflow:visible;font-family:Andale Mono"/><path id="use6500" d="m 3.0005383,1.9993294 4.7997101,0 5.2000996,5.2000002 0,6.7999994 -9.9998097,0 0,-11.9999996 z" style="fill:#fff;fill-opacity:.58823494;stroke:none;display:inline"/><g id="g15640" transform="translate(-464.00096,705.63714)" style="display:inline"><rect id="rect15622" width="7" height="7" x="591" y="1054" transform="translate(-123,-1753.64)" style="color:#000;fill:#ccf4c6;fill-opacity:1;fill-rule:nonzero;stroke:none;stroke-width:1;marker:none;visibility:visible;display:inline;overflow:visible"/><g id="g6623" style="color:#000;fill:url(#linearGradient54086);fill-opacity:1;fill-rule:nonzero;stroke:none;stroke-width:5.01121998;marker:none;visibility:visible;display:inline;overflow:visible"><path id="rect6525" d="m 591,1054 0,1 0,1 0,1 0,1 0,1 0,1 0,1 1,0 2,0 1,0 2,0 1,0 0,-1 0,-6 -6,0 -1,0 z m 1,1 2,0 0,1 -2,0 0,-1 z m 3,0 2,0 0,1 -2,0 0,-1 z m -3,2 2,0 0,1 -2,0 0,-1 z m 3,0 2,0 0,1 -2,0 0,-1 z m -3,2 2,0 0,1 -2,0 0,-1 z m 3,0 2,0 0,1 -2,0 0,-1 z" transform="translate(-123,-1753.64)" style="color:#000;fill:url(#linearGradient54084);marker:none;visibility:visible;display:inline;overflow:visible"/></g></g></g></svg>