<svg xmlns="http://www.w3.org/2000/svg" xmlns:svg="http://www.w3.org/2000/svg" xmlns:xlink="http://www.w3.org/1999/xlink" id="svg9725" width="16" height="16" version="1.1"><defs id="defs9727"><linearGradient id="linearGradient54106" x1="117.719" x2="117.719" y1="982.362" y2="984.72" gradientTransform="matrix(0.666679,0,0,3,42.3323,-1964.72)" gradientUnits="userSpaceOnUse" xlink:href="#linearGradient10501-8-6"/><linearGradient id="linearGradient10501-8-6"><stop id="stop10503-6-6" offset="0" style="stop-color:#0369a3;stop-opacity:1"/><stop id="stop10505-6-1" offset="1" style="stop-color:#023f62;stop-opacity:1"/></linearGradient><linearGradient id="linearGradient54098" x1="117.719" x2="117.719" y1="982.362" y2="984.72" gradientTransform="matrix(0.666679,0,0,3,42.3323,-1964.72)" gradientUnits="userSpaceOnUse" xlink:href="#linearGradient10501-8-6"/><linearGradient id="linearGradient54100" x1="117.719" x2="117.719" y1="982.362" y2="984.72" gradientTransform="matrix(0.666679,0,0,3,42.3323,-1964.72)" gradientUnits="userSpaceOnUse" xlink:href="#linearGradient10501-8-6"/><linearGradient id="linearGradient54102" x1="117.719" x2="117.719" y1="982.362" y2="984.72" gradientTransform="matrix(0.666679,0,0,3,42.3323,-1964.72)" gradientUnits="userSpaceOnUse" xlink:href="#linearGradient10501-8-6"/><linearGradient id="linearGradient54104" x1="117.719" x2="117.719" y1="982.362" y2="984.72" gradientTransform="matrix(0.666679,0,0,3,42.3323,-1964.72)" gradientUnits="userSpaceOnUse" xlink:href="#linearGradient10501-8-6"/><linearGradient id="linearGradient44259" x1="294.418" x2="294.418" y1="256.984" y2="243.139" gradientTransform="matrix(0.997389,0,0,1.00194,-290.57834,-242.58208)" gradientUnits="userSpaceOnUse" xlink:href="#linearGradient10286-3"/><linearGradient id="linearGradient10286-3"><stop id="stop10288-8" offset="0" style="stop-color:#b3b3b3;stop-opacity:1"/><stop id="stop10290-7" offset="1" style="stop-color:#e6e6e6;stop-opacity:1"/></linearGradient><linearGradient id="linearGradient14921-0" x1="110.969" x2="110.969" y1="976.3" y2="992.375" gradientUnits="userSpaceOnUse" xlink:href="#linearGradient2867-449-88-871-390-598-476-591-434-148-895-534-212-357-729"/><linearGradient id="linearGradient2867-449-88-871-390-598-476-591-434-148-895-534-212-357-729"><stop id="stop8022" offset="0" style="stop-color:#85c2cf;stop-opacity:1"/><stop id="stop8024" offset=".262" style="stop-color:#74a4be;stop-opacity:1"/><stop id="stop8026" offset=".705" style="stop-color:#5177a0;stop-opacity:1"/><stop id="stop8028" offset="1" style="stop-color:#2c5889;stop-opacity:1"/></linearGradient><linearGradient id="linearGradient14917-9" x1="110.969" x2="110.969" y1="976.3" y2="992.375" gradientUnits="userSpaceOnUse" xlink:href="#linearGradient2867-449-88-871-390-598-476-591-434-148-895-534-212-357-729"/><linearGradient id="linearGradient9723" x1="110.969" x2="110.969" y1="976.3" y2="992.375" gradientUnits="userSpaceOnUse" xlink:href="#linearGradient2867-449-88-871-390-598-476-591-434-148-895-534-212-357-729"/></defs><metadata id="metadata9730"/><g id="layer1"><g id="g14835" transform="matrix(0.999981,0,0,0.999625,-109.99774,-976.00108)" style="fill:url(#linearGradient14921-0);fill-opacity:1;display:inline"><path id="path14837" d="m 111.8125,976.375 c -0.4584,0.0875 -0.82072,0.5334 -0.8125,1 l 0,14 c 5e-5,0.52358 0.47642,0.99995 1,1 l 12,0 c 0.52358,-5e-5 0.99995,-0.47642 1,-1 l 0,-8 c 0.006,-0.26406 -0.0975,-0.52897 -0.28125,-0.71875 l -6,-6 C 118.52897,976.47255 118.26406,976.36888 118,976.375 l -6,0 c -0.0623,-0.006 -0.12518,-0.006 -0.1875,0 z" style="font-size:medium;font-style:normal;font-variant:normal;font-weight:400;font-stretch:normal;text-indent:0;text-align:start;text-decoration:none;line-height:normal;letter-spacing:normal;word-spacing:normal;text-transform:none;direction:ltr;text-anchor:start;color:#000;fill:url(#linearGradient14917-9);fill-opacity:1;stroke:none;stroke-width:2;marker:none;visibility:visible;display:inline;overflow:visible;font-family:Andale Mono"/><path id="path14839" d="m 121.34375,976.375 c -0.3315,0.10563 -0.44306,0.60766 -0.1875,0.84375 l 3,3 c 0.27715,0.26279 0.82915,0.0379 0.84375,-0.34375 l 0,-3 c -3e-5,-0.26179 -0.23821,-0.49997 -0.5,-0.5 l -3,0 c -0.0517,-0.008 -0.10459,-0.008 -0.15625,0 z" style="font-size:medium;font-style:normal;font-variant:normal;font-weight:400;font-stretch:normal;text-indent:0;text-align:start;text-decoration:none;line-height:normal;letter-spacing:normal;word-spacing:normal;text-transform:none;direction:ltr;text-anchor:start;color:#000;fill:url(#linearGradient9723);fill-opacity:1;fill-rule:nonzero;stroke:none;stroke-width:1;marker:none;visibility:visible;display:inline;overflow:visible;font-family:Andale Mono"/></g><path id="path14871" d="m 2.0001681,1.0011048 0,0.5 0,12.9999992 0,0.5 0.49999,0 10.9997899,0 0.5,0 0,-0.5 0,-7.3124992 0,-0.2188 -0.15625,-0.125 -5.6873999,-5.7187 -0.15624,-0.125 -0.1875,0 -5.3124,0 -0.49999,0 z" style="font-size:medium;font-style:normal;font-variant:normal;font-weight:400;font-stretch:normal;text-indent:0;text-align:start;text-decoration:none;line-height:normal;letter-spacing:normal;word-spacing:normal;text-transform:none;direction:ltr;text-anchor:start;color:#000;fill:url(#linearGradient44259);fill-opacity:1;fill-rule:nonzero;stroke:none;stroke-width:1;marker:none;visibility:visible;display:inline;overflow:visible;font-family:Andale Mono"/><path id="path14841" d="m 3.0003481,2.0011048 4.79971,0 5.2000999,5.2 0,6.7999992 -9.9998099,0 0,-11.9999992 z" style="fill:#fff;fill-opacity:.58823494;stroke:none;display:inline"/><g id="g6577" transform="matrix(0.999981,0,0,1,-110.99894,-976.36108)" style="color:#000;fill:url(#linearGradient54106);fill-opacity:1;fill-rule:nonzero;stroke:none;stroke-width:5.01121998;marker:none;visibility:visible;display:inline;overflow:visible"><rect id="rect6579" width="8" height="1" x="115.001" y="984.361" style="color:#000;fill:url(#linearGradient54098);fill-opacity:1;fill-rule:nonzero;stroke:none;stroke-width:5.01121998;marker:none;visibility:visible;display:inline;overflow:visible"/><rect id="rect6581" width="6" height="1" x="115.001" y="982.361" style="color:#000;fill:url(#linearGradient54100);fill-opacity:1;fill-rule:nonzero;stroke:none;stroke-width:5.01121998;marker:none;visibility:visible;display:inline;overflow:visible"/><rect id="rect6583" width="8" height="1" x="115.001" y="986.361" style="color:#000;fill:url(#linearGradient54102);fill-opacity:1;fill-rule:nonzero;stroke:none;stroke-width:5.01121998;marker:none;visibility:visible;display:inline;overflow:visible"/><rect id="rect6586" width="6" height="1" x="115.001" y="988.361" style="color:#000;fill:url(#linearGradient54104);fill-opacity:1;fill-rule:nonzero;stroke:none;stroke-width:5.01121998;marker:none;visibility:visible;display:inline;overflow:visible"/></g></g></svg>