<svg xmlns="http://www.w3.org/2000/svg" xmlns:svg="http://www.w3.org/2000/svg" xmlns:xlink="http://www.w3.org/1999/xlink" id="svg17552" width="16" height="16" version="1.1"><defs id="defs17554"><linearGradient id="linearGradient54152" x1="155.75" x2="155.75" y1="1016.362" y2="1032.395" gradientUnits="userSpaceOnUse" xlink:href="#linearGradient13785-5"/><linearGradient id="linearGradient13785-5"><stop id="stop13787-5" offset="0" style="stop-color:#a33e03;stop-opacity:1"/><stop id="stop13789-99" offset="1" style="stop-color:#622502;stop-opacity:1"/></linearGradient><linearGradient id="linearGradient54150" x1="155.75" x2="155.75" y1="1016.362" y2="1032.395" gradientUnits="userSpaceOnUse" xlink:href="#linearGradient13785-5"/><linearGradient id="linearGradient54134" x1="155.75" x2="155.75" y1="1016.362" y2="1032.395" gradientUnits="userSpaceOnUse" xlink:href="#linearGradient13785-5"/><linearGradient id="linearGradient54148" x1="155.75" x2="155.75" y1="1016.362" y2="1032.395" gradientUnits="userSpaceOnUse" xlink:href="#linearGradient13785-5"/><linearGradient id="linearGradient54144" x1="155.75" x2="155.75" y1="1016.362" y2="1032.395" gradientUnits="userSpaceOnUse" xlink:href="#linearGradient13785-5"/><linearGradient id="linearGradient54136" x1="155.75" x2="155.75" y1="1016.362" y2="1032.395" gradientTransform="matrix(0.666667,0,0,1,52.6667,0)" gradientUnits="userSpaceOnUse" xlink:href="#linearGradient13785-5"/><linearGradient id="linearGradient54138" x1="155.75" x2="155.75" y1="1016.362" y2="1032.395" gradientTransform="matrix(0.666667,0,0,1,52.6667,0)" gradientUnits="userSpaceOnUse" xlink:href="#linearGradient13785-5"/><linearGradient id="linearGradient54140" x1="155.75" x2="155.75" y1="1016.362" y2="1032.395" gradientUnits="userSpaceOnUse" xlink:href="#linearGradient13785-5"/><linearGradient id="linearGradient54142" x1="155.75" x2="155.75" y1="1016.362" y2="1032.395" gradientUnits="userSpaceOnUse" xlink:href="#linearGradient13785-5"/><linearGradient id="linearGradient54146" x1="155.75" x2="155.75" y1="1016.362" y2="1032.395" gradientUnits="userSpaceOnUse" xlink:href="#linearGradient13785-5"/><linearGradient id="linearGradient43932" x1="294.418" x2="294.418" y1="256.984" y2="243.139" gradientTransform="matrix(0.997389,0,0,1.00194,-290.577,-242.596)" gradientUnits="userSpaceOnUse" xlink:href="#linearGradient10286-3"/><linearGradient id="linearGradient10286-3"><stop id="stop10288-8" offset="0" style="stop-color:#b3b3b3;stop-opacity:1"/><stop id="stop10290-7" offset="1" style="stop-color:#e6e6e6;stop-opacity:1"/></linearGradient><linearGradient id="linearGradient4767-7" x1="110.969" x2="110.969" y1="976.3" y2="992.375" gradientUnits="userSpaceOnUse" xlink:href="#linearGradient2490-113-580"/><linearGradient id="linearGradient2490-113-580"><stop id="stop15640" offset="0" style="stop-color:#ed8137;stop-opacity:1"/><stop id="stop5569" offset="1" style="stop-color:#71171c;stop-opacity:1"/></linearGradient><linearGradient id="linearGradient4763-5" x1="110.969" x2="110.969" y1="976.3" y2="992.375" gradientUnits="userSpaceOnUse" xlink:href="#linearGradient2490-113-580"/><linearGradient id="linearGradient17550" x1="110.969" x2="110.969" y1="976.3" y2="992.375" gradientUnits="userSpaceOnUse" xlink:href="#linearGradient2490-113-580"/></defs><metadata id="metadata17557"/><g id="layer1"><g id="g4743" transform="matrix(0.999981,0,0,0.999625,-109.997,-976.015)" style="fill:url(#linearGradient4767-7);fill-opacity:1;display:inline"><path id="path4745" d="m 111.8125,976.375 c -0.4584,0.0875 -0.82072,0.5334 -0.8125,1 l 0,14 c 5e-5,0.52358 0.47642,0.99995 1,1 l 12,0 c 0.52358,-5e-5 0.99995,-0.47642 1,-1 l 0,-8 c 0.006,-0.26406 -0.0975,-0.52897 -0.28125,-0.71875 l -6,-6 C 118.52897,976.47255 118.26406,976.36888 118,976.375 l -6,0 c -0.0623,-0.006 -0.12518,-0.006 -0.1875,0 z" style="font-size:medium;font-style:normal;font-variant:normal;font-weight:400;font-stretch:normal;text-indent:0;text-align:start;text-decoration:none;line-height:normal;letter-spacing:normal;word-spacing:normal;text-transform:none;direction:ltr;text-anchor:start;color:#000;fill:url(#linearGradient4763-5);fill-opacity:1;stroke:none;stroke-width:2;marker:none;visibility:visible;display:inline;overflow:visible;font-family:Andale Mono"/><path id="path4747" d="m 121.34375,976.375 c -0.3315,0.10563 -0.44306,0.60766 -0.1875,0.84375 l 3,3 c 0.27715,0.26279 0.82915,0.0379 0.84375,-0.34375 l 0,-3 c -3e-5,-0.26179 -0.23821,-0.49997 -0.5,-0.5 l -3,0 c -0.0517,-0.008 -0.10459,-0.008 -0.15625,0 z" style="font-size:medium;font-style:normal;font-variant:normal;font-weight:400;font-stretch:normal;text-indent:0;text-align:start;text-decoration:none;line-height:normal;letter-spacing:normal;word-spacing:normal;text-transform:none;direction:ltr;text-anchor:start;color:#000;fill:url(#linearGradient17550);fill-opacity:1;fill-rule:nonzero;stroke:none;stroke-width:1;marker:none;visibility:visible;display:inline;overflow:visible;font-family:Andale Mono"/></g><path id="path4749" d="m 2.0011122,0.98718876 0,0.50000004 0,12.9999992 0,0.5 0.49999,0 10.9997898,0 0.5,0 0,-0.5 0,-7.3124992 0,-0.2188 -0.15625,-0.125 -5.6873998,-5.7187 -0.15624,-0.12500004 -0.1875,0 -5.3124,0 -0.49999,0 z" style="font-size:medium;font-style:normal;font-variant:normal;font-weight:400;font-stretch:normal;text-indent:0;text-align:start;text-decoration:none;line-height:normal;letter-spacing:normal;word-spacing:normal;text-transform:none;direction:ltr;text-anchor:start;color:#000;fill:url(#linearGradient43932);fill-opacity:1;fill-rule:nonzero;stroke:none;stroke-width:1;marker:none;visibility:visible;display:inline;overflow:visible;font-family:Andale Mono"/><path id="path4751" d="m 3.0012922,1.9871888 4.79971,0 5.2000998,5.2 0,6.7999992 -9.9998098,0 0,-11.9999992 z" style="fill:#fff;fill-opacity:.58823494;stroke:none;display:inline"/><rect id="rect4777" width="8" height="7" x="4" y="5.987" style="color:#000;fill:#f9cfb5;fill-opacity:1;fill-rule:nonzero;stroke:none;stroke-width:1;marker:none;visibility:visible;display:inline;overflow:visible"/><g id="g13999" transform="translate(-150,-1016.375)" style="fill:url(#linearGradient54152);fill-opacity:1;display:inline"><g id="g14296" style="fill:url(#linearGradient54150)"><path id="path20542-3-8-2" d="m 154.03125,1022.375 0,0.4688 c -0.0119,1.9999 -0.0196,3.9999 -0.0312,6 l 0,0.5312 0.5,0 7,0 0.5,0 0,-0.5 c -6e-5,-1.9921 0,-4.0081 0,-6 l 0,-0.5 -0.5,0 c -2.32275,-0.012 -4.64771,0.01 -6.96875,0 l -0.5,0 z m 1,1 c 1.98885,0.01 3.98117,-0.01 5.96875,0 0,1.6599 -4e-5,3.3399 0,5 l -6,0 c 0.01,-1.6668 0.0214,-3.3334 0.0312,-5 z" style="font-size:medium;font-style:normal;font-variant:normal;font-weight:400;font-stretch:normal;text-indent:0;text-align:start;text-decoration:none;line-height:normal;letter-spacing:normal;word-spacing:normal;text-transform:none;direction:ltr;text-anchor:start;color:#000;fill:url(#linearGradient54134);fill-opacity:1;stroke:none;stroke-width:1;marker:none;visibility:visible;display:inline;overflow:visible;font-family:Andale Mono"/><g id="g13956" style="fill:url(#linearGradient54148);fill-opacity:1"><g id="g13948" style="fill:url(#linearGradient54144);fill-opacity:1"><rect id="rect13803" width="2" height="1" x="158" y="1024.362" style="color:#000;fill:url(#linearGradient54136);fill-opacity:1;fill-rule:nonzero;stroke:none;stroke-width:1;marker:none;visibility:visible;display:inline;overflow:visible"/><rect id="rect13805" width="2" height="1" x="158" y="1026.362" style="color:#000;fill:url(#linearGradient54138);fill-opacity:1;fill-rule:nonzero;stroke:none;stroke-width:1;marker:none;visibility:visible;display:inline;overflow:visible"/><rect id="rect13815" width="1" height="1" x="156" y="1024.362" style="color:#000;fill:url(#linearGradient54140);fill-opacity:1;fill-rule:nonzero;stroke:none;stroke-width:1;marker:none;visibility:visible;display:inline;overflow:visible"/><rect id="rect13817" width="1" height="1" x="156" y="1026.362" style="color:#000;fill:url(#linearGradient54142);fill-opacity:1;fill-rule:nonzero;stroke:none;stroke-width:1;marker:none;visibility:visible;display:inline;overflow:visible"/><g id="g14026" transform="translate(3,0)" style="fill:#f09e6f"><rect id="rect14018" width="1" height="1" x="157" y="1024.362" style="color:#000;fill:#f09e6f;fill-opacity:1;fill-rule:nonzero;stroke:none;stroke-width:1;marker:none;visibility:visible;display:inline;overflow:visible"/><rect id="rect14022" width="1" height="1" x="157" y="1026.362" style="color:#000;fill:#f09e6f;fill-opacity:1;fill-rule:nonzero;stroke:none;stroke-width:1;marker:none;visibility:visible;display:inline;overflow:visible"/></g></g></g></g></g></g></svg>