<svg xmlns="http://www.w3.org/2000/svg" xmlns:svg="http://www.w3.org/2000/svg" xmlns:xlink="http://www.w3.org/1999/xlink" id="svg24673" width="16" height="16" version="1.1"><defs id="defs24675"><linearGradient id="linearGradient54154" x1="993.013" x2="993.013" y1="-705.584" y2="-689.638" gradientUnits="userSpaceOnUse" xlink:href="#linearGradient10125-8"/><linearGradient id="linearGradient10125-8"><stop id="stop10127-5" offset="0" style="stop-color:#c99c00;stop-opacity:1"/><stop id="stop10129-5" offset="1" style="stop-color:#876900;stop-opacity:1"/></linearGradient><linearGradient id="linearGradient10610-4" x1="110.969" x2="110.969" y1="976.3" y2="992.375" gradientUnits="userSpaceOnUse" xlink:href="#linearGradient6402"/><linearGradient id="linearGradient6402"><stop id="stop6404" offset="0" style="stop-color:#cd8033;stop-opacity:1"/><stop id="stop6406" offset="1" style="stop-color:#bb5e12;stop-opacity:1"/></linearGradient><linearGradient id="linearGradient10606-3" x1="110.969" x2="110.969" y1="976.3" y2="992.375" gradientUnits="userSpaceOnUse" xlink:href="#linearGradient6402"/><linearGradient id="linearGradient10608-8" x1="110.969" x2="110.969" y1="976.3" y2="992.375" gradientUnits="userSpaceOnUse" xlink:href="#linearGradient6402"/><linearGradient id="linearGradient10612-4" x1="294.418" x2="294.418" y1="256.984" y2="243.139" gradientTransform="matrix(0.997389,0,0,1.00194,-353.578,-948.221)" gradientUnits="userSpaceOnUse" xlink:href="#linearGradient10286-3"/><linearGradient id="linearGradient10286-3"><stop id="stop10288-8" offset="0" style="stop-color:#b3b3b3;stop-opacity:1"/><stop id="stop10290-7" offset="1" style="stop-color:#e6e6e6;stop-opacity:1"/></linearGradient></defs><metadata id="metadata24678"/><g id="layer1"><g id="g10564" transform="translate(63.000246,705.63714)" style="display:inline"><g id="g10566" transform="matrix(0.999981,0,0,0.999625,-172.998,-1681.64)" style="fill:url(#linearGradient10610-4);fill-opacity:1;display:inline"><path id="path10568" d="m 111.8125,976.375 c -0.4584,0.0875 -0.82072,0.5334 -0.8125,1 l 0,14 c 5e-5,0.52358 0.47642,0.99995 1,1 l 12,0 c 0.52358,-5e-5 0.99995,-0.47642 1,-1 l 0,-8 c 0.006,-0.26406 -0.0975,-0.52897 -0.28125,-0.71875 l -6,-6 C 118.52897,976.47255 118.26406,976.36888 118,976.375 l -6,0 c -0.0623,-0.006 -0.12518,-0.006 -0.1875,0 z" style="font-size:medium;font-style:normal;font-variant:normal;font-weight:400;font-stretch:normal;text-indent:0;text-align:start;text-decoration:none;line-height:normal;letter-spacing:normal;word-spacing:normal;text-transform:none;direction:ltr;text-anchor:start;color:#000;fill:url(#linearGradient10606-3);fill-opacity:1;stroke:none;stroke-width:2;marker:none;visibility:visible;display:inline;overflow:visible;font-family:Andale Mono"/><path id="path10570" d="m 121.34375,976.375 c -0.3315,0.10563 -0.44306,0.60766 -0.1875,0.84375 l 3,3 c 0.27715,0.26279 0.82915,0.0379 0.84375,-0.34375 l 0,-3 c -3e-5,-0.26179 -0.23821,-0.49997 -0.5,-0.5 l -3,0 c -0.0517,-0.008 -0.10459,-0.008 -0.15625,0 z" style="font-size:medium;font-style:normal;font-variant:normal;font-weight:400;font-stretch:normal;text-indent:0;text-align:start;text-decoration:none;line-height:normal;letter-spacing:normal;word-spacing:normal;text-transform:none;direction:ltr;text-anchor:start;color:#000;fill:url(#linearGradient10608-8);fill-opacity:1;fill-rule:nonzero;stroke:none;stroke-width:1;marker:none;visibility:visible;display:inline;overflow:visible;font-family:Andale Mono"/></g><path id="path10572" d="m -60.99988,-704.63781 0,0.5 0,13 0,0.5 0.49999,0 10.99979,0 0.5,0 0,-0.5 0,-7.3125 0,-0.2188 -0.15625,-0.125 -5.6874,-5.7187 -0.15624,-0.125 -0.1875,0 -5.3124,0 -0.49999,0 z" style="font-size:medium;font-style:normal;font-variant:normal;font-weight:400;font-stretch:normal;text-indent:0;text-align:start;text-decoration:none;line-height:normal;letter-spacing:normal;word-spacing:normal;text-transform:none;direction:ltr;text-anchor:start;color:#000;fill:url(#linearGradient10612-4);fill-opacity:1;fill-rule:nonzero;stroke:none;stroke-width:1;marker:none;visibility:visible;display:inline;overflow:visible;font-family:Andale Mono"/><path id="path10574" d="m -59.9997,-703.63781 4.79971,0 5.2001,5.2 0,6.8 -9.99981,0 0,-12 z" style="fill:#fff;fill-opacity:.86274498;stroke:none;display:inline"/></g><g id="g12758" transform="translate(-986.00096,705.63714)" style="display:inline"><path id="path12760" d="m 997.5,-698.1378 -5.5,5 5.5,0 0,-5 z" style="fill:#e9b913;stroke:#e9b913;stroke-width:1;stroke-linecap:butt;stroke-linejoin:round;stroke-opacity:1"/><path id="path10642" d="m 997.34375,-698.625 a 0.50005,0.50005 0 0 0 -0.1875,0.125 l -5.5,5 A 0.50005,0.50005 0 0 0 992,-692.625 l 5.5,0 a 0.50005,0.50005 0 0 0 0.5,-0.5 l 0,-5 a 0.50005,0.50005 0 0 0 -0.65625,-0.5 z M 997,-697 l 0,3.375 -3.71875,0 L 997,-697 z" style="font-size:medium;font-style:normal;font-variant:normal;font-weight:400;font-stretch:normal;text-indent:0;text-align:start;text-decoration:none;line-height:normal;letter-spacing:normal;word-spacing:normal;text-transform:none;direction:ltr;text-anchor:start;color:#000;fill:url(#linearGradient54154);fill-opacity:1;fill-rule:nonzero;stroke:none;stroke-width:1;marker:none;visibility:visible;display:inline;overflow:visible;font-family:Andale Mono"/><path id="path10667" d="m 1113.6781,1058.0121 a 2.3685112,2.3685112 0 1 1 3.726,-2.8591" transform="matrix(1.05634,-0.0723819,0.0723819,1.05634,-261.636,-1731.79)" style="color:#000;fill:#f09e6f;fill-opacity:1;fill-rule:nonzero;stroke:#a33e03;stroke-width:.94444901;stroke-linecap:round;stroke-linejoin:round;stroke-miterlimit:4;stroke-opacity:1;stroke-dasharray:none;stroke-dashoffset:0;marker:none;visibility:visible;display:inline;overflow:visible"/></g></g></svg>