<svg xmlns="http://www.w3.org/2000/svg" xmlns:svg="http://www.w3.org/2000/svg" xmlns:xlink="http://www.w3.org/1999/xlink" id="svg20835" width="16" height="16" version="1.1"><defs id="defs20837"><linearGradient id="linearGradient44067" x1="294.418" x2="294.418" y1="256.984" y2="243.139" gradientTransform="matrix(0.997389,0,0,1.00194,-290.57575,-242.58386)" gradientUnits="userSpaceOnUse" xlink:href="#linearGradient10286-3"/><linearGradient id="linearGradient10286-3"><stop id="stop10288-8" offset="0" style="stop-color:#b3b3b3;stop-opacity:1"/><stop id="stop10290-7" offset="1" style="stop-color:#e6e6e6;stop-opacity:1"/></linearGradient><linearGradient id="linearGradient6343-9" x1="110.969" x2="110.969" y1="976.3" y2="992.375" gradientUnits="userSpaceOnUse" xlink:href="#linearGradient4145-42"/><linearGradient id="linearGradient4145-42"><stop id="stop4953" offset="0" style="stop-color:#e694bb;stop-opacity:1"/><stop id="stop4955" offset=".262" style="stop-color:#d3819a;stop-opacity:1"/><stop id="stop4957" offset=".705" style="stop-color:#b25a64;stop-opacity:1"/><stop id="stop4959" offset="1" style="stop-color:#98313d;stop-opacity:1"/></linearGradient><linearGradient id="linearGradient43234" x1="110.969" x2="110.969" y1="976.3" y2="992.375" gradientUnits="userSpaceOnUse" xlink:href="#linearGradient4145-42"/><linearGradient id="linearGradient20833" x1="110.969" x2="110.969" y1="976.3" y2="992.375" gradientUnits="userSpaceOnUse" xlink:href="#linearGradient4145-42"/></defs><metadata id="metadata20840"/><g id="layer1"><g id="g6316" transform="matrix(0.999981,0,0,0.999625,-109.99775,-976.00286)" style="fill:url(#linearGradient6343-9);fill-opacity:1;display:inline"><path id="path6318" d="m 111.8125,976.375 c -0.4584,0.0875 -0.82072,0.5334 -0.8125,1 l 0,14 c 5e-5,0.52358 0.47642,0.99995 1,1 l 12,0 c 0.52358,-5e-5 0.99995,-0.47642 1,-1 l 0,-8 c 0.006,-0.26406 -0.0975,-0.52897 -0.28125,-0.71875 l -6,-6 C 118.52897,976.47255 118.26406,976.36888 118,976.375 l -6,0 c -0.0623,-0.006 -0.12518,-0.006 -0.1875,0 z" style="font-size:medium;font-style:normal;font-variant:normal;font-weight:400;font-stretch:normal;text-indent:0;text-align:start;text-decoration:none;line-height:normal;letter-spacing:normal;word-spacing:normal;text-transform:none;direction:ltr;text-anchor:start;color:#000;fill:url(#linearGradient43234);fill-opacity:1;stroke:none;stroke-width:2;marker:none;visibility:visible;display:inline;overflow:visible;font-family:Andale Mono"/><path id="path6320" d="m 121.34375,976.375 c -0.3315,0.10563 -0.44306,0.60766 -0.1875,0.84375 l 3,3 c 0.27715,0.26279 0.82915,0.0379 0.84375,-0.34375 l 0,-3 c -3e-5,-0.26179 -0.23821,-0.49997 -0.5,-0.5 l -3,0 c -0.0517,-0.008 -0.10459,-0.008 -0.15625,0 z" style="font-size:medium;font-style:normal;font-variant:normal;font-weight:400;font-stretch:normal;text-indent:0;text-align:start;text-decoration:none;line-height:normal;letter-spacing:normal;word-spacing:normal;text-transform:none;direction:ltr;text-anchor:start;color:#000;fill:url(#linearGradient20833);fill-opacity:1;fill-rule:nonzero;stroke:none;stroke-width:1;marker:none;visibility:visible;display:inline;overflow:visible;font-family:Andale Mono"/></g><path id="path6322" d="m 2.0023383,0.99932943 0,0.49999997 0,12.9999996 0,0.5 0.5,0 10.9997997,0 0.5,0 0,-0.5 0,-7.3124996 0,-0.2188 -0.1562,-0.125 -5.6874999,-5.7187 -0.1562,-0.12499997 -0.1874998,0 -5.3124,0 -0.5,0 z" style="font-size:medium;font-style:normal;font-variant:normal;font-weight:400;font-stretch:normal;text-indent:0;text-align:start;text-decoration:none;line-height:normal;letter-spacing:normal;word-spacing:normal;text-transform:none;direction:ltr;text-anchor:start;color:#000;fill:url(#linearGradient44067);fill-opacity:1;fill-rule:nonzero;stroke:none;stroke-width:1;marker:none;visibility:visible;display:inline;overflow:visible;font-family:Andale Mono"/><path id="path6324" d="m 3.0025383,1.9993294 4.7997,0 5.2000997,5.2 0,6.7999996 -9.9997997,0 0,-11.9999996 z" style="fill:#fff;fill-opacity:.58823494;stroke:none;display:inline"/><g id="g6425" transform="translate(-387.99875,990.13714)" style="fill:#f2cbf8;display:inline"><path id="rect6392" d="m 515.5,772 0,2 c 0,0 0,0.29921 0,0.5 0,0.82843 1.567,1.5 3.5,1.5 1.933,0 3.5,-0.67157 3.5,-1.5 l 0,-0.5 0,-2 -7,0 z" transform="translate(-123,-1753.64)" style="color:#000;fill:#f2cbf8;fill-opacity:1;fill-rule:nonzero;stroke:#8e03a3;stroke-width:1;stroke-linecap:butt;stroke-linejoin:miter;stroke-miterlimit:4;stroke-opacity:1;stroke-dasharray:none;stroke-dashoffset:0;marker:none;visibility:visible;display:inline;overflow:visible"/><path id="path6390" d="m 542.125,730.3125 a 22.4375,5.6875 0 1 1 -44.875,0 22.4375,5.6875 0 1 1 44.875,0 z" transform="matrix(0.155989,0,0,0.263736,314.935,-1174.75)" style="color:#000;fill:#f2cbf8;fill-opacity:1;fill-rule:nonzero;stroke:#8e03a3;stroke-width:4.93024015;marker:none;visibility:visible;display:inline;overflow:visible"/></g></g></svg>