<svg xmlns="http://www.w3.org/2000/svg" xmlns:svg="http://www.w3.org/2000/svg" xmlns:xlink="http://www.w3.org/1999/xlink" id="svg3150" width="16" height="16" version="1.1"><defs id="defs3152"><linearGradient id="linearGradient4547" x1="-51.786" x2="-51.786" y1="50.786" y2="2.906" gradientTransform="matrix(0.3000362,0,0,0.3120485,21.157141,-0.3741276)" gradientUnits="userSpaceOnUse" xlink:href="#linearGradient2490"/><linearGradient id="linearGradient4545" x1="25.132" x2="25.132" y1="6.729" y2="47.013" gradientTransform="matrix(0.3715633,0,0,0.3334383,-0.9175205,-0.0025171)" gradientUnits="userSpaceOnUse" xlink:href="#linearGradient3993"/><linearGradient id="linearGradient4559"><stop id="stop4561" offset="0" style="stop-color:silver;stop-opacity:1"/><stop id="stop4563" offset="1" style="stop-color:#949492;stop-opacity:1"/></linearGradient><linearGradient id="linearGradient4565" x1="17.289" x2="15.18" y1="2.185" y2="5.821" gradientTransform="matrix(0.6844293,0,0,0.6820072,-0.2131519,0.1569169)" gradientUnits="userSpaceOnUse" xlink:href="#linearGradient4559"/><linearGradient id="linearGradient8589"><stop id="stop8591" offset="0" style="stop-color:#fefefe;stop-opacity:1"/><stop id="stop8593" offset="1" style="stop-color:#cbcbcb;stop-opacity:1"/></linearGradient><linearGradient id="linearGradient4543" x1="32.892" x2="36.358" y1="8.059" y2="5.457" gradientTransform="matrix(0.3707081,0,0,0.3548465,-0.8566575,-0.04895116)" gradientUnits="userSpaceOnUse" xlink:href="#linearGradient8589"/><linearGradient id="linearGradient3993"><stop id="stop3995" offset="0" style="stop-color:#a3c0d0;stop-opacity:1"/><stop id="stop4001" offset="1" style="stop-color:#427da1;stop-opacity:1"/></linearGradient><linearGradient id="linearGradient2490"><stop id="stop2492" offset="0" style="stop-color:#2e4a5a;stop-opacity:1"/><stop id="stop2494" offset="1" style="stop-color:#6e8796;stop-opacity:1"/></linearGradient></defs><g id="layer1"><path id="rect2594" d="m 1.4976268,0.49762721 c 2.980045,0 4.9376418,0 7.9176887,0 0.522766,0.16184396 4.3536885,2.61362219 5.0870585,3.89029659 0,3.907463 0,7.2069842 0,11.1144502 -4.334914,0 -8.6698338,0 -13.0047472,0 0,-5.001584 0,-10.0031638 0,-15.00474679 z" style="fill:url(#linearGradient4545);fill-opacity:1;stroke:url(#linearGradient4547);stroke-width:.9952535;stroke-linecap:butt;stroke-linejoin:round;stroke-miterlimit:4;stroke-opacity:1;stroke-dasharray:none;stroke-dashoffset:0;display:inline"/><g id="g2897" style="opacity:.81000001"><path id="path3296" d="M 13.5185,13.5185 2.4815,13.4815" style="opacity:.15;fill:none;stroke:#fff;stroke-width:.963;stroke-linecap:square;stroke-linejoin:round;stroke-miterlimit:4;stroke-opacity:1;stroke-dasharray:none"/><path id="path2851" d="M 13.5185,11.5185 2.4815,11.4815" style="opacity:.15;fill:none;stroke:#fff;stroke-width:.963;stroke-linecap:square;stroke-linejoin:round;stroke-miterlimit:4;stroke-opacity:1;stroke-dasharray:none"/><path id="path2853" d="M 8.5,3.517498 2.4815,3.480998" style="opacity:.15;fill:none;stroke:#fff;stroke-width:.963;stroke-linecap:square;stroke-linejoin:round;stroke-miterlimit:4;stroke-opacity:1;stroke-dasharray:none"/><path id="path2855" d="M 13.5185,9.5185 2.4815,9.4815" style="opacity:.15;fill:none;stroke:#fff;stroke-width:.963;stroke-linecap:square;stroke-linejoin:round;stroke-miterlimit:4;stroke-opacity:1;stroke-dasharray:none"/><path id="path2857" d="M 13.5185,7.5185 2.4815,7.4815" style="opacity:.15;fill:none;stroke:#fff;stroke-width:.963;stroke-linecap:square;stroke-linejoin:round;stroke-miterlimit:4;stroke-opacity:1;stroke-dasharray:none"/><path id="path2861" d="M 13.5185,5.5185 2.4815,5.4815" style="opacity:.15;fill:none;stroke:#fff;stroke-width:.963;stroke-linecap:square;stroke-linejoin:round;stroke-miterlimit:4;stroke-opacity:1;stroke-dasharray:none"/></g><g id="g2890" style="opacity:.81000001"><path id="path3332" d="M 3.5184999,1.4815021 3.4814999,14.5185" style="opacity:.15;fill:none;stroke:#fff;stroke-width:.96299982;stroke-linecap:square;stroke-linejoin:round;stroke-miterlimit:4;stroke-opacity:1;stroke-dasharray:none"/><path id="path2849" d="M 11.5185,5.4815021 11.4815,14.5185" style="opacity:.15;fill:none;stroke:#fff;stroke-width:.96299982;stroke-linecap:square;stroke-linejoin:round;stroke-miterlimit:4;stroke-opacity:1;stroke-dasharray:none"/><path id="path2863" d="M 5.5184999,1.4815021 5.4814999,14.5185" style="opacity:.15;fill:none;stroke:#fff;stroke-width:.96299982;stroke-linecap:square;stroke-linejoin:round;stroke-miterlimit:4;stroke-opacity:1;stroke-dasharray:none"/><path id="path2865" d="M 7.5184999,1.4815021 7.4814999,14.5185" style="opacity:.15;fill:none;stroke:#fff;stroke-width:.96299982;stroke-linecap:square;stroke-linejoin:round;stroke-miterlimit:4;stroke-opacity:1;stroke-dasharray:none"/><path id="path2867" d="M 9.5184995,1.4815021 9.4814995,14.5185" style="opacity:.15;fill:none;stroke:#fff;stroke-width:.96299982;stroke-linecap:square;stroke-linejoin:round;stroke-miterlimit:4;stroke-opacity:1;stroke-dasharray:none"/></g><path id="text34519" d="M 7.0137142,7.7479187 C 6.5671783,8.0760779 6.6199594,8.938013 7.1069943,9.1931401 8.2170374,9.6382991 8.9369978,9.0064521 9.1994378,7.8340563 9.2066698,7.6612808 9.265572,7.4073411 9.032964,7.4866008 8.3362128,7.4494721 7.6722838,7.502403 7.0137142,7.7479187 z M 9.9999994,7.1632219 C 10,8.0695349 10,8.9758468 10,9.8821601 c -0.264746,0 -0.529494,0 -0.79424,0 C 9.190138,9.6814131 9.237349,9.2543531 9.181542,9.1983331 8.8705878,9.6984731 8.328223,9.9696381 7.7881788,9.9957041 6.3401274,10.072753 5.7059686,9.1066201 6.1289505,7.6407884 6.9409538,6.7117016 8.1035543,6.8736076 9.1849142,6.8732014 9.138416,5.3225225 7.3612954,5.67491 6.4147798,5.9821339 6.1638321,6.1676142 6.3079382,5.7148889 6.270523,5.5556453 6.1836716,5.2060072 6.6078988,5.261611 6.8080522,5.1591751 7.5370618,4.9651039 8.334191,4.9086349 9.0435211,5.2196332 9.7863854,5.6209481 9.9418934,6.3409759 9.999998,7.1632217 z" style="font-size:4px;font-style:normal;font-weight:400;opacity:.9;fill:#fff;fill-opacity:1;stroke:none;font-family:Bitstream Vera Sans"/><path id="path12038" d="M 9.5,0.4979205 C 9.5,2.041279 9.5,4.5 9.5,4.5 c 0,0 4.080603,0 5.00208,0 0,-1.9018156 -3.00574,-4.0020795 -5.00208,-4.0020795 z" style="fill:url(#linearGradient4543);fill-opacity:1;fill-rule:evenodd;stroke:url(#linearGradient4565);stroke-width:.9952535;stroke-linecap:butt;stroke-linejoin:round;stroke-miterlimit:4;stroke-opacity:1;stroke-dasharray:none;display:inline"/><g id="g2916"><path id="path3556" d="m 4.5184999,2.4814999 -0.037,5.0369991" style="opacity:.72000002;fill:none;stroke:#fff;stroke-width:.96299988;stroke-linecap:square;stroke-linejoin:round;stroke-miterlimit:4;stroke-opacity:1;stroke-dasharray:none"/><path id="path3698" d="m 3.5184999,3.5000001 3.963,0.0185" style="opacity:.72000002;fill:none;stroke:#fff;stroke-width:.96299988;stroke-linecap:square;stroke-linejoin:round;stroke-miterlimit:4;stroke-opacity:1;stroke-dasharray:none"/><path id="path3700" d="M 11.4815,13.518499 11.5185,8.4815" style="opacity:.72000002;fill:none;stroke:#fff;stroke-width:.96299988;stroke-linecap:square;stroke-linejoin:round;stroke-miterlimit:4;stroke-opacity:1;stroke-dasharray:none"/><path id="path3702" d="M 12.4445,12.5185 8.4815,12.5" style="opacity:.72000002;fill:none;stroke:#fff;stroke-width:.96299988;stroke-linecap:square;stroke-linejoin:round;stroke-miterlimit:4;stroke-opacity:1;stroke-dasharray:none"/></g></g></svg>