<svg xmlns="http://www.w3.org/2000/svg" xmlns:xlink="http://www.w3.org/1999/xlink" id="svg3334" width="16" height="16" version="1.0"><defs id="defs3336"><linearGradient id="linearGradient2519" x1="-51.786" x2="-51.786" y1="50.786" y2="2.906" gradientTransform="matrix(.25379 0 0 .30502 19.129 -.68549)" gradientUnits="userSpaceOnUse"><stop id="stop3106" offset="0" style="stop-color:#aaa"/><stop id="stop3108" offset="1" style="stop-color:#c8c8c8"/></linearGradient><linearGradient id="linearGradient2517" x1="25.132" x2="25.132" y1=".985" y2="47.013" gradientTransform="matrix(.31429 0 0 .32593 .45711 -.32225)" gradientUnits="userSpaceOnUse"><stop id="stop3602" offset="0" style="stop-color:#f4f4f4"/><stop id="stop3604" offset="1" style="stop-color:#dbdbdb"/></linearGradient><linearGradient id="linearGradient2511" x1="24" x2="24" y1="2" y2="46.017" gradientTransform="matrix(.27273 0 0 .30232 1.4546 .74420)" gradientUnits="userSpaceOnUse"><stop id="stop3213" offset="0" style="stop-color:#fff"/><stop id="stop3215" offset="1" style="stop-color:#fff;stop-opacity:0"/></linearGradient><linearGradient id="linearGradient2507" x1="32.892" x2="36.358" y1="8.059" y2="5.457" gradientTransform="matrix(.30920 0 0 .37669 .47615 .10718)" gradientUnits="userSpaceOnUse"><stop id="stop8591" offset="0" style="stop-color:#fefefe"/><stop id="stop8593" offset="1" style="stop-color:#cbcbcb"/></linearGradient><linearGradient id="linearGradient2580-0" x1="22.104" x2="22.104" y1="40.124" y2="10.035" gradientTransform="matrix(.66556 0 0 1.4408 -1.8235 -35.849)" gradientUnits="userSpaceOnUse"><stop id="stop5033-8" offset="0" style="stop-color:#a3a3a3"/><stop id="stop5035-8" offset="1" style="stop-color:#bababa"/></linearGradient></defs><g id="layer1"><path id="path4160" d="m2.5 0.49997h7.4412c0.44218 0.16179 2.9385 2.1328 3.5588 3.4091 0 3.9062 0.000026 7.6847 0.000026 11.591h-11v-15z" style="stroke-linejoin:round;stroke:url(#linearGradient2519);stroke-width:.99992;fill:url(#linearGradient2517)"/><path id="path2435" d="m12.5 4.2151v10.285h-9v-13h6.2363" style="opacity:.6;stroke:url(#linearGradient2511);fill:none"/><path id="path3330" d="m9.2941 0.8409c0.8479 2.8039-0.2941 4.1932-0.2941 4.1932s1.8928-1.2514 4.1714-0.1023c1.9429 0.97981 0.03608-1.008-0.04146-1.129-0.543-0.8475-2.423-2.6331-3.105-2.9302-0.0554-0.02424-0.4436-0.0317-0.7309-0.0317z" style="fill:#b4b4b4;fill-rule:evenodd"/><path id="path4474" d="m9.2941 0.8409c0.9879 0 0.7059 3.181 0.7059 3.181s2.2725-0.50073 3.1714 0.90989c0.16288 0.25561 0.03608-1.008-0.04146-1.129-0.543-0.8475-2.423-2.6331-3.105-2.9302-0.0554-0.02424-0.4436-0.0317-0.7309-0.0317z" style="fill:url(#linearGradient2507);fill-rule:evenodd"/></g><path id="path3027" d="m4 7v1h3.0625v-1h-3.0625z" style="fill:#b78ed4"/><path id="path3023" d="m8 7v1h4v-1h-4z" style="fill:#d48eb3"/><path id="path2940" d="m10 5v1h1.9062v-1h-1.906zm-3 0v1h2.1562v-1h-2.1562zm-3 0v1h2.3125v-1h-2.3125zm3-2v1h2v-1h-2zm-3 0v1h2v-1h-2z" style="fill:#89adc2"/><path id="path3066" d="m4 9v1h2v-1h-2z" style="fill:#94d48e"/><path id="path4009" d="m4 13h3.0367v1h-3.0367v-1z" style="fill:#de6161"/><path id="path4007" d="m8 13v1h3.3438v-1h-3.344zm-4-2v1h2v-1h-2zm3-2v1h2v-1h-2z" style="fill:url(#linearGradient2580-0)"/></svg>