<svg xmlns="http://www.w3.org/2000/svg" xmlns:xlink="http://www.w3.org/1999/xlink" id="svg3055" width="16" height="16" version="1.1"><defs id="defs3057"><linearGradient id="linearGradient2517" x1="25.132" x2="25.132" y1=".985" y2="47.013" gradientTransform="matrix(.31429 0 0 .32593 .45711 -.32225)" gradientUnits="userSpaceOnUse"><stop id="stop3602" offset="0" style="stop-color:#f4f4f4"/><stop id="stop3604" offset="1" style="stop-color:#dbdbdb"/></linearGradient><linearGradient id="linearGradient2519" x1="-51.786" x2="-51.786" y1="50.786" y2="2.906" gradientTransform="matrix(.25379 0 0 .30502 19.129 -.68549)" gradientUnits="userSpaceOnUse"><stop id="stop3106" offset="0" style="stop-color:#aaa"/><stop id="stop3108" offset="1" style="stop-color:#c8c8c8"/></linearGradient><linearGradient id="linearGradient2511" x1="24" x2="24" y1="2" y2="46.017" gradientTransform="matrix(.27273 0 0 .30232 1.4546 .74420)" gradientUnits="userSpaceOnUse"><stop id="stop3213" offset="0" style="stop-color:#fff"/><stop id="stop3215" offset="1" style="stop-color:#fff;stop-opacity:0"/></linearGradient><linearGradient id="linearGradient3053" x1="32.892" x2="36.358" y1="8.059" y2="5.457" gradientTransform="matrix(.30920 0 0 .37669 .47615 .10718)" gradientUnits="userSpaceOnUse"><stop id="stop8591" offset="0" style="stop-color:#fefefe"/><stop id="stop8593" offset="1" style="stop-color:#cbcbcb"/></linearGradient></defs><metadata id="metadata3060"/><g id="layer1"><g id="layer1-9"><path id="path4160" d="m1.5 0.49997h8.4412c0.44218 0.16179 2.9385 2.1328 3.5588 3.4091 0 3.9062 0.000026 7.6847 0.000026 11.591h-12v-15z" style="stroke-linejoin:round;stroke:url(#linearGradient2519);stroke-width:.99992;fill:url(#linearGradient2517)"/><path id="path2435" d="m12.5 4.2151v10.285h-10v-13h7.2363" style="opacity:.6;stroke:url(#linearGradient2511);fill:none"/><path id="path3330" d="m9.2941 0.8409c0.8479 2.8039-0.2941 4.1932-0.2941 4.1932s1.8928-1.2514 4.1714-0.1023c1.9429 0.97981 0.03608-1.008-0.04146-1.129-0.543-0.8475-2.423-2.6331-3.105-2.9302-0.0554-0.02424-0.4436-0.0317-0.7309-0.0317z" style="fill:#c1c1c1;fill-rule:evenodd"/><path id="path4474" d="m9.2941 0.8409c0.9879 0 0.7059 3.181 0.7059 3.181s2.2725-0.50073 3.1714 0.90989c0.16288 0.25561 0.03608-1.008-0.04146-1.129-0.543-0.8475-2.423-2.6331-3.105-2.9302-0.0554-0.02424-0.4436-0.0317-0.7309-0.0317z" style="fill:url(#linearGradient3053);fill-rule:evenodd"/></g><path id="path2882" d="m3.1192 9 1.7592-2.264-0.5879-0.736-2.2905 3 2.3514 3 0.6486-0.672-1.8808-2.328z" style="opacity:.4;fill:#666"/><path id="rect2888" d="m8 7h1l-2 4h-1l2-4z" style="opacity:.4;color:#000;fill-rule:evenodd"/><path id="path2882-6" d="m11.885 8.944-1.763-2.208 0.587-0.736 2.291 2.944-2.351 3.056-0.649-0.672 1.885-2.384z" style="opacity:.4;fill:#666"/></g></svg>