<svg xmlns="http://www.w3.org/2000/svg" xmlns:xlink="http://www.w3.org/1999/xlink" id="svg3788" width="16" height="16" version="1.1"><defs id="defs3790"><linearGradient id="linearGradient2950" x1="12.872" x2="12.872" y1=".239" y2="22.871" gradientTransform="matrix(.72651 0 0 .70742 -.95022 -.17412)" gradientUnits="userSpaceOnUse"><stop id="stop3618" offset="0" style="stop-color:#f0c178"/><stop id="stop3270" offset=".5" style="stop-color:#e18941"/><stop id="stop3620" offset="1" style="stop-color:#ec4f18"/></linearGradient><linearGradient id="linearGradient2952" x1="5.66" x2="5.66" y1="18.3" y2="1" gradientTransform="matrix(.92447 0 0 .90823 -.85161 -.66632)" gradientUnits="userSpaceOnUse" xlink:href="#linearGradient3582"/><linearGradient id="linearGradient3582"><stop id="stop3584" offset="0" style="stop-color:#333"/><stop id="stop3586" offset="1" style="stop-color:#5a5a5a"/></linearGradient><linearGradient id="linearGradient3784" x1="5.068" x2="5.068" y1="4.504" y2="18.154" gradientTransform="matrix(.91283 0 0 .90776 -.72105 -.66183)" gradientUnits="userSpaceOnUse"><stop id="stop3934" offset="0" style="stop-color:#828282"/><stop id="stop3936" offset="1" style="stop-color:#434343"/></linearGradient><linearGradient id="linearGradient3786" x1="2.671" x2="2.671" y1="18.3" y2=".781" gradientTransform="matrix(.91283 0 0 .90776 -.72105 -.66183)" gradientUnits="userSpaceOnUse" xlink:href="#linearGradient3582"/></defs><metadata id="metadata3793"/><g id="layer1"><path id="path3385" d="m3.8626 15.496h-2.2649c-0.1835-0.17752-0.043962-0.52997-0.087562-0.78129v-14.125l0.025587-0.060971 0.061975-0.025177h2.2341m8.3283-0.00020582h2.251c0.10583 0 0.08757 0.47066 0.08757 0.78079v14.116c-0.18046 0.18042-0.53872 0.04323-0.79418 0.08609h-1.5255" style="stroke-linejoin:round;stroke:url(#linearGradient3786);display:block;fill:url(#linearGradient3784)"/><rect id="rect3457" width="9" height="15" x="3.5" y=".5" rx="0" ry="0" style="stroke:url(#linearGradient2952);fill:url(#linearGradient2950)"/><path id="rect15660" d="m4.5049 1.5h6.9903" style="opacity:.36638;stroke-linejoin:round;stroke:#fff;stroke-linecap:square;display:block;fill:none"/><g id="g3121" transform="matrix(1.1615 0 0 .9267 -.63262 -.87550)" style="opacity:.81;stroke-width:.95371"><rect id="rect3464" width=".861" height=".913" x="2.267" y="2.19" style="fill:#fff"/><rect id="rect3466" width=".861" height="1.079" x="2.267" y="4.182" style="fill:#fff"/><rect id="rect3470" width=".861" height="1.079" x="2.267" y="6.34" style="fill:#fff"/><rect id="rect3472" width=".861" height="1.079" x="2.267" y="8.498" style="fill:#fff"/><rect id="rect3474" width=".861" height="1.079" x="2.267" y="10.657" style="fill:#fff"/><rect id="rect3478" width=".861" height="1.079" x="2.267" y="12.815" style="fill:#fff"/><rect id="rect3480" width=".861" height="1.079" x="2.267" y="14.973" style="fill:#fff"/></g><path id="path4320" d="m4.5 7.5h7" style="stroke-linejoin:round;stroke:#464646;stroke-linecap:square;display:block;fill:none"/><path id="path4820" d="m4.5 8.5h6.9999" style="opacity:.36638;stroke-linejoin:round;stroke:#fff;stroke-linecap:square;display:block;fill:none"/><g id="g2857" transform="matrix(1.1615 0 0 .9267 10.367 -.87550)" style="opacity:.81;stroke-width:.95371"><rect id="rect2859" width=".861" height=".913" x="2.267" y="2.19" style="fill:#fff"/><rect id="rect2861" width=".861" height="1.079" x="2.267" y="4.182" style="fill:#fff"/><rect id="rect2863" width=".861" height="1.079" x="2.267" y="6.34" style="fill:#fff"/><rect id="rect2865" width=".861" height="1.079" x="2.267" y="8.498" style="fill:#fff"/><rect id="rect2867" width=".861" height="1.079" x="2.267" y="10.657" style="fill:#fff"/><rect id="rect2869" width=".861" height="1.079" x="2.267" y="12.815" style="fill:#fff"/><rect id="rect2871" width=".861" height="1.079" x="2.267" y="14.973" style="fill:#fff"/></g></g></svg>