<svg xmlns="http://www.w3.org/2000/svg" xmlns:xlink="http://www.w3.org/1999/xlink" id="svg7324" width="16" height="16" version="1.1"><metadata id="metadata49"/><defs id="defs7326"><linearGradient id="linearGradient2915" x1="12.938" x2="15.25" y1="8.438" y2="19.812" gradientTransform="matrix(.40476 0 0 .46667 .78571 -.56638)" gradientUnits="userSpaceOnUse"><stop id="stop6594" offset="0" style="stop-color:#fff;stop-opacity:.27451"/><stop id="stop6596" offset="1" style="stop-color:#fff;stop-opacity:0"/></linearGradient><linearGradient id="linearGradient2931" x1="20.147" x2="20.104" y1="0" y2="31.983" gradientTransform="matrix(.42622 0 0 .45209 .27049 -2.733)" gradientUnits="userSpaceOnUse"><stop id="stop6546" offset="0" style="stop-color:#f0f0f0"/><stop id="stop6548" offset="1" style="stop-color:#d2d2d2"/></linearGradient><linearGradient id="linearGradient3028" x1="321.58" x2="321.58" y1="86.05" y2="96.245" gradientTransform="matrix(.41035 0 0 .51289 -122.96 -34.968)" gradientUnits="userSpaceOnUse"><stop id="stop3271" offset="0" style="stop-color:#787878"/><stop id="stop3273" offset=".344" style="stop-color:#bebebe"/><stop id="stop3275" offset=".373" style="stop-color:#c8c8c8"/><stop id="stop3277" offset=".49" style="stop-color:#e6e6e6"/><stop id="stop3279" offset="1" style="stop-color:#8c8c8c"/></linearGradient><linearGradient id="linearGradient3030" x1="22.452" x2="22.452" y1="30.05" y2="40.186" gradientTransform="matrix(.41182 0 0 .51282 -1.5198 -6.2431)" gradientUnits="userSpaceOnUse"><stop id="stop3259" offset="0" style="stop-color:#282828"/><stop id="stop3261" offset=".348" style="stop-color:#787878"/><stop id="stop3263" offset=".366" style="stop-color:#828282"/><stop id="stop3265" offset=".494" style="stop-color:#aaa"/><stop id="stop3267" offset="1" style="stop-color:#464646"/></linearGradient><linearGradient id="linearGradient5719" x1="316.86" x2="319.39" y1="85.62" y2="93.916" gradientTransform="matrix(.40476 0 0 0.5 -121.02 -31.698)" gradientUnits="userSpaceOnUse"><stop id="stop4576" offset="0" style="stop-color:#282828"/><stop id="stop4578" offset="1" style="stop-color:#5a5c58"/></linearGradient><linearGradient id="linearGradient2893" x1="145.44" x2="145.44" y1="372.67" y2="416.83" gradientTransform="matrix(.091559 0 0 .079246 -6.3161 -17.282)" gradientUnits="userSpaceOnUse"><stop id="stop7257" offset="0" style="stop-color:#fff"/><stop id="stop7259" offset="1" style="stop-color:#e6e6e6"/></linearGradient><radialGradient id="radialGradient2736" cx="26.617" cy="-2.064" r="23" gradientTransform="matrix(0 -.17267 .35273 0 11.221 10.904)" gradientUnits="userSpaceOnUse"><stop id="stop2749" offset="0" style="stop-color:#d78ec1"/><stop id="stop2751" offset=".262" style="stop-color:#c564be"/><stop id="stop2753" offset=".661" style="stop-color:#9d3ea4"/><stop id="stop2755" offset="1" style="stop-color:#5e2c73"/></radialGradient><linearGradient id="linearGradient2738" x1="2.36" x2="35.407" y1="20.335" y2="20.335" gradientTransform="matrix(.35270 0 0 .18979 1.5456 1.7515)" gradientUnits="userSpaceOnUse"><stop id="stop2759" offset="0" style="stop-color:#650d5c"/><stop id="stop2761" offset="1" style="stop-color:#5e2c59"/></linearGradient></defs><path id="path4675" d="m6.4364 7.3461v3.5903c-0.00907 0.92422-0.6521 1.5387-0.6521 1.5387-0.30832 0.04535-0.26136 0.22875-0.26136 0.5129 0 0.28414 0.00729 0.51289 0.26136 0.51289h4.6187c0.25408 0 0.162-0.22886 0.162-0.513s0.14632-0.46765-0.162-0.513c0 0-0.89393-0.61439-0.903-1.5386v-3.5903h-3.0636z" style="stroke-linejoin:round;stroke-width:.99827;stroke-dashoffset:.5;stroke:url(#linearGradient3030);stroke-linecap:round;enable-background:new;fill:url(#linearGradient3028)"/><rect id="rect2722" width="14.967" height="10.011" x=".532" y=".522" rx=".5" ry=".5" style="stroke-linejoin:round;stroke-dashoffset:.5;stroke:#969696;stroke-linecap:round;fill:url(#linearGradient2931)"/><rect id="rect2716" width="11.078" height="5.969" x="2.485" y="2.53" style="stroke-linejoin:round;stroke-width:1.0021;fill-rule:evenodd;color:#000;stroke:url(#linearGradient2738);stroke-linecap:round;fill:url(#radialGradient2736)"/><path id="rect6588" d="m2 2h12v2l-12 3-1e-7 -5z" style="fill:url(#linearGradient2915)"/><path id="path3698" d="m2.156 12.499c-0.12896 0.01142-0.24151 0.07719-0.30329 0.17583l-1.3076 2.09c-0.030695 0.05012-0.046834 0.10727-0.04578 0.16344-0.0001148-0.0061-0.0003361-0.0044 0 0.005v0.23279 0.02476c-0.0003716 0.03449 0.011624 0.06824 0.034335 0.09658 0.00698 0.01742 0.00671 0.03026 0.020029 0.04953 0.069558 0.10066 0.19664 0.16279 0.33476 0.16344h14.22c0.13843 0.000273 0.26665-0.06219 0.33762-0.16592 0.03023-0.04417 0.03976-0.08522 0.04578-0.11639 0.01039-0.05378 0.0086-0.09163 0.0086-0.09163 0.000028-0.0016 0.000028-0.0033 0-0.005v-0.16592c0-0.04728-0.000541-0.12011-0.04864-0.19564l-1.3591-2.0901c-0.000953-0.000007-0.0019-0.000007-0.0029 0-0.07045-0.10671-0.20135-0.17208-0.34334-0.17088h-11.542c-0.00305-0.000131-0.00555 0.000073-0.00858 0-0.010124-0.000238-0.018448-0.000443-0.028612 0-0.00381-0.000097-0.00763-0.000097-0.011445 0l0.000019 0.000005z" style="stroke-width:.99829;stroke-dashoffset:.3612;stroke:#a0a0a0;stroke-linecap:square;enable-background:new;fill:url(#linearGradient2893)"/><path id="path3704" d="m3.0247 11.802-1.0247 2.198h12l-1.1-2.198h-9.8753z" style="enable-background:new;fill:url(#linearGradient5719);fill-rule:evenodd"/></svg>