<svg xmlns="http://www.w3.org/2000/svg" xmlns:svg="http://www.w3.org/2000/svg" xmlns:xlink="http://www.w3.org/1999/xlink" id="svg3395" width="16" height="16" version="1.0"><defs id="defs3397"><linearGradient id="linearGradient3701"><stop id="stop3703" offset="0" style="stop-color:#2a2a2a;stop-opacity:1"/><stop id="stop3705" offset="1" style="stop-color:#060606;stop-opacity:1"/></linearGradient><linearGradient id="linearGradient3655"><stop id="stop3657" offset="0" style="stop-color:#b4b4b4;stop-opacity:1"/><stop id="stop3659" offset="1" style="stop-color:#b4b4b4;stop-opacity:.2"/></linearGradient><linearGradient id="linearGradient3389"><stop id="stop3391" offset="0" style="stop-color:#1e1e1e;stop-opacity:1"/><stop id="stop3393" offset="1" style="stop-color:#606060;stop-opacity:1"/></linearGradient><linearGradient id="linearGradient3350" x1="37.015" x2="18.406" y1="29.462" y2="31.529" gradientTransform="matrix(0.4836335,0,0,0.4836335,27.149341,-54.1605)" gradientUnits="userSpaceOnUse" xlink:href="#linearGradient3389"/><linearGradient id="linearGradient6592-2-7"><stop id="stop6594-0-2" offset="0" style="stop-color:#fff;stop-opacity:.27450982"/><stop id="stop6596-2-5" offset="1" style="stop-color:#fff;stop-opacity:0"/></linearGradient><linearGradient id="linearGradient3203" x1="15.336" x2="15.706" y1=".5" y2="12.796" gradientTransform="matrix(-6.4243348e-4,-0.17054034,0.67441484,-3.7138428e-4,32.692745,44.615647)" gradientUnits="userSpaceOnUse" xlink:href="#linearGradient6592-2-7"/><linearGradient id="linearGradient3653" x1="12" x2="37" y1="33" y2="31" gradientTransform="matrix(0.4836335,0,0,0.4836335,27.149341,-54.1605)" gradientUnits="userSpaceOnUse" xlink:href="#linearGradient3655"/><linearGradient id="linearGradient3646" x1="17" x2="17" y1="20" y2="19" gradientTransform="matrix(0.5000005,0,0,1,-45.500006,25.000002)" gradientUnits="userSpaceOnUse" xlink:href="#linearGradient3640"/><linearGradient id="linearGradient3640"><stop id="stop3642" offset="0" style="stop-color:#b3b3b3;stop-opacity:1"/><stop id="stop3650" offset=".5" style="stop-color:#fff;stop-opacity:1"/><stop id="stop3644" offset="1" style="stop-color:#f0f0f0;stop-opacity:1"/></linearGradient><linearGradient id="linearGradient3648" x1="8" x2="8" y1="20" y2="19" gradientTransform="matrix(0.50000111,0,0,1,-46.500007,25.00001)" gradientUnits="userSpaceOnUse" xlink:href="#linearGradient3640"/><linearGradient id="linearGradient2890" x1="12" x2="12" y1="22" y2="19" gradientTransform="matrix(0,-0.57142857,0.56704875,0,33.658909,46.857142)" gradientUnits="userSpaceOnUse" xlink:href="#linearGradient3640"/><radialGradient id="radialGradient3707" cx="41.061" cy="-38.019" r="2" fx="41.061" fy="-38.019" gradientTransform="matrix(0.00410056,-2.4999933,1.9999973,4.035431e-4,116.92941,65.718486)" gradientUnits="userSpaceOnUse" xlink:href="#linearGradient3701"/></defs><g id="layer1" transform="matrix(0,1,-1,0,47.999999,-32.000001)"><rect id="rect2459" width="9.051" height="15.009" x="35.52" y="-47.428" rx="1.503" ry="1.492" transform="matrix(0.00144028,0.99999896,-0.99999896,0.00144028,0,0)" style="fill:url(#linearGradient3350);fill-opacity:1;fill-rule:nonzero;stroke:#000;stroke-width:1;stroke-linecap:round;stroke-linejoin:round;stroke-miterlimit:3.88571429;stroke-opacity:1;stroke-dasharray:none;stroke-dashoffset:.50000001;marker:none;visibility:visible;display:inline;overflow:visible;enable-background:accumulate"/><rect id="rect4140" width="4" height="7.028" x="38.058" y="-42.947" rx="0" ry="0" transform="matrix(0.00126535,0.9999992,-0.99999866,0.0016394,0,0)" style="fill:url(#radialGradient3707);fill-opacity:1;fill-rule:evenodd;stroke:none;stroke-width:1;marker:none;visibility:visible;display:inline;overflow:visible;enable-background:accumulate"/><rect id="rect2984" width="7.048" height="13.143" x="36.511" y="-46.547" rx=".492" ry="1.09" transform="matrix(0.00144028,0.99999896,-0.99999896,0.00144028,0,0)" style="opacity:.81000001;fill:none;stroke:url(#linearGradient3653);stroke-width:1;stroke-linecap:round;stroke-linejoin:round;stroke-miterlimit:3.88571429;stroke-opacity:1;stroke-dasharray:none;stroke-dashoffset:.50000001;marker:none;visibility:visible;display:inline;overflow:visible;enable-background:accumulate"/><path id="path3871" d="m 35.641481,43.99792 c -1.356659,0.0288 -2.614774,-0.244461 -2.616306,-0.650965 l -0.02517,-6.678629 c -0.0012,-0.32232 0.37174,-0.666664 1.214756,-0.667127 l 2.268923,-0.0012 3.516318,7.995571 -4.358532,0.0024 z" style="opacity:.6;fill:url(#linearGradient3203);fill-opacity:1;stroke:none"/><path id="path6724" d="m 45.000001,38.999999 a 0.99221884,1 0 0 1 0,2 0.99221884,1 0 1 1 0,-2 z" style="fill:url(#linearGradient2890);fill-opacity:1;stroke:none"/><rect id="rect3675" width="1" height="1" x="-43" y="44" rx="0" ry="0" transform="matrix(0,-1,1,0,0,0)" style="fill:url(#linearGradient3648);fill-opacity:1;stroke:none"/><rect id="rect3677" width="1" height="1" x="-38" y="44" rx="0" ry="0" transform="matrix(0,-1,1,0,0,0)" style="fill:url(#linearGradient3646);fill-opacity:1;stroke:none"/><rect id="rect4157" width="2" height="1" x="39.051" y="-34.912" rx=".09" ry=".134" transform="matrix(0.00144028,0.99999896,-0.99999896,0.00144028,0,0)" style="fill:#1d1d1d;fill-opacity:1;fill-rule:evenodd;stroke:none;stroke-width:1;marker:none;visibility:visible;display:inline;overflow:visible;enable-background:accumulate"/></g></svg>