<svg xmlns="http://www.w3.org/2000/svg" xmlns:svg="http://www.w3.org/2000/svg" xmlns:xlink="http://www.w3.org/1999/xlink" id="svg2" width="98.031" height="64.031" version="1.1"><metadata id="metadata8"/><defs id="defs6"><linearGradient id="linearGradient3606"><stop style="stop-color:#f1f1f1;stop-opacity:1" id="stop3608" offset="0"/><stop style="stop-color:#2a2829;stop-opacity:1" id="stop3610" offset="1"/></linearGradient><radialGradient id="radialGradient3612" cx="39.195" cy="37.157" r="39.068" fx="39.195" fy="37.157" gradientTransform="matrix(1.8328988,0,0,1.278359,-22.840309,-15.468449)" gradientUnits="userSpaceOnUse" xlink:href="#linearGradient3606"/></defs><rect style="fill:url(#radialGradient3612);fill-opacity:1;stroke:none" id="rect2818" width="98" height="64" x="0" y=".031" rx="12.073" ry="12.073"/><g id="g3783" transform="translate(-2.1949152,-0.94067796)"><path id="path3616" d="m 72.135827,5.815698 -37.437446,8.045867 0,28.147269 c -1.133825,-0.372318 -2.344008,-0.593711 -3.635114,-0.593711 -5.546385,0 -10.068944,3.793994 -10.068944,8.44688 0,4.652885 4.522559,8.419892 10.068944,8.419892 5.546383,0 10.036774,-3.767007 10.036774,-8.419892 0,-0.394328 -0.06619,-0.780522 -0.128678,-1.160434 l 0.128678,0 -0.450369,-31.214734 26.0174,-5.545125 0.675552,24.962822 C 66.028746,36.375361 64.55465,36.06794 62.999789,36.06794 c -5.546384,0 -10.036774,3.767007 -10.036774,8.419893 0,4.652885 4.49039,8.419892 10.036774,8.419892 5.243024,0 9.549407,-3.36514 10.004604,-7.664261 l 0.03217,0 0,-0.458776 c 0.0042,-0.09902 0,-0.196988 0,-0.296855 0,-0.290806 -0.03217,-0.578902 -0.03217,-0.86358 0,0 0,-0.02699 0,-0.02699 L 72.135827,5.815698 z" style="fill:#000;fill-opacity:1;stroke:#555;stroke-width:.75;stroke-miterlimit:4;stroke-opacity:1;stroke-dasharray:none"/><path id="path3646" d="m 24.204852,51.766925 c -0.774183,-5.70992 2.780646,-7.604333 7.988445,-8.041851 0,0 -2.722567,1.118428 -4.821597,3.063563 -1.940928,1.798622 -3.166848,4.978288 -3.166848,4.978288 z" style="opacity:.62962964;fill:#fff;fill-opacity:1;stroke:none"/><path id="path3646-5" d="m 56.325673,46.022747 c -0.774183,-5.70992 2.780646,-7.604332 7.988445,-8.04185 0,0 -2.722567,1.118428 -4.821597,3.063563 -1.940928,1.798622 -3.166848,4.978287 -3.166848,4.978287 z" style="opacity:.62962964;fill:#fff;fill-opacity:1;stroke:none"/></g></svg>