<svg xmlns="http://www.w3.org/2000/svg" xmlns:svg="http://www.w3.org/2000/svg" id="svg2" width="170.503" height="51.799" version="1.1"><metadata id="metadata7"/><g id="layer1" transform="translate(-22,-54.575706)"><g id="g4111" transform="matrix(0.72941498,0,0,0.72941498,5.9528704,28.783482)"><rect id="rect2985" width="108" height="71" x="22" y="35.362" style="fill:#000;fill-opacity:1;stroke:none"/><rect id="rect3755" width="107.956" height="70.971" x="22" y="35.362" rx="11.021" ry="11.034" style="fill:#fff;fill-opacity:1;stroke:none"/></g><path style="fill:#000;fill-opacity:1;stroke:none" id="rect3797" d="m 113.72394,54.586536 0,51.788464 4.92355,0 0,-51.788464 -4.92355,0 z m 1.07132,0.569856 2.7809,0 c 0.30307,0 0.54706,0.258048 0.54706,0.569855 l 0,2.849277 c 0,0.311807 -0.24399,0.569856 -0.54706,0.569856 l -2.7809,0 c -0.30307,0 -0.54706,-0.258049 -0.54706,-0.569856 l 0,-2.849277 c 0,-0.311807 0.24399,-0.569855 0.54706,-0.569855 z m 0,4.672815 2.7809,0 c 0.30307,0 0.54706,0.235254 0.54706,0.547061 l 0,2.872071 c 0,0.311806 -0.24399,0.569856 -0.54706,0.569856 l -2.7809,0 c -0.30307,0 -0.54706,-0.25805 -0.54706,-0.569856 l 0,-2.872071 c 0,-0.311807 0.24399,-0.547061 0.54706,-0.547061 z m 0,4.65002 2.7809,0 c 0.30307,0 0.54706,0.258049 0.54706,0.569856 l 0,2.849276 c 0,0.311808 -0.24399,0.569856 -0.54706,0.569856 l -2.7809,0 c -0.30307,0 -0.54706,-0.258048 -0.54706,-0.569856 l 0,-2.849276 c 0,-0.311807 0.24399,-0.569856 0.54706,-0.569856 z m 0,4.672815 2.7809,0 c 0.30307,0 0.54706,0.258049 0.54706,0.569855 l 0,2.849278 c 0,0.311806 -0.24399,0.569855 -0.54706,0.569855 l -2.7809,0 c -0.30307,0 -0.54706,-0.258049 -0.54706,-0.569855 l 0,-2.849278 c 0,-0.311806 0.24399,-0.569855 0.54706,-0.569855 z m 0,4.65002 2.7809,0 c 0.30307,0 0.54706,0.258049 0.54706,0.569856 l 0,2.872072 c 0,0.311806 -0.24399,0.547061 -0.54706,0.547061 l -2.7809,0 c -0.30307,0 -0.54706,-0.235255 -0.54706,-0.547061 l 0,-2.872072 c 0,-0.311807 0.24399,-0.569856 0.54706,-0.569856 z m 0,4.672814 2.7809,0 c 0.30307,0 0.54706,0.25805 0.54706,0.569856 l 0,2.849278 c 0,0.311806 -0.24399,0.569856 -0.54706,0.569856 l -2.7809,0 c -0.30307,0 -0.54706,-0.25805 -0.54706,-0.569856 l 0,-2.849278 c 0,-0.311806 0.24399,-0.569856 0.54706,-0.569856 z m 0,4.672816 2.7809,0 c 0.30307,0 0.54706,0.235254 0.54706,0.54706 l 0,2.872072 c 0,0.311807 -0.24399,0.569856 -0.54706,0.569856 l -2.7809,0 c -0.30307,0 -0.54706,-0.258049 -0.54706,-0.569856 l 0,-2.872072 c 0,-0.311806 0.24399,-0.54706 0.54706,-0.54706 z m 0,4.65002 2.7809,0 c 0.30307,0 0.54706,0.258049 0.54706,0.569856 l 0,2.872071 c 0,0.311806 -0.24399,0.547061 -0.54706,0.547061 l -2.7809,0 c -0.30307,0 -0.54706,-0.235255 -0.54706,-0.547061 l 0,-2.872071 c 0,-0.311807 0.24399,-0.569856 0.54706,-0.569856 z m 0,4.672815 2.7809,0 c 0.30307,0 0.54706,0.258048 0.54706,0.569856 l 0,2.849276 c 0,0.311808 -0.24399,0.569856 -0.54706,0.569856 l -2.7809,0 c -0.30307,0 -0.54706,-0.258048 -0.54706,-0.569856 l 0,-2.849276 c 0,-0.311808 0.24399,-0.569856 0.54706,-0.569856 z m 0,4.672815 2.7809,0 c 0.30307,0 0.54706,0.235255 0.54706,0.547061 l 0,2.872067 c 0,0.31181 -0.24399,0.56986 -0.54706,0.56986 l -2.7809,0 c -0.30307,0 -0.54706,-0.25805 -0.54706,-0.56986 l 0,-2.872067 c 0,-0.311806 0.24399,-0.547061 0.54706,-0.547061 z m 0,4.650028 2.7809,0 c 0.30307,0 0.54706,0.25804 0.54706,0.56985 l 0,2.87207 c 0,0.31181 -0.24399,0.54706 -0.54706,0.54706 l -2.7809,0 c -0.30307,0 -0.54706,-0.23525 -0.54706,-0.54706 l 0,-2.87207 c 0,-0.31181 0.24399,-0.56985 0.54706,-0.56985 z"/><path style="fill:#000;fill-opacity:1;stroke:none" id="rect3797-6" d="m 187.57923,54.575706 0,51.788464 4.92355,0 0,-51.788464 -4.92355,0 z m 1.07133,0.569856 2.78089,0 c 0.30308,0 0.54706,0.258048 0.54706,0.569854 l 0,2.849278 c 0,0.311806 -0.24398,0.569856 -0.54706,0.569856 l -2.78089,0 c -0.30308,0 -0.54706,-0.25805 -0.54706,-0.569856 l 0,-2.849278 c 0,-0.311806 0.24398,-0.569854 0.54706,-0.569854 z m 0,4.672814 2.78089,0 c 0.30308,0 0.54706,0.235254 0.54706,0.547062 l 0,2.872071 c 0,0.311806 -0.24398,0.569855 -0.54706,0.569855 l -2.78089,0 c -0.30308,0 -0.54706,-0.258049 -0.54706,-0.569855 l 0,-2.872071 c 0,-0.311808 0.24398,-0.547062 0.54706,-0.547062 z m 0,4.650021 2.78089,0 c 0.30308,0 0.54706,0.258049 0.54706,0.569855 l 0,2.849277 c 0,0.311807 -0.24398,0.569856 -0.54706,0.569856 l -2.78089,0 c -0.30308,0 -0.54706,-0.258049 -0.54706,-0.569856 l 0,-2.849277 c 0,-0.311806 0.24398,-0.569855 0.54706,-0.569855 z m 0,4.672814 2.78089,0 c 0.30308,0 0.54706,0.25805 0.54706,0.569856 l 0,2.849278 c 0,0.311806 -0.24398,0.569854 -0.54706,0.569854 l -2.78089,0 c -0.30308,0 -0.54706,-0.258048 -0.54706,-0.569854 l 0,-2.849278 c 0,-0.311806 0.24398,-0.569856 0.54706,-0.569856 z m 0,4.65002 2.78089,0 c 0.30308,0 0.54706,0.25805 0.54706,0.569856 l 0,2.872072 c 0,0.311807 -0.24398,0.547062 -0.54706,0.547062 l -2.78089,0 c -0.30308,0 -0.54706,-0.235255 -0.54706,-0.547062 l 0,-2.872072 c 0,-0.311806 0.24398,-0.569856 0.54706,-0.569856 z m 0,4.672815 2.78089,0 c 0.30308,0 0.54706,0.258049 0.54706,0.569856 l 0,2.849277 c 0,0.311807 -0.24398,0.569856 -0.54706,0.569856 l -2.78089,0 c -0.30308,0 -0.54706,-0.258049 -0.54706,-0.569856 l 0,-2.849277 c 0,-0.311807 0.24398,-0.569856 0.54706,-0.569856 z m 0,4.672816 2.78089,0 c 0.30308,0 0.54706,0.235254 0.54706,0.54706 l 0,2.872072 c 0,0.311806 -0.24398,0.569856 -0.54706,0.569856 l -2.78089,0 c -0.30308,0 -0.54706,-0.25805 -0.54706,-0.569856 l 0,-2.872072 c 0,-0.311806 0.24398,-0.54706 0.54706,-0.54706 z m 0,4.65002 2.78089,0 c 0.30308,0 0.54706,0.258048 0.54706,0.569856 l 0,2.872071 c 0,0.311806 -0.24398,0.547061 -0.54706,0.547061 l -2.78089,0 c -0.30308,0 -0.54706,-0.235255 -0.54706,-0.547061 l 0,-2.872071 c 0,-0.311808 0.24398,-0.569856 0.54706,-0.569856 z m 0,4.672815 2.78089,0 c 0.30308,0 0.54706,0.258048 0.54706,0.569855 l 0,2.849277 c 0,0.311807 -0.24398,0.569856 -0.54706,0.569856 l -2.78089,0 c -0.30308,0 -0.54706,-0.258049 -0.54706,-0.569856 l 0,-2.849277 c 0,-0.311807 0.24398,-0.569855 0.54706,-0.569855 z m 0,4.672814 2.78089,0 c 0.30308,0 0.54706,0.235255 0.54706,0.547062 l 0,2.872077 c 0,0.31181 -0.24398,0.56985 -0.54706,0.56985 l -2.78089,0 c -0.30308,0 -0.54706,-0.25804 -0.54706,-0.56985 l 0,-2.872077 c 0,-0.311807 0.24398,-0.547062 0.54706,-0.547062 z m 0,4.650019 2.78089,0 c 0.30308,0 0.54706,0.25804 0.54706,0.56985 l 0,2.87208 c 0,0.3118 -0.24398,0.54706 -0.54706,0.54706 l -2.78089,0 c -0.30308,0 -0.54706,-0.23526 -0.54706,-0.54706 l 0,-2.87208 c 0,-0.31181 0.24398,-0.56985 0.54706,-0.56985 z"/></g></svg>