<svg xmlns="http://www.w3.org/2000/svg" xmlns:xlink="http://www.w3.org/1999/xlink" id="svg11300" width="16" height="16" version="1.0"><defs id="defs3"><linearGradient id="linearGradient5460"><stop id="stop5462" offset="0" style="stop-color:#e5e5e5"/><stop id="stop5464" offset="1" style="stop-color:#c8c8c8"/></linearGradient><linearGradient id="linearGradient2296"><stop id="stop2298" offset="0" style="stop-color:#fff"/><stop id="stop2300" offset="1" style="stop-color:#fff;stop-opacity:0"/></linearGradient><linearGradient id="linearGradient3116"><stop id="stop3118" offset="0" style="stop-color:#e5e5e5"/><stop id="stop3120" offset="1" style="stop-color:#dfdfdf"/></linearGradient><linearGradient id="linearGradient5596" x1="48" x2="78" y1="18.534" y2="18.534" gradientTransform="matrix(.96932 .30347 -.31303 .99988 -26.514 -28.878)" gradientUnits="userSpaceOnUse" xlink:href="#linearGradient2296"/><linearGradient id="linearGradient5621" x1="54.287" x2="68.843" y1="9.114" y2="38.118" gradientTransform="matrix(.29023 -.0042309 .0038640 .29211 -12.896 1.8392)" gradientUnits="userSpaceOnUse" xlink:href="#linearGradient2296"/><linearGradient id="linearGradient5625" x1="34.562" x2="50.809" y1="17.249" y2="44.77" gradientTransform="matrix(.21256 0 0 .30196 -2.6789 1.9684)" gradientUnits="userSpaceOnUse" xlink:href="#linearGradient3116"/><linearGradient id="linearGradient5628" x1="35.321" x2="51.861" y1="24.984" y2="41.37" gradientTransform="matrix(.25938 0 0 .34386 -4.2615 .85874)" gradientUnits="userSpaceOnUse" xlink:href="#linearGradient5460"/><linearGradient id="linearGradient5634" x1="54.287" x2="68.843" y1="9.114" y2="38.118" gradientTransform="matrix(.29023 -.0042309 .0038640 .29211 -6.8962 -1.1608)" gradientUnits="userSpaceOnUse" xlink:href="#linearGradient2296"/><linearGradient id="linearGradient5637" x1="34.562" x2="50.809" y1="17.249" y2="44.77" gradientTransform="matrix(.21256 0 0 .30196 3.3163 -1.0429)" gradientUnits="userSpaceOnUse" xlink:href="#linearGradient3116"/><linearGradient id="linearGradient5640" x1="35.321" x2="51.861" y1="24.984" y2="41.37" gradientTransform="matrix(.25938 0 0 .34386 1.7337 -2.1522)" gradientUnits="userSpaceOnUse" xlink:href="#linearGradient5460"/><radialGradient id="radialGradient6420" cx="1.57" cy="5.884" r="3.992" gradientTransform="matrix(1 0 0 1.376 0 -3.5688)" gradientUnits="userSpaceOnUse" xlink:href="#linearGradient2296"/><radialGradient id="radialGradient6428" cx="7.502" cy="2.85" r="3.992" gradientTransform="matrix(1 0 0 1.376 0 -2.4365)" gradientUnits="userSpaceOnUse" xlink:href="#linearGradient2296"/></defs><g id="g6430"><g id="g7999" transform="matrix(.22639 -.060946 .059739 .23097 3.8244 4.0372)" style="stroke-width:4.2665;enable-background:new"><path id="path8001" d="m11.249 13.686c11.018 7.8164 20.074 0.26802 29.08 9.104l5.176-18.012-1.194-2.5246-24.804-7.853-2.717 1.3052-5.541 17.98z" style="opacity:.51648;fill-rule:evenodd;fill:url(#linearGradient5596)"/></g><rect id="rect8003" width="8.983" height="11.987" x="6.519" y=".487" rx=".88" ry=".869" transform="matrix(1 0.00182 -.0016279 1 0 0)" style="stroke-width:1.0001;stroke:#888a85;stroke-linecap:round;enable-background:new;fill:url(#linearGradient5640)"/><rect id="rect8005" width="6.984" height="9.987" x="7.518" y="1.486" rx=".139" ry=".142" transform="matrix(1 .0018854 -.0015701 1 0 0)" style="stroke-width:1.0003;stroke:url(#radialGradient6428);stroke-linecap:round;enable-background:new;fill:url(#linearGradient5637)"/><path id="path8007" d="m7.0441 6.7388c3.6869 1.1083 4.7209-1.767 7.9519-0.213l0.0035-4.967c0.003-0.28099-0.13098-0.46808-0.54753-0.46279l-6.8294-0.096c-0.3921-0.001-0.637 0.3319-0.6219 0.5828l0.043456 5.156z" style="opacity:.51648;fill-rule:evenodd;enable-background:new;fill:url(#linearGradient5634)"/><path id="path8032" d="m10.966 8.4187c1.289 1.3264 3.05 0.0924 3.034-1.1702-0.015-1.1542-0.866-1.7037-3.006-3.7485-2.2256 1.9186-3.0105 2.3621-2.9937 3.7316 0.0169 1.4176 1.5323 2.4757 2.9657 1.1871z" style="enable-background:new;fill-rule:evenodd"/><g id="g7873" transform="matrix(.22696 -.060799 .059888 .23041 -2.1832 7.0296)" style="stroke-width:4.2665"><path id="path7875" d="m11.249 13.686c11.018 7.8164 20.074 0.26802 29.08 9.104l5.176-18.012-1.194-2.5246-24.804-7.853-2.717 1.3052-5.541 17.98z" style="opacity:.51648;fill:url(#linearGradient5596);fill-rule:evenodd"/></g><rect id="rect7877" width="8.983" height="11.987" x=".524" y="3.498" rx=".88" ry=".869" transform="matrix(1 0.00182 -.0016279 1 0 0)" style="stroke:#888a85;stroke-linecap:round;stroke-width:1.0001;fill:url(#linearGradient5628)"/><rect id="rect7879" width="6.984" height="9.987" x="1.523" y="4.497" rx=".139" ry=".142" transform="matrix(1 .0018854 -.0015701 1 0 0)" style="stroke:url(#radialGradient6420);stroke-linecap:round;stroke-width:1.0003;fill:url(#linearGradient5625)"/><path id="path7881" d="m4.9655 7.6341c1.2897-1.4469 3.0507-0.1008 3.0344 1.2766-0.0149 1.2593-0.8659 1.8583-3.0063 4.0893-2.2252-2.093-3.0101-2.577-2.9933-4.0708 0.0169-1.5465 1.5323-2.7008 2.9652-1.2951z" style="fill:#c00;fill-rule:evenodd"/><path id="path7885" d="m1.0441 9.7388c3.6873 1.1082 4.721-1.767 7.9523-0.213l0.0036-4.967c0.0029-0.281-0.131-0.4681-0.5476-0.4628l-6.8298-0.096c-0.3921-0.001-0.637 0.3319-0.62193 0.58278l0.043456 5.156z" style="opacity:.51648;fill:url(#linearGradient5621);fill-rule:evenodd"/></g></svg>