<svg xmlns="http://www.w3.org/2000/svg" xmlns:xlink="http://www.w3.org/1999/xlink" id="svg11300" width="16" height="16" version="1.0"><defs id="defs3"><linearGradient id="linearGradient6782" x1="29" x2="29" y1="30" y2="48" gradientTransform="matrix(.40010 0 0 .41179 -5.1028 -4.0598)" gradientUnits="userSpaceOnUse"><stop id="stop4105" offset="0" style="stop-color:#edd563"/><stop id="stop4107" offset="1" style="stop-color:#e08223"/></linearGradient><linearGradient id="linearGradient6784" x1="126" x2="126" y1="44" y2="52" gradientTransform="translate(-121,-36)" gradientUnits="userSpaceOnUse"><stop id="stop6484" offset="0" style="stop-color:#cd8033"/><stop id="stop6486" offset="1" style="stop-color:#bb5e12"/></linearGradient><linearGradient id="linearGradient6787" x1="37" x2="37" y1="35" y2="48" gradientTransform="matrix(.40166 0 0 .41733 -4.3613 -4.3191)" gradientUnits="userSpaceOnUse"><stop id="stop2266" offset="0" style="stop-color:#d7e866"/><stop id="stop2268" offset="1" style="stop-color:#8cab2a"/></linearGradient><linearGradient id="linearGradient6790" x1="45" x2="45" y1="25" y2="48" gradientTransform="matrix(.40150 0 0 .36396 -3.5674 -1.7847)" gradientUnits="userSpaceOnUse"><stop id="stop139214" offset="0" style="stop-color:#a7bce2"/><stop id="stop139216" offset="1" style="stop-color:#5077b1"/></linearGradient><linearGradient id="linearGradient5565" x1="9.414" x2="48.851" y1="9.414" y2="34.939" gradientTransform="matrix(.34145 0 0 .44441 -2.402 -3.2771)" gradientUnits="userSpaceOnUse"><stop id="stop6282" offset="0" style="stop-color:#fff"/><stop id="stop6284" offset="1" style="stop-color:#dcdcdc"/></linearGradient><linearGradient id="linearGradient5567" x1="48.851" x2="9.414" y1="34.939" y2="9.414" gradientTransform="matrix(.34145 0 0 .44441 -2.402 -3.2771)" gradientUnits="userSpaceOnUse"><stop id="stop6290" offset="0" style="stop-color:#969696"/><stop id="stop6292" offset="1" style="stop-color:#bebebe"/></linearGradient></defs><g id="g6341"><rect id="rect7057" width="14" height="12" x=".5" y=".5" style="stroke-linejoin:round;stroke-width:1.0004;fill-rule:evenodd;stroke:url(#linearGradient5567);stroke-linecap:round;enable-background:new;fill:url(#linearGradient5565)"/><rect id="rect7142" width="1" height="7" x="5" y="3" style="enable-background:new;fill:#bebebe;fill-rule:evenodd"/><rect id="rect7140" width="1" height="7" x="2" y="3" style="fill:#bebebe;fill-rule:evenodd"/><rect id="rect7144" width="1" height="8" x="12" y="3" style="enable-background:new;fill:#bebebe;fill-rule:evenodd"/><path id="path7108" d="m2 10v1h11v-1h-11z" style="enable-background:new;fill:#fed995;fill-rule:evenodd"/><path id="path7110" d="m2 9v1h11v-1h-11z" style="enable-background:new;fill:#c7af64;fill-rule:evenodd"/><path id="path7136" d="m2 7v1h11v-1h-11z" style="enable-background:new;fill:#fed995;fill-rule:evenodd"/><path id="path7073" d="m2 6v1h11v-1h-11z" style="enable-background:new;fill:#c7af64;fill-rule:evenodd"/><rect id="rect7128" width="11" height="1" x="2" y="3" style="enable-background:new;fill:#deaa76;fill-rule:evenodd"/><path id="path7138" d="m2 2v1h11v-1h-11z" style="enable-background:new;fill:#cd8033;fill-rule:evenodd"/><path id="path5569" d="m2 4v1h11v-1h-11z" style="enable-background:new;fill:#cd8033;fill-rule:evenodd"/><rect id="rect7154" width="1" height="9" x="12" y="2" style="opacity:.15;fill-rule:evenodd;enable-background:new"/><rect id="rect7146" width="1" height="9" x="2" y="2" style="opacity:.15;fill-rule:evenodd;enable-background:new"/><rect id="rect7152" width="1" height="9" x="5" y="2" style="opacity:.15;fill-rule:evenodd;enable-background:new"/><rect id="rect7114" width="2.005" height="8.005" x="13.498" y="7.498" style="stroke-width:.99538;fill-rule:evenodd;stroke:#0854a9;stroke-linecap:round;enable-background:new;fill:url(#linearGradient6790)"/><rect id="rect7118" width="2.017" height="5.017" x="9.491" y="10.491" style="stroke-width:.98266;fill-rule:evenodd;stroke:#42770c;stroke-linecap:round;enable-background:new;fill:url(#linearGradient6787)"/><rect id="rect7122" width="2.003" height="7.003" x="5.499" y="8.499" style="stroke-width:.99721;fill-rule:evenodd;stroke:url(#linearGradient6784);stroke-linecap:round;enable-background:new;fill:url(#linearGradient6782)"/><rect id="rect7112" width="11" height="1" x="5" y="15" style="fill:#464646;fill-rule:evenodd"/></g></svg>