<svg xmlns="http://www.w3.org/2000/svg" xmlns:xlink="http://www.w3.org/1999/xlink" id="svg11300" width="16" height="16" version="1.0"><defs id="defs3"><linearGradient id="linearGradient6402"><stop id="stop6404" offset="0" style="stop-color:#cd8033"/><stop id="stop6406" offset="1" style="stop-color:#bb5e12"/></linearGradient><linearGradient id="XMLID_897_" x1="292.97" x2="296.94" y1="4.759" y2="10.711" gradientUnits="userSpaceOnUse"><stop id="stop45093" offset="0" style="stop-color:#e8e8e5"/><stop id="stop45095" offset="1" style="stop-color:#f0f0f0"/></linearGradient><linearGradient id="linearGradient5550" x1="128.94" x2="129.25" y1="39.188" y2="51.938" gradientTransform="translate(-122,-36)" gradientUnits="userSpaceOnUse" xlink:href="#linearGradient6402"/><linearGradient id="linearGradient5554" x1="126" x2="126" y1="39" y2="51.875" gradientTransform="translate(-123,-37)" gradientUnits="userSpaceOnUse" xlink:href="#linearGradient6402"/><radialGradient id="radialGradient5558" cx="124" cy="40.639" r="5.5" gradientTransform="matrix(.61431 .016071 -.026152 .99966 -73.111 -38.979)" gradientUnits="userSpaceOnUse"><stop id="stop3101" offset="0" style="stop-color:#fff"/><stop id="stop3103" offset="1" style="stop-color:#fff;stop-opacity:0"/></radialGradient><linearGradient id="linearGradient5561" x1="24.971" x2="25.051" y1="10.991" y2="68.379" gradientTransform="matrix(.32487 0 0 .32486 -1.2715 -1.5706)" gradientUnits="userSpaceOnUse"><stop id="stop4105" offset="0" style="stop-color:#edd563"/><stop id="stop4107" offset="1" style="stop-color:#e08223"/></linearGradient><linearGradient id="linearGradient5563" x1="126.06" x2="126" y1="39" y2="52" gradientTransform="translate(-122,-37)" gradientUnits="userSpaceOnUse" xlink:href="#linearGradient6402"/><linearGradient id="linearGradient5573" x1="292.97" x2="296.94" y1="4.759" y2="10.711" gradientTransform="matrix(.71457 -.35895 .41856 .96696 -204.51 103.85)" gradientUnits="userSpaceOnUse" xlink:href="#XMLID_897_"/><linearGradient id="linearGradient5577" x1="292.97" x2="296.94" y1="4.759" y2="10.711" gradientTransform="matrix(-.87286 .34922 .50208 .92380 264.04 -105.11)" gradientUnits="userSpaceOnUse" xlink:href="#XMLID_897_"/></defs><g id="g5579"><path id="path6591" d="m0.5 1.5v14h14v-4h-10v-10h-4z" style="stroke-linejoin:round;stroke-width:.97983;fill-rule:evenodd;stroke:url(#linearGradient5563);stroke-linecap:square;enable-background:new;fill:url(#linearGradient5561)"/><path id="path6593" d="m1.5 2.5v9.3755 2.6245h3 9v-2h-10v-10h-2z" style="opacity:.6;stroke:url(#radialGradient5558);stroke-linecap:square;enable-background:new;fill:none"/><path id="path6810" d="m3 5.5v1h1v-1h-1zm0 2v1h1v-1h-1zm0 2v1h1v-1h-1z" style="enable-background:new;fill:#eabe5c;fill-rule:evenodd"/><path id="rect6753" d="m3 5v1h2v-1h-2zm0 2v1h2v-1h-2zm0 2v1h2v-1h-2z" style="fill:url(#linearGradient5554);fill-rule:evenodd"/><path id="path6812" d="m5.5 13h1v-1h-1v1zm2 0h1v-1h-1v1zm2 0h1v-1h-1v1z" style="enable-background:new;fill:#eabe5c;fill-rule:evenodd"/><path id="path6760" d="m6 13h1v-2h-1v2zm2 0h1v-2h-1v2zm2 0h1v-2h-1v2z" style="enable-background:new;fill:url(#linearGradient5550);fill-rule:evenodd"/><path id="path6605" d="m9.7513 0.3019c0.053141-0.002626 0.10578-0.002998 0.15835-0.004216l1.3354 1.2619c-0.03462 1.7486-0.05316 3.5137-0.07561 5.2711-0.13986 0.095898-0.28922 0.17741-0.44648 0.24515-0.331 0.1433-0.703 0.2286-1.0873 0.2355 0.0302-2.337 0.0585-4.6784 0.1156-7.0094z" style="stroke-linejoin:round;stroke:#888a85;stroke-linecap:round;stroke-width:.60262;fill:url(#linearGradient5577)"/><polygon id="polygon6609" points="295.75 11.96 297.04 12.3 297.04 12.3 296.4 13.385 295.13 14.719 294.73 13.673" transform="matrix(.68830 -.36074 .37688 .90838 -198.37 102.79)" style="stroke-linejoin:round;stroke:#333;stroke-linecap:round;stroke-width:.70734;fill:#464646"/><path id="path6611" d="m6.3721 1.7666-0.086036 0.1051 0.23174 1.7638c1.3079 1.1588 2.6196 2.3397 3.9277 3.5127 0.14395-0.030514 0.28228-0.077229 0.41456-0.13862 0.27871-0.12856 0.53691-0.32504 0.74293-0.5821-1.7397-1.5598-3.4816-3.1237-5.2309-4.6609z" style="stroke-linejoin:round;stroke:#888a85;stroke-linecap:round;stroke-width:.56293;fill:url(#linearGradient5573)"/><path id="path6615" d="m9.6339 9.2305c0.7011 0.0906 1.2101 0.9565 1.1361 1.9335-0.075 0.978-0.703 1.697-1.4041 1.608-0.7017-0.09-1.21-0.955-1.1355-1.933 0.0743-0.977 0.703-1.6967 1.4035-1.6085z" style="stroke:#333;stroke-width:.44638;fill:#464646"/><polygon id="polygon6617" points="298.25 11.96 296.96 12.3 296.96 12.3 297.6 13.385 298.87 14.719 299.27 13.673" transform="matrix(.84876 -.28668 .48717 .75675 -247.38 82.905)" style="stroke-linejoin:round;stroke:#333;stroke-linecap:round;stroke-width:.69342;fill:#464646"/><path id="path6619" d="m13.32 7.6915c-0.26981 0.66642 0.03608 1.7917 0.68377 2.5132 0.64789 0.72204 1.3918 0.76766 1.6623 0.10284 0.27-0.667-0.035-1.7916-0.683-2.513-0.648-0.7216-1.392-0.7671-1.663-0.1035z" style="stroke:#333;stroke-width:.44455;fill:#464646"/></g></svg>