<svg xmlns="http://www.w3.org/2000/svg" xmlns:xlink="http://www.w3.org/1999/xlink" id="svg4135" width="16" height="16" version="1.1"><defs id="defs4137"><linearGradient id="linearGradient9796" x1="318.06" x2="321" y1="169" y2="185.24" gradientTransform="matrix(.75 0 0 .77778 75.125 78.667)" gradientUnits="userSpaceOnUse"><stop id="stop9730" offset="0" style="stop-color:#babdb6"/><stop id="stop9732" offset="1" style="stop-color:#555753"/></linearGradient><linearGradient id="linearGradient9860" x1="313.5" x2="311.14" y1="182.35" y2="174.98" gradientTransform="matrix(.73333 0 0 .8 79.6 75.8)" gradientUnits="userSpaceOnUse"><stop id="stop9304" offset="0" style="stop-color:#fff"/><stop id="stop9306" offset="1" style="stop-color:#eeeeec"/></linearGradient><linearGradient id="linearGradient9858" x1="304.54" x2="304.54" y1="218.95" y2="226.2" gradientUnits="userSpaceOnUse"><stop id="stop9854" offset="0" style="stop-color:#fff"/><stop id="stop9856" offset="1" style="stop-color:#fff;stop-opacity:0"/></linearGradient><linearGradient id="linearGradient2855" x1="24.104" x2="24.104" y1="15.169" y2="32.485" gradientTransform="matrix(.32803 0 0 .32571 4.445 4.532)" gradientUnits="userSpaceOnUse"><stop id="stop3947" offset="0" style="stop-color:#ecf5b6"/><stop id="stop3949" offset="1" style="stop-color:#9fba48"/></linearGradient><linearGradient id="linearGradient3688" x1="308.43" x2="308.43" y1="169.16" y2="171.16" gradientTransform="matrix(1 0 0 .75 0 41.875)" gradientUnits="userSpaceOnUse"><stop id="stop9392" offset="0" style="stop-color:#d3d7cf"/><stop id="stop9394" offset="1" style="stop-color:#eeeeec"/></linearGradient><linearGradient id="linearGradient3690" x1="309.56" x2="309.56" y1="171.28" y2="167.34" gradientTransform="matrix(1 0 0 .75 0 41.875)" gradientUnits="userSpaceOnUse"><stop id="stop9608" offset="0" style="stop-color:#555753"/><stop id="stop9610" offset=".668" style="stop-color:#d3d7cf"/><stop id="stop9612" offset="1" style="stop-color:#888a85"/></linearGradient></defs><g id="layer1" transform="translate(-1)"><g id="g9840" transform="translate(-302,-209)" style="enable-background:new"><rect id="rect9736" width="12" height="14" x="303.5" y="210.5" rx=".792" ry=".792" style="stroke:url(#linearGradient9796);enable-background:new;fill:#babdb6"/><rect id="rect9738" width="11" height="12" x="304" y="211" rx="0" ry="0" style="enable-background:new;fill:url(#linearGradient9860)"/><rect id="rect9740" width="13" height="1" x="303" y="224" rx="0" ry="0" style="enable-background:new;fill:#2e3436"/><rect id="rect9742" width="10" height="12" x="304.5" y="211.5" rx="0" ry="0" style="opacity:.5;stroke:url(#linearGradient9858);enable-background:new;fill:none"/><path id="path9862" d="m306.5 211c-0.828 0-1.5 0.672-1.5 1.5s0.67201 1.5 1.5 1.5c0.38234 0 0.73499-0.13923 1-0.375 0.26501 0.23577 0.61766 0.375 1 0.375s0.73499-0.13923 1-0.375c0.26501 0.23577 0.61766 0.375 1 0.375s0.73499-0.13923 1-0.375c0.26501 0.23577 0.61766 0.375 1 0.375 0.828 0 1.5-0.672 1.5-1.5s-0.67199-1.5-1.5-1.5c-0.38234 0-0.73499 0.13923-1 0.375-0.26501-0.23577-0.61766-0.375-1-0.375s-0.73499 0.13923-1 0.375c-0.26501-0.23577-0.61766-0.375-1-0.375s-0.73499 0.13923-1 0.375c-0.26501-0.23577-0.61766-0.375-1-0.375z" style="opacity:.1;enable-background:new"/><g id="g9746" transform="translate(-2,42)" style="enable-background:new"><rect id="rect9748" width="2" height="3" x="307.5" y="167.5" rx="1" ry="1" style="stroke-linejoin:round;stroke:url(#linearGradient3690);fill:url(#linearGradient3688)"/><rect id="rect9750" width="1.344" height="1.344" x="307.5" y="167.69" rx="1.593" ry="1.344" style="fill:#fff"/></g><use id="use9834" width="400" height="300" x="0" y="0" transform="translate(2)" xlink:href="#g9746"/><use id="use9836" width="400" height="300" x="0" y="0" transform="translate(4)" xlink:href="#g9746" style="enable-background:new"/><use id="use9838" width="400" height="300" x="0" y="0" transform="translate(6)" xlink:href="#g9746" style="enable-background:new"/></g><g id="g9871" transform="translate(-302,-209)" style="enable-background:new"><rect id="rect9762" width="1" height="1" x="306" y="215" rx="0" ry="0" style="opacity:.48;enable-background:new;fill:#888a85"/><rect id="rect9764" width="4" height="1" x="308" y="215" rx="0" ry="0" style="opacity:.48;enable-background:new;fill:#888a85"/><rect id="rect9766" width="4" height="1" x="308" y="221" rx="0" ry="0" style="opacity:.48;enable-background:new;fill:#888a85"/><rect id="rect9770" width="1" height="1" x="306" y="217" rx="0" ry="0" style="opacity:.48;enable-background:new;fill:#888a85"/><rect id="rect9772" width="4" height="1" x="308" y="217" rx="0" ry="0" style="opacity:.48;enable-background:new;fill:#888a85"/><rect id="rect9776" width="1" height="1" x="306" y="219" rx="0" ry="0" style="opacity:.48;enable-background:new;fill:#888a85"/><rect id="rect9780" width="5" height="1" x="308" y="219" rx="0" ry="0" style="opacity:.48;enable-background:new;fill:#888a85"/><rect id="rect9784" width="1" height="1" x="306" y="221" rx="0" ry="0" style="opacity:.48;enable-background:new;fill:#888a85"/></g></g><path id="path2262" d="m10.5 10.5v-1.9925h3v1.9925h1.9925v3h-1.9925v1.9925h-3v-1.9925h-1.9925v-3h1.9925z" style="stroke-linejoin:round;fill-rule:evenodd;stroke:#699536;stroke-width:1.0151;fill:url(#linearGradient2855)"/></svg>