<svg xmlns="http://www.w3.org/2000/svg" xmlns:xlink="http://www.w3.org/1999/xlink" id="svg5042" width="16" height="16" version="1.0"><defs id="defs5044"><linearGradient id="linearGradient4136" x1="31.279" x2="31.279" y1="56.744" y2="4.008" gradientTransform="matrix(.51517 0 0 .51202 -1.3641 .19575)" gradientUnits="userSpaceOnUse"><stop id="stop2913" offset="0" style="stop-color:#545454"/><stop id="stop2915" offset="1" style="stop-color:#a4a4a4"/></linearGradient><linearGradient id="linearGradient4134" x1="22.506" x2="22.506" y1="7.589" y2="62.54" gradientTransform="matrix(.53080 0 0 .57557 -3.0666 -2.1205)" gradientUnits="userSpaceOnUse"><stop id="stop2903" offset="0" style="stop-color:#d3d3d3"/><stop id="stop2905" offset=".262" style="stop-color:#b1b1b1"/><stop id="stop2907" offset=".661" style="stop-color:#8e8e8e"/><stop id="stop2909" offset="1" style="stop-color:#525252"/></linearGradient><linearGradient id="linearGradient4131" x1="24.053" x2="24.053" y1="5.007" y2="45.055" gradientTransform="matrix(.48646 0 0 .48698 .29929 .82185)" gradientUnits="userSpaceOnUse"><stop id="stop5640" offset="0" style="stop-color:#fff"/><stop id="stop5642" offset="1" style="stop-color:#fff;stop-opacity:0"/></linearGradient><linearGradient id="linearGradient3251"><stop id="stop3253" offset="0" style="stop-color:#888986"/><stop id="stop3255" offset="1" style="stop-color:#888986;stop-opacity:0"/></linearGradient><linearGradient id="linearGradient3709" x1="29.225" x2="30" y1="38.714" y2="39.5" gradientTransform="translate(-23 -24)" gradientUnits="userSpaceOnUse" xlink:href="#linearGradient3251"/><linearGradient id="linearGradient3731" x1="28.632" x2="32" y1="38.451" y2="40" gradientTransform="translate(-23 -18)" gradientUnits="userSpaceOnUse" xlink:href="#linearGradient3251"/><linearGradient id="linearGradient3221-497-378-235-23-910"><stop id="stop5184" offset="0" style="stop-color:#fff"/><stop id="stop5186" offset="1" style="stop-color:#fff;stop-opacity:0"/></linearGradient><linearGradient id="linearGradient3754" x1="13.998" x2="16.014" y1="20.002" y2="22.002" gradientTransform="matrix(.99184 0 0 1.0002 -2.8837 -4.0059)" gradientUnits="userSpaceOnUse" xlink:href="#linearGradient3221-497-378-235-23-910"/><linearGradient id="linearGradient2960" x1="14.498" x2="17.023" y1="20.82" y2="22.002" gradientTransform="matrix(.99184 0 0 1.0002 -2.8837 -2.0057)" gradientUnits="userSpaceOnUse"><stop id="stop3817" offset="0" style="stop-color:#fff"/><stop id="stop3820" offset="1" style="stop-color:#fff;stop-opacity:0"/></linearGradient><linearGradient id="linearGradient3688" x1="29.225" x2="30" y1="38.714" y2="39.5" gradientTransform="translate(-23 -20)" gradientUnits="userSpaceOnUse" xlink:href="#linearGradient3251"/><linearGradient id="linearGradient3692" x1="29.225" x2="30" y1="38.714" y2="39.5" gradientTransform="translate(-23 -22)" gradientUnits="userSpaceOnUse" xlink:href="#linearGradient3251"/><linearGradient id="linearGradient3700" x1="29.225" x2="30" y1="38.714" y2="39.5" gradientTransform="translate(-19 -24)" gradientUnits="userSpaceOnUse" xlink:href="#linearGradient3251"/><linearGradient id="linearGradient3702" x1="29.225" x2="30" y1="38.714" y2="39.5" gradientTransform="translate(-19 -20)" gradientUnits="userSpaceOnUse" xlink:href="#linearGradient3251"/><linearGradient id="linearGradient3704" x1="29.225" x2="30" y1="38.714" y2="39.5" gradientTransform="translate(-19 -22)" gradientUnits="userSpaceOnUse" xlink:href="#linearGradient3251"/><linearGradient id="linearGradient3712" x1="29.225" x2="30" y1="38.714" y2="39.5" gradientTransform="translate(-21 -24)" gradientUnits="userSpaceOnUse" xlink:href="#linearGradient3251"/><linearGradient id="linearGradient3714" x1="29.225" x2="30" y1="38.714" y2="39.5" gradientTransform="translate(-21 -20)" gradientUnits="userSpaceOnUse" xlink:href="#linearGradient3251"/><linearGradient id="linearGradient3716" x1="29.225" x2="30" y1="38.714" y2="39.5" gradientTransform="translate(-21 -22)" gradientUnits="userSpaceOnUse" xlink:href="#linearGradient3251"/><linearGradient id="linearGradient3722" x1="13.998" x2="16.014" y1="20.002" y2="22.002" gradientTransform="matrix(.99184 0 0 1.0002 -2.8837 -6.0039)" gradientUnits="userSpaceOnUse" xlink:href="#linearGradient3221-497-378-235-23-910"/><linearGradient id="linearGradient3748" x1="29" x2="30" y1="39" y2="39.5" gradientTransform="translate(-19 -18)" gradientUnits="userSpaceOnUse" xlink:href="#linearGradient3251"/></defs><g id="layer1" transform="translate(-1 -8)"><rect id="rect2157" width="10.868" height="14.906" x="3.496" y="8.586" rx="1.036" ry="1.03" style="stroke-dashoffset:1.4;stroke:url(#linearGradient4136);stroke-linecap:round;stroke-miterlimit:6;stroke-width:1.0151;fill:url(#linearGradient4134)"/><rect id="rect3052" width="8.996" height="13.041" x="4.508" y="9.545" rx=".513" ry=".516" style="opacity:.4;stroke-dashoffset:1.4;stroke:url(#linearGradient4131);stroke-linecap:round;stroke-miterlimit:6;stroke-width:1.0151;fill:none"/><rect id="rect3045" width="8" height="2" x="5" y="11" rx=".61" ry=".523" style="fill:#d8dad6"/><rect id="rect4008" width="2" height="2" x="11" y="14" rx=".354" ry=".531" style="fill:#536c75"/><rect id="rect4010" width="2" height="2" x="11" y="16" rx=".354" ry=".531" style="fill:#536c75"/><rect id="rect4012" width="2" height="4" x="11" y="18" rx=".353" ry=".526" style="fill:#536c75"/><rect id="rect4014" width="5" height="2" x="5" y="20" rx=".338" ry=".351" style="fill:#4d4d4d"/><rect id="rect4017" width="2" height="2" x="9" y="20" rx=".433" ry=".538" style="fill:#4d4d4d"/><rect id="rect4019" width="2" height="2" x="9" y="18" rx=".433" ry=".54" style="fill:#4d4d4d"/><rect id="rect4021" width="2" height="2" x="9" y="16" rx=".433" ry=".538" style="fill:#4d4d4d"/><rect id="rect4023" width="2" height="2" x="9" y="14" rx=".433" ry=".538" style="fill:#4d4d4d"/><rect id="rect3912" width="2" height="2" x="7" y="18" rx=".435" ry=".54" style="fill:#4d4d4d"/><rect id="rect3914" width="2" height="2" x="7" y="16" rx=".435" ry=".538" style="fill:#4d4d4d"/><rect id="rect3916" width="2" height="2" x="7" y="14" rx=".435" ry=".538" style="fill:#4d4d4d"/><rect id="rect3918" width="2" height="2" x="5" y="18" rx=".418" ry=".54" style="fill:#4d4d4d"/><rect id="rect3920" width="2" height="2" x="5" y="16" rx=".418" ry=".538" style="fill:#4d4d4d"/><rect id="rect3922" width="2" height="2" x="5" y="14" rx=".419" ry=".532" style="fill:#4d4d4d"/><path id="rect3703" d="m5.5 15.5v-1h1" style="stroke-linejoin:round;stroke-dashoffset:1.4;stroke:url(#linearGradient3709);stroke-linecap:square;stroke-miterlimit:6;fill:none"/><path id="rect3725" d="m9.5 21.5v-1l1 0.000017" style="stroke-linejoin:round;stroke-dashoffset:1.4;stroke:url(#linearGradient3748);stroke-linecap:square;stroke-miterlimit:6;fill:none"/><path id="rect3729" d="m5.5 21.5v-1h3" style="stroke-linejoin:round;stroke-dashoffset:1.4;stroke:url(#linearGradient3731);stroke-linecap:square;stroke-miterlimit:6;fill:none"/><path id="rect3752" d="m11.498 17.5v-1.0022l1.002 0.000157" style="opacity:.6;stroke-linejoin:round;stroke-dashoffset:1.4;stroke:url(#linearGradient3754);stroke-linecap:square;stroke-miterlimit:6;stroke-width:.996;fill:none"/><path id="rect3369" d="m11.498 21.5v-3.002l1.002 0.000001" style="opacity:.5;stroke-linejoin:round;stroke-dashoffset:1.4;stroke:url(#linearGradient2960);stroke-linecap:square;stroke-miterlimit:6;stroke-width:.996;fill:none"/><path id="path3686" d="m5.5 19.5v-1h1" style="stroke-linejoin:round;stroke-dashoffset:1.4;stroke:url(#linearGradient3688);stroke-linecap:square;stroke-miterlimit:6;fill:none"/><path id="path3690" d="m5.5 17.5v-1h1" style="stroke-linejoin:round;stroke-dashoffset:1.4;stroke:url(#linearGradient3692);stroke-linecap:square;stroke-miterlimit:6;fill:none"/><path id="path3694" d="m9.5 15.5v-1h1" style="stroke-linejoin:round;stroke-dashoffset:1.4;stroke:url(#linearGradient3700);stroke-linecap:square;stroke-miterlimit:6;fill:none"/><path id="path3696" d="m9.5 19.5v-1h1" style="stroke-linejoin:round;stroke-dashoffset:1.4;stroke:url(#linearGradient3702);stroke-linecap:square;stroke-miterlimit:6;fill:none"/><path id="path3698" d="m9.5 17.5v-1h1" style="stroke-linejoin:round;stroke-dashoffset:1.4;stroke:url(#linearGradient3704);stroke-linecap:square;stroke-miterlimit:6;fill:none"/><path id="path3706" d="m7.5 15.5v-1h1" style="stroke-linejoin:round;stroke-dashoffset:1.4;stroke:url(#linearGradient3712);stroke-linecap:square;stroke-miterlimit:6;fill:none"/><path id="path3708" d="m7.5 19.5v-1h1" style="stroke-linejoin:round;stroke-dashoffset:1.4;stroke:url(#linearGradient3714);stroke-linecap:square;stroke-miterlimit:6;fill:none"/><path id="path3710" d="m7.5 17.5v-1h1" style="stroke-linejoin:round;stroke-dashoffset:1.4;stroke:url(#linearGradient3716);stroke-linecap:square;stroke-miterlimit:6;fill:none"/><path id="path3719" d="m11.498 15.502v-1.0022l1.002 0.000159" style="opacity:.6;stroke-linejoin:round;stroke-dashoffset:1.4;stroke:url(#linearGradient3722);stroke-linecap:square;stroke-miterlimit:6;stroke-width:.996;fill:none"/></g></svg>