<svg xmlns="http://www.w3.org/2000/svg" xmlns:xlink="http://www.w3.org/1999/xlink" id="svg7698" width="16" height="16" version="1.1"><defs id="defs7700"><linearGradient id="linearGradient3140" x1="23.576" x2="23.576" y1="25.357" y2="31.211" gradientTransform="matrix(.41578 -.41749 .51898 .51462 -15.747 2.6504)" gradientUnits="userSpaceOnUse"><stop id="stop2541" offset="0" style="stop-color:#181818"/><stop id="stop2543" offset=".135" style="stop-color:#dbdbdb"/><stop id="stop2545" offset=".202" style="stop-color:#a4a4a4"/><stop id="stop2547" offset=".27" style="stop-color:#fff"/><stop id="stop2549" offset=".447" style="stop-color:#8d8d8d"/><stop id="stop2551" offset=".571" style="stop-color:#959595"/><stop id="stop2553" offset=".72" style="stop-color:#cecece"/><stop id="stop2555" offset="1" style="stop-color:#181818"/></linearGradient><linearGradient id="linearGradient3142" x1="30.038" x2="30.038" y1="24.99" y2="30" gradientTransform="matrix(.40402 -.40569 .60738 .60227 -17.868 .69303)" gradientUnits="userSpaceOnUse"><stop id="stop2559" offset="0" style="stop-color:#565656"/><stop id="stop2561" offset=".5" style="stop-color:#9a9a9a"/><stop id="stop2563" offset="1" style="stop-color:#545454"/></linearGradient><linearGradient id="linearGradient3144" x1="30.038" x2="30.038" y1="24.99" y2="30" gradientTransform="matrix(.40402 -.40569 .60738 .60227 -17.983 .80921)" gradientUnits="userSpaceOnUse"><stop id="stop2567" offset="0" style="stop-color:#b1b1b1"/><stop id="stop2569" offset=".5" style="stop-color:#fff"/><stop id="stop2571" offset="1" style="stop-color:#8f8f8f"/></linearGradient><linearGradient id="linearGradient3146" x1="30.038" x2="30.038" y1="24.99" y2="30" gradientTransform="matrix(.40402 -.40569 .60738 .60227 -17.466 .28929)" gradientUnits="userSpaceOnUse"><stop id="stop2575" offset="0" style="stop-color:#565656"/><stop id="stop2577" offset=".5" style="stop-color:#9a9a9a"/><stop id="stop2579" offset="1" style="stop-color:#545454"/></linearGradient><linearGradient id="linearGradient3148" x1="30.038" x2="30.038" y1="24.99" y2="30" gradientTransform="matrix(.40402 -.40569 .60738 .60227 -17.581 .40547)" gradientUnits="userSpaceOnUse"><stop id="stop2583" offset="0" style="stop-color:#b1b1b1"/><stop id="stop2585" offset=".5" style="stop-color:#fff"/><stop id="stop2587" offset="1" style="stop-color:#8f8f8f"/></linearGradient><linearGradient id="linearGradient3150" x1="30.038" x2="30.038" y1="24.99" y2="30" gradientTransform="matrix(.40402 -.40569 .60738 .60227 -17.062 -.11641)" gradientUnits="userSpaceOnUse"><stop id="stop2591" offset="0" style="stop-color:#565656"/><stop id="stop2593" offset=".5" style="stop-color:#9a9a9a"/><stop id="stop2595" offset="1" style="stop-color:#545454"/></linearGradient><linearGradient id="linearGradient3152" x1="30.038" x2="30.038" y1="24.99" y2="30" gradientTransform="matrix(.40402 -.40569 .60738 .60227 -17.177 -.00021970)" gradientUnits="userSpaceOnUse"><stop id="stop2599" offset="0" style="stop-color:#b1b1b1"/><stop id="stop2601" offset=".5" style="stop-color:#fff"/><stop id="stop2603" offset="1" style="stop-color:#8f8f8f"/></linearGradient><linearGradient id="linearGradient3154" x1="9" x2="9" y1="29.057" y2="26.03" gradientTransform="matrix(.40402 -.40569 .60738 .60227 -17.637 .46249)" gradientUnits="userSpaceOnUse"><stop id="stop2607" offset="0" style="stop-color:#ece5a5"/><stop id="stop2609" offset="1" style="stop-color:#fcfbf2"/></linearGradient><linearGradient id="linearGradient3156" x1="5.518" x2="9.522" y1="37.372" y2="41.392" gradientTransform="matrix(.37638 .036153 0.0367 .37487 -2.2183 -1.1331)" gradientUnits="userSpaceOnUse"><stop id="stop2613" offset="0" style="stop-color:#dbce48"/><stop id="stop2615" offset="1" style="stop-color:#c5b625"/></linearGradient><linearGradient id="linearGradient2950" x1="-59.741" x2="-60.908" y1="71.962" y2="114.54" gradientTransform="matrix(.21875 .00013313 -.00013319 .21865 21.121 1.7733)" gradientUnits="userSpaceOnUse" xlink:href="#linearGradient3600"/><linearGradient id="linearGradient3600"><stop id="stop3602" offset="0" style="stop-color:#edd563"/><stop id="stop3604" offset="1" style="stop-color:#e08223"/></linearGradient><linearGradient id="linearGradient2952" x1="11.647" x2="11.647" y1="29.144" y2="14.856" gradientTransform="matrix(.48572 0 0 .48993 -1.6144 5.2216)" gradientUnits="userSpaceOnUse" xlink:href="#linearGradient3104"/><linearGradient id="linearGradient3104"><stop id="stop3106" offset="0" style="stop-color:#bb7937"/><stop id="stop3108" offset="1" style="stop-color:#bf8556"/></linearGradient><linearGradient id="linearGradient2989" x1="-59.741" x2="-60.908" y1="71.962" y2="114.54" gradientTransform="matrix(.21875 .00013313 -.00013319 .21865 21.121 1.2743)" gradientUnits="userSpaceOnUse" xlink:href="#linearGradient3600"/><linearGradient id="linearGradient2991" x1="11.647" x2="11.647" y1="29.144" y2="14.856" gradientTransform="matrix(.48572 0 0 .48993 -1.6144 4.7227)" gradientUnits="userSpaceOnUse" xlink:href="#linearGradient3104"/><radialGradient id="radialGradient3792" cx="8" cy="4.429" r="9.993" gradientTransform="matrix(2.5017 .0000051090 -.0000035318 1.7012 -13.971 -.53272)" gradientUnits="userSpaceOnUse" xlink:href="#linearGradient3600"/><radialGradient id="radialGradient3794" cx="8" cy="4.429" r="9.993" gradientTransform="matrix(2.5017 .0000051078 -.0000034733 1.7012 -13.971 -.53272)" gradientUnits="userSpaceOnUse" xlink:href="#linearGradient3104"/></defs><g id="g3433"><g id="layer1-3" transform="translate(0 -2.001)"><path id="path2948" d="m13.5 17h-12.957" style="stroke-linejoin:round;stroke:url(#linearGradient2952);stroke-linecap:round;fill:url(#linearGradient2950)"/><path id="path2987" d="m0.54277 10.501 12.957 2.01v3.9897c-5.6666-0.0034-7.2907 0.0035-12.957 0v-6z" style="stroke-linejoin:round;stroke:url(#linearGradient2991);stroke-linecap:round;fill:url(#linearGradient2989)"/><path id="path2855" d="m0.54277 2.501c4.1393 0.00252 8.8179 0.00748 12.957 0.01-0.0037 6.0486-0.45766 7.49 2.042 11.99-5.6666-0.0034-7.3327 0.0034-12.999 0-2.5-4.5-2.0045-4.6701-2-12z" style="stroke-linejoin:round;stroke:url(#radialGradient3794);stroke-linecap:round;fill:url(#radialGradient3792)"/><g id="g4198" transform="matrix(1.0195 0 0 1 29.21 6.7744)" style="fill:#999"><path id="path6035" d="m-25.666-1.7733h1.1241v1h-1.1241v-1z" style="opacity:.7;fill:#686868"/><path id="path6033" d="m-24.388-1.7733h1.0606v1h-1.0606v-1z" style="opacity:.7;fill:#686868"/><path id="path6031" d="m-23.175-1.7733h0.93368v1h-0.93368v-1z" style="opacity:.7;fill:#686868"/><path id="path6029" d="m-22.088-1.7733h0.41011v1h-0.41011v-1z" style="opacity:.7;fill:#686868"/><path id="path6027" d="m-21.525-1.7733h0.91782v1h-0.91782v-1z" style="opacity:.7;fill:#686868"/><path id="path6025" d="m-20.454-1.7733h2.3775v1h-2.3775v-1z" style="opacity:.7;fill:#686868"/><path id="path6017" d="m-25.666 4.2267h1.1241v1h-1.1241v-1z" style="opacity:.7;fill:#686868"/><path id="path6015" d="m-24.388 4.2267h1.0606v1h-1.0606v-1z" style="opacity:.7;fill:#686868"/><path id="path6013" d="m-23.175 4.2267h0.93368v1h-0.93368v-1z" style="opacity:.7;fill:#686868"/><path id="path6011" d="m-22.088 4.2267h0.41011v1h-0.41011v-1z" style="opacity:.7;fill:#686868"/><path id="path6009" d="m-21.525 4.2267h0.91781v1h-0.91781v-1z" style="opacity:.7;fill:#686868"/><path id="path5999" d="m-25.666 0.22666h1.7428v1h-1.7428v-1z" style="opacity:.7;fill:#686868"/><path id="path5997" d="m-23.764 0.22666h0.83849v1h-0.83849v-1z" style="opacity:.7;fill:#686868"/><path id="path5995" d="m-22.766 0.22666h0.39424v1h-0.39424v-1z" style="opacity:.7;fill:#686868"/><path id="path5993" d="m-22.213 0.22666h0.75916v1h-0.75916v-1z" style="opacity:.7;fill:#686868"/><path id="path5991" d="m-21.295 0.22666h0.75916v1h-0.75916v-1z" style="opacity:.7;fill:#686868"/><path id="path5989" d="m-20.376 0.22666h1.2193v1h-1.2193v-1z" style="opacity:.7;fill:#686868"/><path id="path5981" d="m-25.666 2.2267h1.9967v1h-1.9967v-1z" style="opacity:.7;fill:#686868"/><path id="path5979" d="m-23.512 2.2267h2.1395v1h-2.1395v-1z" style="opacity:.7;fill:#686868"/><path id="path5977" d="m-21.216 2.2267h0.85436v1h-0.85436v-1z" style="opacity:.7;fill:#686868"/><path id="path5975" d="m-20.205 2.2267h2.0125v1h-2.0125v-1z" style="opacity:.7;fill:#686868"/></g><path id="path2422" d="m13.297 5.7055c-0.08415-0.04997-0.14927-0.03697-0.19229-0.0092l-5.7296 3.6801-1.0545 0.67922-0.03247 0.01374-1.2485 2.8377 3.0941 0.094 0.02569-0.01734 1.0613-0.67562 5.7281-3.7118c0.17207-0.11121-0.10007-0.84827-0.61048-1.6563-0.38281-0.60599-0.78895-1.0846-1.0414-1.2345z" style="opacity:.15;fill:#0c0c0c;fill-rule:evenodd"/></g><g id="g8626" transform="matrix(.70258 0 0 .70426 5.0317 -.33706)"><path id="path3041" d="m2.0488 11.037c0.28654-0.20771 1.148 0.25639 1.9603 1.0619 0.81045 0.80363 1.2602 1.6413 1.0576 1.9306-0.0007708 0.0011 0.01977 0.01774 0.01898 0.01882l10.138-10.18c0.258-0.2581-0.213-1.1432-1.051-1.9744-0.838-0.8311-1.728-1.295-1.986-1.0366l-10.138 10.18z" style="stroke-linejoin:round;stroke:#0c0c0c;stroke-width:.60798;fill:url(#linearGradient3140)"/><path id="path3043" d="m10.565 2.4841c0.28654-0.20771 1.148 0.25639 1.9603 1.0619 0.81044 0.80363 1.2602 1.6413 1.0576 1.9306-0.000769 0.0011 0.01977 0.017738 0.01898 0.018821l1.552-1.5571c0.409-0.4086-0.029-1.0928-0.981-2.0447-0.813-0.8055-1.674-1.2696-1.96-1.0619l-0.02525 0.025356-1.6218 1.6271z" style="opacity:.8;stroke-linejoin:round;stroke:#e28ccd;stroke-width:.60798;fill:#ffb6ed"/><path id="path3045" d="m2.0488 11.037c0.28654-0.20771 1.148 0.25639 1.9603 1.0619 0.81044 0.80363 1.2602 1.6413 1.0576 1.9306-0.0007714 0.0011 0.01977 0.01774 0.01898 0.01882l6.982-7.0109 0.02525-0.025356c0.00079-0.00108-0.01975-0.01772-0.01898-0.01882 0.203-0.2885-0.247-1.1262-1.058-1.9298-0.812-0.8056-1.6734-1.2697-1.9599-1.062l-0.025251 0.025355-6.982 7.0109z" style="opacity:.6;fill:#0c0c0c"/><path id="path3047" d="m9.1785 3.8767c0.28654-0.20771 1.148 0.25639 1.9603 1.0619 0.81044 0.80363 1.2602 1.6413 1.0576 1.9306-0.000771 0.0011 0.01977 0.017736 0.01898 0.01882l0.12626-0.12678c0.00079-0.00108-0.01975-0.01772-0.01898-0.01882 0.203-0.2892-0.246-1.1269-1.057-1.9305-0.812-0.8056-1.6737-1.2697-1.9602-1.062l-0.12626 0.12678z" style="fill:url(#linearGradient3142)"/><path id="path3049" d="m9.0628 3.9929c0.28654-0.20771 1.148 0.25639 1.9603 1.0619 0.81044 0.80363 1.2602 1.6413 1.0576 1.9306-0.000771 0.0011 0.01977 0.017738 0.01898 0.018822l0.126-0.1268c0.00079-0.00108-0.01975-0.017721-0.01898-0.018821 0.203-0.2892-0.247-1.1269-1.058-1.9305-0.812-0.8056-1.6734-1.2697-1.9599-1.062l-0.1263 0.1268z" style="fill:url(#linearGradient3144)"/><path id="path3051" d="m9.5806 3.473c0.28654-0.20771 1.148 0.25639 1.9603 1.0619 0.81045 0.80363 1.2602 1.6413 1.0576 1.9306-0.000773 0.0011 0.01977 0.017737 0.01898 0.01882l0.12626-0.12678c0.000791-0.00108-0.01975-0.017721-0.01898-0.01882 0.202-0.2892-0.247-1.1269-1.058-1.9306-0.812-0.8055-1.6736-1.2696-1.9601-1.0619l-0.1263 0.1268z" style="fill:url(#linearGradient3146)"/><path id="path3053" d="m9.4649 3.5891c0.28654-0.20771 1.148 0.25639 1.9603 1.0619 0.81045 0.80363 1.2602 1.6413 1.0576 1.9306-0.000769 0.0011 0.01977 0.017737 0.01898 0.018821l0.12626-0.12678c0.00079-0.00108-0.01975-0.01772-0.01898-0.01882 0.203-0.2892-0.247-1.1269-1.057-1.9305-0.813-0.8055-1.6743-1.2696-1.9608-1.0619l-0.1263 0.1267z" style="fill:url(#linearGradient3148)"/><path id="path3055" d="m9.9846 3.0673c0.2864-0.2077 1.1484 0.2564 1.9604 1.0619 0.81045 0.80363 1.2602 1.6413 1.0576 1.9306-0.00077 0.0011 0.01977 0.017738 0.01898 0.018821l0.126-0.1268c0.000792-0.00108-0.01975-0.017721-0.01898-0.018821 0.202-0.2892-0.247-1.1269-1.058-1.9306-0.812-0.8055-1.674-1.2696-1.96-1.0619l-0.1264 0.1268z" style="fill:url(#linearGradient3150)"/><path id="path3057" d="m9.8689 3.1835c0.28654-0.20771 1.148 0.25639 1.9603 1.0619 0.81044 0.80363 1.2602 1.6413 1.0576 1.9306-0.000771 0.0011 0.01977 0.017737 0.01898 0.018821l0.12626-0.12678c0.000789-0.00108-0.01975-0.017722-0.01898-0.018821 0.203-0.2892-0.247-1.1269-1.057-1.9306-0.813-0.8055-1.674-1.2696-1.9608-1.0619l-0.1263 0.1268z" style="fill:url(#linearGradient3152)"/><path id="path3059" d="m0.25981 15.794 4.7719-1.7255 0.039308-0.03926c0.2026-0.289-0.2524-1.127-1.0629-1.93-0.8124-0.806-1.6727-1.268-1.9592-1.06l-1.7891 4.755z" style="fill-rule:evenodd;stroke:url(#linearGradient3156);stroke-width:.60798;fill:url(#linearGradient3154)"/><path id="path3061" d="m0.74443 14.506-0.48521 1.283 1.3014-0.473c-0.1137-0.134-0.2193-0.268-0.3544-0.402-0.1555-0.154-0.30705-0.281-0.46177-0.408z" style="fill-rule:evenodd;stroke:#0c0c0c;stroke-width:.60798;fill:#0c0c0c"/></g></g></svg>