<svg xmlns="http://www.w3.org/2000/svg" xmlns:xlink="http://www.w3.org/1999/xlink" id="svg3442" width="16" height="16" version="1.0"><defs id="defs3444"><linearGradient id="linearGradient2650" x1="24" x2="24" y1="44" y2="3.89" gradientTransform="matrix(.38462 0 0 .33333 -1.2308 1)" gradientUnits="userSpaceOnUse"><stop id="stop3106" offset="0" style="stop-color:#787878"/><stop id="stop3108" offset="1" style="stop-color:#aaa"/></linearGradient><linearGradient id="linearGradient2648" x1="19.36" x2="19.36" y1="16.138" y2="44.984" gradientTransform="matrix(.38462 0 0 .33333 -1.2308 .67752)" gradientUnits="userSpaceOnUse"><stop id="stop3602-9" offset="0" style="stop-color:#f4f4f4"/><stop id="stop3604-6" offset="1" style="stop-color:#dbdbdb"/></linearGradient><linearGradient id="linearGradient2645" x1="24" x2="24" y1="44" y2="3.899" gradientTransform="matrix(.38462 0 0 .39875 -1.2308 -1.2949)" gradientUnits="userSpaceOnUse"><stop id="stop2492" offset="0" style="stop-color:#791235"/><stop id="stop2494" offset="1" style="stop-color:#dd3b27"/></linearGradient><radialGradient id="radialGradient2643" cx="12.063" cy="11.394" r="20" gradientTransform="matrix(0 .44324 -.61396 0 12.251 -1.3092)" gradientUnits="userSpaceOnUse"><stop id="stop3359" offset="0" style="stop-color:#f89b7e"/><stop id="stop3361" offset=".397" style="stop-color:#e35d4f"/><stop id="stop3363" offset="1" style="stop-color:#c6262e"/></radialGradient><linearGradient id="linearGradient2640" x1="24" x2="24" y1="5" y2="43" gradientTransform="matrix(.35135 0 0 .35135 -.43243 -.43243)" gradientUnits="userSpaceOnUse"><stop id="stop3310-1-4" offset="0" style="stop-color:#fff"/><stop id="stop3312-5-3" offset="1" style="stop-color:#fff;stop-opacity:0"/></linearGradient></defs><g id="layer1"><rect id="rect5505" width="15" height="13" x=".5" y="2.5" rx=".889" ry=".889" style="stroke-linejoin:round;stroke:url(#linearGradient2650);stroke-linecap:round;fill:url(#linearGradient2648)"/><path id="rect2424" d="m1.3534 0.5c-0.47567 0-0.8534 0.39162-0.8534 0.8847v3.1153h15v-3.1153c0-0.49308-0.378-0.8847-0.853-0.8847h-13.294 0.0004z" style="stroke:url(#linearGradient2645);fill:url(#radialGradient2643)"/><rect id="rect6741" width="13" height="13" x="1.5" y="1.5" style="opacity:.4;stroke-linejoin:round;stroke:url(#linearGradient2640);stroke-linecap:round;fill:none"/><path id="text3437" d="m4.6715 11.789h2.5659v1.095h-4.2374v-1.095c0.7523-0.664 1.5183-1.314 2.2617-1.9872 0.4062-0.3551 0.6052-1.0311 0.2129-1.4681-0.4499-0.4751-1.1846-0.3243-1.7234-0.1008-0.2319 0.0206-0.6627 0.4588-0.7356 0.2881v-1.1762c0.9902-0.3074 2.094-0.5053 3.1014-0.162 0.6341 0.2134 1.099 0.83 1.0808 1.5 0.0432 0.6727-0.4048 1.233-0.8796 1.6602-0.5371 0.495-1.0981 0.964-1.6467 1.446zm6.0415-1.489c-0.454-0.042-0.8798 0.32-0.871 0.779-0.0599 0.431 0.191 0.933 0.673 0.967 0.423 0.081 0.952-0.103 1.03-0.573 0.111-0.44-0.033-1.038-0.546-1.141-0.093-0.023-0.19-0.032-0.286-0.032zm-1.0972-0.4912c-0.5548-0.1345-1.0545-0.595-1.0659-1.1871-0.0773-0.611 0.3041-1.2256 0.897-1.4194 0.7311-0.2573 1.5471-0.2535 2.2961-0.0767 0.604 0.134 1.136 0.6451 1.128 1.2853 0.06 0.56-0.292 1.112-0.823 1.3079-0.206 0.0679-0.313 0.1013-0.037 0.1581 0.592 0.1851 1.023 0.7631 0.987 1.3821 0.029 0.635-0.33 1.282-0.945 1.511-0.738 0.287-1.571 0.281-2.3376 0.117-0.6279-0.131-1.1957-0.618-1.2709-1.272-0.1176-0.596 0.0801-1.292 0.65-1.593 0.1622-0.0952 0.3397-0.1635 0.5213-0.2132zm0.3515-1.1566c-0.062 0.5286 0.5247 0.837 0.9867 0.6895 0.663-0.1251 0.665-1.2507 0-1.3751-0.473-0.133-1.0369 0.14-0.9867 0.6856z" style="opacity:.6"/></g></svg>