<svg xmlns="http://www.w3.org/2000/svg" xmlns:svg="http://www.w3.org/2000/svg" xmlns:xlink="http://www.w3.org/1999/xlink" id="svg11300" width="16" height="16" version="1.0"><defs id="defs3"><linearGradient id="linearGradient4099"><stop id="stop4101" offset="0" style="stop-color:#edd563;stop-opacity:1"/><stop id="stop4103" offset="1" style="stop-color:#e08223;stop-opacity:1"/></linearGradient><linearGradient id="linearGradient4093"><stop id="stop4095" offset="0" style="stop-color:#bb5e12;stop-opacity:1"/><stop id="stop4097" offset="1" style="stop-color:#cd8033;stop-opacity:1"/></linearGradient><linearGradient id="linearGradient5443"><stop id="stop5445" offset="0" style="stop-color:white;stop-opacity:1"/><stop id="stop5447" offset="1" style="stop-color:white;stop-opacity:0"/></linearGradient><linearGradient id="linearGradient7444"><stop id="stop7446" offset="0" style="stop-color:#888a85;stop-opacity:1"/><stop id="stop7448" offset="1" style="stop-color:#555753;stop-opacity:1"/></linearGradient><linearGradient id="linearGradient7381"><stop id="stop7383" offset="0" style="stop-color:#babdb6;stop-opacity:1"/><stop id="stop7385" offset="1" style="stop-color:white;stop-opacity:1"/></linearGradient><linearGradient id="linearGradient3795" x1="54.765" x2="54.721" y1="1" y2="12.585" gradientTransform="matrix(-0.30643538,-0.29976753,0.30643538,-0.29976753,17.691219,31.81732)" gradientUnits="userSpaceOnUse" xlink:href="#linearGradient5443"/><radialGradient id="radialGradient3812" cx="-39.458" cy="11.84" r="3.906" fx="-39.458" fy="11.84" gradientTransform="matrix(0.76416071,-0.05305347,0.09313312,1.9396059,18.7936,-21.012389)" gradientUnits="userSpaceOnUse" xlink:href="#linearGradient5443"/><linearGradient id="linearGradient3818" x1="-2.197" x2="-10.566" y1="40.972" y2="40.949" gradientTransform="matrix(0.30070466,-1.0669372e-8,0,0.59925602,-8.9404513,-20.299233)" gradientUnits="userSpaceOnUse" xlink:href="#linearGradient4099"/><linearGradient id="linearGradient3820" x1="-45.569" x2="-36.083" y1="7.714" y2="12.324" gradientTransform="matrix(0.37257704,0,0,0.37259555,3.9156909,0.02952193)" gradientUnits="userSpaceOnUse" xlink:href="#linearGradient4093"/><linearGradient id="linearGradient3824" x1="25.572" x2="27.368" y1="20.762" y2="22.476" gradientTransform="matrix(-0.3299477,0,0,-0.32761047,14.096386,17.76601)" gradientUnits="userSpaceOnUse" xlink:href="#linearGradient7381"/><linearGradient id="linearGradient3826" x1="22.376" x2="32.447" y1="35.624" y2="24.412" gradientTransform="matrix(0.33136213,0,0,0.33046092,-2.0148989,-1.1095772)" gradientUnits="userSpaceOnUse" xlink:href="#linearGradient7444"/><linearGradient id="linearGradient2490-3"><stop id="stop2492-7" offset="0" style="stop-color:#791235;stop-opacity:1"/><stop id="stop2494-8" offset="1" style="stop-color:#dd3b27;stop-opacity:1"/></linearGradient><linearGradient id="linearGradient4956-9"><stop id="stop4958-4" offset="0" style="stop-color:#f8b17e;stop-opacity:1"/><stop id="stop4960-5" offset=".262" style="stop-color:#e35d4f;stop-opacity:1"/><stop id="stop4962-1" offset=".663" style="stop-color:#c6262e;stop-opacity:1"/><stop id="stop4964-0" offset="1" style="stop-color:#690b54;stop-opacity:1"/></linearGradient><linearGradient id="linearGradient3969"><stop id="stop3971" offset="0" style="stop-color:white;stop-opacity:1"/><stop id="stop3973" offset="1" style="stop-color:white;stop-opacity:0"/></linearGradient><linearGradient id="linearGradient3958"><stop id="stop3960" offset="0" style="stop-color:#555753;stop-opacity:1"/><stop id="stop3962" offset="1" style="stop-color:#888a85;stop-opacity:1"/></linearGradient><linearGradient id="linearGradient3950"><stop id="stop3952" offset="0" style="stop-color:#eeeeec;stop-opacity:1"/><stop id="stop3954" offset="1" style="stop-color:white;stop-opacity:1"/></linearGradient><linearGradient id="linearGradient3108" x1="97.442" x2="90.221" y1="35.152" y2="35.079" gradientTransform="matrix(0.29294119,-0.29196713,0.25622105,0.25536903,-26.472871,28.656025)" gradientUnits="userSpaceOnUse" xlink:href="#linearGradient4956-9"/><linearGradient id="linearGradient3110" x1="29.278" x2="36.001" y1="34.023" y2="27.273" gradientTransform="matrix(0.35605432,0,0,0.35511101,-0.80039115,-0.30212488)" gradientUnits="userSpaceOnUse" xlink:href="#linearGradient2490-3"/><linearGradient id="linearGradient3126" x1="314.093" x2="315.013" y1="230.782" y2="229.862" gradientUnits="userSpaceOnUse" xlink:href="#linearGradient3950"/><linearGradient id="linearGradient3128" x1="312.958" x2="311" y1="234.931" y2="220.601" gradientUnits="userSpaceOnUse" xlink:href="#linearGradient3958"/><radialGradient id="radialGradient3130" cx="307.658" cy="223.93" r="2.27" fx="307.658" fy="223.93" gradientTransform="matrix(1.9522293,-1.9522293,1.4892817,1.4892819,-626.26973,490.96044)" gradientUnits="userSpaceOnUse" xlink:href="#linearGradient3969"/></defs><g id="g7817" transform="translate(-303.05823,-218.93125)" style="display:inline;enable-background:new"><path id="path3935" d="m 306.75,219.5 c -0.37511,0.0471 -0.77839,0.25308 -1.1875,0.65625 l 1.71875,1.6875 c 0.3584,0.36046 0.34912,0.93023 0,1.28125 l -0.125,0.125 c -0.34912,0.35106 -0.92283,0.36044 -1.28125,0 l -1.6875,-1.6875 c -1.15661,1.13978 -0.64599,2.06839 0.125,2.84375 l 0.46875,0.46875 c 0.73274,0.7369 1.86697,0.81164 2.6875,0.21875 l 5.4375,5.4375 1.625,-1.62505 -5.4375,-5.4375 c 0.59284,-0.82529 0.54644,-1.98062 -0.1875,-2.71875 l -0.46875,-0.5 c -0.48639,-0.48917 -1.06232,-0.82854 -1.6875,-0.75 l 0,5e-5 z" style="fill:url(#linearGradient3126);fill-opacity:1;fill-rule:evenodd;stroke:url(#linearGradient3128);stroke-width:.89999998;stroke-linecap:round;stroke-linejoin:round;stroke-miterlimit:4;stroke-opacity:1;stroke-dasharray:none;stroke-dashoffset:.3612;display:inline;enable-background:new"/><path id="path3967" d="m 305.21569,223.99896 c 1.74834,1.52344 4.48908,-1.00133 2.72395,-2.92439" style="fill:none;stroke:url(#radialGradient3130);stroke-width:1px;stroke-linecap:butt;stroke-linejoin:miter;stroke-opacity:1;display:inline;enable-background:new"/></g><path id="path6899" d="m 5.440485,7.1070701 7.573456,8.0594769 c 0.496811,0.495162 1.347388,0.430334 1.915401,-0.135789 0.568013,-0.566125 0.633054,-1.413871 0.136243,-1.909032 L 6.9792242,5.5734621 5.440485,7.1070701 z" style="fill:url(#linearGradient3108);fill-opacity:1;stroke:url(#linearGradient3110);stroke-width:.99963278;stroke-linecap:round;stroke-linejoin:round;stroke-miterlimit:4;stroke-opacity:1;stroke-dasharray:none;stroke-dashoffset:.7;display:inline;enable-background:new"/><rect id="rect5288" width="3.294" height="10.684" x="-13" y="-.72" rx="1.794" ry="1.794" transform="matrix(-0.70745471,-0.70675868,0.70394288,-0.71025659,0,0)" style="fill:url(#linearGradient3818);fill-opacity:1;stroke:url(#linearGradient3820);stroke-width:1.00018108;stroke-linecap:round;stroke-linejoin:round;stroke-miterlimit:4;stroke-opacity:1;stroke-dasharray:none"/><rect id="rect5292" width="2.331" height="9.073" x="-12.561" y="-.155" rx="2.115" ry="2.116" transform="matrix(-0.70545697,-0.70875276,0.70051753,-0.7136352,0,0)" style="opacity:.6;fill:none;stroke:url(#radialGradient3812);stroke-width:1.00003386;stroke-linecap:round;stroke-linejoin:round;stroke-miterlimit:4;stroke-opacity:1;stroke-dasharray:none"/><path id="path3822" d="m 7.6871836,7.5790026 c -0.1959186,-0.0317 -0.3938297,0.01257 -0.5767962,0.158871 a 0.35804719,0.35749485 0 0 0 -0.039779,0.01985 L 2.297123,12.523851 1.7601059,12.682721 a 0.35804719,0.35749485 0 0 0 -0.1988953,0.139013 l -1.05414458,1.548989 a 0.35804719,0.35749485 0 0 0 0.039779,0.456754 l 0.67624368,0.6752 a 0.35804719,0.35749485 0 0 0 0.457459,0.03972 L 3.2319304,14.47002 A 0.35804719,0.35749485 0 0 0 3.371157,14.271432 l 0.1392267,-0.51633 4.7933747,-4.7859804 a 0.35804719,0.35749485 0 0 0 0,-0.01986 C 8.7684651,8.4267086 8.2749396,7.6741166 7.6871836,7.5790026 z" style="fill:url(#linearGradient3824);fill-opacity:1;stroke:url(#linearGradient3826);stroke-width:.69999993;stroke-linecap:round;stroke-linejoin:round;stroke-miterlimit:4;stroke-opacity:1;stroke-dasharray:none"/><path id="path5450" d="m 1.4253769,15.305873 1.8297984,-1.198192 0.204852,-0.762458 C 3.6285333,13.15501 2.9678233,12.554389 2.7896996,12.68948 l -0.7698424,0.209763 -1.22481808,1.790008 c 0.24046958,0.235238 0.38986838,0.381384 0.63033778,0.616622 z" style="fill:url(#linearGradient3795);fill-opacity:1;stroke:none"/></svg>