<svg xmlns="http://www.w3.org/2000/svg" xmlns:xlink="http://www.w3.org/1999/xlink" id="svg3295" width="16" height="16" version="1.0"><defs id="defs3297"><linearGradient id="linearGradient2838" x1="63.761" x2="63.761" y1="-12.929" y2="5.972" gradientTransform="matrix(.74324 0 0 .74322 -38.23 10.609)" gradientUnits="userSpaceOnUse"><stop id="stop37937" offset="0" style="stop-color:#929292"/><stop id="stop37939" offset="1" style="stop-color:#4a4a4a"/></linearGradient><linearGradient id="linearGradient2841" x1="28.771" x2="28.771" y1="12.918" y2="45.348" gradientTransform="matrix(.36876 0 0 .36876 -0.851 -.85137)" gradientUnits="userSpaceOnUse"><stop id="stop2147" offset="0" style="stop-color:#fffffd"/><stop id="stop2149" offset="1" style="stop-color:#cbcbc9"/></linearGradient><linearGradient id="linearGradient2843" x1="10.443" x2="10.443" y1="2.309" y2="45.698" gradientTransform="matrix(.36876 0 0 .36876 -0.851 -.85137)" gradientUnits="userSpaceOnUse"><stop id="stop5356" offset="0" style="stop-color:#3f3f3f"/><stop id="stop5358" offset="1"/></linearGradient></defs><path id="path2555" d="m7.9941 0.49998c-4.1393 0-7.4941 3.3548-7.4941 7.4941s3.3548 7.5059 7.4941 7.5059 7.5059-3.3666 7.5059-7.5059-3.3666-7.4941-7.5059-7.4941z" style="stroke-linejoin:round;stroke:url(#linearGradient2843);stroke-linecap:round;stroke-width:.99995;fill:url(#linearGradient2841)"/><path id="path8655" d="m14.5 7.9998c0 3.5902-2.91 6.5002-6.4999 6.5002s-6.5001-2.91-6.5001-6.5002c0-3.5898 2.9102-6.4998 6.5001-6.4998s6.4999 2.91 6.4999 6.4998z" style="opacity:.52747;stroke:url(#linearGradient2838);fill:none"/><path id="path2312" d="m7.6277 9.7909 5.1163-5.5353" style="stroke:#000;stroke-linecap:round;stroke-width:.5;fill:none"/><path id="path2314" d="m8.4623 9.7909-3.1835-3.4889" style="stroke:#000;stroke-linecap:round;stroke-width:.5;fill:none"/><path id="path2316" d="m8 9.4191 6-2.4191" style="fill-rule:evenodd;stroke:red;stroke-linecap:round;stroke-width:.4;fill:red"/><path id="path13696" d="m15.564 2.2739-3.3281 2.2535 3.2958-0.023234 0.03232 1.9603h-6.9712v-1.7339l3.4072-2.2699h-3.4396v-1.984h6.9865l0.01704 1.7972z" style="stroke:#356ca0;fill:#7da5ca"/></svg>