<svg xmlns="http://www.w3.org/2000/svg" xmlns:xlink="http://www.w3.org/1999/xlink" id="svg3342" width="16" height="16" version="1.0"><defs id="defs3344"><linearGradient id="linearGradient4530" x1="29.278" x2="36.001" y1="34.023" y2="27.273" gradientTransform="matrix(.35605 0 0 .35511 -.70040 -.30212)" gradientUnits="userSpaceOnUse"><stop id="stop2492" offset="0" style="stop-color:#791235"/><stop id="stop2494" offset="1" style="stop-color:#dd3b27"/></linearGradient><linearGradient id="linearGradient4528" x1="97.442" x2="90.221" y1="35.152" y2="35.079" gradientTransform="matrix(.29294 -.29197 .25622 .25537 -26.373 28.656)" gradientUnits="userSpaceOnUse"><stop id="stop4958" offset="0" style="stop-color:#f8b17e"/><stop id="stop4960" offset=".262" style="stop-color:#e35d4f"/><stop id="stop4962" offset=".663" style="stop-color:#c6262e"/><stop id="stop4964" offset="1" style="stop-color:#690b54"/></linearGradient><radialGradient id="radialGradient2904" cx="307.66" cy="223.93" r="2.27" gradientTransform="matrix(1.9522 -1.9522 1.4893 1.4893 -626.27 490.96)" gradientUnits="userSpaceOnUse"><stop id="stop3971" offset="0" style="stop-color:#fff"/><stop id="stop3973" offset="1" style="stop-color:#fff;stop-opacity:0"/></radialGradient><linearGradient id="linearGradient4523" x1="312.96" x2="311" y1="234.93" y2="220.6" gradientUnits="userSpaceOnUse"><stop id="stop3960" offset="0" style="stop-color:#555753"/><stop id="stop3962" offset="1" style="stop-color:#888a85"/></linearGradient><linearGradient id="linearGradient4521" x1="314.09" x2="315.01" y1="230.78" y2="229.86" gradientUnits="userSpaceOnUse"><stop id="stop3952" offset="0" style="stop-color:#eeeeec"/><stop id="stop3954" offset="1" style="stop-color:#fff"/></linearGradient><linearGradient id="linearGradient2414" x1="33.579" x2="33.579" y1="5.709" y2="16.323" gradientTransform="matrix(.27161 0 0 .21990 -.75245 .077626)" gradientUnits="userSpaceOnUse"><stop id="stop2538" offset="0" style="stop-color:#fdfdf8"/><stop id="stop2555" offset="1" style="stop-color:#d6d3b4"/></linearGradient><linearGradient id="linearGradient2416" x1="16.916" x2="16.916" y1="7.001" y2="14" gradientTransform="matrix(.33333 0 0 .33337 .00071074 -1.0005)" gradientUnits="userSpaceOnUse"><stop id="stop2531" offset="0" style="stop-color:#aeae94"/><stop id="stop2533" offset="1" style="stop-color:#626337"/></linearGradient><linearGradient id="linearGradient2419" x1="24.683" x2="24.683" y1="9.242" y2="13.523" gradientTransform="matrix(.30428 0 0 0.234 .69933 2.8374)" gradientUnits="userSpaceOnUse"><stop id="stop3284" offset="0"/><stop id="stop3286" offset="1" style="stop-opacity:0"/></linearGradient><linearGradient id="linearGradient2422" x1="24.676" x2="24.676" y1="1.693" y2="44.296" gradientTransform="matrix(.28859 0 0 .28174 1.0735 1.5216)" gradientUnits="userSpaceOnUse"><stop id="stop2240" offset="0" style="stop-color:#fff"/><stop id="stop2242" offset="1" style="stop-color:#fff;stop-opacity:0"/></linearGradient><radialGradient id="radialGradient2425" cx="26.617" cy="-2.064" r="23" gradientTransform="matrix(0 -.37438 .46553 0 11.988 19.393)" gradientUnits="userSpaceOnUse"><stop id="stop2749" offset="0" style="stop-color:#d78ec1"/><stop id="stop2751" offset=".262" style="stop-color:#c564be"/><stop id="stop2753" offset=".661" style="stop-color:#9d3ea4"/><stop id="stop2755" offset="1" style="stop-color:#5e2c73"/></radialGradient><linearGradient id="linearGradient2427" x1="10.014" x2="10.014" y1="44.96" y2="-11.867" gradientTransform="matrix(.31912 0 0 .31740 .34112 .33334)" gradientUnits="userSpaceOnUse"><stop id="stop2759" offset="0" style="stop-color:#650d5c"/><stop id="stop2761" offset="1" style="stop-color:#ad53a5"/></linearGradient></defs><rect id="rect1316" width="14.998" height="12.998" x=".501" y="1.501" rx="1.528" ry="1.562" style="stroke-linejoin:round;stroke-width:1.0021;fill-rule:evenodd;stroke:url(#linearGradient2427);stroke-linecap:round;fill:url(#radialGradient2425)"/><rect id="rect2232" width="12.998" height="10.998" x="1.501" y="2.501" rx=".537" ry=".537" style="opacity:.4;stroke-linejoin:round;stroke:url(#linearGradient2422);stroke-linecap:round;stroke-width:1.0021;fill:none"/><rect id="rect1436" width="14" height="1" x="1" y="5" rx="0" ry="0" style="opacity:.2;fill-rule:evenodd;fill:url(#linearGradient2419)"/><path id="rect2311" d="m1.5007 1.5l13.112 0.0029c0.521 0 0.888 0.4204 0.888 0.8857v2.1114h-15c-0.00029 0-0.00029-2.1114-0.00029-2.1114 0-0.4959 0.40293-0.8886 0.99999-0.8886z" style="fill-rule:evenodd;stroke:url(#linearGradient2416);fill:url(#linearGradient2414)"/><rect id="rect3821" width="6" height="5" x="2" y="8" rx="1" ry="1" style="opacity:.9;fill:#fff"/><g id="g7817" transform="translate(-302.96 -218.93)" style="enable-background:new"><path id="path3935" d="m306.75 219.5c-0.38 0.05-0.78 0.25-1.19 0.66l1.72 1.68c0.36 0.36 0.35 0.93 0 1.28l-0.12 0.13c-0.35 0.35-0.93 0.36-1.28 0l-1.69-1.69c-1.16 1.14-0.65 2.07 0.12 2.85l0.47 0.47c0.73 0.73 1.87 0.81 2.69 0.21l5.44 5.44 1.62-1.62-5.44-5.44c0.6-0.83 0.55-1.98-0.18-2.72l-0.47-0.5c-0.49-0.49-1.06-0.83-1.69-0.75z" style="stroke-linejoin:round;stroke-width:.9;fill-rule:evenodd;stroke-dashoffset:.3612;stroke:url(#linearGradient4523);stroke-linecap:round;enable-background:new;fill:url(#linearGradient4521)"/><path id="path3967" d="m305.22 224c1.74 1.52 4.48-1 2.72-2.93" style="stroke-width:1px;stroke:url(#radialGradient2904);enable-background:new;fill:none"/></g><rect id="rect3823" width="4" height="1" x="3" y="9" style="opacity:.3"/><path id="path6899" d="m5.5405 7.1071l7.5735 8.0599c0.497 0.495 1.347 0.43 1.915-0.136s0.633-1.414 0.137-1.909l-8.0868-7.5485-1.5387 1.5336z" style="stroke-linejoin:round;stroke-width:.99963;stroke-dashoffset:.7;stroke:url(#linearGradient4530);stroke-linecap:round;enable-background:new;fill:url(#linearGradient4528)"/></svg>