<svg xmlns="http://www.w3.org/2000/svg" xmlns:xlink="http://www.w3.org/1999/xlink" id="svg2" width="16" height="16" version="1.0"><defs id="defs4"><radialGradient id="radialGradient4508" cx="24" cy="9.489" r="18.5" gradientTransform="matrix(0 .52841 -1.4829 0 26.457 -7.6819)" gradientUnits="userSpaceOnUse"><stop id="stop3826" offset="0" style="stop-color:#fff"/><stop id="stop3828" offset="1" style="stop-color:#fff;stop-opacity:0"/></radialGradient><linearGradient id="linearGradient4513" x1="24" x2="24" y1="5" y2="43" gradientTransform="matrix(.35135 0 0 .35135 -.43243 -.43244)" gradientUnits="userSpaceOnUse"><stop id="stop2919-1" offset="0" style="stop-color:#fff"/><stop id="stop2921-0" offset="1" style="stop-color:#fff;stop-opacity:0"/></linearGradient><radialGradient id="radialGradient4516" cx="12.011" cy="13.195" r="20" gradientTransform="matrix(2.167e-8 .64620 -.93213 0 15.876 -3.8828)" gradientUnits="userSpaceOnUse"><stop id="stop7211" offset="0" style="stop-color:#e384c6"/><stop id="stop7213" offset=".262" style="stop-color:#c467be"/><stop id="stop7215" offset=".705" style="stop-color:#93399a"/><stop id="stop7217" offset="1" style="stop-color:#48274f"/></radialGradient><linearGradient id="linearGradient4518" x1="24" x2="24" y1="44" y2="3.899" gradientTransform="matrix(.38462 0 0 .38462 -1.2308 -1.2311)" gradientUnits="userSpaceOnUse"><stop id="stop3709" offset="0" style="stop-color:#4c2a4e"/><stop id="stop3711" offset="1" style="stop-color:#a85394"/></linearGradient></defs><rect id="rect5505-3" width="15" height="15" x=".5" y=".5" rx="2" ry="2" style="stroke-linejoin:round;stroke:url(#linearGradient4518);stroke-linecap:round;fill:url(#radialGradient4516)"/><rect id="rect6741" width="13" height="13" x="1.5" y="1.5" rx="1" ry="1" style="opacity:.4;stroke-linejoin:round;stroke:url(#linearGradient4513);stroke-linecap:round;fill:none"/><path id="path3782" d="m7 11-4-4-2 4v3.234c0 0.294 0.4697 0.766 0.7465 0.766h12.534c0.277 0 0.72-0.472 0.72-0.766v-8.234l-4-1-4 6z" style="opacity:.4;fill:url(#radialGradient4508)"/><path id="path10957" d="m6.1719 10.369-3.2839-4.2287-1.888 2.8597-0.04688 2.555 2.0469-3.555 3.4219 4.452 4.5781-7.452 4 1.8702v-1.1702l-4.556-2.009-4.2721 6.678z" style="opacity:.8;block-progression:tb;text-indent:0;color:#000;text-transform:none;fill:#fff"/></svg>