<svg xmlns="http://www.w3.org/2000/svg" xmlns:xlink="http://www.w3.org/1999/xlink" id="svg2461" width="16" height="16" version="1.0"><defs id="defs2463"><linearGradient id="linearGradient2457" x1="18.379" x2="18.379" y1="44.98" y2="3.082" gradientTransform="matrix(.36857 0 0 .36857 -.84577 -.84577)" gradientUnits="userSpaceOnUse"><stop id="stop2788" offset="0" style="stop-color:#1f4b6a"/><stop id="stop2790" offset="1" style="stop-color:#4083c2"/></linearGradient><radialGradient id="radialGradient2455" cx="23.896" cy="3.99" r="20.397" gradientTransform="matrix(0 .87966 -1.1611 0 12.633 -21.084)" gradientUnits="userSpaceOnUse"><stop id="stop2778" offset="0" style="stop-color:#8badea"/><stop id="stop2780" offset=".262" style="stop-color:#6396cd"/><stop id="stop2782" offset=".661" style="stop-color:#3b7caf"/><stop id="stop2784" offset="1" style="stop-color:#194c70"/></radialGradient><linearGradient id="linearGradient2452" x1="63.397" x2="63.397" y1="-12.489" y2="5.468" gradientTransform="matrix(.74324 0 0 .74322 -38.23 10.609)" gradientUnits="userSpaceOnUse"><stop id="stop4875" offset="0" style="stop-color:#fff"/><stop id="stop4877" offset="1" style="stop-color:#fff;stop-opacity:0"/></linearGradient></defs><g id="layer1"><path id="path2449" d="m8 0.50183c-4.1372 0-7.4982 3.361-7.4982 7.4982 0.00003 4.137 3.361 7.498 7.4982 7.498 4.137 0 7.498-3.361 7.498-7.498 0-4.1372-3.361-7.4982-7.498-7.4982z" style="stroke-linejoin:round;stroke:url(#linearGradient2457);stroke-linecap:round;stroke-width:1.0037;fill:url(#radialGradient2455)"/><path id="path2451" d="m14.5 7.9998c0 3.5902-2.91 6.5002-6.4999 6.5002s-6.5001-2.91-6.5001-6.5002c0-3.5898 2.9102-6.4998 6.5001-6.4998s6.4999 2.91 6.4999 6.4998z" style="opacity:.4;stroke:url(#linearGradient2452);fill:none"/></g><path id="path6668" d="m9.3528 3.6442c0 0.6953-0.5787 1.2596-1.2917 1.2596s-1.2917-0.5643-1.2917-1.2596 0.5787-1.2596 1.2917-1.2596 1.2917 0.5643 1.2917 1.2596zm3.2242 1.3394c-0.06 0.0094-0.116 0.0324-0.165 0.067l-4.4121 0.6709-4.3886-0.6802c-0.1134-0.0802-0.2729-0.1042-0.3997-0.0447-0.1267 0.0596-0.2098 0.2008-0.2116 0.3351-0.0016 0.1344 0.0864 0.2503 0.2116 0.3128l3.4389 1.0638-0.0235 2.442-1.2135 3.6577c-0.1168 0.166-0.0812 0.38 0.0941 0.491s0.4239 0.077 0.5408-0.089l1.9582-3.948 1.9213 3.941c0.1041 0.173 0.3351 0.233 0.5171 0.134s0.245-0.319 0.141-0.491l-1.1907-3.6735-0.047-2.2991 3.4867-1.242c0.141-0.0939 0.202-0.2716 0.141-0.4244-0.061-0.1529-0.228-0.242-0.399-0.2234z" style="fill:#fff"/></svg>