<svg xmlns="http://www.w3.org/2000/svg" xmlns:xlink="http://www.w3.org/1999/xlink" id="svg3406" width="16" height="16" version="1.0"><defs id="defs3408"><linearGradient id="linearGradient3396" x1="16" x2="16" y1="14.018" y2="2" gradientUnits="userSpaceOnUse" xlink:href="#linearGradient3420"/><linearGradient id="linearGradient4167" x1="20.483" x2="20.483" y1="13.944" y2="41.783" gradientTransform="matrix(.43807 0 0 .43156 3.027 -4.0175)" gradientUnits="userSpaceOnUse" xlink:href="#linearGradient3839"/><radialGradient id="radialGradient4164" cx="4" cy="14.136" r="5" gradientTransform="matrix(1.0665 1.3783e-7 -1.5881e-7 1.2598 2.6805 -11.159)" gradientUnits="userSpaceOnUse" xlink:href="#linearGradient6823"/><linearGradient id="linearGradient3420"><stop id="stop3422" offset="0" style="stop-color:#753400"/><stop id="stop3424" offset="1" style="stop-color:#ee6a00"/></linearGradient><linearGradient id="linearGradient3404" x1="12.526" x2="12.526" y1="5.3" y2="-.038" gradientUnits="userSpaceOnUse" xlink:href="#linearGradient3420"/><linearGradient id="linearGradient3839"><stop id="stop3841" offset="0" style="stop-color:#ffed8c"/><stop id="stop3843" offset=".262" style="stop-color:#fb9858"/><stop id="stop3845" offset=".661" style="stop-color:#dc572a"/><stop id="stop3847" offset="1" style="stop-color:#9f3110"/></linearGradient><radialGradient id="radialGradient4159" cx="27.849" cy="4.607" r="7.489" gradientTransform="matrix(.82479 0 0 .55863 -13.839 -1.4336)" gradientUnits="userSpaceOnUse" xlink:href="#linearGradient3839"/><radialGradient id="radialGradient4156" cx="30.974" cy="12.173" r="4.891" gradientTransform="matrix(.65255 0 0 .43596 -9.712 -2.3067)" gradientUnits="userSpaceOnUse"><stop id="stop3431" offset="0" style="stop-color:#be5400"/><stop id="stop3433" offset="1" style="stop-color:#823900"/></radialGradient><linearGradient id="linearGradient4197" x1="17.062" x2="14.986" y1="28.909" y2="20.414" gradientTransform="matrix(.43807 0 0 .43156 -1.973 -2.0175)" gradientUnits="userSpaceOnUse" xlink:href="#linearGradient3568-0"/><linearGradient id="linearGradient6823"><stop id="stop6825" offset="0" style="stop-color:#fff"/><stop id="stop6827" offset="1" style="stop-color:#fff;stop-opacity:0"/></linearGradient><radialGradient id="radialGradient4194" cx="4" cy="14.136" r="5" gradientTransform="matrix(1.0665 1.3783e-7 -1.5881e-7 1.2598 -2.3195 -9.1587)" gradientUnits="userSpaceOnUse" xlink:href="#linearGradient6823"/><linearGradient id="linearGradient4191" x1="38.492" x2="38.492" y1="28.944" y2="20.348" gradientTransform="matrix(.33346 0 0 .41695 -7.3347 -1.3201)" gradientUnits="userSpaceOnUse" xlink:href="#linearGradient4639-6"/><linearGradient id="linearGradient4639-6"><stop id="stop4641-2" offset="0" style="stop-color:#555753"/><stop id="stop4643-6" offset="1" style="stop-color:#7c7f79"/></linearGradient><radialGradient id="radialGradient4188" cx="18.164" cy="22.429" r="2.842" gradientTransform="matrix(.79591 0 0 .82430 -8.9567 -12.351)" gradientUnits="userSpaceOnUse" xlink:href="#linearGradient4639-6"/><linearGradient id="linearGradient3568-0"><stop id="stop3570-0" offset="0" style="stop-color:#d6d6d6"/><stop id="stop3572-4" offset="1" style="stop-color:#f0f0f0"/></linearGradient><radialGradient id="radialGradient4185" cx="27.849" cy="4.607" r="7.489" gradientTransform="matrix(.43052 0 0 .29159 -7.8592 1.7967)" gradientUnits="userSpaceOnUse" xlink:href="#linearGradient3568-0"/><radialGradient id="radialGradient4182" cx="30.974" cy="12.173" r="4.891" gradientTransform="matrix(.65255 0 0 .43596 -14.712 -.30672)" gradientUnits="userSpaceOnUse"><stop id="stop3552" offset="0" style="stop-color:#6f6f6f"/><stop id="stop3554" offset="1" style="stop-color:#969696"/></radialGradient></defs><g id="layer1"><path id="path3359" d="m9.689 2.5075h1.622c1.878 0 4.182 0.5686 4.182 0.801v9.7655c0 0.232-0.191 0.419-0.429 0.419h-9.1282c-0.2377 0-0.4291-0.187-0.4291-0.419v-9.7655c0-0.2324 2.2656-0.801 4.1823-0.801z" style="stroke-width:1.0143;fill-rule:evenodd;stroke:url(#linearGradient3396);enable-background:new;fill:url(#linearGradient4167)"/><path id="path3361" d="m9.8515 3.5072h1.2965c1.502 0 3.345 0.5796 3.345 0.5796v8.4062h-7.9858v-8.4062s1.8116-0.5796 3.3443-0.5796z" style="opacity:.26316;stroke-linejoin:round;stroke-width:1.0145;stroke:url(#radialGradient4164);enable-background:new;fill:none"/><path id="path3363" d="m10.486 3.5017s-0.9843 2.0569-0.9843 2.839v5.4523l1.0413 1.205 0.955-1.205v-5.526c0-0.73-1.012-2.7653-1.012-2.7653z" style="stroke-width:1.0033;stroke:#98308d;enable-background:new;fill:none"/><path id="path3365" d="m11.496 4.5c0.001 0.5502-0.446 0.9964-0.996 0.9964-0.5504 0-0.9966-0.4462-0.9964-0.9964-0.0002-0.5502 0.446-0.9964 0.9964-0.9964 0.55 0 0.997 0.4462 0.996 0.9964z" style="stroke-width:1.0072;fill-rule:evenodd;stroke:#98308d;enable-background:new;fill:#d67ecc"/><path id="path3367" d="m10.459 3.48l-2.1688 1.329s-0.7991-2.2466-0.7991-3.1125c0-0.86541 0.5708-1.2054 1.1797-1.2054 0 0.00003 3.6152 0.00003 3.6152 0.00003 0.412 0 1.132 0.13907 1.217 1.1435 0.086 1.0045-0.875 3.1744-0.875 3.1744l-2.169-1.329z" style="stroke-width:.98225;fill-rule:evenodd;stroke:url(#linearGradient3404);enable-background:new;fill:url(#radialGradient4159)"/><path id="path3369" d="m9.4728 1c-0.153 0-0.5557 0.2083-0.4576 0.7083s0.2813 1.2917 0.5498 1.2917h1.906c0.211 0 0.445-0.6667 0.519-1.1667 0.073-0.5-0.272-0.8333-0.425-0.8333h-2.0922z" style="fill-rule:evenodd;enable-background:new;fill:url(#radialGradient4156)"/><path id="path15945" d="m4.689 4.5075h1.622c1.8778 0 4.182 0.5686 4.182 0.801v9.7655c0 0.232-0.191 0.419-0.429 0.419h-9.1282c-0.23774 0-0.4291-0.187-0.4291-0.419v-9.7655c0-0.2324 2.2656-0.801 4.1823-0.801z" style="stroke-width:1.0143;fill-rule:evenodd;stroke:#949494;enable-background:new;fill:url(#linearGradient4197)"/><path id="path15947" d="m4.8515 5.5072h1.297c1.5015 0 3.3443 0.5796 3.3443 0.5796v8.4062h-7.9856v-8.4062s1.8116-0.5796 3.3443-0.5796z" style="opacity:.26316;stroke-linejoin:round;stroke-width:1.0145;stroke:url(#radialGradient4194);enable-background:new;fill:none"/><path id="path15949" d="m5.4855 5.5017s-0.9838 2.0569-0.9838 2.839v5.4523l1.0417 1.205 0.9549-1.205v-5.526c0-0.73-1.0128-2.7653-1.0128-2.7653z" style="stroke-width:1.0033;fill-rule:evenodd;stroke:#414141;enable-background:new;fill:url(#linearGradient4191)"/><path id="path15951" d="m6.4964 6.5c0.0002 0.5502-0.446 0.9964-0.9964 0.9964s-0.9966-0.4462-0.9964-0.9964c-0.0002-0.5502 0.446-0.9964 0.9964-0.9964s0.9966 0.4462 0.9964 0.9964z" style="stroke-width:1.0072;fill-rule:evenodd;stroke:#414141;enable-background:new;fill:url(#radialGradient4188)"/><path id="path15953" d="m5.4592 5.48l-2.169 1.329s-0.7991-2.2466-0.7991-3.1125c0-0.8654 0.5708-1.2054 1.1797-1.2054h3.615c0.4118 0 1.1321 0.1391 1.2177 1.1435 0.0856 1.0045-0.8752 3.1744-0.8752 3.1744l-2.1691-1.329z" style="stroke-width:.98225;fill-rule:evenodd;stroke:#949494;enable-background:new;fill:url(#radialGradient4185)"/><path id="path15955" d="m4.4728 3c-0.153 0-0.5557 0.2083-0.4576 0.7083s0.1813 1.2917 0.4498 1.2917h2.106c0.2113 0 0.3453-0.6667 0.4189-1.1667 0.0735-0.5-0.272-0.8333-0.425-0.8333h-2.0921z" style="fill-rule:evenodd;enable-background:new;fill:url(#radialGradient4182)"/></g></svg>