<svg xmlns="http://www.w3.org/2000/svg" xmlns:svg="http://www.w3.org/2000/svg" xmlns:xlink="http://www.w3.org/1999/xlink" id="svg5224" width="16" height="16" version="1.1"><defs id="defs5226"><linearGradient id="linearGradient5058" x1="102" x2="102" y1="995.362" y2="1030.362" gradientTransform="translate(1.3490606e-5,-22.979153)" gradientUnits="userSpaceOnUse" xlink:href="#linearGradient4025"/><linearGradient id="linearGradient4025"><stop style="stop-color:#b3b3b3;stop-opacity:1" id="stop4027" offset="0"/><stop style="stop-color:#737373;stop-opacity:1" id="stop4029" offset="1"/></linearGradient><linearGradient id="linearGradient5060" x1="90" x2="90" y1="1000.597" y2="1005.362" gradientTransform="translate(0.49999978,0)" gradientUnits="userSpaceOnUse" xlink:href="#linearGradient4022-1"/><linearGradient id="linearGradient4022-1"><stop id="stop4024-2" offset="0" style="stop-color:#f0c077;stop-opacity:1"/><stop id="stop4026-6" offset="1" style="stop-color:#df841e;stop-opacity:1"/></linearGradient><linearGradient id="linearGradient5068" x1="95" x2="105" y1="1010.362" y2="1035.362" gradientTransform="matrix(0.97305528,0,0,0.93131269,2.802258,70.978836)" gradientUnits="userSpaceOnUse" xlink:href="#linearGradient4033"/><linearGradient id="linearGradient4033"><stop style="stop-color:#bfbfbf;stop-opacity:1" id="stop4035" offset="0"/><stop style="stop-color:#8e8e8e;stop-opacity:1" id="stop4037" offset="1"/></linearGradient><linearGradient id="linearGradient5070" x1="89.381" x2="89.381" y1="467.78" y2="490.596" gradientTransform="matrix(1.0263159,0,0,0.94295125,-1.7248809,568.48722)" gradientUnits="userSpaceOnUse" xlink:href="#linearGradient4100-0"/><linearGradient id="linearGradient4100-0"><stop style="stop-color:#fff;stop-opacity:1" id="stop4102-52" offset="0"/><stop style="stop-color:#fff;stop-opacity:0" id="stop4104-3" offset="1"/></linearGradient><linearGradient id="linearGradient5072" x1="104" x2="142" y1="1033.362" y2="1033.362" gradientTransform="matrix(0.97305528,0,0,1.0141456,2.802258,-14.617573)" gradientUnits="userSpaceOnUse" spreadMethod="reflect" xlink:href="#linearGradient4100-0"/><radialGradient id="radialGradient5074" cx="203.5" cy="30.5" r="11.5" fx="203.5" fy="30.5" gradientTransform="matrix(1,0,0,0.13043478,0,26.521739)" gradientUnits="userSpaceOnUse" xlink:href="#linearGradient4563-4-4"/><linearGradient id="linearGradient4563-4-4"><stop style="stop-color:#fff;stop-opacity:1" id="stop4565-8-9" offset="0"/><stop style="stop-color:#fff;stop-opacity:0" id="stop4567-0-0" offset="1"/></linearGradient><linearGradient id="linearGradient5078" x1="103.701" x2="103.701" y1="1018.316" y2="1028.026" gradientTransform="matrix(1.0263159,0,0,1,-2.7368519,-24)" gradientUnits="userSpaceOnUse" xlink:href="#linearGradient4147"/><linearGradient id="linearGradient4147"><stop style="stop-color:#000;stop-opacity:1" id="stop4149" offset="0"/><stop style="stop-color:#000;stop-opacity:0" id="stop4151" offset="1"/></linearGradient><linearGradient id="linearGradient5080" x1="104" x2="104" y1="480.25" y2="485.25" gradientTransform="matrix(1.0263159,0,0,0.8,-2.7368519,612.16218)" gradientUnits="userSpaceOnUse" xlink:href="#linearGradient2494"/><linearGradient id="linearGradient2494" x1="62.989" x2="62.989" y1="13.183" y2="16.19" gradientTransform="matrix(0.64168,0,0,0.6402,137.4476,1016.4143)" gradientUnits="userSpaceOnUse"><stop id="stop6406" offset="0" style="stop-color:#f9f9f9"/><stop id="stop6408" offset="1" style="stop-color:#c9c9c9"/></linearGradient></defs><metadata id="metadata5229"/><g id="layer1" transform="translate(-334.85715,-781.50504)"><g id="16" transform="matrix(0.33333332,0,0,0.33333332,308.19048,460.05099)" style="display:inline"><rect style="opacity:.5;fill:#000;fill-opacity:1;stroke:none;display:inline" id="rect5000-4" width="36" height="18" x="86" y="994.362" ry=".825"/><rect style="opacity:.2;fill:#000;fill-opacity:1;stroke:none" id="rect5086" width="42" height="39" x="83" y="970.362" ry="3"/><rect id="rect4966" width="42" height="39" x="83" y="967.362" ry="3" style="fill:url(#linearGradient5058);fill-opacity:1;stroke:none"/><rect id="rect4968" width="36" height="33" x="86" y="970.362" ry="1" style="fill:#1a1a1a;fill-opacity:1;stroke:none"/><rect style="fill:#4e1c04;fill-opacity:1;stroke:none;display:inline" id="rect4972" width="25.2" height="5.1" x="91.4" y="970.383" ry="1.319"/><rect id="rect4974" width="30" height="6" x="89" y="973.362" ry="1.333" style="fill:#c44d22;fill-opacity:1;stroke:none;display:inline"/><rect id="rect4976" width="48" height="48" x="80" y="272" transform="translate(0,692.36218)" style="opacity:.2;fill:none;stroke:none"/><g id="g4982" transform="matrix(1.4999995,0,0,1.3333334,-45.249931,-360.76667)" style="display:inline"><path style="fill:url(#linearGradient5060);fill-opacity:1;stroke:none" id="path4984" d="m 88.5,1000.5966 c -0.553998,0 -1,0.446 -1,1 l 0,5.7656 0.8125,0 10.1875,0 12.9495,0 0,-3.4505 c 0,-0.554 -0.446,-1 -1,-1 l -13.092359,-0.065 -2.142857,-2.25 z"/><rect id="rect4986" width="24" height="9" x="87.5" y="464.734" ry="1" transform="translate(0,540.36218)" style="fill:#db5d09;fill-opacity:1;stroke:none"/><rect style="fill:#f2f2f2;fill-opacity:1;stroke:none" id="rect4990" width="19.119" height="2.25" x="89.94" y="1005.097"/></g><rect style="opacity:.3;color:#000;fill:#000;fill-opacity:1;fill-rule:nonzero;stroke:none;stroke-width:1;marker:none;visibility:visible;display:inline;overflow:visible;enable-background:accumulate" id="rect5082" width="3" height="21" x="86" y="973.362"/><rect id="rect5084" width="3" height="21" x="119" y="973.362" style="opacity:.3;color:#000;fill:#000;fill-opacity:1;fill-rule:nonzero;stroke:none;stroke-width:1;marker:none;visibility:visible;display:inline;overflow:visible;enable-background:accumulate"/><g id="g4992" transform="matrix(0.97360239,0,0,0.88593218,2.745356,93.873325)"><path style="fill:#dcdcdc;fill-opacity:1;stroke:none" id="path4998" d="m 86.971551,1006.2721 c -0.767191,0 -0.772887,0.7313 -1.125094,2.2266 -0.215778,0.9158 -0.325318,1.3344 -0.334488,2.8627 l 18.488031,0 18.48803,0 c -0.009,-1.5283 -0.11872,-1.9469 -0.33448,-2.8627 -0.35221,-1.4953 -0.35791,-2.2266 -1.1251,-2.2266 l -17.02845,0 -17.028449,0 z"/><rect style="fill:url(#linearGradient5068);fill-opacity:1;stroke:none" id="rect5000" width="36.976" height="23.704" x="85.512" y="1009.658" ry=".931"/><path id="path5002" d="m 86.538285,1009.5814 c -0.568578,0 -1.026316,0.4205 -1.026316,0.9429 l 0,21.895 c 0,0.5223 0.457738,0.9429 1.026316,0.9429 l 16.613485,0 -9.749997,-23.7808 z" style="opacity:.1;fill:url(#linearGradient5070);fill-opacity:1;stroke:none"/><path id="path5004" d="m 85.51195,1029.0958 0,3.2523 c 0,0.5618 0.433984,1.0141 0.973056,1.0141 l 35.029994,0 c 0.53906,0 0.97305,-0.4523 0.97305,-1.0141 l 0,-3.2523 c 0,0.5619 -0.43399,1.0142 -0.97305,1.0142 l -35.029994,0 c -0.539072,0 -0.973056,-0.4523 -0.973056,-1.0142 z" style="opacity:.3;fill:url(#linearGradient5072);fill-opacity:1;stroke:none"/><path style="opacity:.6;color:#000;fill:url(#radialGradient5074);fill-opacity:1;fill-rule:nonzero;stroke:none;stroke-width:1;marker:none;visibility:visible;display:inline;overflow:visible;enable-background:accumulate" id="path5006" d="m 215,30.5 c 0,0.828427 -5.14873,1.5 -11.5,1.5 -6.35127,0 -11.5,-0.671573 -11.5,-1.5 0,-0.828427 5.14873,-1.5 11.5,-1.5 6.35127,0 11.5,0.671573 11.5,1.5 z" transform="matrix(0.94985197,0,0,1.182751,-84.317312,971.86863)"/></g><g id="g5008" transform="matrix(1.0499999,0,0,1,-5.1999898,-1.9791528)"><rect id="rect5012" width="17.143" height="12" x="95.429" y="993.341" ry="1" style="opacity:.3;fill:url(#linearGradient5078);fill-opacity:1;stroke:none"/><rect id="rect5014" width="11.429" height="6" x="98.286" y="999.341" rx=".513" style="opacity:.3;fill:#000;fill-opacity:1;stroke:none"/><rect style="fill:url(#linearGradient5080);fill-opacity:1;stroke:none" id="rect5016" width="11.429" height="6" x="98.286" y="996.341" rx=".513"/></g></g></g></svg>