<svg xmlns="http://www.w3.org/2000/svg" xmlns:xlink="http://www.w3.org/1999/xlink" id="svg3380" width="16" height="16" version="1.0"><defs id="defs3382"><linearGradient id="linearGradient3009" x1="44.995" x2="3.005" y1="17.5" y2="17.5" gradientTransform="matrix(.36595 0 0 .36097 -.78280 -.81698)" gradientUnits="userSpaceOnUse" spreadMethod="reflect"><stop id="stop3277" offset="0" style="stop-color:#fff;stop-opacity:0"/><stop id="stop3283" offset=".245" style="stop-color:#fff"/><stop id="stop3285" offset=".773" style="stop-color:#fff"/><stop id="stop3279" offset="1" style="stop-color:#fff;stop-opacity:0"/></linearGradient><linearGradient id="linearGradient3052" x1="26" x2="26" y1="22" y2="8" gradientTransform="matrix(0.5 0 0 0.5 -4 -3)" gradientUnits="userSpaceOnUse"><stop id="stop3056" offset="0" style="stop-color:#fff"/><stop id="stop3058" offset=".295" style="stop-color:#fff"/><stop id="stop3060" offset=".434" style="stop-color:#fff;stop-opacity:.6902"/><stop id="stop3062" offset="1" style="stop-color:#fff;stop-opacity:0"/></linearGradient><linearGradient id="linearGradient3015" x1="23.452" x2="43.007" y1="30.555" y2="45.934" gradientTransform="matrix(.46923 0 0 .42403 -3.0042 -3.4756)" gradientUnits="userSpaceOnUse"><stop id="stop4561" offset="0" style="stop-color:#fff;stop-opacity:0"/><stop id="stop4563" offset="1" style="stop-color:#fff;stop-opacity:0"/></linearGradient><linearGradient id="linearGradient3020" x1="15.464" x2="15.464" y1="7.976" y2="45.042" gradientTransform="matrix(.36595 0 0 .36097 -.78280 -1.5613)" gradientUnits="userSpaceOnUse"><stop id="stop3024" offset="0" style="stop-color:#c9af8b"/><stop id="stop3026" offset=".28" style="stop-color:#ad8757"/><stop id="stop3028" offset=".357" style="stop-color:#c2a57f"/><stop id="stop3030" offset="1" style="stop-color:#9d7d53"/></linearGradient><linearGradient id="linearGradient3018" x1="24.823" x2="24.997" y1="15.378" y2="37.277" gradientTransform="matrix(.46923 0 0 .56213 -3.0042 -7.0808)" gradientUnits="userSpaceOnUse"><stop id="stop3034" offset="0" style="stop-color:#dac197"/><stop id="stop3036" offset=".284" style="stop-color:#c1a581"/><stop id="stop3038" offset=".36" style="stop-color:#dbc298"/><stop id="stop3040" offset="1" style="stop-color:#a68b60"/></linearGradient><linearGradient id="linearGradient2581" x1="28.315" x2=".816" y1="20.71" y2="20.71" gradientTransform="matrix(0 -.21372 -.20965 0 16.377 15.892)" gradientUnits="userSpaceOnUse"><stop id="stop2266" offset="0" style="stop-color:#d7e866"/><stop id="stop2268" offset="1" style="stop-color:#8cab2a"/></linearGradient><linearGradient id="linearGradient3378" x1="11.223" x2="11.223" y1="7.001" y2="14.492" gradientUnits="userSpaceOnUse"><stop id="stop3374" offset="0" style="stop-color:#fff"/><stop id="stop3376" offset="1" style="stop-color:#fff;stop-opacity:0"/></linearGradient></defs><g id="layer1"><g id="g3426"><path id="path2488" d="m2.5147 1.5069h10.794c0.631 0 0.914-0.1034 1.095 0.361l1.099 3.6321v8.523c0 0.561 0.037 0.475-0.593 0.475h-13.82c-0.63028 0-0.59261 0.086-0.59261-0.475v-8.523l1.0985-3.6321c0.1759-0.455 0.2886-0.361 0.9188-0.361z" style="stroke:url(#linearGradient3020);stroke-linecap:round;stroke-width:.9942;display:block;fill:url(#linearGradient3018)"/><path id="path2490" d="m2.8577 1.8726h10.119c0.591 0 0.957 0.2009 1.204 0.753l0.852 2.3173v8.3541c0 0.528-0.299 0.793-0.89 0.793h-12.345c-0.5904 0-0.83138-0.292-0.83138-0.819v-8.3281l0.82478-2.367c0.165-0.4279 0.4756-0.7033 1.0663-0.7033z" style="opacity:.50549;stroke:url(#linearGradient3015);stroke-width:.74212;display:block;fill:none"/><path id="rect3326" d="m7 1h2v7h-2v-7z" style="opacity:.4;fill:url(#linearGradient3052)"/><path id="path3273" d="m0.49994 5.5h15" style="opacity:.4;stroke:url(#linearGradient3009);stroke-linecap:square;stroke-width:1px;fill:none"/></g><path id="path3288" d="m15.501 10.5l-4.501 5.001-4.5-5.001h2v-4h5v4h2.001z" style="stroke-linejoin:round;stroke:#699536;stroke-linecap:round;stroke-width:.99829;fill:url(#linearGradient2581)"/><path id="path3362" d="m13.323 11.5l-2.323 2.493-2.2941-2.493h0.7941v-4h3v4h0.823z" style="opacity:.4;stroke:url(#linearGradient3378);stroke-linecap:round;stroke-width:.998;fill:none"/></g></svg>