<svg xmlns="http://www.w3.org/2000/svg" xmlns:svg="http://www.w3.org/2000/svg" xmlns:xlink="http://www.w3.org/1999/xlink" id="svg2" width="16" height="16" version="1.0"><defs id="defs4"><linearGradient id="linearGradient6457"><stop id="stop6459" offset="0" style="stop-color:white;stop-opacity:.94117647"/><stop id="stop6461" offset="1" style="stop-color:white;stop-opacity:.70588237"/></linearGradient><linearGradient id="linearGradient2781"><stop id="stop2783" offset="0" style="stop-color:#505050;stop-opacity:1"/><stop id="stop6301" offset=".132" style="stop-color:#6e6e6e;stop-opacity:1"/><stop id="stop2785" offset="1" style="stop-color:#8c8c8c;stop-opacity:1"/></linearGradient><linearGradient id="linearGradient4222"><stop id="stop4224" offset="0" style="stop-color:white;stop-opacity:1"/><stop id="stop4226" offset="1" style="stop-color:white;stop-opacity:0"/></linearGradient><linearGradient id="linearGradient2864" x1="24" x2="24" y1="13" y2="40" gradientTransform="matrix(0.368421,0,0,0.3333334,-0.8421051,0.6666664)" gradientUnits="userSpaceOnUse" xlink:href="#linearGradient6457"/><linearGradient id="linearGradient2867" x1="15.461" x2="15.461" y1="8.291" y2="17.958" gradientTransform="matrix(0.4193406,0,0,0.4137778,-2.4835146,-2.4306718)" gradientUnits="userSpaceOnUse" xlink:href="#linearGradient4222"/><linearGradient id="linearGradient2870" x1="21.866" x2="21.78" y1="8.576" y2="39.924" gradientTransform="matrix(0.4545362,0,0,0.4590071,-3.3634134,-3.6309208)" gradientUnits="userSpaceOnUse" xlink:href="#linearGradient2781"/><linearGradient id="linearGradient7839"><stop id="stop7841" offset="0" style="stop-color:white;stop-opacity:1"/><stop id="stop7843" offset="1" style="stop-color:black;stop-opacity:1"/></linearGradient><linearGradient id="linearGradient3950"><stop id="stop3952" offset="0" style="stop-color:#eeeeec;stop-opacity:1"/><stop id="stop3954" offset="1" style="stop-color:white;stop-opacity:1"/></linearGradient><linearGradient id="linearGradient3958"><stop id="stop3960" offset="0" style="stop-color:#555753;stop-opacity:1"/><stop id="stop3962" offset="1" style="stop-color:#888a85;stop-opacity:1"/></linearGradient><linearGradient id="linearGradient3969"><stop id="stop3971" offset="0" style="stop-color:white;stop-opacity:1"/><stop id="stop3973" offset="1" style="stop-color:white;stop-opacity:0"/></linearGradient><radialGradient id="radialGradient6621" cx="307.658" cy="223.93" r="2.27" fx="307.658" fy="223.93" gradientTransform="matrix(1.9522293,-1.9522293,1.4892817,1.4892819,-626.26973,490.96044)" gradientUnits="userSpaceOnUse" xlink:href="#linearGradient3969"/><linearGradient id="linearGradient6674" x1="314.093" x2="315.013" y1="230.782" y2="229.862" gradientUnits="userSpaceOnUse" xlink:href="#linearGradient3950"/><linearGradient id="linearGradient6676" x1="312.813" x2="311" y1="234.125" y2="220.601" gradientUnits="userSpaceOnUse" xlink:href="#linearGradient3958"/><linearGradient id="linearGradient6687" x1="312.996" x2="314.397" y1="1137.936" y2="1140" gradientTransform="translate(-0.9375,-910.94071)" gradientUnits="userSpaceOnUse" xlink:href="#linearGradient7839"/><mask id="mask6683"><rect id="rect6685" width="16" height="16" x="299.063" y="213.059" style="fill:url(#linearGradient6687);fill-opacity:1;fill-rule:nonzero;stroke:none;visibility:visible;display:inline"/></mask></defs><rect id="rect1887" width="15" height="14" x=".5" y=".5" style="fill:url(#linearGradient2870);fill-opacity:1;stroke:#565853;stroke-width:1.00028801;stroke-linejoin:round;stroke-miterlimit:4;stroke-opacity:1;stroke-dasharray:none"/><rect id="rect2779" width="13" height="12" x="1.5" y="1.5" style="opacity:.2;fill:none;stroke:url(#linearGradient2867);stroke-width:1.00044096;stroke-miterlimit:4;stroke-opacity:1;stroke-dasharray:none"/><rect id="rect6287" width="14" height="9" x="1" y="5" style="fill:url(#linearGradient2864);fill-opacity:1;stroke:none"/><path id="path6293" d="M 14,3.2500003 C 14.000178,3.664161 13.664339,4 13.25,4 12.835658,4 12.499819,3.664161 12.5,3.2500003 12.499819,2.8358394 12.835658,2.5 13.25,2.5 c 0.414339,0 0.750178,0.3358394 0.75,0.7500003 l 0,0 z" style="fill:#ffc24c;fill-opacity:1;stroke:none"/><path id="path6302" d="M 12,3.2500003 C 12.000178,3.664161 11.664339,4 11.25,4 10.835658,4 10.499819,3.664161 10.5,3.2500003 10.499819,2.8358394 10.835658,2.5 11.25,2.5 c 0.414339,0 0.750178,0.3358394 0.75,0.7500003 l 0,0 z" style="fill:#ffc24c;fill-opacity:1;stroke:none"/><path id="path6304" d="M 10,3.2500003 C 10.000178,3.664161 9.6643391,4 9.2500001,4 8.8356581,4 8.4998191,3.664161 8.5000001,3.2500003 8.4998191,2.8358394 8.8356581,2.5 9.2500001,2.5 9.6643391,2.5 10.000178,2.8358394 10,3.2500003 l 0,0 z" style="fill:#ffc24c;fill-opacity:1;stroke:none"/><g id="g7817" mask="url(#mask6683)" transform="translate(-298.05823,-212.99489)" style="display:inline;enable-background:new"><path id="path3935" d="m 306.75,219.5 c -0.37511,0.0471 -0.77839,0.25308 -1.1875,0.65625 l 1.71875,1.6875 c 0.3584,0.36046 0.34912,0.93023 0,1.28125 l -0.125,0.125 c -0.34912,0.35106 -0.92283,0.36044 -1.28125,0 l -1.6875,-1.6875 c -1.15661,1.13978 -0.64599,2.06839 0.125,2.84375 l 0.46875,0.46875 c 0.73274,0.7369 1.86697,0.81164 2.6875,0.21875 l 5.4375,5.4375 1.625,-1.62505 -5.4375,-5.4375 c 0.59284,-0.82529 0.54644,-1.98062 -0.1875,-2.71875 l -0.46875,-0.5 c -0.48639,-0.48917 -1.06232,-0.82854 -1.6875,-0.75 l 0,5e-5 z" style="fill:url(#linearGradient6674);fill-opacity:1;fill-rule:evenodd;stroke:url(#linearGradient6676);stroke-width:.89999998;stroke-linecap:round;stroke-linejoin:round;stroke-miterlimit:4;stroke-opacity:1;stroke-dasharray:none;stroke-dashoffset:.3612;display:inline;enable-background:new"/><path id="path3967" d="m 305.21569,223.99896 c 1.74834,1.52344 4.48908,-1.00133 2.72395,-2.92439" style="fill:none;stroke:url(#radialGradient6621);stroke-width:1px;stroke-linecap:butt;stroke-linejoin:miter;stroke-opacity:1;display:inline;enable-background:new"/></g></svg>