<svg xmlns="http://www.w3.org/2000/svg" xmlns:xlink="http://www.w3.org/1999/xlink" id="svg2907" width="16" height="16" version="1.1"><metadata id="metadata39"/><defs id="defs2909"><linearGradient id="linearGradient3009" x1="44.995" x2="3.005" y1="17.5" y2="17.5" gradientTransform="matrix(.36595 0 0 .36097 -.78280 -.81698)" gradientUnits="userSpaceOnUse" spreadMethod="reflect"><stop id="stop3277" offset="0" style="stop-color:#fff;stop-opacity:0"/><stop id="stop3283" offset=".245" style="stop-color:#fff"/><stop id="stop3285" offset=".773" style="stop-color:#fff"/><stop id="stop3279" offset="1" style="stop-color:#fff;stop-opacity:0"/></linearGradient><linearGradient id="linearGradient3015" x1="23.452" x2="43.007" y1="30.555" y2="45.934" gradientTransform="matrix(.46923 0 0 .42403 -3.0042 -3.4756)" gradientUnits="userSpaceOnUse"><stop id="stop4561" offset="0" style="stop-color:#fff;stop-opacity:0"/><stop id="stop4563" offset="1" style="stop-color:#fff;stop-opacity:0"/></linearGradient><linearGradient id="linearGradient3018" x1="24.823" x2="24.997" y1="15.378" y2="37.277" gradientTransform="matrix(.46923 0 0 .56213 -3.0042 -7.0808)" gradientUnits="userSpaceOnUse"><stop id="stop3034" offset="0" style="stop-color:#dac197"/><stop id="stop3036" offset=".284" style="stop-color:#c1a581"/><stop id="stop3038" offset=".36" style="stop-color:#dbc298"/><stop id="stop3040" offset="1" style="stop-color:#a68b60"/></linearGradient><linearGradient id="linearGradient3020" x1="15.464" x2="15.464" y1="7.976" y2="45.042" gradientTransform="matrix(.36595 0 0 .36097 -.78280 -1.5613)" gradientUnits="userSpaceOnUse"><stop id="stop3024" offset="0" style="stop-color:#c9af8b"/><stop id="stop3026" offset=".28" style="stop-color:#ad8757"/><stop id="stop3028" offset=".357" style="stop-color:#c2a57f"/><stop id="stop3030" offset="1" style="stop-color:#9d7d53"/></linearGradient><linearGradient id="linearGradient3052" x1="26" x2="26" y1="22" y2="8" gradientTransform="matrix(0.5 0 0 0.5 -4 -3)" gradientUnits="userSpaceOnUse"><stop id="stop3056" offset="0" style="stop-color:#fff"/><stop id="stop3058" offset=".295" style="stop-color:#fff"/><stop id="stop3060" offset=".434" style="stop-color:#fff;stop-opacity:.6902"/><stop id="stop3062" offset="1" style="stop-color:#fff;stop-opacity:0"/></linearGradient><radialGradient id="radialGradient3088" cx="69.448" cy="51.695" r="31" gradientTransform="matrix(0 .25031 -.27259 0 25.245 -8.0767)" gradientUnits="userSpaceOnUse"><stop id="stop3244-5" offset="0" style="stop-color:#eef87e"/><stop id="stop3246-9" offset=".262" style="stop-color:#cde34f"/><stop id="stop3248-7" offset=".661" style="stop-color:#93b723"/><stop id="stop3250-8" offset="1" style="stop-color:#5a7e0d"/></radialGradient><linearGradient id="linearGradient3090" x1="72.422" x2="72.422" y1="124.76" y2="51.244" gradientTransform="matrix(.10408 0 0 .10482 2.8406 2.7754)" gradientUnits="userSpaceOnUse"><stop id="stop2492-3" offset="0" style="stop-color:#365f0e"/><stop id="stop2494-8" offset="1" style="stop-color:#84a718"/></linearGradient></defs><g id="layer1"><path id="path2488" d="m2.5147 1.5069h10.795c0.63016 0 0.91375-0.10344 1.0948 0.36097l1.098 3.6321v8.5232c0 0.5607 0.03767 0.47503-0.5925 0.47503h-13.82c-0.63016 0-0.5925 0.08566-0.5925-0.47503v-8.5232l1.0985-3.6321c0.17596-0.45503 0.28864-0.36097 0.9188-0.36097z" style="stroke:url(#linearGradient3020);stroke-linecap:round;stroke-width:.9942;display:block;fill:url(#linearGradient3018)"/><path id="path2490" d="m2.8577 1.8726h10.12c0.59075 0 0.95637 0.2009 1.2038 0.753l0.85228 2.3173v8.3545c0 0.52726-0.29962 0.79272-0.89038 0.79272h-12.345c-0.59075 0-0.83172-0.29196-0.83172-0.81922v-8.328l0.82478-2.367c0.16496-0.42789 0.47559-0.70331 1.0663-0.70331z" style="opacity:.50549;stroke:url(#linearGradient3015);stroke-width:.74212;display:block;fill:none"/><path id="rect3326" d="m7 1h2v7h-2v-7z" style="opacity:.4;fill:url(#linearGradient3052)"/><path id="path3273" d="m0.49994 5.5h15" style="opacity:.4;stroke:url(#linearGradient3009);stroke-linecap:square;stroke-width:1px;fill:none"/></g><path id="path2262" d="m10.5 10.5v-2.0073h3v2.0073h2.0073v3h-2.0073v2.0073h-3v-2.0073h-2.0073v-3h2.0073z" style="stroke-linejoin:round;stroke-width:.98543;color:#000;stroke:url(#linearGradient3090);stroke-linecap:round;fill:url(#radialGradient3088)"/></svg>