<svg xmlns="http://www.w3.org/2000/svg" xmlns:xlink="http://www.w3.org/1999/xlink" id="svg2486" width="16" height="16" version="1.0"><defs id="defs2488"><linearGradient id="linearGradient2484" x1="18.379" x2="18.379" y1="44.98" y2="3.082" gradientTransform="matrix(.36857 0 0 .36857 -.84577 -.84577)" gradientUnits="userSpaceOnUse"><stop id="stop2492" offset="0" style="stop-color:#791235"/><stop id="stop2494" offset="1" style="stop-color:#dd3b27"/></linearGradient><radialGradient id="radialGradient2482" cx="23.896" cy="3.99" r="20.397" gradientTransform="matrix(0 .87966 -1.1611 0 12.633 -21.084)" gradientUnits="userSpaceOnUse"><stop id="stop3244" offset="0" style="stop-color:#f8b17e"/><stop id="stop3246" offset=".262" style="stop-color:#e35d4f"/><stop id="stop3248" offset=".661" style="stop-color:#c6262e"/><stop id="stop3250" offset="1" style="stop-color:#690b54"/></radialGradient><linearGradient id="linearGradient2479" x1="63.397" x2="63.397" y1="-12.489" y2="5.468" gradientTransform="matrix(.74324 0 0 .74322 -38.23 10.609)" gradientUnits="userSpaceOnUse"><stop id="stop4875" offset="0" style="stop-color:#fff"/><stop id="stop4877" offset="1" style="stop-color:#fff;stop-opacity:0"/></linearGradient><linearGradient id="linearGradient2476" x1="7.832" x2="18.678" y1="10.936" y2="10.936" gradientTransform="matrix(.66608 0 0 .76587 -.57080 -.57080)" gradientUnits="userSpaceOnUse"><stop id="stop2434" offset="0" style="stop-color:#fff"/><stop id="stop2436" offset="1" style="stop-color:#fff;stop-opacity:0"/></linearGradient></defs><g id="layer1"><path id="path2555" d="m8 0.50183c-4.1372 0-7.4982 3.3609-7.4982 7.4982 0 4.1372 3.3609 7.4982 7.4982 7.4982 4.1372 0 7.4982-3.3609 7.4982-7.4982 0-4.1372-3.3609-7.4982-7.4982-7.4982zm0 2.4072c2.8128 0 5.0909 2.2782 5.0909 5.0909 0 1.1805-0.40902 2.2581-1.0827 3.1214l-6.4498-7.59c0.7247-0.3965 1.5571-0.6219 2.4418-0.6219zm-4.0773 2.0503 6.4273 7.5557c-0.70294 0.36622-1.5018 0.5759-2.3497 0.5759-2.8128 0-5.0909-2.2782-5.0909-5.0909 0-1.1427 0.37851-2.1914 1.0136-3.0407z" style="stroke-linejoin:round;stroke:url(#linearGradient2484);stroke-linecap:round;stroke-width:1.0037;fill:url(#radialGradient2482)"/><path id="path2463" d="m14.5 7.9998c0 3.5902-2.91 6.5002-6.4999 6.5002s-6.5001-2.91-6.5001-6.5002c0-3.5898 2.9102-6.4998 6.5001-6.4998 3.5896 0 6.4999 2.91 6.4999 6.4998z" style="opacity:.4;stroke:url(#linearGradient2479);fill:none"/><path id="path3270" d="m4.8518 4.2102 6.3842 7.4918" style="opacity:.4;stroke:url(#linearGradient2476);stroke-linecap:round;stroke-width:1px;fill:none"/></g><path id="path13696" d="m15.564 2.2735-3.3281 2.2535 3.2958-0.023234 0.03232 1.9603h-6.9712v-1.7339l3.4073-2.2698h-3.4396v-1.984h6.9865l0.01704 1.7972z" style="stroke:#356ca0;fill:#7da5ca"/></svg>