<svg xmlns="http://www.w3.org/2000/svg" xmlns:svg="http://www.w3.org/2000/svg" id="svg7739" width="16" height="16" version="1.1"><g id="layer1" transform="matrix(0.70713984,-0.70707372,0.70707372,0.70713984,-2.5067945,13.084594)"><path id="path7783" d="m -445.44776,961.79789 a 4.0298181,4.0298181 0 1 1 2.79145,0.0245" transform="matrix(1.1022302,0,0,1.1266729,500.411,-1078.2878)" style="color:#000;fill:none;stroke:#606060;stroke-width:1.00000167;stroke-linecap:round;stroke-linejoin:miter;stroke-miterlimit:4;stroke-opacity:1;stroke-dasharray:none;stroke-dashoffset:0;marker:none;visibility:visible;display:inline;overflow:visible;enable-background:accumulate"/><path id="path7793" d="m 9.5,5.5 0,4.968751 1.1,3.031249 3,-3 L 12.141043,9.687501 14,7.5 12.5,6.156 l 0,-0.5" style="color:#000;fill:none;stroke:#606060;stroke-width:1;stroke-linecap:round;stroke-linejoin:round;stroke-miterlimit:4;stroke-opacity:1;stroke-dasharray:none;stroke-dashoffset:0;marker:none;visibility:visible;display:inline;overflow:visible;enable-background:accumulate"/><path id="path7795" d="m -443.14996,955.8125 a 0.53754,0.53754 0 1 1 -1.07508,0 0.53754,0.53754 0 1 1 1.07508,0 z" transform="matrix(1.0000276,0,0,1.0000314,454.7373,-955.84207)" style="color:#000;fill:none;stroke:#606060;stroke-width:.9999705;stroke-linecap:round;stroke-linejoin:miter;stroke-miterlimit:4;stroke-opacity:1;stroke-dasharray:none;stroke-dashoffset:0;marker:none;visibility:visible;display:inline;overflow:visible;enable-background:accumulate"/></g></svg>