<svg xmlns="http://www.w3.org/2000/svg" xmlns:xlink="http://www.w3.org/1999/xlink" id="svg2403" width="16" height="16" version="1.0"><defs id="defs2405"><linearGradient id="linearGradient2401" x1="108.26" x2="25.818" y1="110.28" y2="14.029" gradientTransform="matrix(.16888 0 0 .12684 -19.447 -16.156)" gradientUnits="userSpaceOnUse"><stop id="stop3802" offset="0" style="stop-color:#fff"/><stop id="stop3804" offset="1" style="stop-color:#e0e0e0"/></linearGradient><linearGradient id="linearGradient2398" x1="-24.032" x2="-24.098" y1="-13.091" y2="-40.164" gradientTransform="matrix(.31429 0 0 .33333 -.45486 .99818)" gradientUnits="userSpaceOnUse"><stop id="stop3796" offset="0" style="stop-color:#333"/><stop id="stop3798" offset="1" style="stop-color:#292929"/></linearGradient><linearGradient id="linearGradient2396" x1="28.938" x2="105.37" y1="17.333" y2="92.824" gradientTransform="matrix(.13844 0 0 .11410 -17.409 -14.556)" gradientUnits="userSpaceOnUse"><stop id="stop3790" offset="0" style="stop-color:#262626"/><stop id="stop3792" offset="1" style="stop-color:#828282"/></linearGradient><linearGradient id="linearGradient2476" x1="7.832" x2="18.678" y1="10.936" y2="10.936" gradientTransform="matrix(.66608 0 0 .76587 -.57080 -.57080)" gradientUnits="userSpaceOnUse"><stop id="stop2434" offset="0" style="stop-color:#fff"/><stop id="stop2436" offset="1" style="stop-color:#fff;stop-opacity:0"/></linearGradient><linearGradient id="linearGradient2479" x1="63.397" x2="63.397" y1="-12.489" y2="5.468" gradientTransform="matrix(.74324 0 0 .74322 -38.23 10.609)" gradientUnits="userSpaceOnUse"><stop id="stop4875" offset="0" style="stop-color:#fff"/><stop id="stop4877" offset="1" style="stop-color:#fff;stop-opacity:0"/></linearGradient><radialGradient id="radialGradient2482" cx="23.896" cy="3.99" r="20.397" gradientTransform="matrix(0 .87966 -1.1611 0 12.633 -21.084)" gradientUnits="userSpaceOnUse"><stop id="stop3244" offset="0" style="stop-color:#f8b17e"/><stop id="stop3246" offset=".262" style="stop-color:#e35d4f"/><stop id="stop3248" offset=".661" style="stop-color:#c6262e"/><stop id="stop3250" offset="1" style="stop-color:#690b54"/></radialGradient><linearGradient id="linearGradient2484" x1="18.379" x2="18.379" y1="44.98" y2="3.082" gradientTransform="matrix(.36857 0 0 .36857 -.84577 -.84577)" gradientUnits="userSpaceOnUse"><stop id="stop2492" offset="0" style="stop-color:#791235"/><stop id="stop2494" offset="1" style="stop-color:#dd3b27"/></linearGradient></defs><g id="layer1"><rect id="rect3580" width="14.989" height="12.971" x="-15.487" y="-14.501" transform="matrix(-1 .0018775 -.00088667 -1 0 0)" style="stroke-opacity:.96863;stroke:#b3b3b3;stroke-linecap:round;fill:url(#linearGradient2401)"/><rect id="rect3582" width="10.98" height="8.956" x="-13.508" y="-12.51" rx="0" ry="0" transform="matrix(-.99999 .0039942 .0022949 -1 0 0)" style="stroke:url(#linearGradient2398);stroke-linecap:round;fill:url(#linearGradient2396)"/></g><g id="g2561" transform="matrix(.59991 0 0 .59991 3.2007 3.2007)"><path id="path2555" d="m8 0.50183c-4.1372 0-7.4982 3.361-7.4982 7.4982 0.00003 4.137 3.361 7.498 7.4982 7.498 4.137 0 7.498-3.361 7.498-7.498 0-4.1372-3.361-7.4982-7.498-7.4982zm0 2.4073c2.813 0 5.091 2.2781 5.091 5.0909 0 1.1805-0.409 2.258-1.083 3.121l-6.4498-7.59c0.7247-0.3965 1.5571-0.6219 2.4418-0.6219zm-4.0773 2.0502l6.4273 7.5557c-0.7033 0.366-1.5022 0.576-2.35 0.576-2.8128 0-5.0909-2.278-5.0909-5.091 0-1.1427 0.3785-2.1914 1.0136-3.0407z" style="stroke-linejoin:round;stroke:url(#linearGradient2484);stroke-linecap:round;stroke-width:1.673;fill:url(#radialGradient2482)"/><path id="path2463" d="m14.5 7.9998c0 3.5902-2.91 6.5002-6.4999 6.5002s-6.5001-2.91-6.5001-6.5002c0-3.5898 2.9102-6.4998 6.5001-6.4998s6.4999 2.91 6.4999 6.4998z" style="opacity:.4;stroke:url(#linearGradient2479);stroke-width:1.6669;fill:none"/><path id="path3270" d="m4.8518 4.2102l6.3842 7.4918" style="opacity:.4;stroke:url(#linearGradient2476);stroke-linecap:round;stroke-width:1.6669px;fill:none"/></g></svg>