<svg xmlns="http://www.w3.org/2000/svg" xmlns:svg="http://www.w3.org/2000/svg" id="svg3196" width="16" height="16" version="1.0"><rect id="rect2388" width="15.09" height="11" x="-15.59" y=".5" rx="1.39" ry="1.515" transform="matrix(0,-1,1,0,0,0)" style="opacity:.4;fill:none;stroke:#606060;stroke-width:1;stroke-linecap:square;stroke-linejoin:miter;stroke-miterlimit:4;stroke-opacity:1;stroke-dasharray:none;stroke-dashoffset:0;marker:none;visibility:visible;display:inline;overflow:visible;enable-background:accumulate"/><path id="path3593" d="m 5.9998875,6 0,0" style="opacity:.4;fill:none;stroke:#606060;stroke-width:2;stroke-linecap:round;stroke-linejoin:miter;stroke-miterlimit:4;stroke-opacity:1;stroke-dasharray:none"/><path id="path3594" d="m 7.5000295,12.000452 a 1.5001421,1.5001421 0 1 1 -3.000284,0 1.5001421,1.5001421 0 1 1 3.000284,0 z" style="opacity:.4;fill:none;stroke:#606060;stroke-width:.99971586;stroke-linecap:round;stroke-linejoin:round;stroke-miterlimit:4;stroke-opacity:1;stroke-dasharray:none"/><path id="path3621" d="m 9.489526,6.0105061 a 3.5001457,3.5001458 0 1 1 -7.0002905,0 3.5001457,3.5001458 0 1 1 7.0002905,0 z" style="opacity:.4;fill:none;stroke:#606060;stroke-width:.99970883;stroke-linecap:round;stroke-linejoin:round;stroke-miterlimit:4;stroke-opacity:1;stroke-dasharray:none"/><path id="path3622" d="m 12,4 0,-3 0,3 z" style="fill:none;stroke:#606060;stroke-width:2;stroke-linecap:round;stroke-linejoin:round;stroke-miterlimit:4;stroke-opacity:1;stroke-dasharray:none"/><path id="path3605" d="m 15,4 0,-3 0,3 z" style="fill:none;stroke:#606060;stroke-width:2;stroke-linecap:round;stroke-linejoin:round;stroke-miterlimit:4;stroke-opacity:1;stroke-dasharray:none"/></svg>