<svg xmlns="http://www.w3.org/2000/svg" xmlns:svg="http://www.w3.org/2000/svg" xmlns:xlink="http://www.w3.org/1999/xlink" id="svg5671" width="16" height="16" version="1.1"><defs id="defs5673"><linearGradient id="linearGradient4510" x1="203.267" x2="203.267" y1="1014.135" y2="1002.401" gradientUnits="userSpaceOnUse" xlink:href="#linearGradient5148"/><linearGradient id="linearGradient5148"><stop id="stop5150" offset="0" style="stop-color:#ffce2c;stop-opacity:1"/><stop id="stop5152" offset="1" style="stop-color:#e06800;stop-opacity:1"/></linearGradient><linearGradient id="linearGradient4512" x1="524" x2="524.049" y1="1003.362" y2="1009.141" gradientTransform="matrix(1.3360899,0,0,1.3360899,-496.09557,-337.21357)" gradientUnits="userSpaceOnUse" xlink:href="#linearGradient4241"/><linearGradient id="linearGradient4241"><stop style="stop-color:#fff;stop-opacity:1" id="stop4243" offset="0"/><stop style="stop-color:#fff;stop-opacity:0" id="stop4245" offset="1"/></linearGradient><linearGradient id="linearGradient5669" x1="524" x2="524.049" y1="1003.362" y2="1009.141" gradientTransform="matrix(1.3360899,0,0,1.3360899,-496.09557,-337.21357)" gradientUnits="userSpaceOnUse" xlink:href="#linearGradient4241"/><linearGradient id="linearGradient3063" x1="524" x2="524.049" y1="1003.362" y2="1009.141" gradientTransform="matrix(1.3360899,0,0,1.3360899,-688.09557,-305.21355)" gradientUnits="userSpaceOnUse" xlink:href="#linearGradient4241"/><linearGradient id="linearGradient3068" x1="203.267" x2="203.267" y1="1014.135" y2="1002.401" gradientTransform="translate(-192,32.000017)" gradientUnits="userSpaceOnUse" xlink:href="#linearGradient5148"/><linearGradient id="linearGradient3081" x1="203.267" x2="203.267" y1="1014.135" y2="1002.401" gradientTransform="translate(-192,32.000017)" gradientUnits="userSpaceOnUse" xlink:href="#linearGradient5148"/><linearGradient id="linearGradient3083" x1="524" x2="524.049" y1="1003.362" y2="1009.141" gradientTransform="matrix(1.3360899,0,0,1.3360899,-688.09557,-305.21355)" gradientUnits="userSpaceOnUse" xlink:href="#linearGradient4241"/></defs><metadata id="metadata5676"/><g id="layer1" transform="translate(0,-1036.3622)"><g id="g3073" transform="translate(-4,4)"><path style="opacity:.05;fill:#000;fill-opacity:1;stroke:none" id="path5063" d="m 11.82222,1033.3924 c -0.77186,0.037 -1.44701,0.515 -1.85399,1.1299 -0.0455,0.1739 -0.25707,0.44 -0.3662,0.6492 -1.81361,3.0185 -3.65149,6.0312 -5.4498,9.0533 -0.42382,1.0085 0.009,2.2614 0.99043,2.8006 0.82196,0.474 1.80745,0.2759 2.72245,0.3184 3.28308,0 6.56617,0 9.84926,0 1.00997,-0.014 1.954,-0.7173 2.20947,-1.6697 0.23849,-0.7236 -0.0232,-1.4753 -0.44599,-2.0799 -1.82384,-3.024 -3.64769,-6.0479 -5.47152,-9.0719 -0.28272,-0.5237 -0.96299,-1.0415 -1.65089,-1.1053 -0.17591,-0.037 -0.35527,-0.022 -0.53322,-0.025 z"/><path id="path5065" d="m 11.79682,1035.375 a 1.3332266,1.2894644 0 0 0 -0.93971,0.6387 l -5.68906,9.4325 a 1.3332266,1.2894644 0 0 0 1.14289,1.916 l 11.37812,0 a 1.3332266,1.2894644 0 0 0 1.14289,-1.916 l -5.68906,-9.4325 a 1.3332266,1.2894644 0 0 0 -1.34607,-0.6387 z" style="opacity:.2;fill:#000;fill-opacity:1;stroke:none"/><path style="fill:url(#linearGradient3081);fill-opacity:1;stroke:none" id="path5067" d="m 11.79682,1034.375 a 1.3332266,1.2894644 0 0 0 -0.93971,0.6387 l -5.68906,9.4325 a 1.3332266,1.2894644 0 0 0 1.14289,1.916 l 11.37812,0 a 1.3332266,1.2894644 0 0 0 1.14289,-1.916 l -5.68906,-9.4325 a 1.3332266,1.2894644 0 0 0 -1.34607,-0.6387 z"/><path style="opacity:.2;fill:#000;fill-opacity:1;stroke:none" id="path5069" d="m 11.78125,1034.375 c -0.78248,0.09 -1.06198,0.8753 -1.43372,1.4484 -1.74885,2.9107 -3.51336,5.8124 -5.25241,8.7286 -0.444,0.8533 0.35862,1.9213 1.29133,1.823 3.81134,0 7.62306,0.01 11.43417,-0.01 0.9254,-0.036 1.54644,-1.1916 1.00404,-1.9631 -1.91539,-3.1702 -3.81669,-6.3494 -5.74091,-9.5139 -0.29341,-0.3991 -0.81638,-0.6001 -1.3025,-0.5169 z m 0.1875,0.9688 c 0.0768,0.031 0.25736,0.045 0.2808,0.124 0.089,0.037 0.18379,0.2993 0.29142,0.442 1.81766,3.025 3.6531,6.0442 5.45964,9.0727 0.039,0.07 0.0307,0.2044 -0.0324,0.2329 -10e-4,0.05 -0.0908,0.1061 -0.1713,0.141 -0.88841,0.033 -1.8004,0 -2.69778,0.014 -2.96008,0 -5.92038,0 -8.88032,0 -0.0925,-0.056 -0.1832,-0.097 -0.1872,-0.155 -0.0631,-0.029 -0.0712,-0.1625 -0.0324,-0.2333 1.88327,-3.1549 3.7946,-6.3008 5.68866,-9.4523 0.0459,-0.088 0.0687,-0.057 0.0936,-0.124 0.049,-0.015 0.20057,-0.023 0.1872,-0.062 z"/><path style="opacity:.2;fill:#fff;fill-opacity:1;stroke:none" id="path5156" d="m 17.625,1044.3438 c -0.83251,0.023 -1.69575,0.018 -2.53125,0.031 l -8.75,0 c -0.11744,0.1962 -0.22651,0.3973 -0.34375,0.5938 -0.0388,0.071 -0.0318,0.221 0.0312,0.25 0.004,0.058 0.095,0.1002 0.1875,0.1562 l 8.875,0 c 0.89738,-0.014 1.83034,0 2.71875,-0.031 0.0805,-0.035 0.15525,-0.075 0.15625,-0.125 0.0631,-0.029 0.0702,-0.18 0.0312,-0.25 -0.1244,-0.2086 -0.25026,-0.4167 -0.375,-0.625 z"/><path style="fill:url(#linearGradient3083);fill-opacity:1;stroke:none" id="path5156-2" d="m 11.97378,1035.3439 c 0.0179,0.052 -0.18506,0.064 -0.25052,0.083 -0.0333,0.089 -0.0641,0.05 -0.12513,0.1671 -0.75369,1.2542 -1.51509,2.5012 -2.27416,3.7496 -1.24674,2.2187 0.84374,2.7109 2.69154,2.7221 1.99659,0.013 3.71987,-0.8435 2.6997,-2.7033 -0.66523,-1.088 -1.333,-2.1741 -1.98996,-3.2674 -0.1438,-0.1905 -0.25687,-0.5351 -0.37578,-0.5844 -0.0312,-0.1053 -0.27316,-0.1251 -0.37576,-0.167 z"/></g></g></svg>