<svg xmlns="http://www.w3.org/2000/svg" xmlns:svg="http://www.w3.org/2000/svg" xmlns:xlink="http://www.w3.org/1999/xlink" id="svg5804" width="16" height="16" version="1.1"><defs id="defs5806"><linearGradient id="linearGradient4514" x1="230" x2="242" y1="1008.362" y2="1008.362" gradientTransform="translate(772.36218,-1084.3622)" gradientUnits="userSpaceOnUse" xlink:href="#linearGradient5693"/><linearGradient id="linearGradient5693"><stop id="stop5695" offset="0" style="stop-color:#bb271c;stop-opacity:1"/><stop id="stop5697" offset="1" style="stop-color:#e55d53;stop-opacity:1"/></linearGradient><linearGradient id="linearGradient4516" x1="231" x2="236" y1="1008.362" y2="1008.362" gradientTransform="matrix(0,1,-1,0,1084.3622,772.36218)" gradientUnits="userSpaceOnUse" xlink:href="#linearGradient4241"/><linearGradient id="linearGradient4241"><stop style="stop-color:#fff;stop-opacity:1" id="stop4243" offset="0"/><stop style="stop-color:#fff;stop-opacity:0" id="stop4245" offset="1"/></linearGradient><linearGradient id="linearGradient3087" x1="231" x2="236" y1="1008.362" y2="1008.362" gradientTransform="matrix(0,1,-1,0,1020.3622,804.3622)" gradientUnits="userSpaceOnUse" xlink:href="#linearGradient4241"/><linearGradient id="linearGradient3091" x1="230" x2="242" y1="1008.362" y2="1008.362" gradientTransform="translate(804.3622,-1020.3622)" gradientUnits="userSpaceOnUse" xlink:href="#linearGradient5693"/><linearGradient id="linearGradient3103" x1="230" x2="242" y1="1008.362" y2="1008.362" gradientTransform="translate(804.3622,-1020.3622)" gradientUnits="userSpaceOnUse" xlink:href="#linearGradient5693"/><linearGradient id="linearGradient3105" x1="231" x2="236" y1="1008.362" y2="1008.362" gradientTransform="matrix(0,1,-1,0,1020.3622,804.3622)" gradientUnits="userSpaceOnUse" xlink:href="#linearGradient4241"/></defs><metadata id="metadata5809"/><g id="layer1" transform="translate(0,-1036.3622)"><path id="path5075" d="m 232,1001.3438 c -1.66338,0 -3.03125,1.3678 -3.03125,3.0312 l 0,8 c 0,1.6634 1.36787,3.0312 3.03125,3.0312 l 8,0 c 1.66338,0 3.03125,-1.3678 3.03125,-3.0312 l 0,-8 c 0,-1.6634 -1.36787,-3.0312 -3.03125,-3.0312 l -8,0 z" transform="translate(-228,36)" style="opacity:.05;color:#000;fill:#000;fill-opacity:1;fill-rule:nonzero;stroke:none;stroke-width:2;marker:none;visibility:visible;display:inline;overflow:visible;enable-background:accumulate"/><g id="g3096" transform="translate(-4,4)"><rect style="opacity:.2;color:#000;fill:#000;fill-opacity:1;fill-rule:nonzero;stroke:none;stroke-width:2;marker:none;visibility:visible;display:inline;overflow:visible;enable-background:accumulate" id="rect5077" width="12" height="12" x="6" y="1035.362" ry="2"/><rect id="rect5079" width="12" height="12" x="1034.362" y="-18" ry="2" transform="matrix(0,1,-1,0,0,0)" style="color:#000;fill:url(#linearGradient3103);fill-opacity:1;fill-rule:nonzero;stroke:none;stroke-width:2;marker:none;visibility:visible;display:inline;overflow:visible;enable-background:accumulate"/><path style="opacity:.2;color:#000;fill:#000;fill-opacity:1;fill-rule:nonzero;stroke:none;stroke-width:2;marker:none;visibility:visible;display:inline;overflow:visible;enable-background:accumulate" id="path5886" d="m 8,1034.375 c -1.108,0 -2,0.892 -2,2 l 0,8 c 0,1.108 0.892,2 2,2 l 8,0 c 1.108,0 2,-0.892 2,-2 l 0,-8 c 0,-1.108 -0.892,-2 -2,-2 l -8,0 z m -0.21875,1 c 0.0663,-0.013 0.14772,0 0.21875,0 l 8,0 c 0.56826,0 1,0.4317 1,1 l 0,8 c 0,0.5683 -0.43174,1 -1,1 l -8,0 c -0.56826,0 -1,-0.4317 -1,-1 l 0,-8 c 0,-0.4972 0.31699,-0.9087 0.78125,-1 z"/><path style="opacity:.7;color:#000;fill:url(#linearGradient3105);fill-opacity:1;fill-rule:nonzero;stroke:none;stroke-width:2;marker:none;visibility:visible;display:inline;overflow:visible;enable-background:accumulate" id="path5880" d="m 8,1035.375 c -0.57142,0 -1,0.4286 -1,1 l 0,0.9768 c -0.26762,2.2906 4,2.0104 5,2.0232 1,0.013 5,0.3654 5,-1.98 l 0,-1.02 c 0,-0.5714 -0.42858,-1 -1,-1 z"/><path style="opacity:.15;color:#000;fill:#fff;fill-opacity:1;fill-rule:nonzero;stroke:none;stroke-width:2;marker:none;visibility:visible;display:inline;overflow:visible;enable-background:accumulate" id="path5892" d="m 7,1043.375 0,1 c 0,0.5683 0.43174,1 1,1 l 8,0 c 0.56826,0 1,-0.4317 1,-1 l 0,-1 c 0,0.5683 -0.43174,1 -1,1 l -8,0 c -0.56826,0 -1,-0.4317 -1,-1 z"/></g></g></svg>