<svg xmlns="http://www.w3.org/2000/svg" xmlns:svg="http://www.w3.org/2000/svg" id="svg2896" width="16" height="16" version="1.1"><g id="layer1" transform="translate(-5.0000001,4.0000077)"><g id="layer1-3" transform="translate(-2,-5.0000002)"><path id="path2805-4-1" d="M 20.391055,5.2783427 A 1.1955726,1.1956467 0 0 0 18.871862,3.6057906" style="fill:none;stroke:#606060;stroke-width:.99997246;stroke-linecap:round;stroke-miterlimit:4;stroke-opacity:1;stroke-dasharray:none;stroke-dashoffset:0;display:inline"/><path id="path2818-0-7" d="M 18.550682,3.6525167 A 3.0946431,3.0948347 0 0 0 12.499984,4.5950054" style="fill:none;stroke:#606060;stroke-width:.99997246;stroke-linecap:round;stroke-miterlimit:4;stroke-opacity:1;stroke-dasharray:none;stroke-dashoffset:0;display:inline"/><path id="path2820-3-5" d="M 12.682649,5.5290141 A 2.3884832,2.388631 0 1 0 10.787811,9.4927302" style="fill:none;stroke:#606060;stroke-width:.99997246;stroke-linecap:round;stroke-miterlimit:4;stroke-opacity:1;stroke-dasharray:none;stroke-dashoffset:0;display:inline"/><path id="path2822-7-7" d="M 20.327675,9.4800042 A 1.9881833,1.9883065 0 1 0 20.446493,5.5296611" style="fill:none;stroke:#606060;stroke-width:.99997252;stroke-linecap:round;stroke-miterlimit:4;stroke-opacity:1;stroke-dasharray:none;stroke-dashoffset:0;display:inline"/><path id="path2823" d="m 6.2746482,10.161972 a 1.161972,1.161972 0 1 1 -2.3239441,0 1.161972,1.161972 0 1 1 2.3239441,0 z" transform="matrix(-0.90254226,0,0,0.90254226,22.614407,3.9603833)" style="fill:#606060;fill-opacity:1;stroke:#606060;stroke-opacity:1"/><path id="path3630" d="m 6.2746482,10.161972 a 1.161972,1.161972 0 1 1 -2.3239441,0 1.161972,1.161972 0 1 1 2.3239441,0 z" transform="matrix(-0.90254226,0,0,0.90254226,19.614406,0.96012456)" style="fill:#606060;fill-opacity:1;stroke:#606060;stroke-opacity:1"/><path id="path3632" d="m 6.2746482,10.161972 a 1.161972,1.161972 0 1 1 -2.3239441,0 1.161972,1.161972 0 1 1 2.3239441,0 z" transform="matrix(-0.90254226,0,0,0.90254226,18.614406,5.9603833)" style="fill:#606060;fill-opacity:1;stroke:#606060;stroke-opacity:1"/><path id="path16154-1" d="m 17.5,9.4999925 3,0 m -9.5,1.37e-5 1.5,-1.37e-5" style="color:#000;fill:none;stroke:#606060;stroke-width:.99995279;stroke-linecap:round;stroke-linejoin:miter;stroke-miterlimit:4;stroke-opacity:1;stroke-dasharray:none;stroke-dashoffset:0;marker:none;visibility:visible;display:inline;overflow:visible;enable-background:accumulate"/></g></g></svg>