<svg xmlns="http://www.w3.org/2000/svg" id="svg2896" width="16" height="16" version="1.1"><g id="layer1" transform="translate(-5 4)"><g id="layer1-3" transform="translate(-2 -5)"><path id="path2805-4-1" d="m20.391 5.2783a1.1956 1.1956 0 0 0 -1.519 -1.6725" style="stroke:#606060;stroke-linecap:round;stroke-width:.99997;fill:none"/><path id="path2818-0-7" d="m18.551 3.6525a3.0946 3.0948 0 0 0 -6.051 0.9425" style="stroke:#606060;stroke-linecap:round;stroke-width:.99997;fill:none"/><path id="path2820-3-5" d="m12.683 5.529a2.3885 2.3886 0 1 0 -1.895 3.9637" style="stroke:#606060;stroke-linecap:round;stroke-width:.99997;fill:none"/><path id="path2822-7-7" d="m20.328 9.48a1.9882 1.9883 0 1 0 0.118 -3.9503" style="stroke:#606060;stroke-linecap:round;stroke-width:.99997;fill:none"/><path id="path16154-1" d="m18.143 9.5h2.3781m-9.5124 0h2.3781" style="stroke-width:.99997;color:#000;stroke:#606060;stroke-linecap:round;fill:none"/><g id="layer3" transform="translate(8 -1)"><path id="path3659" d="m7 14.993h2v2h-2v-2zm0-8v4.007l0.25 1.993h1.5l0.25-1.993v-4.007h-2z" style="fill:#ff0f0f"/></g></g></g></svg>